<svg width="20" height="20" viewBox="0 0 20 20" fill="none" xmlns="http://www.w3.org/2000/svg">
<g clip-path="url(#clip0_1673_3404)">
<path d="M20.0001 12.7696V13.9415C19.8647 14.7227 19.6615 15.4363 19.2761 16.129C16.5469 21.0717 8.96362 19.4311 8.47924 13.8998C8.4532 13.629 8.46362 13.2019 8.47924 12.9207C8.5782 11.3582 9.44278 9.74357 10.6667 8.78003C11.8907 7.81649 11.2761 8.36336 11.5261 8.23316C14.8803 6.45191 19.0001 8.36336 19.8542 12.03L20.0001 12.7644V12.7696ZM13.8647 8.4467C10.0782 8.74357 8.04695 13.0665 10.2501 16.1811C12.2709 19.0404 16.599 18.8738 18.4167 15.8946C20.5001 12.4832 17.8282 8.13941 13.8647 8.4467Z" fill="#140505"/>
<path d="M11.5261 8.23932C11.2761 8.36952 10.8855 8.61432 10.6668 8.78619C10.6199 5.67682 7.76573 3.37473 4.70323 4.04661C1.91156 4.66119 0.250105 7.56223 1.09386 10.3018C2.05219 13.406 5.76573 14.7029 8.48448 12.9268C8.46885 13.2029 8.45844 13.6299 8.48448 13.906C8.08865 14.1456 7.60427 14.3226 7.15636 14.432C4.45844 15.0831 1.66677 13.7445 0.526147 11.2237C0.26573 10.6508 0.151147 10.0622 0.0105221 9.45286C0.0365638 9.06223 -0.0259362 8.62473 0.0105221 8.24452C0.505314 3.01536 7.41677 1.17161 10.4845 5.51536C11.0626 6.33827 11.3647 7.24973 11.5314 8.23932H11.5261Z" fill="#4065D3"/>
<path d="M15.6147 0.827733C16.0106 0.739192 16.2606 1.10898 16.0991 1.47357C15.6408 2.49961 14.797 3.53607 14.3126 4.56732C14.0001 4.9944 13.3699 4.70273 13.5314 4.17669L15.3179 1.07773C15.3804 0.989192 15.5054 0.848567 15.6147 0.827733Z" fill="#4065D3"/>
<path d="M11.052 1.33328C11.2812 1.30724 11.427 1.44266 11.5103 1.64057C11.802 2.32287 11.8801 3.27078 12.1405 3.98432C12.1926 4.4687 11.5312 4.67182 11.3176 4.2187C11.1874 3.47391 10.7864 2.61453 10.6822 1.88537C10.6457 1.61974 10.7707 1.36974 11.052 1.33328Z" fill="#4065D3"/>
<path d="M17.5312 5.08362C18.0156 5.04717 18.1979 5.64612 17.8021 5.90654L15.3698 6.55758C14.8906 6.58883 14.7083 6.00029 15.1094 5.75029L17.5312 5.08362Z" fill="#4065D3"/>
<path d="M13.8647 8.44759C17.8282 8.13509 20.5001 12.4788 18.4168 15.8955C16.5938 18.8799 12.2657 19.0413 10.2501 16.182C8.05217 13.0674 10.0834 8.74446 13.8647 8.44759ZM16.6668 11.8955C16.9897 11.5726 16.698 11.2393 16.3647 11.109C15.7188 10.8538 14.9532 11.0726 14.5626 11.6455C14.3751 11.9215 14.3438 12.2965 14.724 12.3955C15.1459 12.5049 15.1563 12.182 15.3907 12.0049C15.9168 11.609 16.3074 12.2445 16.6615 11.8903L16.6668 11.8955ZM12.224 11.9215C11.7397 11.9893 10.672 12.7445 11.2605 13.2184C11.849 13.6924 11.9376 12.8486 12.3438 12.7809C12.7501 12.7132 13.1095 13.1299 13.3855 12.7288C13.8386 12.0778 12.6824 11.859 12.224 11.9215ZM16.047 13.4424C15.0001 13.583 13.7657 14.1768 12.6928 14.3434C12.1251 14.5257 12.4115 15.1143 12.6303 15.4788C13.5522 17.0049 15.8855 16.807 16.547 15.1559C16.7553 14.6403 16.9428 13.3278 16.0522 13.4476L16.047 13.4424Z" fill="#FEFEFE"/>
<path d="M10.6719 8.78664C9.4479 9.75018 8.58852 11.3648 8.48436 12.9273C5.77082 14.6981 2.05207 13.4064 1.09373 10.3023C0.249984 7.56268 1.91144 4.66164 4.70311 4.04706C7.76561 3.37518 10.625 5.67206 10.6666 8.78664H10.6719ZM4.37498 6.60956C3.99478 6.68768 3.71873 7.61997 4.17707 7.84393C4.89582 8.18768 5.23957 6.43247 4.37498 6.60956ZM7.69269 7.50539C7.30727 7.58351 7.08332 8.50539 7.47915 8.71372C8.08853 9.04185 8.43748 7.85435 8.06769 7.57831C7.6979 7.30226 7.8229 7.47414 7.69269 7.50539ZM4.00519 11.3908C4.96873 12.2866 6.51561 12.146 7.28644 11.0887C8.05727 10.0314 7.94269 10.0523 7.35936 9.81268L3.84373 8.87518C3.27082 8.8231 3.29165 9.71372 3.33332 10.0939C3.38019 10.5366 3.68228 11.0939 4.00519 11.396V11.3908Z" fill="#FEFEFE"/>
<path d="M16.0468 13.4433C16.9375 13.3235 16.75 14.6308 16.5416 15.1516C15.8802 16.8078 13.5468 17.0006 12.625 15.4745C11.7031 13.9485 12.1198 14.5266 12.6875 14.3391C13.7604 14.1724 15 13.5839 16.0416 13.4381L16.0468 13.4433ZM15.8229 14.412L13.401 15.0943C14.1458 16.1047 15.7604 15.6724 15.8229 14.412Z" fill="#140505"/>
<path d="M16.6666 11.8946C16.3124 12.2488 15.9166 11.6133 15.3958 12.0092C14.8749 12.405 15.151 12.5092 14.7291 12.3998C14.3437 12.3008 14.3801 11.9206 14.5676 11.6498C14.9583 11.0769 15.7291 10.8581 16.3697 11.1133C16.703 11.2436 16.9895 11.5769 16.6718 11.8998L16.6666 11.8946Z" fill="#140505"/>
<path d="M12.224 11.9223C12.6771 11.8598 13.8386 12.0786 13.3854 12.7296C13.1094 13.1255 12.7396 12.714 12.3438 12.7817C11.9479 12.8494 11.7448 13.615 11.2604 13.2192C10.7761 12.8234 11.7396 11.99 12.224 11.9223Z" fill="#140505"/>
<path d="M4.0053 11.3902C3.68239 11.0881 3.3803 10.5308 3.33343 10.0881C3.29176 9.70792 3.27093 8.81729 3.84385 8.86938L7.35947 9.80688C7.9428 10.0465 7.54176 10.7288 7.28655 11.0829C6.51572 12.1402 4.96885 12.2808 4.0053 11.385V11.3902ZM6.60947 10.5048L4.1876 9.87979C4.2553 10.7965 5.18239 11.3538 6.04176 11.0152C6.2501 10.9319 6.53655 10.7288 6.60426 10.5048H6.60947Z" fill="#140505"/>
<path d="M4.37496 6.60833C5.23954 6.43124 4.89579 8.18124 4.17704 7.8427C3.7135 7.62395 3.98954 6.68645 4.37496 6.60833Z" fill="#140505"/>
<path d="M7.69278 7.50478C7.82299 7.47874 7.95841 7.49957 8.06778 7.57769C8.43758 7.85374 8.09383 9.04124 7.47924 8.71311C6.86466 8.38499 7.30737 7.5829 7.69278 7.50478Z" fill="#140505"/>
<path d="M15.823 14.4121C15.7605 15.6777 14.1459 16.1048 13.4011 15.0944L15.823 14.4121Z" fill="#FEFEFE"/>
<path d="M6.60929 10.5059C6.53638 10.7298 6.25513 10.9329 6.04679 11.0163C5.18742 11.36 4.26034 10.7975 4.19263 9.88086L6.6145 10.5059H6.60929Z" fill="#FEFEFE"/>
</g>
<defs>
<clipPath id="clip0_1673_3404">
<rect width="20" height="20" fill="white"/>
</clipPath>
</defs>
</svg>
