<svg width="20" height="20" viewBox="0 0 20 20" fill="none" xmlns="http://www.w3.org/2000/svg">
<g clip-path="url(#clip0_1673_299)">
<g clip-path="url(#clip1_1673_299)">
<path d="M18.6355 -0.0410156C19.3491 0.125651 19.8022 0.589193 20.0001 1.28711V3.12044C19.9011 3.56315 19.8334 4.00586 19.698 4.43815C19.1355 6.21419 17.7136 7.70378 15.9897 8.38607C15.7345 8.48503 15.1407 8.61523 14.9636 8.72982C14.7866 8.8444 14.5678 9.29232 14.4532 9.42773C13.7345 10.3079 12.7345 10.9538 11.6459 11.2923C11.6876 11.7246 11.5157 12.4225 11.7657 12.7819C12.0105 13.1361 12.3438 13.0579 12.7032 13.1309C13.8438 13.36 14.1147 14.4382 14.0209 15.4642H14.7813C14.9011 15.4642 15.1928 15.6725 15.1928 15.7975V19.0996H16.073C16.0991 19.0996 16.2501 19.2038 16.2813 19.2402C16.4949 19.4902 16.3647 19.8236 16.0886 19.959H3.90634C3.64072 19.8236 3.50009 19.5059 3.70843 19.2454C3.91676 18.985 3.91155 19.0996 3.92197 19.0996H4.80218V15.8392C4.81259 15.6673 5.05738 15.4642 5.21363 15.4642H5.97405C5.92718 14.61 6.0053 13.7454 6.83343 13.2923C7.24488 13.0684 7.77613 13.1673 8.08343 12.9382C8.54697 12.5944 8.30218 11.7871 8.35426 11.2871C7.26572 10.9486 6.27093 10.3079 5.54697 9.42253C4.82301 8.53711 5.15113 8.80794 5.03655 8.7194C4.86468 8.58919 4.03655 8.37565 3.75009 8.25065C2.15113 7.54232 0.849051 6.13086 0.312593 4.46419C-0.223865 2.79753 0.109468 3.58919 9.30242e-05 3.1569V1.25065C0.125093 0.990234 0.19801 0.755859 0.390718 0.526693C0.583426 0.297526 0.937593 0.125651 1.29176 -0.0410156H18.6355ZM3.67197 0.818359H1.46363C1.44801 0.818359 1.22926 0.917318 1.19801 0.943359C1.01572 1.06315 0.88551 1.28711 0.859468 1.50586C0.781343 2.17773 0.869885 3.21419 1.03655 3.87044C1.47926 5.61523 2.79176 7.01107 4.47405 7.62044L3.67197 0.823568V0.818359ZM15.4688 0.818359H4.53134L5.16155 6.53711C5.45843 8.3444 6.67718 9.76107 8.3803 10.3913C8.78655 10.5423 9.1928 10.4642 9.2553 11.0007C9.39072 12.1465 9.30739 13.6621 7.9428 13.9329C7.59384 14.0059 7.27093 13.9329 7.02093 14.2611C6.77093 14.5892 6.8803 14.5007 6.8803 14.5111V15.4694H13.1303V14.5111C13.1303 14.4954 13.0105 14.2871 12.9897 14.2611C12.7397 13.9329 12.4168 14.0059 12.0678 13.9329C11.5522 13.8288 11.0366 13.4173 10.8647 12.9121C10.7241 12.4954 10.6928 11.4017 10.7501 10.959C10.8074 10.5163 11.2605 10.5267 11.6251 10.3913C13.3282 9.75586 14.5418 8.34961 14.8438 6.53711L15.4741 0.818359H15.4688ZM15.4688 7.65169C17.5366 6.95378 19.0105 4.9694 19.1407 2.79232C19.1616 2.45898 19.1824 1.74023 19.1303 1.43294C19.0782 1.12565 18.7761 0.854818 18.4584 0.818359C17.797 0.745443 17.0053 0.875651 16.3282 0.818359L15.7397 6.33919L15.4741 7.65169H15.4688ZM14.3334 16.3236H5.66676V19.0944H14.3386V16.3236H14.3334Z" fill="#140505"/>
<path d="M18.6355 -0.0410156H20.0001V1.28711C19.797 0.589193 19.349 0.125651 18.6355 -0.0410156Z" fill="#FEFEFE"/>
<path d="M1.29167 -0.0410156C0.942708 0.125651 0.651042 0.214193 0.390625 0.526693C0.130208 0.839193 0.125 0.985026 0 1.25065V-0.0410156H1.29167Z" fill="#FEFEFE"/>
<path d="M15.4688 0.818359L14.8386 6.53711C14.5417 8.34961 13.323 9.75586 11.6199 10.3913C9.91675 11.0267 10.8074 10.4798 10.7449 10.959C10.6824 11.4382 10.7188 12.4954 10.8595 12.9121C11.0313 13.4173 11.547 13.8288 12.0626 13.9329C12.5782 14.0371 12.7345 13.9329 12.9845 14.2611C13.0053 14.2871 13.1251 14.5007 13.1251 14.5111V15.4694H6.87508V14.5111C6.87508 14.4954 6.99487 14.2871 7.01571 14.2611C7.26571 13.9329 7.58862 14.0059 7.93758 13.9329C9.30737 13.6569 9.39071 12.1465 9.25008 11.0007C9.18758 10.4642 8.78133 10.5423 8.37508 10.3913C6.67716 9.76107 5.45321 8.3444 5.15633 6.53711L4.52612 0.818359H15.4636H15.4688ZM9.91154 2.34961C9.85425 2.36003 9.79696 2.38607 9.74487 2.41732C9.48446 2.5944 9.21362 3.52148 8.98446 3.80273C8.85425 3.91211 7.82821 3.9694 7.56779 4.02669C7.30737 4.08398 7.10946 4.31315 7.20321 4.60482C7.29696 4.89648 8.13029 5.44857 8.31258 5.72461C8.39591 6.00586 8.073 6.85482 8.08862 7.19857C8.10425 7.54232 8.38029 7.66732 8.67196 7.5944C9.02091 7.50065 9.52612 7.09961 9.89071 6.97982C10.2553 6.86003 9.96883 6.94336 10.0157 6.94857C10.5574 7.06836 11.6824 8.18294 11.9115 7.19857C11.9115 6.86003 11.6042 6.00065 11.6876 5.72461C11.7709 5.44857 12.5782 4.94336 12.7345 4.70378C12.8907 4.46419 12.8386 4.2819 12.6772 4.13607C12.4324 3.91732 11.3855 3.95378 11.0365 3.82357C10.7813 3.54753 10.4949 2.50586 10.1772 2.38086C9.85946 2.25586 10.0105 2.33919 9.91154 2.35482V2.34961Z" fill="#FEFEFE"/>
<path d="M14.3386 16.3223H5.66675V19.0931H14.3386V16.3223Z" fill="#FEFEFE"/>
<path d="M9.91148 2.34967C10.0104 2.33405 10.0834 2.33926 10.1771 2.37572C10.4948 2.50072 10.7813 3.54238 11.0365 3.81842C11.3854 3.95384 12.4271 3.91217 12.6771 4.13092C12.9271 4.34967 12.849 4.52155 12.7344 4.69863C12.6198 4.87572 11.7344 5.57363 11.6875 5.71947C11.6042 5.99551 11.9115 6.85488 11.9115 7.19342C11.6823 8.1778 10.5625 7.06322 10.0157 6.94342C9.96878 6.93301 9.93232 6.95905 9.89065 6.97467C9.52086 7.09447 9.02086 7.50072 8.6719 7.58926C8.38023 7.66738 8.09898 7.51113 8.08857 7.19342C8.07815 6.87572 8.39586 6.00072 8.31253 5.71947C8.13023 5.44342 7.29169 4.87051 7.20315 4.59967C7.11461 4.32884 7.29169 4.08926 7.56773 4.02155C7.84378 3.95384 8.85419 3.90176 8.9844 3.79759C9.21357 3.51634 9.4844 2.58926 9.74482 2.41217C10.0052 2.23509 9.84898 2.35488 9.91148 2.34447V2.34967ZM10.0365 3.75072C9.94794 3.72988 9.97398 3.76113 9.94794 3.8028C9.81253 4.01634 9.68753 4.4903 9.46357 4.60488C9.23961 4.71947 8.83857 4.68822 8.58857 4.76634C8.56253 4.8028 9.15628 5.3028 9.19794 5.4278C9.28648 5.71947 9.11461 6.11009 9.09898 6.40697C9.38544 6.35488 9.69794 6.02155 9.97919 6.01634C10.2604 6.01113 10.6094 6.33405 10.8959 6.40697C10.8802 6.11009 10.7084 5.71947 10.7969 5.4278C10.8854 5.13613 11.4323 4.8028 11.4063 4.76634C11.1459 4.6778 10.7344 4.72467 10.5104 4.58926C10.2865 4.45384 10.1459 3.96947 10.0417 3.75072H10.0365Z" fill="#4065D3"/>
<path d="M10.0365 3.75032C10.1407 3.96907 10.3074 4.46907 10.5053 4.58886C10.7032 4.70866 11.1459 4.67741 11.4011 4.76595C11.4272 4.80241 10.8334 5.30241 10.7918 5.42741C10.7032 5.71907 10.8751 6.1097 10.8907 6.40657C10.6043 6.33366 10.2761 6.00553 9.97404 6.01595C9.67196 6.02636 9.38029 6.35449 9.09384 6.40657C9.10946 6.1097 9.28134 5.71907 9.19279 5.42741C9.10425 5.13574 8.55738 4.80241 8.58342 4.76595C8.83342 4.68782 9.22925 4.72428 9.45842 4.60449C9.68759 4.4847 9.80217 4.01074 9.94279 3.80241C10.0834 3.59407 9.9428 3.7347 10.0313 3.75032H10.0365Z" fill="#FEFEFE"/>
</g>
</g>
<defs>
<clipPath id="clip0_1673_299">
<rect width="20" height="20" fill="white"/>
</clipPath>
<clipPath id="clip1_1673_299">
<rect width="20" height="20" fill="white" transform="translate(0 -0.0410156)"/>
</clipPath>
</defs>
</svg>
