<svg width="40" height="40" viewBox="0 0 40 40" fill="none" xmlns="http://www.w3.org/2000/svg">
<g clip-path="url(#clip0_1328_29405)">
<path d="M21.0212 0.000651042C21.542 0.136068 22.0733 0.198568 22.6045 0.333984C26.5108 1.35482 29.6566 5.0319 29.9379 9.0944C30.2295 13.459 29.7087 18.1361 29.9379 22.5319C31.417 24.5423 32.3025 26.6361 32.4379 29.1777C32.5733 31.7194 32.5733 34.084 32.4379 36.1361C32.3025 38.1777 31.1462 39.5319 29.1566 40.0007H27.9066C27.5733 39.8236 27.2087 39.7611 26.865 39.5944C24.9691 38.6882 22.5733 36.9694 20.7295 35.8132C18.8858 34.6569 20.2816 35.4694 20.042 35.3236L13.167 39.5944L11.9691 40.0007H10.7191C8.81288 39.3965 7.71913 38.1673 7.59413 36.1361C7.45871 34.084 7.48996 31.2402 7.59413 29.1777C7.6983 27.1152 8.61496 24.5527 10.0941 22.5319C10.3233 18.1361 9.80246 13.459 10.0941 9.0944C10.365 5.05273 13.4795 1.38607 17.365 0.344401L18.8441 -0.00976562H21.0316L21.0212 0.000651042ZM28.1983 21.0111V9.25065C27.0525 -0.770182 12.8441 -0.697266 11.792 9.32357V21.0111C13.167 19.9902 14.7504 19.3652 16.4066 19.0111C16.4275 18.9382 16.4275 17.5527 16.4066 17.4694C16.3858 17.3861 15.5525 16.709 15.3858 16.5215C14.5212 15.5111 13.99 14.1777 13.8962 12.8548C13.8233 11.7402 13.792 9.80273 13.8962 8.70898C14.0212 7.42773 15.2608 7.88607 16.1983 7.80273C17.1358 7.7194 17.99 7.38607 18.5941 6.76107C19.1983 6.13607 19.2816 5.41732 19.9691 5.39648C20.6566 5.37565 20.9379 6.2819 21.365 6.7194C21.99 7.36523 22.99 7.74023 23.865 7.81315C24.7712 7.88607 25.9691 7.43815 26.0941 8.70898C26.1983 9.80273 26.167 11.7402 26.0941 12.8548C26.0108 14.2402 25.4275 15.6986 24.49 16.7194C23.5525 17.7402 23.6462 17.4069 23.6045 17.5527C23.49 17.9277 23.6566 18.5944 23.5837 19.0111C25.24 19.3757 26.8337 19.9902 28.1983 21.0111ZM24.3754 9.5319C22.7295 9.5944 21.1775 9.00065 20.0316 7.82357C18.8025 8.95898 17.3337 9.61523 15.6254 9.5319C15.667 11.8652 15.2087 14.1465 17.1462 15.8652C19.0837 17.584 21.9795 17.2298 23.5004 15.1882C25.0212 13.1465 24.292 11.5111 24.3754 9.5319ZM21.8754 18.4382C20.5837 18.7298 19.417 18.7298 18.1254 18.4382C18.1462 18.6673 18.0837 18.959 18.1254 19.1777C18.167 19.3965 19.6462 21.1048 19.8441 21.2923C20.042 21.4798 19.9379 21.4277 20.0316 21.4069L21.8337 19.3027L21.8754 18.4486V18.4382ZM17.1775 20.7194L15.7087 20.9382C15.7608 21.2507 16.6566 23.2402 16.7712 23.2715C17.0212 23.3444 18.2712 22.584 18.5941 22.459L17.1775 20.7194ZM24.3025 20.9382L22.8337 20.7194L21.417 22.5007L23.24 23.2819C23.417 23.0527 24.3962 21.0319 24.3025 20.9486V20.9382ZM30.7087 30.3132C30.6775 29.3444 30.6462 28.3757 30.4379 27.4173C29.99 25.3444 28.615 23.3444 26.865 22.1673C25.115 20.9902 26.167 21.6986 26.0316 21.6673C25.8962 21.6361 25.7816 21.9694 25.7295 22.0736C25.3337 22.9069 24.917 24.1152 24.4587 24.8652C24.1879 25.3027 23.7816 25.3965 23.292 25.2715L19.9795 23.7507L16.7295 25.2715C16.24 25.3965 15.8441 25.3027 15.5629 24.8652L14.0316 21.6465C12.1358 22.6465 10.5629 24.4069 9.84413 26.4382C9.12538 28.4694 9.33371 28.9694 9.30246 30.3027H12.2712V28.2298C12.2712 28.1673 12.542 27.7819 12.6254 27.7194C12.9066 27.5215 13.3129 27.5007 13.6045 27.6882C13.8962 27.8757 14.0004 28.084 14.0004 28.1569V32.334C14.5525 32.2715 15.0941 31.9486 15.6254 31.7715C15.74 30.9798 15.7087 30.0423 15.99 29.2819C16.49 27.9277 17.9275 27.1361 19.3441 27.334C19.5837 27.3652 19.8441 27.5736 20.0525 27.5632C20.2608 27.5527 20.4587 27.3652 20.6879 27.334C21.9066 27.1569 23.1879 27.7402 23.8025 28.8132C24.417 29.8861 24.292 30.7715 24.4066 31.7611C24.9587 31.9069 25.4691 32.2715 26.042 32.3132V28.1361C26.042 28.0632 26.3441 27.7298 26.4379 27.6673C26.7295 27.4798 27.1358 27.5007 27.417 27.6986C27.6983 27.8965 27.7712 28.1465 27.7712 28.209V30.2819H30.74L30.7087 30.3132ZM9.29205 32.0319V36.209C9.29205 37.1257 10.1045 38.084 11.0108 38.2402C11.917 38.3965 12.0525 38.1986 12.6254 37.8965C14.5941 36.8757 16.5004 35.3548 18.4691 34.2923C18.8441 33.9798 19.0837 33.6673 19.1358 33.1569C19.1879 32.6465 19.2191 29.2923 19.1045 29.1257C18.8129 28.709 17.8337 29.4069 17.6358 29.7819C17.2504 30.5215 17.542 32.5423 16.9795 33.0319L13.2295 34.5215C12.9066 34.6465 12.2608 34.1465 12.2608 33.8652V32.0319H9.29205ZM27.7295 32.0319V33.8652C27.7295 34.1465 27.0837 34.6465 26.7608 34.5215L23.0108 33.0319C22.2504 32.3861 23.0629 30.0007 21.8129 29.2298C21.5629 29.0736 20.917 28.8861 20.8441 29.2507C20.9275 30.4902 20.7295 31.8652 20.8441 33.084C20.9587 34.3027 21.0212 33.8548 21.3025 34.1361C23.3129 35.2715 25.2816 36.7923 27.3129 37.8757C27.8962 38.1882 28.2816 38.3652 28.9795 38.2507C29.8858 38.0944 30.6983 37.1361 30.6983 36.2194V32.0423H27.7295V32.0319Z" fill="#140505"/>
<path d="M39.9997 12.6564V13.1252C39.7393 13.7918 38.9893 13.7814 38.4372 14.0939C37.9997 14.3439 37.5935 14.7397 37.3331 15.1772C36.9581 15.8022 36.9685 16.8335 36.0622 16.8022C35.156 16.771 35.2497 15.9377 34.9685 15.3856C34.6872 14.8335 34.1351 14.2918 33.6039 14.021C33.0726 13.7502 32.2081 13.7397 32.1872 12.9272C32.156 12.021 33.1768 12.0314 33.8122 11.6564C34.4476 11.2814 34.7081 10.9064 34.9685 10.396C35.2289 9.88558 35.3226 8.76057 36.3331 9.02099C37.3435 9.28141 36.9581 9.92724 37.2081 10.4168C37.4581 10.9064 38.0831 11.5418 38.6247 11.8127C39.1664 12.0835 39.7289 12.0314 40.0101 12.6564H39.9997ZM36.1664 11.8752C36.031 11.7814 35.7914 12.2085 35.6976 12.3022C35.4997 12.5002 35.3018 12.6877 35.0726 12.8543C35.1664 12.9897 36.031 13.9272 36.1247 13.9064L37.1039 12.8543C36.7497 12.5939 36.3435 12.271 36.1664 11.8752Z" fill="#4065D3"/>
<path d="M0 19.2179V18.7491C0.260417 18.1241 0.770833 18.197 1.28125 17.9575C1.79167 17.7179 2.51042 17.0825 2.80208 16.5095C3.09375 15.9366 3.05208 15.2804 3.67708 15.1137C4.75 14.8325 4.76042 16.0512 5.14583 16.697C5.38542 17.1033 5.79167 17.5095 6.19792 17.7491C6.78125 18.0929 7.79167 18.145 7.82292 18.947C7.85417 19.8637 6.90625 19.8325 6.3125 20.1762C5.71875 20.52 5.23958 21.0825 5.02083 21.5408C4.80208 21.9991 4.76042 22.8845 3.95833 22.9054C3.15625 22.9262 3.0625 21.9158 2.6875 21.2804C2.3125 20.645 2.02083 20.447 1.58333 20.197C1.14583 19.947 0.28125 19.895 0.0208333 19.2283L0 19.2179ZM4.40625 19.4783C4.51042 19.3741 4.96875 19.1033 4.92708 18.947C4.88542 18.7908 4.41667 18.5095 4.30208 18.395C4.0625 18.1554 3.94792 17.6762 3.71875 18.197L2.89583 19.0095C3.15625 19.072 3.80208 19.9679 3.875 19.9887C4.04167 20.0304 4.30208 19.572 4.40625 19.4679V19.4783Z" fill="#4065D3"/>
<path d="M28.1982 21.0112C26.8337 19.9903 25.2503 19.3653 23.5837 19.0112C23.6566 18.5945 23.4899 17.9278 23.6045 17.5528C23.7191 17.1778 24.3128 16.907 24.4899 16.7195C25.4274 15.6987 26.0107 14.2403 26.0941 12.8549C26.167 11.7403 26.1982 9.79242 26.0941 8.70908C25.9691 7.43825 24.7712 7.88617 23.8649 7.81325C22.9795 7.75075 21.9795 7.36533 21.3649 6.7195C20.9378 6.282 20.6982 5.36533 19.9691 5.39658C19.2399 5.42783 19.0212 6.33408 18.5941 6.76117C17.9899 7.37575 17.0524 7.72992 16.1982 7.80283C15.3441 7.87575 14.0212 7.42783 13.8962 8.70908C13.792 9.80283 13.8232 11.7403 13.8962 12.8549C13.9899 14.1883 14.5212 15.5216 15.3857 16.5216C16.2503 17.5216 16.3857 17.407 16.4066 17.4695C16.4274 17.532 16.4274 18.9278 16.4066 19.0112C14.7503 19.3653 13.1566 19.9903 11.792 21.0112V9.32367C12.8441 -0.697166 27.0524 -0.770082 28.1982 9.25075V21.0112Z" fill="#FEFEFE"/>
<path d="M30.708 30.3119H27.7393V28.239C27.7393 28.1765 27.4684 27.7911 27.3851 27.7286C27.1038 27.5306 26.6976 27.5098 26.4059 27.6973C26.1143 27.8848 26.0101 28.0931 26.0101 28.1661V32.3431C25.4476 32.2911 24.9372 31.9265 24.3747 31.7911C24.2601 30.7911 24.2809 29.739 23.7705 28.8431C23.2601 27.9473 21.8851 27.1869 20.6559 27.364C19.4268 27.5411 20.1872 27.5827 20.0205 27.5931C19.8538 27.6036 19.5622 27.4056 19.3122 27.364C17.8955 27.1661 16.458 27.9577 15.958 29.3119C15.458 30.6661 15.708 30.9994 15.5934 31.8015C15.0518 31.9786 14.5205 32.3015 13.9684 32.364V28.1869C13.9684 28.114 13.6663 27.7806 13.5726 27.7181C13.2809 27.5306 12.8747 27.5515 12.5934 27.7494C12.3122 27.9473 12.2393 28.1973 12.2393 28.2598V30.3327H9.27051C9.31217 28.9994 9.37467 27.739 9.81217 26.4681C10.5309 24.4369 12.0934 22.6765 13.9997 21.6765L15.5309 24.8952C15.8122 25.3223 16.1976 25.4265 16.6976 25.3015L19.9476 23.7806L23.2601 25.3015C23.7393 25.4265 24.1559 25.3327 24.4268 24.8952C24.8851 24.1556 25.3018 22.9369 25.6976 22.1036C26.0934 21.2702 25.8643 21.6556 25.9997 21.6973C26.1351 21.739 26.6768 22.0931 26.833 22.1973C28.583 23.3744 29.958 25.3744 30.4059 27.4473C30.6143 28.3952 30.6455 29.364 30.6768 30.3431L30.708 30.3119Z" fill="#FEFEFE"/>
<path d="M24.3748 9.5306C24.2915 11.4993 24.7603 13.4889 23.4998 15.1868C22.2394 16.8848 19.0728 17.5723 17.1457 15.8639C15.2186 14.1556 15.6665 11.8639 15.6248 9.5306C17.3332 9.61393 18.8019 8.94727 20.0311 7.82227C21.1769 8.99935 22.729 9.5931 24.3748 9.5306ZM18.2603 12.6764C17.8957 12.7493 17.604 13.1139 17.5727 13.4785C17.5102 14.3118 18.9478 15.0514 19.6665 15.1348C20.7498 15.2702 23.2498 14.2181 22.3019 12.9681C21.5623 11.9993 20.7915 13.4264 20.0415 13.4368C19.2915 13.4473 19.0311 12.5202 18.2603 12.6764Z" fill="#FEFEFE"/>
<path d="M9.29199 32.0308H12.2607V33.8642C12.2607 34.1454 12.9066 34.6454 13.2295 34.5204L16.9795 33.0308C17.542 32.5517 17.2607 30.5204 17.6357 29.7808C17.8232 29.4058 18.8128 28.7079 19.1045 29.1246C19.3962 29.5412 19.1878 32.7287 19.1357 33.1558C19.0837 33.5829 18.8441 33.9683 18.4691 34.2912C16.5003 35.3537 14.5941 36.8746 12.6253 37.8954C12.0524 38.1975 11.6774 38.3537 11.0107 38.2392C10.3441 38.1246 9.29199 37.1246 9.29199 36.2079V32.0308Z" fill="#FEFEFE"/>
<path d="M27.7288 32.0313H30.6975V36.2083C30.6975 37.125 29.885 38.0833 28.9788 38.2396C28.2809 38.3646 27.8954 38.1875 27.3121 37.8646C25.2809 36.7813 23.3225 35.2604 21.3017 34.125C21.0204 33.8438 20.885 33.4688 20.8434 33.0729C20.7288 31.8542 20.9267 30.4792 20.8434 29.2396C20.9163 28.8646 21.5517 29.0521 21.8121 29.2188C23.0621 29.9896 22.2496 32.375 23.01 33.0208L26.76 34.5104C27.0829 34.6354 27.7288 34.1354 27.7288 33.8542V32.0208V32.0313Z" fill="#FEFEFE"/>
<path d="M21.875 18.4382L21.8334 19.2923L20.0313 21.3965C19.9375 21.4173 19.8959 21.334 19.8438 21.2819C19.6459 21.0944 18.1563 19.3027 18.125 19.1673C18.0834 18.9486 18.1459 18.6569 18.125 18.4277C19.4167 18.7194 20.5834 18.7194 21.875 18.4277V18.4382Z" fill="#FEFEFE"/>
<path d="M17.1768 20.7188L18.5934 22.4583C18.2705 22.5833 17.0205 23.3438 16.7705 23.2708C16.5205 23.1979 15.7497 21.25 15.708 20.9375L17.1768 20.7188Z" fill="#FEFEFE"/>
<path d="M24.3024 20.9382C24.3962 21.0319 23.4066 23.0423 23.2399 23.2715L21.417 22.4902L22.8337 20.709L24.3024 20.9277V20.9382Z" fill="#FEFEFE"/>
<path d="M6.07329 0.801302C7.17746 0.572135 7.09412 1.63464 7.48996 2.32214C7.88579 3.00964 8.18787 3.19714 8.62537 3.45755C9.27121 3.83255 10.5316 3.90547 10.167 4.96797C9.80246 6.03047 9.18787 5.56172 8.65662 5.87422C8.12537 6.18672 7.68787 6.6763 7.43787 7.15547C7.18787 7.63463 7.13579 8.59297 6.29204 8.59297C5.52121 8.59297 5.45871 7.71797 5.18787 7.18672C4.91704 6.65547 4.41704 6.1138 3.83371 5.81172C3.25037 5.50963 2.39621 5.46797 2.37537 4.70755C2.35454 3.94714 3.20871 3.8638 3.78162 3.57214C4.35454 3.28047 4.97954 2.58255 5.31287 1.89505C5.64621 1.20755 5.46912 0.915885 6.08371 0.790885L6.07329 0.801302ZM6.40662 3.6763C6.31287 3.6138 5.33371 4.59297 5.32329 4.66588C5.30246 4.79088 6.18787 5.49922 6.29204 5.70755C6.46912 5.46797 7.23996 4.89505 7.27121 4.65547C7.30246 4.50964 7.12537 4.52005 7.03162 4.4263C6.81287 4.21797 6.50037 3.95755 6.40662 3.6763Z" fill="#4065D3"/>
<path d="M36.167 11.8756C36.3441 12.2715 36.7503 12.5944 37.1045 12.8548L36.1253 13.9069C36.0316 13.9277 35.167 12.9902 35.0732 12.8548C35.3024 12.6986 35.5003 12.5111 35.6982 12.3027C35.8962 12.0944 36.0212 11.7715 36.167 11.8756Z" fill="#FEFEFE"/>
<path d="M4.40592 19.4789C4.30176 19.5831 4.03092 20.0414 3.87467 19.9998C3.71842 19.9581 3.15592 19.0831 2.89551 19.0206L3.71842 18.2081C3.94759 17.6873 4.06217 18.1664 4.30176 18.406C4.54134 18.6456 4.91634 18.9164 4.92676 18.9581C4.96842 19.1248 4.51009 19.3852 4.40592 19.4894V19.4789Z" fill="#FEFEFE"/>
<path d="M18.2604 12.6781C19.0313 12.5323 19.2188 13.4489 20.0417 13.4385C20.8646 13.4281 21.5729 12.001 22.3021 12.9698C23.25 14.2198 20.7604 15.2719 19.6667 15.1364C18.5729 15.001 17.5104 14.3135 17.5729 13.4802C17.6354 12.6469 17.8959 12.751 18.2604 12.6781Z" fill="#140505"/>
<path d="M6.40596 3.67685C6.49971 3.9581 6.81221 4.2081 7.03096 4.42685C7.24971 4.6456 7.30179 4.51018 7.27054 4.65601C7.23929 4.8956 6.46846 5.46851 6.29138 5.7081C6.18721 5.49976 5.30179 4.79143 5.32263 4.66643C5.34346 4.54143 6.31221 3.61435 6.40596 3.67685Z" fill="#FEFEFE"/>
</g>
<defs>
<clipPath id="clip0_1328_29405">
<rect width="40" height="40" fill="white"/>
</clipPath>
</defs>
</svg>
