<svg width="20" height="20" viewBox="0 0 20 20" fill="none" xmlns="http://www.w3.org/2000/svg">
<g clip-path="url(#clip0_1673_7271)">
<path d="M20.0001 6.68774V12.4273L19.7501 12.6617L17.2865 13.4013L16.5313 14.5575C16.6459 14.745 16.8178 14.8492 16.922 15.0523C17.4063 15.9742 16.6876 17.0419 15.6667 16.9534C15.5886 17.6409 14.9376 18.0888 14.2605 18.0471C14.099 18.8909 13.2501 19.2815 12.4636 19.0211C12.1147 19.9221 10.9897 20.0888 10.297 19.4482C10.0417 19.7138 9.77612 19.9169 9.41154 19.9898H8.90112C8.51571 19.8075 8.1355 19.6148 8.00008 19.1721C7.21362 19.4325 6.36467 19.0315 6.20321 18.1982C5.50008 18.2346 4.85425 17.7346 4.79696 17.0263C3.86466 17.0523 3.23446 16.1357 3.55737 15.2555C3.88029 14.3752 3.83342 14.8492 3.81779 14.7867C3.78133 14.6461 2.91675 13.943 2.78654 13.745C2.03133 13.3961 1.00529 13.3127 0.265706 12.9846C0.135498 12.9273 0.0782064 12.8284 -0.00512695 12.7294V6.98983C0.119873 6.78149 0.250081 6.65128 0.510498 6.68774L9.66154 9.37524C12.8647 8.18774 16.2136 7.40129 19.474 6.37524C19.7345 6.33878 19.8699 6.46899 19.9897 6.67733L20.0001 6.68774ZM19.1407 7.39087L11.4532 9.64608C10.3647 9.90128 9.22404 10.5627 8.55217 11.4742C7.88029 12.3857 8.53654 12.37 9.02092 12.219C9.50529 12.068 9.90633 11.2919 10.172 11.1044C10.6355 10.7815 10.7917 11.2034 11.0938 11.4325C11.6407 11.844 12.3751 11.9065 12.9897 11.62C13.6042 11.3336 13.4011 11.2815 13.6147 11.2763C13.8282 11.2711 14.1147 11.5419 14.0522 11.8232C13.9897 12.1044 13.922 11.969 13.9584 12.0471C14.2136 12.2346 15.7397 13.9221 15.8751 13.9221C16.0105 13.9221 15.9376 13.8857 15.9688 13.8544C16.3126 13.4898 16.4897 12.7555 17.0001 12.5784L19.1407 11.9638V7.39608V7.39087ZM0.859456 7.70337V12.2711L3.16675 12.9534C3.39071 13.0627 4.34904 14.1877 4.47404 14.1877C4.90633 13.8961 5.17717 13.3596 5.69279 13.1773C6.55217 12.8805 7.41675 13.5159 7.42717 14.4117C8.073 14.5107 8.55737 15.0055 8.573 15.6669C9.31779 15.7815 9.79696 16.3544 9.78654 17.1096C10.3803 17.2607 10.8074 17.7502 10.8282 18.3752C10.8386 18.6305 10.698 18.693 10.9845 18.8805C11.2709 19.068 11.7813 18.8336 11.6772 18.3857C11.6511 18.2763 11.5365 18.219 11.5053 18.1252C11.4324 17.8961 11.4949 17.6617 11.724 17.5575C12.297 17.2919 12.5313 18.4013 13.1303 18.2242C13.3022 18.1721 13.4376 17.969 13.4324 17.7919C13.4324 17.4117 12.6615 17.0419 12.5886 16.693C12.5157 16.344 12.8855 16.0471 13.2188 16.219C13.5522 16.3909 13.9376 17.0784 14.2553 17.1721C14.573 17.2659 14.8438 17.0263 14.8386 16.7398C14.8334 16.4221 14.0261 15.8336 13.8074 15.5523C13.4845 15.1357 13.8282 14.6617 14.3126 14.8544C14.6355 15.068 15.3074 15.995 15.6251 16.0784C16.1042 16.2034 16.3959 15.719 16.0782 15.3544L13.1824 12.4742C12.2345 12.8492 11.2605 12.6305 10.4584 12.0419C10.0105 12.4065 9.67717 13.0263 9.04696 13.094C7.79175 13.2242 7.11467 11.8909 7.89592 10.9273C8.11467 10.6565 8.53133 10.37 8.71362 10.1044C8.89592 9.83879 8.76571 10.068 8.75008 10.0055L0.859456 7.70337ZM6.08342 13.9586C6.0105 13.9638 5.90112 14.0211 5.83862 14.068C5.66154 14.193 4.55216 15.3023 4.43758 15.4742C4.14071 15.9221 4.60946 16.3857 5.07821 16.0732C5.23967 15.9638 6.35425 14.8492 6.46362 14.6877C6.68237 14.3596 6.46362 13.9221 6.08342 13.9586ZM7.60425 15.4065C7.48967 15.2867 7.29696 15.2502 7.1355 15.2867C6.8855 15.344 5.98446 16.4586 5.70842 16.6669C5.5105 17.1669 5.96362 17.5367 6.40633 17.2086C6.823 16.9013 7.23967 16.2971 7.65112 15.9534C7.72925 15.8023 7.72925 15.5367 7.60425 15.4065ZM7.16154 18.2711C7.35425 18.4742 7.60946 18.4221 7.81258 18.2659C8.01571 18.1096 8.72404 17.3961 8.823 17.245C9.09904 16.7971 8.60946 16.344 8.16675 16.6669C8.03654 16.7607 7.18758 17.6096 7.11987 17.7294C7.0105 17.9117 7.01571 18.12 7.16675 18.2763L7.16154 18.2711ZM8.88029 19.0107C9.30737 19.4638 10.3074 18.5159 9.80737 18.068C9.30737 17.62 9.08342 18.1357 8.8855 18.4013C8.68758 18.6669 8.70321 18.8232 8.8855 19.0159L8.88029 19.0107Z" fill="#140505"/>
<path d="M10.4688 0.0110918C14.375 0.448592 15.2656 5.96943 11.599 7.56318C7.41147 9.38609 3.98959 3.82359 7.47918 0.906925C8.06772 0.417342 8.75522 0.177758 9.48959 0.00588343C9.80209 0.0319251 10.1615 -0.0305749 10.4688 0.00588343V0.0110918ZM9.67709 0.880883C7.34897 1.10484 6.10418 3.84443 7.47918 5.74547C8.83334 7.61526 11.7031 7.41734 12.7448 5.35484C13.849 3.16213 12.1042 0.646508 9.67709 0.880883Z" fill="#4065D3"/>
<path d="M0.859375 7.70312L8.75 10.0052C8.76563 10.0625 8.73438 10.0677 8.71354 10.1042C8.53125 10.3698 8.11458 10.6563 7.89583 10.9271C7.11458 11.8906 7.79167 13.2188 9.04688 13.0938C10.3021 12.9688 10.0104 12.4115 10.4583 12.0417C11.2604 12.6302 12.2344 12.849 13.1823 12.474L16.0781 15.3542C16.3958 15.7188 16.1042 16.2031 15.625 16.0781C15.3073 15.9948 14.6354 15.0625 14.3125 14.8542C13.8281 14.6615 13.4844 15.1354 13.8073 15.5521C14.026 15.8333 14.8333 16.4219 14.8385 16.7396C14.8385 17.026 14.526 17.25 14.2552 17.1719C13.9844 17.0938 13.5052 16.3646 13.2188 16.2188C12.9323 16.0729 12.5104 16.3229 12.5885 16.6927C12.6667 17.0625 13.4271 17.4167 13.4323 17.7917C13.4375 18.1667 13.2969 18.1719 13.1302 18.224C12.526 18.401 12.2917 17.2969 11.724 17.5573C11.1563 17.8177 11.4375 17.8958 11.5052 18.125C11.5729 18.3542 11.651 18.276 11.6771 18.3854C11.7812 18.8333 11.3802 19.1458 10.9844 18.8802C10.5885 18.6146 10.8385 18.6302 10.8281 18.375C10.8073 17.75 10.3854 17.2604 9.78646 17.1094C9.79688 16.3542 9.31771 15.7812 8.57292 15.6667C8.55729 15.0052 8.07292 14.5104 7.42708 14.4115C7.41667 13.5104 6.55208 12.8802 5.69271 13.1771C5.17188 13.3542 4.90625 13.8906 4.47396 14.1875C4.34896 14.1875 3.39062 13.0677 3.16667 12.9531L0.859375 12.2708V7.70312Z" fill="#FEFEFE"/>
<path d="M19.1407 7.38997V11.9577L17.0001 12.5723C16.4948 12.7493 16.3126 13.4837 15.9688 13.8483C15.6251 14.2129 15.9376 13.916 15.8751 13.916C15.7396 13.916 14.2136 12.2285 13.9584 12.041C13.9219 11.9629 14.0313 11.9108 14.0521 11.8171C14.1198 11.5358 13.9063 11.265 13.6146 11.2702C13.323 11.2754 13.1876 11.5202 12.9896 11.6139C12.3751 11.9056 11.6355 11.8431 11.0938 11.4264C10.7917 11.1973 10.6355 10.7754 10.1719 11.0983C9.9063 11.2858 9.23964 12.1452 9.02089 12.2129C8.53651 12.3639 8.25005 11.8743 8.55214 11.4681C9.2188 10.5566 10.3646 9.90039 11.4532 9.63997L19.1407 7.38477V7.38997Z" fill="#FEFEFE"/>
<path d="M6.08325 13.9586C6.46346 13.9274 6.68221 14.3597 6.46346 14.6878C6.35408 14.8493 5.2395 15.9638 5.07804 16.0732C4.60929 16.3857 4.14054 15.9222 4.43741 15.4743C4.552 15.2972 5.66137 14.193 5.83846 14.068C6.01554 13.943 6.00512 13.9691 6.08325 13.9586Z" fill="#FEFEFE"/>
<path d="M7.60412 15.4067C7.72912 15.537 7.72912 15.8026 7.65099 15.9536C7.23954 16.2974 6.82287 16.9015 6.4062 17.2088C5.95829 17.537 5.51037 17.162 5.70829 16.6672C5.98433 16.4588 6.89058 15.3442 7.13537 15.287C7.29162 15.2505 7.48954 15.287 7.60412 15.4067Z" fill="#FEFEFE"/>
<path d="M7.16138 18.2707C7.01034 18.1144 7.00513 17.9061 7.11451 17.7238C7.22388 17.5415 8.03117 16.7603 8.16138 16.6613C8.60409 16.3384 9.09888 16.7967 8.81763 17.2394C8.72388 17.3905 7.96867 18.1405 7.80721 18.2603C7.64576 18.38 7.34888 18.4686 7.15617 18.2655L7.16138 18.2707Z" fill="#FEFEFE"/>
<path d="M8.88015 19.011C8.70307 18.8235 8.74474 18.5891 8.88015 18.3964C9.01557 18.2037 9.4739 17.7714 9.80203 18.0631C10.302 18.5162 9.30203 19.4641 8.87495 19.0058L8.88015 19.011Z" fill="#FEFEFE"/>
<path d="M9.677 0.880462C12.1093 0.646087 13.8541 3.16171 12.7447 5.35442C11.703 7.41692 8.83325 7.61484 7.47908 5.74505C6.10408 3.844 7.34887 1.10442 9.677 0.880462ZM10.4322 2.1565C10.4062 2.12525 10.4739 1.8388 10.2707 1.67213C10.0676 1.50546 9.66137 1.5888 9.58845 1.88567C9.51554 2.18255 9.58845 2.19817 9.56241 2.23463C9.53637 2.27109 9.45304 2.26588 9.41658 2.30234C8.77075 2.8388 8.76033 3.76067 9.50512 4.20338C10.2499 4.64609 10.3332 4.43255 10.1666 4.81275C9.99991 5.19296 9.64575 4.81275 9.41137 4.8388C9.177 4.86484 8.92179 5.23984 9.09887 5.50546C9.27595 5.77109 9.54158 5.73984 9.56241 5.76067C9.58325 5.7815 9.56241 5.93255 9.57283 6.00025C9.65616 6.344 10.0937 6.4638 10.3228 6.18255C10.552 5.9013 10.3853 5.75025 10.427 5.68255C10.4687 5.61484 10.5364 5.6513 10.5728 5.61484C11.2135 5.08359 11.2291 4.1565 10.4843 3.7138C9.7395 3.27109 9.65616 3.48463 9.82283 3.10442C9.9895 2.72421 10.2135 3.0263 10.401 3.05234C10.9322 3.13567 11.1874 2.55755 10.7187 2.26588C10.2499 1.97421 10.4322 2.16171 10.4218 2.1513L10.4322 2.1565Z" fill="#FEFEFE"/>
<path d="M10.4323 2.15519C10.4427 2.16561 10.651 2.2229 10.7292 2.26977C11.1979 2.56144 10.9427 3.13956 10.4115 3.05623C10.224 3.02498 9.96876 2.79581 9.83334 3.10831C9.69792 3.42081 10.2448 3.57186 10.4948 3.71769C11.2396 4.15519 11.224 5.08227 10.5833 5.61873C9.94271 6.15519 10.4427 5.67081 10.4375 5.68644C10.3958 5.75415 10.4844 5.99894 10.3333 6.18644C10.1042 6.46769 9.66667 6.3479 9.58334 6.00415C9.50001 5.6604 9.58334 5.7854 9.57292 5.76456C9.56251 5.74373 9.22396 5.68123 9.10938 5.50936C8.9323 5.24373 9.10938 4.88436 9.42188 4.84269C9.73438 4.80102 10.0208 5.17081 10.1771 4.81665C10.3333 4.46248 9.76563 4.35311 9.51563 4.20727C8.77084 3.76977 8.78125 2.84269 9.42709 2.30623C10.0729 1.76977 9.56771 2.25415 9.57292 2.23852C9.59376 2.20206 9.57292 1.99373 9.59896 1.88956C9.67188 1.59269 10.0469 1.48852 10.2813 1.67602C10.5156 1.86352 10.4167 2.12394 10.4427 2.1604L10.4323 2.15519Z" fill="#4065D3"/>
</g>
<defs>
<clipPath id="clip0_1673_7271">
<rect width="20" height="20" fill="white"/>
</clipPath>
</defs>
</svg>
