<svg width="20" height="20" viewBox="0 0 20 20" fill="none" xmlns="http://www.w3.org/2000/svg">
<g clip-path="url(#clip0_1673_378)">
<g clip-path="url(#clip1_1673_378)">
<path d="M16.0938 -0.0410156C16.25 0.0527344 16.4063 0.208984 16.4063 0.406901V4.72461H18.4584C18.6563 4.72461 18.8125 5.11523 18.7917 5.28711V18.2559C18.7292 19.1517 18.2761 19.7559 17.3854 19.9538H2.54169C1.88023 19.7559 1.35419 19.2767 1.25524 18.5684V0.365234C1.23961 0.167318 1.39586 0.0683594 1.52607 -0.0410156H16.099H16.0938ZM15.5104 0.818359H2.1094V18.5319C2.1094 18.7402 2.55211 19.0996 2.75523 19.0996H15.7032C15.6407 18.9329 15.5052 18.6257 15.5052 18.4538V0.818359H15.5104ZM17.8907 5.58398H16.3698V18.3392C16.3698 18.36 16.4271 18.5892 16.4375 18.6204C16.625 19.11 17.2448 19.2402 17.6459 18.9173C18.0469 18.5944 17.8907 18.61 17.8907 18.5736V5.58398Z" fill="#140505"/>
<path d="M15.5104 0.818359V18.4538C15.5104 18.6257 15.6458 18.9329 15.7083 19.0996H2.75521C2.55208 19.0996 2.10938 18.7402 2.10938 18.5319V0.818359H15.5052H15.5104ZM3.72396 7.91211C3.76562 7.95378 3.85417 7.99023 3.90625 8.02669L13.5781 8.04753C13.9271 8.0319 14 7.7819 14.026 7.47982C13.9375 5.99544 14.1406 4.37565 14.026 2.9069C14.0052 2.60482 13.9271 2.35482 13.5781 2.33919C10.349 2.36523 7.10417 2.29753 3.88021 2.37044C3.64583 2.4694 3.61458 2.67773 3.59375 2.9069C3.47917 4.37565 3.6875 5.99544 3.59375 7.47982C3.61458 7.62565 3.625 7.80273 3.72396 7.91211ZM13.8906 10.2975C14.125 10.0527 13.9531 9.59961 13.6146 9.56836H4.00521C3.57292 9.62044 3.47396 10.2298 3.88021 10.3965C7.15104 10.459 10.4427 10.4329 13.7135 10.4121C13.7656 10.3757 13.8542 10.3444 13.8958 10.2975H13.8906ZM3.93229 11.959C3.54688 12.1152 3.51562 12.5736 3.875 12.7819C7.15104 12.8288 10.4583 12.8288 13.7396 12.7819C14.1302 12.5632 14.0469 12.0319 13.6146 11.9538L3.93229 11.9642V11.959ZM3.93229 14.3444C3.80208 14.4017 3.64583 14.5215 3.63021 14.6673C3.52604 15.4434 3.71354 16.4486 3.63021 17.2507C3.65104 17.4121 3.86458 17.5944 4.04167 17.584C5.18229 17.4954 6.47917 17.6934 7.59896 17.584C8.71875 17.4746 8.01562 17.4329 8.04688 17.1725C8.10938 16.6517 8.09896 15.3184 8.04688 14.7871C7.99479 14.2559 7.94271 14.4329 7.73438 14.36L3.93229 14.3496V14.3444ZM13.8906 14.4642C13.8333 14.4017 13.6979 14.3392 13.6146 14.334C12.474 14.4382 11.0938 14.1986 9.97917 14.334C9.4375 14.4017 9.4375 15.1204 9.94271 15.1882H13.6146C13.9635 15.1777 14.1198 14.7038 13.8906 14.4642ZM9.91146 16.7246C9.44271 16.8652 9.46354 17.4642 9.94271 17.5736H13.6146C14.099 17.485 14.1198 16.8548 13.651 16.7194H9.91146V16.7246Z" fill="#FEFEFE"/>
<path d="M17.8907 5.58398V18.5736C17.8907 18.6152 17.698 18.8757 17.6459 18.9173C17.2449 19.2402 16.6199 19.11 16.4376 18.6204C16.4272 18.5892 16.3699 18.3548 16.3699 18.3392V5.58398H17.8907Z" fill="#FEFEFE"/>
<path d="M3.72398 7.91123C3.61981 7.80185 3.61461 7.61956 3.59377 7.47894C3.68752 5.99456 3.47919 4.37477 3.59377 2.90602C3.70836 1.43727 3.64586 2.46852 3.88023 2.36956C7.10419 2.29664 10.349 2.35914 13.5781 2.33831C13.9271 2.35394 14.0052 2.60394 14.0261 2.90602C14.1406 4.37477 13.9375 5.99456 14.0261 7.47894C14 7.78102 13.9271 8.03102 13.5781 8.04664L3.90627 8.02581C3.85419 7.98935 3.76565 7.9581 3.72398 7.91123ZM13.125 3.19769H4.48961V7.18206H13.125V3.19769Z" fill="#4065D3"/>
<path d="M3.93217 14.3431L7.73425 14.3535C7.94259 14.4264 8.02592 14.5671 8.04675 14.7806C8.09884 15.3118 8.10925 16.6452 8.04675 17.166C7.98425 17.6868 7.84884 17.5514 7.59884 17.5775C6.47384 17.6868 5.18217 17.4889 4.04155 17.5775C3.86967 17.5879 3.65092 17.4056 3.63009 17.2441C3.71342 16.4421 3.52592 15.4368 3.63009 14.6608C3.65092 14.515 3.80196 14.3952 3.93217 14.3379V14.3431ZM7.18738 15.1921H4.48946V16.7129H7.18738V15.1921Z" fill="#4065D3"/>
<path d="M13.8906 10.2975C13.8489 10.3392 13.7656 10.3757 13.7083 10.4121C10.4374 10.4329 7.14057 10.459 3.87494 10.3965C3.46869 10.2298 3.56765 9.62044 3.99994 9.56836H13.6093C13.9479 9.59961 14.1197 10.0527 13.8854 10.2975H13.8906Z" fill="#140505"/>
<path d="M3.93222 11.9577L13.6145 11.9473C14.052 12.0306 14.1301 12.5618 13.7395 12.7754C10.4635 12.8223 7.15618 12.8223 3.87493 12.7754C3.51555 12.5671 3.5468 12.1087 3.93222 11.9525V11.9577Z" fill="#4065D3"/>
<path d="M13.8907 14.4639C14.1199 14.7035 13.9637 15.1774 13.6147 15.1931H9.94283C9.43762 15.1149 9.43762 14.3962 9.97929 14.3337C11.0939 14.1983 12.4741 14.4379 13.6147 14.3337C13.7032 14.3389 13.8335 14.4066 13.8907 14.4639Z" fill="#140505"/>
<path d="M9.9114 16.7246H13.651C14.1197 16.8548 14.1041 17.485 13.6145 17.5736H9.94265C9.46348 17.459 9.44265 16.8652 9.9114 16.7246Z" fill="#4065D3"/>
<path d="M13.1249 3.19727H4.4895V7.18164H13.1249V3.19727Z" fill="#FEFEFE"/>
<path d="M7.18742 15.1934H4.4895V16.7142H7.18742V15.1934Z" fill="#FEFEFE"/>
</g>
</g>
<defs>
<clipPath id="clip0_1673_378">
<rect width="20" height="20" fill="white"/>
</clipPath>
<clipPath id="clip1_1673_378">
<rect width="20" height="20" fill="white" transform="translate(0 -0.0410156)"/>
</clipPath>
</defs>
</svg>
