<svg width="50" height="50" viewBox="0 0 50 50" fill="none" xmlns="http://www.w3.org/2000/svg">
<g clip-path="url(#clip0_1328_29184)">
<path d="M20.2348 0L22.9692 0.442708C31.6801 2.20052 39.3363 10.1562 36.589 19.5312C33.8416 28.9062 33.8285 25 31.4848 27.0182C31.4457 27.1875 31.5629 27.3828 31.615 27.5391C32.253 29.401 34.5577 32.3568 32.5916 33.9844C31.6931 34.7266 30.7426 34.4401 29.714 34.2318C27.5395 33.8021 25.5343 32.9948 23.5681 31.9792C22.7999 31.5755 22.5134 31.1068 21.5759 31.1458C20.1306 31.2109 18.7765 31.4193 17.2791 31.3411C10.4952 30.9766 3.16448 26.875 0.859788 20.2344C0.469163 19.1146 0.286871 17.9557 0.0524964 16.7969C0.10458 16.0417 -0.0126078 15.1953 0.0524964 14.4531C0.651455 7.83854 6.54989 2.5 12.6957 0.807292L16.8103 0H20.2218H20.2348ZM31.2634 32.3177C31.2895 32.1745 31.2374 32.0833 31.1853 31.9531C30.6645 30.5208 29.3624 28.3854 29.0629 27.0443C28.8025 25.8594 29.9483 25.5078 30.6775 24.8437C41.003 15.3646 31.5499 2.76042 19.5968 2.13542C10.4301 1.66667 -0.442295 8.85417 2.73479 19.1146C5.35198 27.5521 16.016 30.651 23.8676 28.4896C24.9223 28.2031 27.865 26.6016 27.6567 28.8542C27.5655 29.9088 25.964 29.8568 25.365 30.2734C24.766 30.6901 25.2869 30.3906 25.365 30.4687C25.5603 30.6901 27.9301 31.5365 28.3728 31.6667C29.3233 31.9531 30.2999 32.1354 31.2765 32.3177H31.2634Z" fill="#4065D3"/>
<path d="M50.0001 22.5519V23.9191C48.7501 28.1639 46.3803 32.1743 43.8282 35.768C41.0418 39.7003 37.3829 43.7368 33.6459 46.7706C32.0183 48.0857 30.1824 49.492 28.1381 49.9998H26.4845C25.8334 49.7784 25.2475 49.6092 24.6355 49.2576C23.8543 48.8019 21.4584 46.9399 20.8595 46.2888C20.2605 45.6378 20.0392 44.6352 20.4298 43.8019C21.9402 41.979 23.3725 39.8045 24.961 38.0727C26.5496 36.3409 26.5756 36.7706 27.7475 37.2394C28.9194 37.7081 30.6642 39.7915 31.2241 39.8305C31.784 39.8696 31.4845 39.7915 31.5886 39.7264C34.6876 36.0415 37.6433 32.2394 40.6772 28.5024C40.8204 28.1639 40.7293 27.8904 40.4819 27.63C39.1407 26.1847 35.8985 25.1821 37.461 22.5519C39.0366 20.8722 40.3647 18.6066 41.9402 16.979C43.5157 15.3514 43.8543 15.8852 44.909 16.5493C46.1459 17.3175 48.9584 19.7133 49.5183 21.0154L49.9871 22.5519H50.0001ZM43.5548 18.3592L39.2709 23.8019C40.1694 24.9477 42.6433 26.0154 42.8647 27.604C43.086 29.1925 42.9168 29.0623 42.5652 29.6352L33.2032 41.2758C30.6381 43.3461 28.7892 40.5857 26.823 39.2836L22.4871 44.7133C22.4741 44.8696 22.7084 45.0258 22.8126 45.13C23.4636 45.742 25.6902 47.5258 26.4454 47.7472C28.1511 48.2159 29.336 47.2654 30.6511 46.354C36.81 42.0441 43.4506 33.7628 46.5886 26.9529C47.2397 25.5336 48.1642 23.7107 47.6173 22.1743C47.2267 21.0415 45.0782 19.4139 44.0756 18.6847C43.073 17.9555 43.6459 18.3201 43.5418 18.3852L43.5548 18.3592Z" fill="#140505"/>
<path d="M43.5551 18.36C43.6463 18.2949 43.9848 18.5814 44.089 18.6595C45.1046 19.3887 47.24 21.0163 47.6306 22.1491C48.1645 23.6855 47.253 25.5215 46.602 26.9277C43.4509 33.7376 36.8103 42.0189 30.6645 46.3288C29.3494 47.2533 28.1645 48.1908 26.4588 47.722C24.753 47.2533 23.464 45.7168 22.8259 45.1048C22.1879 44.4928 22.4874 44.8444 22.5004 44.6882L26.8364 39.2585C28.8025 40.5605 30.6515 43.334 33.2166 41.2506L42.5785 29.61C42.9301 29.0501 42.9692 28.2298 42.878 27.5788C42.6567 25.9902 40.1827 24.9355 39.2843 23.7767L43.5681 18.334L43.5551 18.36Z" fill="#FEFEFE"/>
<path d="M14.1534 16.132C15.5076 15.8195 15.4685 17.2779 16.1847 17.968C17.3565 19.1138 19.4138 19.0096 20.3774 17.6685C21.3409 16.3273 20.8331 15.8716 22.1352 16.119C23.4373 16.3664 22.3565 18.8143 21.7055 19.4784C19.3748 21.8612 15.0388 21.1971 13.6847 18.1242C13.3852 17.4471 13.1768 16.3534 14.1664 16.119L14.1534 16.132Z" fill="#140505"/>
<path d="M26.1458 13.9065C27.1744 14.9742 25.5077 16.4586 24.5572 15.4429C23.6067 14.4273 25.1952 12.9169 26.1458 13.9065Z" fill="#140505"/>
<path d="M10.638 13.593C12.2135 13.2936 12.5651 15.8196 10.8073 15.7285C9.51821 15.6634 9.53123 13.8014 10.638 13.593Z" fill="#140505"/>
</g>
<defs>
<clipPath id="clip0_1328_29184">
<rect width="50" height="50" fill="white"/>
</clipPath>
</defs>
</svg>
