<svg width="20" height="20" viewBox="0 0 20 20" fill="none" xmlns="http://www.w3.org/2000/svg">
<g clip-path="url(#clip0_1673_3125)">
<path d="M14.1772 0C14.8542 0.135417 15.4636 0.546875 15.7345 1.19792C16.0053 1.84896 15.8959 1.65104 15.8959 1.73958V6.25H18.6876C18.8282 6.25 19.0417 6.51042 19.0209 6.66146C18.9011 8.23958 19.1824 10.0625 19.0105 11.6094C18.922 12.3906 18.1095 13.3594 17.2813 13.3594H12.7709V19.6667C12.7709 19.7865 12.5678 19.9531 12.4584 20H12.1876L10.9949 19.1406L9.72403 20H9.4532L8.26049 19.1406L6.98966 20H6.71883L5.52612 19.1406L4.25528 20H3.98445L2.79174 19.1406L1.52091 20H1.25008C1.09383 19.8802 0.968826 19.7656 0.974034 19.5521V1.81771C1.07299 0.875 1.75528 0.208333 2.65633 0H14.1772ZM12.2657 0.859375H2.79174C2.42716 0.859375 1.83341 1.45312 1.83341 1.81771V18.7135C2.14591 18.599 2.47924 18.1354 2.82299 18.1667C3.16674 18.1979 3.79174 18.901 4.15112 19.0156C4.30216 19 5.05216 18.3385 5.27612 18.2292C5.35945 18.1875 5.43237 18.1615 5.52612 18.1667C5.86987 18.1771 6.53133 18.901 6.8907 19.0208C7.04174 19.0052 7.79174 18.3438 8.0157 18.2344C8.09903 18.1927 8.17195 18.1667 8.2657 18.1719C8.60945 18.1823 9.27091 18.9062 9.63028 19.026C9.78133 19.0104 10.5313 18.349 10.7553 18.2396C11.2136 18.0104 11.5365 18.5625 11.922 18.724V1.73958C11.922 1.6875 12.0209 1.35417 12.047 1.28125C12.099 1.13542 12.1876 0.994792 12.2709 0.864583L12.2657 0.859375ZM15.3907 12.5C15.1824 12.2083 15.0782 11.8594 15.0365 11.5052L15.0209 1.79688C14.8595 0.979167 13.9011 0.5625 13.224 1.09896C12.547 1.63542 12.7761 1.59896 12.7761 1.82292V12.5052H15.3907V12.5ZM18.1667 7.10938H15.9011V11.5417C15.9011 12.0417 16.5782 12.5104 17.0522 12.5C17.5105 12.4948 18.1667 12.0208 18.1667 11.5417V7.10938Z" fill="#140505"/>
<path d="M12.2656 0.859375C12.1823 0.989583 12.0938 1.13021 12.0417 1.27604C11.9896 1.42188 11.9167 1.68229 11.9167 1.73437V18.7083C11.5313 18.5469 11.2083 17.9948 10.75 18.224C10.526 18.3333 9.77604 19 9.625 19.0104C9.26563 18.8906 8.60938 18.1667 8.26042 18.1562C7.91146 18.1458 8.09375 18.1823 8.01042 18.2187C7.78646 18.3281 7.03646 18.9948 6.88542 19.0052C6.52604 18.8854 5.86979 18.1615 5.52083 18.151C5.17188 18.1406 5.35417 18.1771 5.27083 18.2135C5.04688 18.3229 4.29688 18.9896 4.14583 19C3.79167 18.8854 3.15104 18.1823 2.81771 18.151C2.48438 18.1198 2.14062 18.5833 1.82812 18.6979V1.81771C1.82812 1.45313 2.42188 0.859375 2.78646 0.859375H12.2604H12.2656ZM7.30729 2.38021C7.26042 2.32812 7.39583 2.02604 7.125 1.83854C6.85417 1.65104 6.54167 1.76562 6.45833 2.03125C6.375 2.29688 6.46875 2.40625 6.43229 2.45833C6.39583 2.51042 6.22917 2.55208 6.16667 2.60417C5.48958 3.15625 5.65625 4.18229 6.38542 4.60417C6.67708 4.77604 7.23958 4.79688 7.09375 5.28646C6.94792 5.77604 6.55729 5.38021 6.375 5.35417C5.84896 5.27604 5.65104 5.89062 6.04688 6.15104C6.44271 6.41146 6.41667 6.28125 6.42708 6.29688C6.47396 6.34896 6.33333 6.67187 6.63021 6.85937C6.92708 7.04687 7.24479 6.85937 7.28646 6.54687C7.32812 6.23437 7.27083 6.26562 7.29688 6.22396C7.32292 6.18229 7.59375 6.06771 7.71354 5.91667C8.19792 5.29167 8.01563 4.46875 7.34375 4.07812C7.05208 3.90625 6.48958 3.88542 6.63542 3.39583C6.78125 2.90625 7.27604 3.35417 7.50521 3.33333C7.92188 3.29688 8.01562 2.76042 7.67708 2.53646C7.33854 2.3125 7.30729 2.40625 7.29688 2.39062L7.30729 2.38021ZM3.27083 8.21354C2.78646 8.34896 2.83333 9.00521 3.33854 9.0625H10.4115C10.9531 8.99479 10.9531 8.26562 10.4115 8.20312L3.27083 8.21354ZM3.27083 10.1667C2.80208 10.3073 2.82292 10.9062 3.30208 11.0156H6.89583C7.41667 10.9583 7.44271 10.2708 6.93229 10.1615H3.27083V10.1667ZM3.27083 12.1198C2.78646 12.2552 2.83333 12.9115 3.33854 12.9688H10.4115C10.9531 12.901 10.9531 12.1719 10.4115 12.1094L3.27083 12.1198ZM3.27083 14.0729C2.80208 14.2135 2.82292 14.8125 3.30208 14.9219H6.89583C7.41667 14.8646 7.44271 14.1771 6.93229 14.0677H3.27083V14.0729ZM3.27083 16.026C2.78646 16.1615 2.83333 16.8177 3.33854 16.875H10.4115C10.9531 16.8073 10.9531 16.0781 10.4115 16.0156L3.27083 16.026Z" fill="#FEFEFE"/>
<path d="M15.3907 12.499H12.7761V1.81666C12.7761 1.59791 13.0522 1.22812 13.224 1.09271C13.9063 0.561455 14.8595 0.978122 15.0209 1.79062L15.0365 11.499C15.0782 11.8531 15.1772 12.2021 15.3907 12.4937V12.499Z" fill="#FEFEFE"/>
<path d="M18.1667 7.10938V11.5417C18.1667 12.0208 17.5157 12.4948 17.0522 12.5C16.5782 12.5052 15.9011 12.0365 15.9011 11.5417V7.10938H18.1667Z" fill="#FEFEFE"/>
<path d="M3.27085 8.21354L10.4115 8.20312C10.9531 8.27083 10.9531 9 10.4115 9.0625H3.33856C2.83335 9 2.78648 8.34896 3.27085 8.21354Z" fill="#4065D3"/>
<path d="M3.27085 12.1198L10.4115 12.1094C10.9531 12.1771 10.9531 12.9062 10.4115 12.9688H3.33856C2.83335 12.9062 2.78648 12.2552 3.27085 12.1198Z" fill="#4065D3"/>
<path d="M3.27085 16.026L10.4115 16.0156C10.9531 16.0833 10.9531 16.8125 10.4115 16.875H3.33856C2.83335 16.8125 2.78648 16.1615 3.27085 16.026Z" fill="#4065D3"/>
<path d="M7.30726 2.38098C7.32288 2.39661 7.61976 2.47994 7.68747 2.52682C8.02601 2.75078 7.93226 3.28723 7.51559 3.32369C7.09893 3.36015 6.76038 3.00598 6.6458 3.38619C6.53122 3.7664 7.05726 3.90182 7.35413 4.06848C8.03122 4.45911 8.2083 5.28723 7.72393 5.90703C7.23955 6.52682 7.32288 6.18828 7.30726 6.21432C7.28122 6.25598 7.30726 6.4539 7.29684 6.53723C7.24997 6.84973 6.90622 7.02161 6.64059 6.84973C6.37497 6.67786 6.48434 6.33932 6.43747 6.28723C6.39059 6.23515 6.12497 6.18828 6.05726 6.1414C5.66143 5.88098 5.85413 5.27161 6.38538 5.34453C6.91663 5.41744 6.99476 5.63619 7.10413 5.27682C7.21351 4.91744 6.69268 4.76119 6.3958 4.59453C5.66663 4.17265 5.49997 3.14661 6.17705 2.59453C6.85413 2.04244 6.43226 2.45911 6.44268 2.44869C6.47393 2.39661 6.42705 2.14661 6.46872 2.02161C6.55205 1.75598 6.91143 1.66744 7.13538 1.8289C7.35934 1.99036 7.2708 2.31848 7.31768 2.37057L7.30726 2.38098Z" fill="#140505"/>
<path d="M3.27078 10.166H6.93223C7.44265 10.2702 7.42182 10.9525 6.89578 11.015H3.30203C2.82286 10.9004 2.80203 10.3066 3.27078 10.166Z" fill="#4065D3"/>
<path d="M3.27078 14.0723H6.93223C7.44265 14.1764 7.42182 14.8587 6.89578 14.9212H3.30203C2.82286 14.8066 2.80203 14.2129 3.27078 14.0723Z" fill="#4065D3"/>
</g>
<defs>
<clipPath id="clip0_1673_3125">
<rect width="20" height="20" fill="white"/>
</clipPath>
</defs>
</svg>
