<svg width="70" height="70" viewBox="0 0 70 70" fill="none" xmlns="http://www.w3.org/2000/svg">
<g clip-path="url(#clip0_1351_25457)">
<g clip-path="url(#clip1_1351_25457)">
<path d="M0 66.1714C1.02083 60.3016 4.83073 54.9787 10.5182 52.9005C7.29167 50.3302 5.39583 46.6662 6.03385 42.4552C7.23698 34.4344 16.5703 30.5698 23.0781 35.4735C28.9844 39.9214 28.5651 48.6531 22.6771 52.8823C27.6354 54.6323 31.6094 59.299 32.8125 64.4214C34.0156 69.5438 33.8698 69.0151 31.4271 69.8354H1.64062C0.856771 69.3432 0.255208 68.8328 0 67.9214V66.1349V66.1714ZM15.5495 36.4031C12.3958 36.7677 9.60677 39.5203 9.0599 42.6193C7.83854 49.5281 15.8594 54.4682 21.3828 50.0386C27.5078 45.1349 23.3333 35.5099 15.5495 36.4031ZM30.2057 66.8459C28.9844 57.0568 18.3203 51.5334 9.66146 56.6193C6.08854 58.7156 3.39062 62.6714 3.13542 66.8459H30.1875H30.2057Z" fill="#4065D3"/>
<path d="M52.6093 -0.146484C53.7942 0.145182 54.9974 0.272786 56.164 0.600911C62.3437 2.36914 67.4114 7.528 69.1796 13.6895C69.5078 14.8561 69.6901 16.041 69.9635 17.2077C69.8724 18.5384 70.0911 20.015 69.9635 21.3092C68.7604 33.8874 55.1432 41.9447 43.4583 37.0957C42.6015 36.7311 41.8177 36.2389 40.9244 35.929C37.6979 38.8639 31.5729 38.6452 28.8203 35.1816C27.125 33.0671 29.677 32.5749 30.9349 31.554C31.7734 30.8796 33.3046 28.9655 33.4505 27.89C33.5963 26.8145 32.7395 25.9941 32.5572 25.429C28.7838 13.89 36.4765 0.929037 48.7812 -0.146484H52.6093ZM32.5208 34.3066C34.4895 35.2546 36.677 35.2363 38.5 33.9238C40.3229 32.6113 39.8125 32.3014 40.9244 32.3743C42.0364 32.4473 43.3125 33.7233 44.0416 34.0514C59.7916 41.0514 73.9921 22.0749 63.2552 8.80404C51.9166 -5.21419 29.276 7.30924 35.7291 25.265C36.0208 26.0853 36.677 26.9056 36.6041 27.7806C36.3854 30.1504 34.2526 32.7936 32.5208 34.2884V34.3066Z" fill="#140505"/>
<path d="M1.64063 69.8535H0V67.9395C0.255208 68.8509 0.856771 69.3613 1.64063 69.8535Z" fill="#FEFEFE"/>
<path d="M30.2061 66.8449H3.13574C3.39095 62.6704 6.08887 58.7147 9.66178 56.6184C18.3024 51.5324 28.9847 57.0559 30.2061 66.8449Z" fill="#FEFEFE"/>
<path d="M15.5498 36.4039C23.3337 35.5107 27.5081 45.1175 21.3831 50.0393C15.8597 54.469 7.83886 49.5289 9.06022 42.6201C9.60709 39.5211 12.3962 36.7685 15.5498 36.4039Z" fill="#FEFEFE"/>
<path d="M32.5205 34.3068C34.2523 32.812 36.3851 30.1687 36.6038 27.7989C36.6768 26.9239 36.0205 26.1036 35.7288 25.2833C29.2757 7.30936 51.9163 -5.19585 63.2549 8.82238C73.9919 22.0932 59.7731 41.0698 44.0413 34.0698C28.3096 27.0698 41.4163 32.4292 40.9242 32.3927C39.8122 32.3198 39.3018 33.3771 38.4997 33.9422C36.6768 35.2364 34.4893 35.2729 32.5205 34.325V34.3068ZM52.0804 19.9604C52.1169 19.9239 52.7549 19.8146 52.9736 19.7052C58.8434 16.7521 55.307 7.74686 48.945 9.66092C47.432 10.1167 44.2783 12.7052 46.0648 14.2729C47.8512 15.8406 48.1611 13.7807 48.8538 13.1245C50.7679 11.2833 53.721 13.325 52.7184 15.8953C51.7158 18.4656 49.2913 16.825 49.0544 19.4864C48.9268 20.9083 49.0726 23.1505 51.1143 22.5125C52.445 22.0932 51.8981 20.1792 52.0804 19.9969V19.9604ZM50.2575 24.9005C48.5804 25.2286 48.5804 28.7104 50.2393 28.9656C52.0075 29.2391 52.2627 27.5437 52.0622 26.1766C51.9346 25.3016 51.1143 24.7364 50.2575 24.9005Z" fill="#FEFEFE"/>
<path d="M52.0806 19.9617C51.9166 20.1622 52.4452 22.0763 51.1145 22.4773C49.0728 23.1153 48.927 20.8731 49.0546 19.4513C49.2916 16.808 52.0259 17.5919 52.7187 15.8601C53.7395 13.2898 50.7681 11.2481 48.8541 13.0893C48.1614 13.7638 47.4869 15.4955 46.065 14.2377C44.6431 12.9799 47.4322 10.0815 48.9452 9.62575C55.3072 7.71169 58.8437 16.7169 52.9739 19.67C47.1041 22.6231 52.0989 19.8888 52.0806 19.9252V19.9617Z" fill="#4065D3"/>
<path d="M50.2581 24.9007C51.1149 24.7367 51.9352 25.32 52.0628 26.1768C52.2634 27.5439 52.0081 29.2393 50.2399 28.9658C48.5811 28.7106 48.5811 25.2288 50.2581 24.9007Z" fill="#4065D3"/>
</g>
</g>
<defs>
<clipPath id="clip0_1351_25457">
<rect width="70" height="70" fill="white"/>
</clipPath>
<clipPath id="clip1_1351_25457">
<rect width="70" height="70" fill="white" transform="translate(0 -0.146484)"/>
</clipPath>
</defs>
</svg>
