<svg width="14" height="10" viewBox="0 0 14 10" fill="none" xmlns="http://www.w3.org/2000/svg">
<path d="M13.1935 0.246042C13.3511 0.403787 13.4395 0.617617 13.4395 0.840564C13.4395 1.06351 13.3511 1.27734 13.1935 1.43509L5.0609 9.56769C4.90315 9.72524 4.68932 9.81373 4.46638 9.81373C4.24343 9.81373 4.0296 9.72524 3.87186 9.56769L0.226206 5.92204C0.0774161 5.76259 -0.00364117 5.55159 0.000125643 5.33353C0.00389246 5.11548 0.0921888 4.9074 0.246397 4.75319C0.400614 4.59898 0.608687 4.51068 0.826743 4.50692C1.0448 4.50315 1.2558 4.58421 1.41525 4.733L4.46638 7.78412L12.0045 0.246042C12.1622 0.0884933 12.376 0 12.599 0C12.8219 0 13.0358 0.0884933 13.1935 0.246042Z" fill="#4065D3"/>
</svg>
