<svg width="40" height="40" viewBox="0 0 40 40" fill="none" xmlns="http://www.w3.org/2000/svg">
<g clip-path="url(#clip0_1328_29395)">
<path d="M1.77734 28.2229L2.22179 33.7784H16.8885L19.7773 26.0007L18.8885 24.4451L13.5551 21.334L6.44401 22.4451L1.77734 28.2229Z" fill="#FEFEFE"/>
<path fill-rule="evenodd" clip-rule="evenodd" d="M0.461914 30.3321C0.503581 29.9154 0.701497 29.1238 0.816081 28.6863C0.702435 29.1202 0.505761 29.9024 0.461914 30.3217V30.327C0.462 30.3287 0.462083 30.3304 0.461914 30.3321ZM0.461914 30.327V30.3321C0.462083 30.3304 0.462 30.3287 0.461914 30.327Z" fill="#4065D3"/>
<path d="M0.816081 28.6863C0.701497 29.1238 0.503581 29.9154 0.461914 30.3321V30.3217C0.433713 30.5924 0.445213 30.8784 0.456728 31.1648C0.46648 31.4073 0.476244 31.6501 0.461914 31.8842C0.493099 31.9897 0.521522 32.0958 0.549854 32.2016C0.644551 32.5551 0.738236 32.9048 0.930664 33.2175H4.04525C4.01956 33.2157 3.9971 33.2148 3.97469 33.214C3.86986 33.2099 3.766 33.2059 3.33691 33.1029C3.30539 33.0954 3.27433 33.0882 3.24374 33.0811C2.76886 32.9713 2.40764 32.8878 2.21191 31.8113C2.00358 30.6654 2.83691 29.8634 3.93066 29.7696C5.67025 29.6238 8.22233 29.655 10.264 29.7696C12.3057 29.8842 14.2223 31.0404 14.4411 33.2071C14.634 33.2071 14.8315 33.2105 15.0305 33.214C15.4333 33.2209 15.8423 33.228 16.2327 33.2071C15.9619 30.3634 13.4411 28.2384 10.6494 28.0509C8.67025 27.9154 5.77441 27.9363 3.77441 28.0509C3.60219 28.062 3.42997 28.0968 3.25775 28.1316C3.10705 28.1621 2.95636 28.1925 2.80566 28.2071C5.0765 21.7071 13.9827 20.0613 18.5452 25.2384C18.6665 25.3726 18.7733 25.523 18.88 25.6732C19.0299 25.8843 19.1795 26.0948 19.3682 26.2592C19.488 25.9467 19.6234 25.6342 19.7588 25.3217C19.8942 25.0092 20.0296 24.6967 20.1494 24.3842L18.7432 23.0196C17.6598 22.1759 16.4932 21.3946 15.1494 21.03C15.1323 20.9672 15.0744 20.9983 15.072 20.9946C15.0701 20.9915 15.1058 20.9648 15.2327 20.8425C15.3409 20.7383 15.4584 20.6388 15.5774 20.5379C15.7677 20.3766 15.9619 20.2119 16.1286 20.0196C18.8786 16.7592 17.1598 11.3321 13.014 10.3946C8.7015 9.41544 5.19108 12.7488 5.62858 17.0717C5.78483 18.655 6.78483 20.0404 7.96191 21.03C4.49316 22.1759 1.74316 25.155 0.816081 28.6863ZM10.9098 11.9988C6.0765 12.5821 6.18066 19.9675 11.0452 20.4154C17.3161 20.9884 17.2015 11.2384 10.9098 11.9988Z" fill="#4065D3"/>
<path d="M39.9997 22.3438V22.8125L36.5622 33.2084H39.4163C39.5726 33.2084 39.9372 33.6667 39.9997 33.8334V39.3021C39.8434 39.6667 39.7184 39.8125 39.3747 40.0105H0.562174L0.0205078 39.4688V33.8438L0.489258 33.2188H3.61426C6.74967 33.4792 10.7809 33.25 13.9997 33.2188C17.2184 33.1875 15.2184 33.25 15.7913 33.2188C16.3643 33.1875 16.333 33.2188 16.4163 33.0834C17.1976 30.9167 18.0205 28.7709 18.8434 26.6146C19.6663 24.4584 18.8851 26.3438 18.9163 26.2605C19.1559 25.6355 19.458 25.0105 19.6976 24.3855C19.9372 23.7605 20.3747 22.1771 20.7497 21.8855C21.1247 21.5938 20.9372 21.75 21.0726 21.7396H39.2705C39.6455 21.75 39.8434 22.0625 40.0101 22.3646L39.9997 22.3438ZM37.8955 23.4375H21.9268L18.2184 33.2084H34.6976L37.8955 23.4375ZM38.2809 34.9167H1.72884V38.2709H38.2809V34.9167Z" fill="#140505"/>
<path d="M38.2809 34.9167H1.72884V38.2709H38.2809V34.9167Z" fill="#FEFEFE"/>
<path d="M37.8955 23.4375H21.9268L18.2184 33.2084H34.6976L37.8955 23.4375Z" fill="#FEFEFE"/>
<path d="M37.3853 0.0644434C38.6457 0.439443 39.4582 1.26236 39.8957 2.48111C39.9686 2.67903 39.9998 2.88736 39.9998 3.09569V13.9186C39.9998 14.1582 39.9478 14.3978 39.8644 14.6269C39.6978 15.0436 39.5311 15.4394 39.2186 15.8144C37.854 17.4603 35.7394 16.9915 33.8123 17.0124C33.3123 17.0124 32.8436 17.2207 32.4998 17.5853C31.8957 18.2103 31.0519 19.1894 30.7186 19.4186C30.3853 19.6478 30.0311 19.6374 29.6561 19.3769C29.2811 19.1165 28.5103 18.1999 27.9165 17.5853C27.5728 17.2207 27.0936 17.0228 26.5936 17.0124C24.5519 16.9915 22.3853 17.4811 21.0415 15.5644C20.6978 15.0853 20.5207 14.5644 20.4373 14.0019C20.354 13.4394 20.4061 13.7415 20.4165 13.6061C20.5936 10.2415 20.1248 6.55403 20.4165 3.24153C20.5519 1.66861 21.5728 0.522777 23.0207 0.0748601C24.4686 -0.373057 23.3748 -0.00847326 23.5623 -0.00847326H36.8853C37.0623 -0.00847326 37.2394 0.0123601 37.4061 0.0644434H37.3853ZM24.3019 15.304C24.8957 15.3249 25.4998 15.304 26.0936 15.304C26.6873 15.304 26.7915 15.2832 27.1978 15.2832C27.604 15.2832 28.1457 15.4811 28.4894 15.8144L28.8748 16.1894C29.6144 16.9186 30.8019 16.8978 31.5103 16.1582C32.2186 15.4186 32.1665 15.5019 32.3332 15.4186C32.7707 15.2103 33.7498 15.3144 34.2915 15.304C34.8332 15.2936 35.4894 15.3249 36.0832 15.304C37.104 15.2728 37.7707 15.1374 38.1353 14.2519C38.4998 13.3665 38.2603 13.804 38.2707 13.5644V3.44986C38.2707 3.24153 38.2498 3.03319 38.1769 2.83528C37.9998 2.36653 37.6457 2.00194 37.1769 1.82486C36.7082 1.64778 36.7082 1.72069 36.4686 1.72069C32.3332 1.68944 23.8644 1.71028 23.8644 1.71028C23.8644 1.71028 22.2569 1.61784 22.2221 2.88867C22.1873 4.15951 22.2221 4.22201 22.2221 4.22201L22.104 13.5436C22.104 13.5436 22.031 15.2936 24.2915 15.2936C26.552 15.2936 24.3019 15.304 24.3019 15.304Z" fill="#140505"/>
<path d="M11.1252 12.0423C17.4169 11.2819 17.5315 21.0319 11.2606 20.459C6.39606 20.0215 6.2919 12.6256 11.1252 12.0423Z" fill="#FEFEFE"/>
<path d="M24.3018 15.3128C24.6038 13.4065 25.8018 11.6461 27.583 10.8544C27.6663 10.7399 27.2497 10.2399 27.1663 10.0628C25.6559 6.97945 29.0518 3.80236 32.0101 5.60445C33.3747 6.42736 33.958 8.27111 33.3955 9.76069C32.833 11.2503 32.9476 10.4586 32.8122 10.8544C34.5726 11.594 35.8538 13.4169 36.0934 15.3128C35.4997 15.3336 34.8955 15.3128 34.3018 15.3128C33.5205 10.8336 26.9268 10.8544 26.1038 15.3128C25.5101 15.3128 24.9059 15.3336 24.3122 15.3128H24.3018ZM30.0622 6.81278C27.9268 7.00028 28.1038 10.219 30.1976 10.2294C32.2913 10.2399 32.3851 6.60445 30.0622 6.81278Z" fill="#4065D3"/>
<path d="M34.3024 15.3125C33.7712 15.3125 32.7816 15.2083 32.3441 15.4271C31.8962 15.6458 30.3545 17.5 30.1982 17.5L28.0732 15.4063C27.6878 15.2188 26.5941 15.3125 26.1045 15.3125C26.9274 10.8542 33.5316 10.8333 34.3024 15.3125Z" fill="#FEFEFE"/>
<path d="M27.4794 27.4376C27.8335 27.3646 29.0731 27.3751 29.3648 27.5417C29.9169 27.8542 29.9169 28.8021 29.3231 29.0521C28.7294 29.3021 27.5315 29.198 27.2294 29.0521C26.521 28.6876 26.6877 27.5938 27.469 27.4376H27.4794Z" fill="#140505"/>
<path d="M30.0624 6.81329C32.3853 6.60495 32.4999 10.2508 30.1978 10.23C27.8957 10.2091 27.927 7.00079 30.0624 6.81329Z" fill="#FEFEFE"/>
</g>
<defs>
<clipPath id="clip0_1328_29395">
<rect width="40" height="40" fill="white"/>
</clipPath>
</defs>
</svg>
