<svg width="40" height="40" viewBox="0 0 40 40" fill="none" xmlns="http://www.w3.org/2000/svg">
<g clip-path="url(#clip0_1328_29415)">
<path d="M34.2191 0C34.3337 0.104167 34.7608 0.447917 34.7608 0.583333V7.14583C34.7608 7.14583 34.865 7.26042 34.8754 7.26042H38.2295C38.3962 7.26042 38.917 7.83333 38.8233 8.07292L38.7816 35.2292C38.6462 35.6458 38.3337 35.8021 37.917 35.8542H26.0004C26.542 35.4167 27.3754 34.6979 27.792 34.1354H37.0837V26.9479C33.615 26.4792 31.1566 23.0104 32.5108 19.6042C33.2295 17.8021 35.1462 16.3542 37.0837 16.1667V8.97917H2.89621V34.1354H12.4275C12.7191 34.5312 13.865 35.5104 14.3025 35.8542H1.98996C1.63579 35.8125 1.35454 35.6146 1.22954 35.2812C1.12538 26.1146 1.13579 16.9062 1.22954 7.73958C1.47954 7.27083 1.88579 7.25 2.34413 7.13542L33.667 0H34.2191ZM33.042 1.95833L9.83371 7.27083H33.042V1.95833ZM37.1045 17.8958C32.8754 18.75 32.8233 24.4271 37.1045 25.1667V17.8958Z" fill="#140505"/>
<path d="M27.8123 34.1462C27.3956 34.7087 26.5623 35.4275 26.0206 35.865C25.479 36.3025 25.8956 35.8858 25.8227 35.9379C24.0519 37.3441 22.2185 38.6671 20.3956 40.0004H19.9269C18.104 38.6671 16.2706 37.3337 14.4998 35.9379C14.4269 35.8858 14.3331 35.8754 14.3019 35.865C13.8644 35.5212 12.7185 34.5421 12.4269 34.1462C11.3956 32.7504 11.1144 30.7816 11.0206 29.1046C10.8956 27.0733 10.7915 24.4066 10.9373 22.3858C11.0831 20.365 11.0935 21.5108 11.7498 21.1671C14.2915 19.8337 17.2081 18.8858 19.7706 17.5421C20.0831 17.4587 20.4165 17.49 20.7081 17.6254C23.229 18.9171 26.0727 19.865 28.5727 21.1671C28.9373 21.3546 29.3227 21.5004 29.3019 22.0004C28.979 25.8025 30.2498 30.9066 27.8123 34.1566V34.1462ZM27.5623 22.5941L20.1873 19.3025L12.7498 22.5941V29.8858C12.9373 31.4587 13.479 32.9587 14.729 33.99L20.1352 38.0421C21.8227 36.7504 23.6352 35.5733 25.2706 34.2191C26.7706 32.9796 27.4165 31.6983 27.5831 29.7296L27.5623 22.5941Z" fill="#4065D3"/>
<path d="M12.4163 34.1452H2.89551V8.97852H37.1143V16.166C35.1768 16.3535 33.2601 17.8014 32.5413 19.6035C31.1872 23.0098 33.6455 26.4785 37.1143 26.9473V34.1348H27.8226C30.2497 30.8848 28.9788 25.7806 29.3122 21.9785C29.333 21.4785 28.9476 21.3431 28.583 21.1452C26.083 19.8431 23.2393 18.8952 20.7184 17.6035C20.4268 17.4681 20.0934 17.4368 19.7809 17.5202C17.2184 18.8639 14.3122 19.8118 11.7601 21.1452C9.20801 22.4785 11.0101 21.5827 10.9476 22.3639C10.8018 24.3848 10.9059 27.0514 11.0309 29.0827C11.1351 30.7494 11.4059 32.7181 12.4372 34.1244L12.4163 34.1452Z" fill="#FEFEFE"/>
<path d="M33.0417 1.95898V7.27148H9.84375L33.0417 1.95898Z" fill="#FEFEFE"/>
<path d="M37.1045 17.8965V25.1673C32.8233 24.4277 32.8754 18.7611 37.1045 17.8965Z" fill="#FEFEFE"/>
<path d="M27.5622 22.5944L27.583 29.7298C27.4163 31.6882 26.7705 32.9798 25.2705 34.2194C23.6351 35.5736 21.8226 36.7507 20.1351 38.0423L14.7288 33.9902C13.4788 32.9694 12.9268 31.459 12.7393 29.8861V22.5944L20.1976 19.3027L27.5726 22.5944H27.5622ZM23.1038 25.6361C22.9476 25.6569 22.7497 25.7611 22.6143 25.8548L19.6455 28.8236C19.1872 28.4694 18.6143 27.5319 17.9997 27.4902C17.3434 27.4382 16.9163 28.1257 17.1663 28.7298C17.4163 29.334 18.8226 30.2507 19.1768 30.7819C19.4476 30.959 19.7288 30.9902 20.0205 30.8444L23.9684 26.9069C24.2809 26.3027 23.7705 25.5527 23.1038 25.6465V25.6361Z" fill="#FEFEFE"/>
<path d="M23.1046 25.6354C23.7713 25.5417 24.2817 26.2917 23.9692 26.8958L20.0213 30.8333C19.7296 30.9792 19.4484 30.9479 19.1776 30.7708C18.8234 30.2396 17.3651 29.2083 17.1671 28.7188C16.9692 28.2292 17.3442 27.4375 18.0005 27.4792C18.6046 27.5208 19.188 28.4583 19.6463 28.8125L22.6151 25.8438C22.7505 25.75 22.9484 25.6458 23.1046 25.625V25.6354Z" fill="#4065D3"/>
</g>
<defs>
<clipPath id="clip0_1328_29415">
<rect width="40" height="40" fill="white"/>
</clipPath>
</defs>
</svg>
