<svg width="40" height="40" viewBox="0 0 40 40" fill="none" xmlns="http://www.w3.org/2000/svg">
<circle cx="10.6668" cy="12.8885" r="6.44444" fill="#FEFEFE" stroke="#140505" stroke-width="1.33333"/>
<circle cx="32.4449" cy="26.6675" r="6.22222" fill="#FEFEFE"/>
<path d="M5.79924 16.2452C6.24817 15.2987 7.02557 14.386 8.01101 14.048C7.46354 13.079 7.33215 12.1663 7.63874 11.0959C7.94532 10.0255 9.1607 8.97759 10.3432 8.89872C13.1463 8.6959 14.7339 11.6029 13.3434 14.0593C14.3397 14.3973 15.1171 15.31 15.5551 16.2564C15.0843 17.0001 14.8325 17.248 14.1536 17.7776C13.9675 16.8424 13.3762 15.986 12.4893 15.648C11.6024 15.31 9.48918 15.4001 8.78842 15.6705C7.91247 16.0086 7.365 16.8536 7.17886 17.7776C6.51095 17.2367 6.25912 17.0114 5.77734 16.2564L5.79924 16.2452ZM9.68626 11.1184C8.96361 11.817 9.23734 13.1241 10.1461 13.4959C11.0549 13.8677 12.5221 12.6621 11.8871 11.4565C11.252 10.2508 10.3213 10.4987 9.68626 11.1184Z" fill="#4065D3"/>
<path d="M36.5521 20.5417C36.0521 20.2292 35.3958 19.9375 34.8333 19.7604V5.82292C34.7292 4.53125 33.6771 3.48958 32.375 3.4375H4.01042C3.08333 3.4375 1.70833 4.66667 1.70833 5.59375V22.5833H26.4792C26.1875 23 25.7083 23.8438 25.5417 24.3021H1.70833V25.9792C1.70833 27.0104 3.0625 28.2083 4.09375 28.2083H25.2292C25.2917 28.5521 25.625 29.5937 25.7708 29.9271C24.8333 30.0208 23.6771 29.8021 22.7604 29.9271C22.6458 29.9375 22.625 29.8854 22.6458 30.0417L24.1354 36.5625C24.2292 36.6562 26.3646 36.5208 26.75 36.5625C27.9479 36.6979 27.7812 38.3438 26.5937 38.2812H9.86458C8.95833 38.3333 8.60417 37.0521 9.41667 36.6562C10.2292 36.2604 12.2917 36.6562 12.4062 36.5521L13.8958 29.9167H3.78125C3.55208 29.9167 2.77083 29.6458 2.52083 29.5417C1.17708 28.9583 0.416667 27.7604 0 26.4062V5.22917C0.53125 3.33333 1.9375 1.90625 3.94792 1.71875H32.5417C34.6458 1.875 36.3125 3.5 36.5521 5.59375V20.5417ZM22.4062 36.5625L20.8437 29.9583H15.6771L14.1146 36.5625H22.3958H22.4062Z" fill="#140505"/>
<path d="M34.8336 19.7709C35.3961 19.948 36.0523 20.2397 36.5523 20.5522C37.8753 21.3855 39.1044 22.9272 39.6044 24.4167L39.9898 26.0209V27.8126C39.594 29.6042 38.8544 31.2084 37.4482 32.4272C33.7711 35.6251 27.7711 34.4167 25.7711 29.9272C25.6253 29.5938 25.2815 28.5522 25.2294 28.2084C25.0315 27.0938 25.1669 25.3647 25.5419 24.3022C25.9169 23.2397 26.1878 23.0001 26.4794 22.5834C28.3648 19.9063 31.6982 18.7813 34.8336 19.7709ZM32.3128 21.1147C27.6253 21.3022 25.1669 26.8855 28.1878 30.5001C31.2086 34.1147 35.4273 33.1042 37.4169 29.8126C39.7815 25.8959 36.8648 20.9376 32.3128 21.1147Z" fill="#4065D3"/>
<path d="M34.833 19.7708C31.6976 18.7813 28.3643 19.9063 26.4788 22.5833H1.70801V5.58333C1.70801 4.66667 3.08301 3.4375 4.01009 3.4375H32.3747C33.6768 3.48958 34.7288 4.53125 34.833 5.82292V19.7708ZM9.96842 5.72917C4.51009 6.26042 1.57259 12.5938 4.68717 17.1354C7.68717 21.5 14.2288 21.3229 16.9684 16.7917C20.1038 11.6146 15.9268 5.14583 9.96842 5.72917ZM21.9997 5.72917C18.9476 6.15625 19.0518 10.6042 22.1351 10.8646C24.9268 11.1042 28.0518 10.6875 30.8747 10.8542C33.9476 10.3438 33.7913 5.94792 30.6559 5.70833C27.8851 5.48958 24.8018 5.86458 21.9997 5.72917ZM21.9997 12.6042C18.9476 13.0312 19.0518 17.4792 22.1351 17.7396C24.9268 17.9792 28.0518 17.5625 30.8747 17.7292C33.9476 17.2188 33.7913 12.8229 30.6559 12.5833C27.8851 12.3646 24.8018 12.7396 21.9997 12.6042Z" fill="#FEFEFE"/>
<path d="M25.5309 24.291C25.1559 25.3535 25.0205 27.0827 25.2184 28.1973H4.09342C3.06217 28.1973 1.70801 26.9993 1.70801 25.9681V24.291H25.5413H25.5309Z" fill="#FEFEFE"/>
<path d="M22.4066 36.5632H14.1357L15.6878 29.959H20.8545L22.4066 36.5632Z" fill="#FEFEFE"/>
<path d="M9.96856 5.73016C15.9269 5.14683 20.104 11.6156 16.9686 16.7927C14.229 21.3239 7.68731 21.501 4.68731 17.1364C1.57273 12.5947 4.51023 6.26141 9.96856 5.73016ZM6.08314 16.0218C6.54148 16.7197 6.77064 16.9281 7.41648 17.4281C9.46856 19.0114 12.0206 18.9906 14.0623 17.4281C16.104 15.8656 15.7776 15.5566 15.9998 14.6678C16.222 11.5566 16.2915 9.66766 13.4165 8.11558C8.34356 5.376 2.92689 11.1885 6.09356 16.0218H6.08314Z" fill="#140505"/>
<path d="M21.9996 5.72908C24.8017 5.85408 27.885 5.4895 30.6558 5.70825C33.7912 5.95825 33.9579 10.3541 30.8746 10.8541C28.0517 10.6874 24.9162 11.1041 22.135 10.8645C19.0517 10.6041 18.9475 6.14575 21.9996 5.72908ZM22.1558 7.43742C21.1767 7.72909 21.2392 9.02075 22.2912 9.13533C24.9162 8.91658 28.01 9.427 30.5725 9.13533C31.6662 9.01033 31.6454 7.54158 30.5725 7.41658L22.1558 7.43742Z" fill="#4065D3"/>
<path d="M21.9996 12.6041C24.8017 12.7291 27.885 12.3645 30.6558 12.5833C33.7912 12.8333 33.9579 17.2291 30.8746 17.7291C28.0517 17.5624 24.9162 17.9791 22.135 17.7395C19.0517 17.4791 18.9475 13.0208 21.9996 12.6041ZM22.1558 14.3124C21.1767 14.6041 21.2392 15.8958 22.2912 16.0103C24.9162 15.7916 28.01 16.302 30.5725 16.0103C31.6662 15.8853 31.6454 14.4166 30.5725 14.2916L22.1558 14.3124Z" fill="#4065D3"/>
<path d="M34.6565 24.4684C35.3232 24.4059 35.7503 25.1767 35.4795 25.7601L32.1565 29.083C31.9065 29.1872 31.5315 29.1872 31.292 29.0517C30.9274 28.5517 29.4586 27.4788 29.2711 27.0101C28.917 26.1455 29.7399 25.3851 30.5315 25.9059C31.3232 26.4267 31.5524 27.0934 31.8128 27.0309C32.0732 26.9684 33.7399 24.9788 34.167 24.6976C34.292 24.6038 34.5107 24.4892 34.6565 24.4788V24.4684Z" fill="#140505"/>
<path d="M22.1558 7.43685L30.5724 7.41602C31.6454 7.54102 31.6662 9.00977 30.5724 9.13477C28.0099 9.42643 24.9162 8.91602 22.2912 9.13477C21.2391 9.02018 21.1766 7.72852 22.1558 7.43685Z" fill="#FEFEFE"/>
<path d="M22.1558 14.3118L30.5724 14.291C31.6454 14.416 31.6662 15.8848 30.5724 16.0098C28.0099 16.3014 24.9162 15.791 22.2912 16.0098C21.2391 15.8952 21.1766 14.6035 22.1558 14.3118Z" fill="#FEFEFE"/>
</svg>
