<svg width="20" height="20" viewBox="0 0 20 20" fill="none" xmlns="http://www.w3.org/2000/svg">
<g clip-path="url(#clip0_1673_2996)">
<path d="M0 12.3439C0.130208 12.0262 0.359375 11.7606 0.723958 11.7189C1.72396 11.6043 2.9375 11.797 3.95833 11.7293C4.34896 11.7918 4.61458 12.1147 4.65104 12.5001C5.40104 12.1095 6.16146 11.9637 7.01042 12.0366C8.48958 12.3595 9.97917 12.6408 11.4479 12.9897C11.875 13.0887 12.2813 13.1356 12.6615 13.3751C13.0417 13.6147 13.3594 14.0731 13.401 14.5314L13.5156 14.5106C14.8177 13.7762 16.1042 12.6876 17.4115 12.0001C18.4531 11.4585 19.8281 11.9897 19.9635 13.2033C19.9792 13.2658 19.9896 13.3283 20.0052 13.4012V13.7918C19.9844 14.2658 19.6979 14.7241 19.3021 14.9793C17.2969 16.2918 15.2656 17.6095 13.2344 18.8908C12.2552 19.5106 11.2656 20.0053 10.0938 19.922C8.41146 19.6303 6.73958 19.2762 5.07292 18.9116C5 18.896 4.93229 18.8699 4.85938 18.8439C4.78646 18.8178 4.71875 18.7814 4.65104 18.7501C4.77604 18.8022 4.77083 19.2553 4.65104 19.3178C4.68229 19.3178 4.72396 19.3439 4.71875 19.3647C4.59896 19.7345 4.40104 19.9793 3.98958 20.0001H0.666667C0.255208 19.9845 0.0208333 19.7449 0 19.3335V12.3439Z" fill="#140505"/>
<path d="M11.2916 0C12.2968 0.25 12.427 1.125 12.3437 2.03125C12.125 2.15625 11.7031 2.15625 11.4843 2.03125L11.401 1.99479V1.29688C11.3645 1.07292 11.3073 0.963542 11.0677 0.932292C10.4687 0.859375 9.60413 0.869792 8.99996 0.927083C8.3958 0.984375 8.60934 1.10938 8.5833 1.44792L8.59371 1.97396L8.51038 2.03125C8.29163 2.15625 7.86976 2.15625 7.65101 2.03125C7.57288 1.11979 7.69788 0.255208 8.70309 0H11.2916Z" fill="#140505"/>
<path d="M19.9999 13.3952C19.9322 13.3639 19.9686 13.2598 19.9582 13.1973H19.9999V13.3952Z" fill="#140505"/>
<path d="M8.51556 2.03125C8.6614 1.99479 8.81244 1.95313 8.96869 1.95313C9.65098 1.9375 10.3489 1.9375 11.0312 1.95313C11.7135 1.96875 11.3333 1.99479 11.4843 2.03125H12.3437C12.6145 2.03125 12.4322 2.09375 12.4739 2.07292C13.3124 2.16146 14.4374 1.94271 15.2447 2.07292C15.5364 2.11979 15.8333 2.41146 15.9166 2.6875C16.0416 3.08854 16.0156 5.02083 15.9739 5.52083C15.9322 6.02083 15.8958 6.01562 15.7239 6.20833C15.552 6.40104 15.4895 6.34896 15.4687 6.46354V9.97917C15.4062 10.375 15.1406 10.6771 14.7551 10.7917C11.5781 10.8281 8.38015 10.849 5.20827 10.7813C4.8489 10.6667 4.60931 10.3802 4.53119 10.0156C4.44786 9.52083 4.64577 6.59375 4.48952 6.38542C4.33327 6.17708 4.33327 6.28125 4.27077 6.21354C4.0989 6.02604 4.04161 5.78125 4.02077 5.52604C3.97911 5.02083 3.95306 3.14583 4.06765 2.72396C4.18223 2.30208 4.44786 2.13021 4.74994 2.07813C5.55723 1.94271 6.67702 2.15625 7.52077 2.07813C7.56765 2.09896 7.64577 2.03646 7.65098 2.03646H8.51556V2.03125Z" fill="#4065D3"/>
<path d="M4.65112 17.8904V13.5415C5.33341 13.0154 6.06779 12.8123 6.93237 12.8956C8.50529 13.0415 10.3126 13.7654 11.9115 13.9737C13.0157 14.281 12.6667 15.8644 11.5209 15.656L7.09383 14.6873C6.54696 14.6612 6.41675 15.3852 6.948 15.5362L11.547 16.5258C12.2813 16.5779 12.7917 16.2654 13.2345 15.7133L17.8959 12.7185C18.8438 12.3071 19.599 13.4737 18.8282 14.1612C16.6824 15.4894 14.6147 16.9529 12.4636 18.2654C11.6772 18.7446 11.0365 19.0571 10.0678 18.9842L4.65112 17.8956V17.8904Z" fill="#FEFEFE"/>
<path d="M3.78646 12.5781H0.859375V19.1406H3.78646V12.5781Z" fill="#FEFEFE"/>
<path d="M7.65633 6.32878L4.95321 5.66211C4.92716 5.66211 4.8855 5.57878 4.8855 5.56315V2.98503C4.8855 2.98503 4.93758 2.92773 4.94279 2.92773H15.0574C15.0574 2.92773 15.1147 2.97982 15.1147 2.98503V5.56315C15.1147 5.57878 15.073 5.65169 15.047 5.66211L12.3438 6.32878L12.2605 6.26628C12.2657 6.00065 12.0001 5.60482 11.724 5.5944C10.8803 5.56315 10.0053 5.56315 9.15633 5.55794C8.84383 5.55794 8.53133 5.55794 8.22925 5.61523C7.93758 5.66732 7.7605 5.98503 7.74487 6.26107L7.66154 6.32357L7.65633 6.32878Z" fill="#FEFEFE"/>
<path d="M7.65625 7.22982L7.73438 7.28711C7.63021 7.99023 7.83854 8.40169 8.35417 8.51628C9.49479 8.55794 10.6667 8.55794 11.8073 8.48503C12.25 8.45898 12.3073 7.61003 12.2656 7.28711L12.3438 7.22982L14.6094 6.64648V9.9069C14.6094 9.9069 14.5573 9.96419 14.5521 9.96419H5.44792C5.44792 9.96419 5.39062 9.91211 5.39062 9.9069V6.64648L7.65625 7.22982Z" fill="#FEFEFE"/>
<path d="M12.3438 6.32757C12.3646 6.60361 12.349 6.94736 12.3438 7.22341C12.3334 7.75466 12.4324 8.32757 11.8178 8.55153C10.7292 8.55153 9.50007 8.67132 8.41673 8.58799C7.5834 8.52549 7.66673 7.83799 7.65632 7.2182C7.6459 6.59841 7.63548 6.59841 7.65632 6.32236C7.69277 5.8432 7.91673 5.53591 8.41673 5.49945C9.47923 5.42132 10.6511 5.55674 11.7292 5.50986C12.1459 5.62445 12.3126 5.9057 12.3438 6.32236V6.32757Z" fill="#140505"/>
<path d="M11.4844 6.36523H8.51562V7.72982H11.4844V6.36523Z" fill="#FEFEFE"/>
</g>
<defs>
<clipPath id="clip0_1673_2996">
<rect width="20" height="20" fill="white"/>
</clipPath>
</defs>
</svg>
