<svg width="50" height="50" viewBox="0 0 50 50" fill="none" xmlns="http://www.w3.org/2000/svg">
<g clip-path="url(#clip0_1328_29189)">
<path d="M31.8364 0.000651041C32.0968 0.235026 32.4614 0.443359 32.5135 0.833984L32.5395 6.08138C32.6046 6.31576 34.089 7.44857 34.3233 7.42253C34.5577 7.39648 35.8858 6.27669 35.9249 6.18555L35.951 0.938151C36.0161 0.430338 36.3025 0.222005 36.7192 0.000651041H37.3051C38.9197 0.729818 40.2739 1.86263 41.1593 3.41211C43.464 7.42253 41.9536 12.1751 38.0994 14.5189V18.0736C37.3702 18.0345 36.6411 18.0736 35.9379 18.0736L35.99 13.4772C36.1463 12.8913 37.1228 12.5527 37.6306 12.1882C40.7166 10.0007 40.951 5.49544 38.0864 3.02148V6.97982C38.0864 7.0319 37.8129 7.43555 37.7478 7.51367C37.3963 7.89128 35.4171 9.42773 34.9614 9.70117C34.2973 10.0918 34.102 10.0527 33.477 9.64909C32.852 9.24544 31.628 8.26888 31.0681 7.76107C30.5082 7.25325 30.3911 7.12305 30.3911 6.68034V3.11263C27.4353 5.61263 27.9041 10.235 31.0812 12.3314C31.576 12.6569 32.227 12.7611 32.5004 13.36L32.5395 18.0475C31.8233 18.0475 31.1072 18.0475 30.3911 18.0475V14.4017C24.5317 11.1986 25.0916 2.60482 31.1723 -0.0253906H31.8494L31.8364 0.000651041Z" fill="#4065D3"/>
<path d="M32.5264 43.6458V47.8385H35.9378V43.6458C36.654 43.6458 37.3701 43.6719 38.0863 43.6458V49.1536C38.0081 49.5703 37.6436 49.8047 37.305 49.987H31.1592C30.7686 49.7396 30.4691 49.5443 30.3779 49.0495V43.6328C31.0811 43.6328 31.8102 43.6328 32.5264 43.6328V43.6458Z" fill="#4065D3"/>
<path d="M30.3646 18.073C31.0807 18.073 31.7969 18.073 32.513 18.073C33.6458 18.073 34.7917 18.06 35.9245 18.073C37.0573 18.086 37.3568 18.0339 38.0729 18.073C39.2838 18.1251 40.1562 18.2943 41.1068 19.1016C42.6562 20.4298 42.8255 22.5782 41.888 24.323C45.2214 25.6251 45.0911 30.2865 41.888 31.7058C42.7214 33.1381 42.6693 34.7787 41.7318 36.1329C41.5885 36.3412 41.263 36.4844 41.2891 36.7709C41.3151 37.0574 41.9141 37.5652 42.0573 37.8647C43.5417 40.9766 41.1979 43.5417 38.0599 43.6589C37.3437 43.685 36.6276 43.6589 35.9115 43.6589C34.7786 43.6589 33.6328 43.6589 32.5 43.6589C31.3672 43.6589 31.0677 43.6589 30.3516 43.6589C26.9271 43.6329 23.7891 44.1277 20.7943 42.1355C20.1953 41.7318 17.7734 39.4141 17.513 39.3621C17.2526 39.31 16.3021 39.336 16.1979 39.4011C16.0937 39.4662 15.8333 40.2735 15.5729 40.5339C15.3125 40.7943 14.6224 41.0548 14.1927 41.1068C12.6953 41.2761 9.28385 41.2501 7.76041 41.1068C6.67968 41.0027 5.83333 40.4167 5.66406 39.2969C5.97656 33.8542 5.26041 27.9818 5.66406 22.5912C6.06771 17.2006 6.43229 20.7813 7.47396 20.6902C9.71354 20.4949 12.2396 20.8334 14.5052 20.6902C15.0391 20.7683 15.625 21.185 15.9115 21.6277C16.1979 22.0704 16.1328 22.2397 16.2109 22.3048C16.2891 22.3699 17.3437 22.3829 17.526 22.3438C17.9557 22.2657 19.362 20.7292 19.8307 20.3516C23.2552 17.5652 26.224 18.086 30.3776 18.06L30.3646 18.073ZM35.2604 23.9324H39.0234C39.1536 23.9324 39.8047 23.4376 39.9349 23.2813C40.6641 22.3829 40.3906 20.9897 39.349 20.4688C38.3073 19.948 38.6719 20.2214 38.6198 20.2214H34.6615C34.7656 20.599 35.2474 21.3803 35.2474 21.7318V23.9324H35.2604ZM27.4479 31.4454C26.5495 31.849 24.5703 32.7865 23.7891 31.836C23.2812 31.211 23.6198 30.2865 24.388 30.1042C25.1562 29.9219 25.8984 30.0391 26.6536 29.2449C27.4219 28.4506 27.2656 27.9298 27.4609 27.0183C27.6562 26.1068 29.4401 25.8725 29.5833 27.0964C29.8307 29.2188 29.401 31.849 29.5833 34.0365C29.7656 36.224 30.2734 36.185 31.3672 36.4584C32.4609 36.7318 33.0208 36.5756 33.112 35.599C33.5026 31.3542 32.8125 26.5235 33.112 22.2136C32.9297 21.211 32.2656 20.4037 31.2109 20.2996C29.6615 20.1563 25.2995 20.1433 23.9062 20.5209C23.151 20.7292 22.3177 21.1589 21.6927 21.6277C21.2109 21.9792 18.6458 24.5053 18.4115 24.5053H16.2109V37.2006H18.3073C18.5807 37.2006 21.4323 39.961 22.0703 40.3647C22.7083 40.7683 24.362 41.4975 25.2344 41.4975H29.0885C28.8021 40.6641 28.6068 39.9219 28.7109 39.0235C28.75 38.6589 29.1406 37.8907 29.0755 37.6693C29.0104 37.448 28.4115 36.9272 28.2682 36.7058C27.9297 36.211 27.4349 35.1042 27.4349 34.5183V31.4454H27.4479ZM14.0625 22.8516H7.8125V38.8673H14.0625V22.8516ZM35.2604 29.7917H40.7812C40.8333 29.7917 41.224 29.5964 41.3151 29.5443C42.5 28.8673 42.526 27.1094 41.3542 26.3933C40.1823 25.6772 40.6901 26.0808 40.5859 26.0808H35.4036C35.4036 26.0808 35.2604 26.211 35.2604 26.224V29.7917ZM35.2604 35.6511H38.8281C38.8672 35.6511 39.4141 35.4037 39.4922 35.3386C40.612 34.6094 40.612 32.9688 39.4922 32.2397C38.3724 31.5105 38.8672 31.9272 38.8281 31.9272H35.2604V35.6381V35.6511ZM31.0677 38.685C31.0156 38.711 30.8724 39.2839 30.8594 39.4011C30.7682 40.4037 31.4713 41.3542 32.474 41.4975C33.5417 41.6407 37.7604 41.6537 38.7891 41.4844C40.8333 41.1459 40.8073 38.086 38.7109 37.7996C38.0599 37.7084 35.013 37.6824 34.4271 37.7996C33.8411 37.9167 33.3594 38.7371 32.1745 38.7631C30.9896 38.7891 31.276 38.5548 31.0807 38.685H31.0677Z" fill="#140505"/>
<path d="M35.9374 18.0729C34.8046 18.0599 33.6588 18.0729 32.526 18.0729L32.4869 13.3854C32.2135 12.7865 31.5624 12.6823 31.0677 12.3568C27.8906 10.2604 27.4218 5.63802 30.3776 3.13802V6.70573C30.3776 7.14844 30.7552 7.5 31.0546 7.78646C31.6145 8.29427 32.8385 9.27083 33.4635 9.67448C34.0885 10.0781 34.2838 10.1172 34.9479 9.72656C35.6119 9.33594 37.3828 7.91667 37.7343 7.53906C38.0859 7.16146 38.0729 7.04427 38.0729 7.00521V3.04688C40.9374 5.50781 40.7031 10.013 37.6171 12.2135C37.1093 12.5781 36.1197 12.9167 35.9765 13.5026L35.9244 18.099L35.9374 18.0729Z" fill="#FEFEFE"/>
<path d="M35.9378 43.6465V47.8392H32.5264V43.6465C33.6592 43.6465 34.805 43.6465 35.9378 43.6465Z" fill="#FEFEFE"/>
<path d="M27.4476 31.4454V34.5183C27.4476 35.1043 27.9554 36.211 28.2809 36.7058C28.6064 37.2006 29.0622 37.5782 29.0882 37.6694C29.1533 37.8907 28.7627 38.659 28.7236 39.0236C28.6195 39.922 28.8148 40.6772 29.1012 41.4975H25.2471C24.3747 41.4975 22.8252 40.8465 22.083 40.3647C21.3408 39.8829 18.5934 37.2006 18.32 37.2006H16.2236V24.5053H18.4242C18.6455 24.5053 21.2106 21.9923 21.7054 21.6277C22.3434 21.159 23.1637 20.7293 23.9189 20.5209C25.3122 20.1303 29.6611 20.1564 31.2236 20.2996C32.7861 20.4428 32.9424 21.2111 33.1247 22.2137C32.8252 26.5236 33.5153 31.3543 33.1247 35.5991C32.734 39.8439 32.2132 36.6538 31.3799 36.4584C30.5465 36.2631 29.6872 35.0913 29.596 34.0366C29.4268 31.8491 29.8564 29.2189 29.596 27.0965C29.4528 25.8855 27.708 25.8855 27.4736 27.0183C27.2393 28.1512 27.4346 28.4506 26.6663 29.2449C25.8981 30.0262 25.2992 29.8829 24.4007 30.1043C23.5023 30.3256 23.2809 31.211 23.8018 31.836C24.583 32.7996 26.5622 31.8491 27.4606 31.4454H27.4476Z" fill="#FEFEFE"/>
<path d="M14.0625 22.8516H7.8125V38.8672H14.0625V22.8516Z" fill="#FEFEFE"/>
<path d="M31.0673 38.6853C31.2756 38.5551 31.9137 38.7634 32.1611 38.7634C33.346 38.7374 33.9319 37.891 34.4137 37.7999C34.8954 37.7088 38.0465 37.7218 38.6975 37.7999C40.7939 38.0864 40.8199 41.1332 38.7756 41.4848C37.747 41.6541 33.5283 41.641 32.4605 41.4978C31.4449 41.3546 30.7548 40.4041 30.846 39.4015C30.9371 38.3989 31.0022 38.7114 31.0543 38.6853H31.0673Z" fill="#FEFEFE"/>
<path d="M35.2607 29.791V26.2233C35.2607 26.2233 35.391 26.0801 35.404 26.0801H40.5863C40.6904 26.0801 41.2243 26.3145 41.3545 26.3926C42.5264 27.1087 42.5003 28.8665 41.3154 29.5436C40.1305 30.2207 40.8337 29.791 40.7816 29.791H35.2607Z" fill="#FEFEFE"/>
<path d="M35.2607 23.9316V21.7311C35.2607 21.3665 34.779 20.5983 34.6748 20.2207H38.6331C38.6852 20.2207 39.2581 20.429 39.3623 20.4681C40.3909 20.9889 40.6774 22.3822 39.9482 23.2806C39.818 23.4368 39.167 23.9316 39.0368 23.9316H35.2738H35.2607Z" fill="#FEFEFE"/>
<path d="M35.2607 35.6504V31.9395H38.8285C38.8675 31.9395 39.4144 32.1868 39.4925 32.252C40.6123 32.9811 40.6123 34.6217 39.4925 35.3509C38.3727 36.0801 38.8675 35.6634 38.8285 35.6634H35.2607V35.6504Z" fill="#FEFEFE"/>
</g>
<defs>
<clipPath id="clip0_1328_29189">
<rect width="50" height="50" fill="white"/>
</clipPath>
</defs>
</svg>
