<svg width="40" height="40" viewBox="0 0 40 40" fill="none" xmlns="http://www.w3.org/2000/svg">
<g clip-path="url(#clip0_1328_29430)">
<path d="M39.9997 13.3755V24.8547L39.4997 25.3234L34.5726 26.8026L33.0622 29.1151C33.2913 29.4901 33.6351 29.6984 33.8434 30.1047C34.8122 31.9484 33.3747 34.0838 31.333 33.9067C31.1768 35.2817 29.8747 36.1776 28.5205 36.0942C28.1976 37.7817 26.4997 38.563 24.9268 38.0422C24.2288 39.8442 21.9788 40.1776 20.5934 38.8963C20.083 39.4276 19.5518 39.8338 18.8226 39.9797H17.8018C17.0309 39.6151 16.2705 39.2297 15.9997 38.3442C14.4268 38.8651 12.7288 38.063 12.4059 36.3963C10.9997 36.4692 9.70801 35.4692 9.59342 34.0526C7.72884 34.1047 6.46842 32.2713 7.11426 30.5109C7.76009 28.7505 7.66634 29.6984 7.63509 29.5734C7.56217 29.2922 5.83301 27.8859 5.57259 27.4901C4.06217 26.7922 2.01009 26.6255 0.530924 25.9692C0.270508 25.8547 0.155924 25.6567 -0.0107422 25.4588V13.9797C0.239258 13.563 0.499675 13.3026 1.02051 13.3755L19.3226 18.7505C25.7288 16.3755 32.4268 14.8026 38.9476 12.7505C39.4684 12.6776 39.7393 12.938 39.9788 13.3547L39.9997 13.3755ZM38.2809 14.7817L22.9059 19.2922C20.7288 19.8026 18.4476 21.1255 17.1038 22.9484C15.7601 24.7713 17.0726 24.7401 18.0413 24.438C19.0101 24.1359 19.8122 22.5838 20.3434 22.2088C21.2705 21.563 21.583 22.4067 22.1872 22.8651C23.2809 23.688 24.7497 23.813 25.9788 23.2401C27.208 22.6672 26.8018 22.563 27.2288 22.5526C27.6559 22.5422 28.2288 23.0838 28.1038 23.6463C27.9788 24.2088 27.8434 23.938 27.9163 24.0942C28.4268 24.4692 31.4788 27.8442 31.7497 27.8442C32.0205 27.8442 31.8747 27.7713 31.9372 27.7088C32.6247 26.9797 32.9788 25.5109 33.9997 25.1567L38.2809 23.9276V14.7922V14.7817ZM1.71842 15.4067V24.5422L6.33301 25.9067C6.78092 26.1255 8.69759 28.3755 8.94759 28.3755C9.81217 27.7922 10.3538 26.7192 11.3851 26.3547C13.1038 25.7609 14.833 27.0317 14.8538 28.8234C16.1455 29.0213 17.1143 30.0109 17.1455 31.3338C18.6351 31.563 19.5934 32.7088 19.5726 34.2192C20.7601 34.5213 21.6143 35.5005 21.6559 36.7505C21.6768 37.2609 21.3955 37.3859 21.9684 37.7609C22.5413 38.1359 23.5622 37.6672 23.3538 36.7713C23.3018 36.5526 23.0726 36.438 23.0101 36.2505C22.8643 35.7922 22.9893 35.3234 23.4476 35.1151C24.5934 34.5838 25.0622 36.8026 26.2601 36.4484C26.6038 36.3442 26.8747 35.938 26.8643 35.5838C26.8643 34.8234 25.3226 34.0838 25.1768 33.3859C25.0309 32.688 25.7705 32.0942 26.4372 32.438C27.1038 32.7817 27.8747 34.1567 28.5101 34.3442C29.1455 34.5317 29.6872 34.0526 29.6768 33.4797C29.6663 32.8442 28.0518 31.6672 27.6143 31.1047C26.9684 30.2713 27.6559 29.3234 28.6247 29.7088C29.2705 30.1359 30.6143 31.9901 31.2497 32.1567C32.208 32.4067 32.7913 31.438 32.1559 30.7088L26.3643 24.9484C24.4684 25.6984 22.5205 25.2609 20.9163 24.0838C20.0205 24.813 19.3538 26.0526 18.0934 26.188C15.583 26.4484 14.2288 23.7817 15.7913 21.8547C16.2288 21.313 17.0622 20.7401 17.4268 20.2088C17.7913 19.6776 17.5309 20.1359 17.4997 20.0109L1.71842 15.4067ZM12.1663 27.9172C12.0205 27.9276 11.8018 28.0422 11.6768 28.1359C11.3226 28.3859 9.10384 30.6047 8.87467 30.9484C8.28092 31.8442 9.21842 32.7713 10.1559 32.1463C10.4788 31.9276 12.708 29.6984 12.9268 29.3755C13.3643 28.7192 12.9268 27.8442 12.1663 27.9172ZM15.208 30.813C14.9788 30.5734 14.5934 30.5005 14.2705 30.5734C13.7705 30.688 11.9684 32.9172 11.4163 33.3338C11.0205 34.3338 11.9268 35.0734 12.8122 34.4172C13.6455 33.8026 14.4788 32.5942 15.3018 31.9067C15.458 31.6047 15.458 31.0734 15.208 30.813ZM14.3226 36.5422C14.708 36.9484 15.2184 36.8442 15.6247 36.5317C16.0309 36.2192 17.4476 34.7922 17.6455 34.4901C18.1976 33.5942 17.2184 32.688 16.333 33.3338C16.0726 33.5213 14.3747 35.2192 14.2393 35.4588C14.0205 35.8234 14.0309 36.2401 14.333 36.5526L14.3226 36.5422ZM17.7601 38.0213C18.6143 38.9276 20.6143 37.0317 19.6143 36.1359C18.6143 35.2401 18.1663 36.2713 17.7705 36.8026C17.3747 37.3338 17.4059 37.6463 17.7705 38.0317L17.7601 38.0213Z" fill="#140505"/>
<path d="M20.9375 0.0202304C28.75 0.89523 30.5313 11.9369 23.1979 15.1244C14.8229 18.7702 7.97919 7.64523 14.9584 1.8119C16.1354 0.83273 17.5104 0.353564 18.9792 0.00981374C19.6042 0.0618971 20.3229 -0.0631029 20.9375 0.00981374V0.0202304ZM19.3542 1.75981C14.6979 2.20773 12.2084 7.6869 14.9584 11.489C17.6667 15.2286 23.4063 14.8327 25.4896 10.7077C27.6979 6.32231 24.2084 1.29106 19.3542 1.75981Z" fill="#4065D3"/>
<path d="M1.71875 15.4062L17.5 20.0104C17.5313 20.125 17.4688 20.1354 17.4271 20.2083C17.0625 20.7396 16.2292 21.3125 15.7917 21.8542C14.2292 23.7813 15.5833 26.4375 18.0938 26.1875C20.6042 25.9375 20.0208 24.8229 20.9167 24.0833C22.5208 25.2604 24.4688 25.6979 26.3646 24.9479L32.1563 30.7083C32.7917 31.4375 32.2083 32.4063 31.25 32.1563C30.6146 31.9896 29.2708 30.125 28.625 29.7083C27.6562 29.3229 26.9688 30.2708 27.6146 31.1042C28.0521 31.6667 29.6667 32.8438 29.6771 33.4792C29.6771 34.0521 29.0521 34.5 28.5104 34.3438C27.9688 34.1875 27.0104 32.7292 26.4375 32.4375C25.8646 32.1458 25.0208 32.6458 25.1771 33.3854C25.3333 34.125 26.8542 34.8333 26.8646 35.5833C26.875 36.3333 26.5938 36.3438 26.2604 36.4479C25.0521 36.8021 24.5833 34.5938 23.4479 35.1146C22.3125 35.6354 22.875 35.7917 23.0104 36.25C23.1458 36.7083 23.3021 36.5521 23.3542 36.7708C23.5625 37.6667 22.7604 38.2917 21.9688 37.7604C21.1771 37.2292 21.6771 37.2604 21.6562 36.75C21.6146 35.5 20.7708 34.5208 19.5729 34.2188C19.5938 32.7083 18.6354 31.5625 17.1458 31.3333C17.1146 30.0104 16.1458 29.0208 14.8542 28.8229C14.8333 27.0208 13.1042 25.7604 11.3854 26.3542C10.3438 26.7083 9.8125 27.7813 8.94792 28.375C8.69792 28.375 6.78125 26.1354 6.33333 25.9063L1.71875 24.5417V15.4062Z" fill="#FEFEFE"/>
<path d="M38.2814 14.7819V23.9173L34.0001 25.1465C32.9897 25.5007 32.6251 26.9694 31.9376 27.6986C31.2501 28.4277 31.8751 27.834 31.7501 27.834C31.4793 27.834 28.4272 24.459 27.9168 24.084C27.8439 23.9277 28.0626 23.8236 28.1043 23.6361C28.2397 23.0736 27.8126 22.5319 27.2293 22.5423C26.6459 22.5527 26.3751 23.0423 25.9793 23.2298C24.7501 23.8132 23.2709 23.6882 22.1876 22.8548C21.5834 22.3965 21.2709 21.5527 20.3439 22.1986C19.8126 22.5736 18.4793 24.2923 18.0418 24.4277C17.073 24.7298 16.5001 23.7507 17.1043 22.9382C18.4376 21.1152 20.7293 19.8027 22.9064 19.2819L38.2814 14.7715V14.7819Z" fill="#FEFEFE"/>
<path d="M12.167 27.9173C12.9274 27.8548 13.3649 28.7194 12.9274 29.3756C12.7087 29.6985 10.4795 31.9277 10.1566 32.1464C9.21907 32.7714 8.28157 31.8444 8.87532 30.9485C9.10448 30.5944 11.3232 28.386 11.6774 28.136C12.0316 27.886 12.0107 27.9381 12.167 27.9173Z" fill="#FEFEFE"/>
<path d="M15.2082 30.8135C15.4582 31.0739 15.4582 31.6052 15.302 31.9072C14.4791 32.5947 13.6457 33.8031 12.8124 34.4177C11.9166 35.0739 11.0207 34.3239 11.4166 33.3343C11.9687 32.9177 13.7812 30.6885 14.2707 30.5739C14.5832 30.501 14.9791 30.5739 15.2082 30.8135Z" fill="#FEFEFE"/>
<path d="M14.3232 36.5413C14.0212 36.2288 14.0108 35.8122 14.2295 35.4476C14.4483 35.083 16.0628 33.5205 16.3232 33.3226C17.2087 32.6768 18.1982 33.5934 17.6358 34.4788C17.4483 34.7809 15.9378 36.2809 15.6149 36.5205C15.292 36.7601 14.6982 36.9372 14.3128 36.5309L14.3232 36.5413Z" fill="#FEFEFE"/>
<path d="M17.7608 38.022C17.4066 37.647 17.49 37.1782 17.7608 36.7928C18.0316 36.4074 18.9483 35.5428 19.6045 36.1261C20.6045 37.0324 18.6045 38.9282 17.7504 38.0115L17.7608 38.022Z" fill="#FEFEFE"/>
<path d="M19.354 1.76092C24.2186 1.29217 27.7082 6.32343 25.4894 10.7088C23.4061 14.8338 17.6665 15.2297 14.9582 11.4901C12.2082 7.68801 14.6977 2.20884 19.354 1.76092ZM20.8644 4.31301C20.8123 4.25051 20.9477 3.67759 20.5415 3.34426C20.1352 3.01092 19.3227 3.17759 19.1769 3.77134C19.0311 4.36509 19.1769 4.39634 19.1248 4.46926C19.0727 4.54218 18.9061 4.53176 18.8332 4.60468C17.5415 5.67759 17.5207 7.52134 19.0102 8.40676C20.4998 9.29217 20.6665 8.86509 20.3332 9.62551C19.9998 10.3859 19.2915 9.62551 18.8227 9.67759C18.354 9.72968 17.8436 10.4797 18.1977 11.0109C18.5519 11.5422 19.0832 11.4797 19.1248 11.5213C19.1665 11.563 19.1248 11.8651 19.1457 12.0005C19.3123 12.688 20.1873 12.9276 20.6457 12.3651C21.104 11.8026 20.7707 11.5005 20.854 11.3651C20.9373 11.2297 21.0727 11.3026 21.1457 11.2297C22.4269 10.1672 22.4582 8.31301 20.9686 7.42759C19.479 6.54218 19.3123 6.96926 19.6457 6.20884C19.979 5.44843 20.4269 6.05259 20.8019 6.10467C21.8644 6.27134 22.3748 5.11509 21.4373 4.53176C20.4998 3.94843 20.8644 4.32343 20.8436 4.30259L20.8644 4.31301Z" fill="#FEFEFE"/>
<path d="M20.8641 4.31233C20.8849 4.33316 21.3016 4.44775 21.4579 4.5415C22.3954 5.12483 21.8849 6.28108 20.8224 6.11441C20.4474 6.05191 19.937 5.59358 19.6662 6.21858C19.3954 6.84358 20.4891 7.14566 20.9891 7.43733C22.4787 8.31233 22.4474 10.1665 21.1662 11.2394C19.8849 12.3123 20.8849 11.3436 20.8745 11.3748C20.7912 11.5102 20.9683 11.9998 20.6662 12.3748C20.2079 12.9373 19.3329 12.6977 19.1662 12.0102C18.9995 11.3227 19.1662 11.5727 19.1454 11.5311C19.1245 11.4894 18.4474 11.3644 18.2183 11.0207C17.8641 10.4894 18.2183 9.77066 18.8433 9.68733C19.4683 9.604 20.0412 10.3436 20.3537 9.63525C20.6662 8.92691 19.5308 8.70816 19.0308 8.4165C17.5412 7.5415 17.562 5.68733 18.8537 4.61441C20.1454 3.5415 19.1349 4.51025 19.1454 4.479C19.187 4.40608 19.1454 3.98941 19.1974 3.78108C19.3433 3.18733 20.0933 2.979 20.562 3.354C21.0308 3.729 20.8329 4.24983 20.8849 4.32275L20.8641 4.31233Z" fill="#4065D3"/>
</g>
<defs>
<clipPath id="clip0_1328_29430">
<rect width="40" height="40" fill="white"/>
</clipPath>
</defs>
</svg>
