<svg width="40" height="40" viewBox="0 0 40 40" fill="none" xmlns="http://www.w3.org/2000/svg">
<g clip-path="url(#clip0_1328_29400)">
<path d="M0 6.71891C0.583333 4.68766 2.26042 3.271 4.45833 3.521C4.19792 1.51058 5.76042 -0.218587 7.83333 0.41683C9.1875 0.82308 9.63542 2.23975 9.58333 3.521H25.9479C25.5 -0.760253 31.4479 -0.77067 31.0208 3.521C33.2708 3.25016 35.2917 4.90641 35.4792 7.146V23.4793C35.5208 23.7293 36.3854 24.146 36.6458 24.3439C37.8854 25.3022 38.8958 26.6356 39.4479 28.1043L40.0104 30.1564V32.2606C39.7917 32.8022 39.7396 33.3752 39.5417 33.9377C38.4583 37.0731 35.5521 39.3647 32.2396 39.6772H3.47917C2.23958 39.4897 1.14583 38.7918 0.53125 37.6981C-0.0833334 36.6043 0.1875 36.8439 0 36.396L0 6.71891ZM6.4375 2.21891C6.29167 2.36475 6.19792 2.65641 6.17708 2.85433C6.10417 3.44808 6.10417 5.07308 6.17708 5.65641C6.32292 6.71891 7.61458 6.67725 7.79167 5.88558C7.96875 5.09391 7.86458 3.13558 7.80208 2.7085C7.69792 2.04183 6.875 1.78141 6.42708 2.21891H6.4375ZM29.0313 2.21891C28.5833 1.78141 27.7604 2.04183 27.6563 2.7085C27.5833 3.2085 27.5833 5.32308 27.6667 5.81266C27.8333 6.72933 29.1354 6.7085 29.2813 5.75016C29.4271 4.79183 29.3542 3.43766 29.2813 2.86475C29.2083 2.29183 29.1667 2.37516 29.0208 2.22933L29.0313 2.21891ZM1.71875 7.146C1.61458 7.91683 1.79167 8.896 1.71875 9.68766H33.75V7.07308C33.75 6.9585 33.5208 6.48975 33.4479 6.35433C32.9479 5.4585 32 5.12516 31.0104 5.22933C31.1979 9.16683 25.7188 9.146 25.9375 5.22933H9.53125C9.75 9.15641 4.28125 9.16683 4.45833 5.22933C3.19792 5.04183 1.89583 5.84391 1.71875 7.146ZM33.75 11.4064H1.71875V36.0522C1.71875 36.7293 2.8125 37.9689 3.47917 37.9689H26.1771C24.8958 36.8231 23.8125 35.4585 23.2813 33.7918C21.2083 27.271 27.2083 21.1147 33.75 22.8856V11.4064ZM31.0729 24.3231C25.5625 24.6356 22.6146 31.0939 26.0938 35.4272C29.1042 39.1772 35.0104 38.7293 37.3854 34.5314C39.7604 30.3335 36.4479 24.021 31.0833 24.3231H31.0729Z" fill="#140505"/>
<path d="M33.75 11.4062V22.8854C27.2083 21.1146 21.1979 27.2604 23.2812 33.7917C23.8125 35.4583 24.8958 36.8229 26.1771 37.9688H3.47917C2.8125 37.9688 1.71875 36.7292 1.71875 36.0521V11.4062H33.75ZM6.69792 13.2188C5.95833 13.3438 5.28125 14.0833 5.17708 14.8229C5.07292 15.5625 5.08333 17.7812 5.28125 18.3542C5.58333 19.2604 6.41667 19.6146 7.3125 19.6875C8.85417 19.8021 11.375 19.9375 11.6458 17.9271C11.75 17.1354 11.7396 14.8125 11.375 14.1458C11.0104 13.4792 10.6042 13.3021 10.1146 13.2188C9.625 13.1354 7.28125 13.125 6.71875 13.2188H6.69792ZM16 13.2188C15.4062 13.3229 14.6562 14.0729 14.5521 14.6667C14.4479 15.2604 14.4583 17.3542 14.5312 18.0104C14.75 19.9479 17.5 19.8125 18.9375 19.6771C20.25 19.5521 20.9062 18.8437 21.0208 17.5417C21.1354 16.1875 21.2604 13.5208 19.4792 13.2292C18.8958 13.1354 16.5833 13.1354 16 13.2292V13.2188ZM25.375 13.2188C24.8542 13.3021 24.2396 13.8125 24.0312 14.2917C23.6979 15.0417 23.7188 17.9375 24.1146 18.6667C24.5104 19.3958 25.2604 19.6354 26.0625 19.6875C27.5104 19.7917 30.0521 19.9167 30.3125 18C30.3958 17.375 30.3854 15 30.1979 14.4583C30.0104 13.9167 29.3438 13.3021 28.7083 13.2083C28.0729 13.1146 25.9688 13.125 25.375 13.2188ZM6.9375 21.5833C6.16667 21.6771 5.44792 22.2396 5.23958 23.0104C5.03125 23.7812 5.08333 25.6354 5.15625 26.2917C5.22917 26.9479 5.98958 27.9271 6.84375 28.0417C7.48958 28.125 9.21875 28.125 9.88542 28.0417C10.6146 27.9583 11.25 27.4583 11.5 26.7708C11.75 26.0833 11.7292 23.5104 11.5208 22.8958C11.3125 22.2812 10.7604 21.8021 10.1875 21.6562C9.61458 21.5104 7.625 21.5104 6.9375 21.5938V21.5833ZM16.2292 21.5833C15.4792 21.6875 14.7188 22.2812 14.5625 23.0417C14.4062 23.8021 14.4583 25.7396 14.5312 26.3646C14.6042 26.9896 15.1354 27.7083 15.7812 27.9271C16.4271 28.1458 18.6042 28.125 19.2604 28.0417C19.9167 27.9583 20.8542 27.2188 20.9375 26.4375C21.0104 25.7188 21.0208 23.9479 20.9375 23.2292C20.8542 22.5104 20.4583 22.0625 19.9479 21.8021C19.4375 21.5417 17.0104 21.4688 16.2292 21.5729V21.5833ZM6.85417 29.7812C6.13542 29.8854 5.42708 30.5 5.23958 31.2083C5.05208 31.9167 5.07292 34.5208 5.36458 35.1458C5.57292 35.5937 5.9375 35.8958 6.38542 36.0833C6.97917 36.3333 9.17708 36.3333 9.88542 36.25C10.5938 36.1667 11.5312 35.3646 11.6354 34.4792C11.7396 33.5938 11.7188 31.6667 11.5208 31.0938C11.3229 30.5208 10.625 29.8854 9.9375 29.7812C9.29167 29.6875 7.48958 29.6875 6.85417 29.7812ZM16.2292 29.7812C15.4479 29.8854 14.6875 30.5 14.5521 31.3021C14.4167 32.1042 14.4583 33.9271 14.5312 34.5625C14.6042 35.1979 15.1458 35.9062 15.7812 36.125C16.4167 36.3437 19.0833 36.3229 19.6875 36.125C20.2917 35.9271 20.875 35.2708 20.9375 34.6458C21 34.0208 21.0208 32.1562 20.9375 31.4375C20.8542 30.7187 20.4583 30.2708 19.9479 30.0104C19.4375 29.75 17.0104 29.6771 16.2292 29.7812Z" fill="#FEFEFE"/>
<path d="M31.073 24.3238C36.4376 24.0217 40.0313 29.8342 37.3751 34.5321C34.7188 39.2301 29.1042 39.178 26.0834 35.428C22.6042 31.0946 25.5522 24.6259 31.0626 24.3238H31.073ZM33.7084 30.6259C33.3334 30.553 32.7501 30.678 32.3438 30.6259V27.303C32.3438 26.4592 30.8959 26.0738 30.6042 27.1259C30.448 27.6676 30.4897 30.6884 30.5522 31.3759C30.5834 31.7821 30.7605 32.2717 31.2188 32.3446C31.6772 32.4176 33.5626 32.3967 33.8334 32.3134C34.6251 32.0738 34.5105 30.7926 33.7084 30.6259Z" fill="#FEFEFE"/>
<path d="M1.71831 7.14687C1.8954 5.84478 3.19748 5.0427 4.4579 5.2302C4.28081 9.1677 9.74957 9.15728 9.53081 5.2302H25.9371C25.7287 9.14687 31.2079 9.1677 31.01 5.2302C31.9996 5.11562 32.9475 5.45937 33.4475 6.3552C33.9475 7.25103 33.7496 6.95937 33.7496 7.07395V9.68853H1.71831C1.79123 8.89687 1.61415 7.9177 1.71831 7.14687Z" fill="#FEFEFE"/>
<path d="M29.0317 2.21829C29.1775 2.36413 29.2713 2.65579 29.2921 2.85371C29.3546 3.42663 29.3754 5.19746 29.2921 5.73913C29.1463 6.69746 27.8442 6.71829 27.6775 5.80163C27.5109 4.88496 27.5838 3.19746 27.6671 2.69746C27.7713 2.03079 28.5942 1.77038 29.0421 2.20788L29.0317 2.21829Z" fill="#FEFEFE"/>
<path d="M6.43771 2.2196C6.88563 1.7821 7.70855 2.04251 7.81271 2.70918C7.91688 3.37585 7.88563 5.51126 7.8023 5.88626C7.62521 6.68835 6.33355 6.7196 6.18771 5.6571C6.04188 4.5946 6.1148 3.44876 6.18771 2.85501C6.26063 2.26126 6.3023 2.36543 6.44813 2.2196H6.43771Z" fill="#FEFEFE"/>
<path d="M16.0004 13.2187C16.5837 13.125 18.8962 13.125 19.4796 13.2187C21.2608 13.5208 21.1358 16.1771 21.0212 17.5312C20.9171 18.8333 20.2504 19.5521 18.9379 19.6667C17.5004 19.8021 14.7504 19.9375 14.5316 18C14.4587 17.3438 14.4483 15.2812 14.5525 14.6562C14.6566 14.0312 15.4066 13.3125 16.0004 13.2083V13.2187ZM16.365 14.9167C16.3441 14.9583 16.2504 15.0104 16.2504 15.0312V17.7604C16.2504 17.8542 16.5733 17.9479 16.6775 17.9583C17.0212 18 18.7296 18.0104 18.99 17.9167C19.2504 17.8229 19.2191 17.7917 19.2191 17.7604V15.0312C19.2191 15.0312 19.115 14.9167 19.1045 14.9167H16.3754H16.365Z" fill="#4065D3"/>
<path d="M25.3752 13.2182C25.969 13.1244 28.1044 13.1244 28.7086 13.2077C29.3127 13.2911 29.9898 13.8536 30.1981 14.4577C30.4065 15.0619 30.3961 17.3744 30.3127 17.9994C30.0523 19.9161 27.5002 19.7911 26.0627 19.6869C24.6252 19.5827 24.5315 19.4161 24.1148 18.6661C23.6981 17.9161 23.6981 15.0411 24.0315 14.2911C24.3648 13.5411 24.8544 13.3015 25.3752 13.2182ZM25.6252 14.9161C25.4898 14.9161 25.5211 17.4057 25.5419 17.614C25.5627 17.8223 25.7086 17.9369 25.9794 17.9577C26.2502 17.9786 28.094 18.0098 28.3648 17.9161C28.6356 17.8223 28.594 17.7911 28.594 17.7598V15.0307C28.594 15.0307 28.4898 14.9161 28.4794 14.9161H25.6252Z" fill="#4065D3"/>
<path d="M6.93704 21.5827C7.62454 21.4994 9.56204 21.4785 10.187 21.6452C10.812 21.8119 11.3329 22.3223 11.5204 22.8848C11.7079 23.4473 11.7183 26.1556 11.4995 26.7598C11.2808 27.3639 10.6141 27.9577 9.88495 28.0306C9.21829 28.1035 7.48912 28.1139 6.84329 28.0306C5.98912 27.916 5.24954 27.1348 5.15579 26.2806C5.06204 25.4264 5.08287 23.5827 5.23912 22.9994C5.39537 22.416 6.1662 21.666 6.93704 21.5723V21.5827ZM7.08287 23.3014C7.00995 23.3223 6.94745 23.3744 6.90579 23.4369C6.84329 23.5723 6.82245 25.7077 6.86412 25.9785C6.90579 26.2494 6.95787 26.291 7.21829 26.3327C7.65579 26.3952 9.12454 26.3952 9.57245 26.3327C10.0204 26.2702 9.88495 26.2389 9.92662 25.9785C9.98912 25.541 9.98912 24.0723 9.92662 23.6244C9.86412 23.1764 9.83287 23.3119 9.57245 23.2702C9.31204 23.2285 7.31204 23.2285 7.08287 23.291V23.3014Z" fill="#4065D3"/>
<path d="M16.2294 21.5835C17.0106 21.4793 19.2815 21.4689 19.9481 21.8126C20.6148 22.1564 20.8752 22.6668 20.9377 23.2397C21.0002 23.8126 21.0106 25.7189 20.9377 26.448C20.8544 27.2293 20.0211 27.9585 19.2606 28.0522C18.5002 28.146 16.344 28.1251 15.7815 27.9376C15.219 27.7501 14.6044 27.0626 14.5315 26.3751C14.4586 25.6876 14.4481 23.6251 14.5627 23.0522C14.6773 22.4793 15.4794 21.698 16.2294 21.5939V21.5835ZM19.219 23.3543C19.219 23.2085 16.4898 23.2605 16.2502 23.3543V26.2085C16.2502 26.2085 16.3544 26.323 16.3648 26.323H19.094C19.094 26.323 19.2086 26.2189 19.2086 26.2085V23.3543H19.219Z" fill="#4065D3"/>
<path d="M6.69767 13.2187C7.26017 13.125 9.53101 13.125 10.0935 13.2187C10.656 13.3125 11.1143 13.7083 11.3539 14.1458C11.7185 14.8125 11.7289 17.1354 11.6248 17.9271C11.3643 19.9479 8.83309 19.8125 7.29142 19.6875C5.74976 19.5625 5.57267 19.2708 5.26017 18.3542C5.06226 17.7812 5.07267 15.4688 5.15601 14.8229C5.23934 14.1771 5.93726 13.3438 6.67684 13.2187H6.69767ZM6.98934 14.9167C6.96851 14.9583 6.87476 15.0104 6.87476 15.0312V17.7604C6.87476 17.8542 7.19767 17.9479 7.30184 17.9583C7.65601 18 9.42684 18.0104 9.68726 17.9167C9.94767 17.8229 9.91642 17.7917 9.91642 17.7604V15.0312C9.91642 15.0312 9.81226 14.9167 9.80184 14.9167H6.98934Z" fill="#4065D3"/>
<path d="M16.2296 29.7807C17.0108 29.6766 19.2816 29.6661 19.9483 30.0099C20.615 30.3536 20.8754 30.8641 20.9379 31.437C21.0004 32.0099 21.0108 33.9161 20.9379 34.6453C20.865 35.3745 20.2712 35.9266 19.6879 36.1245C19.1046 36.3224 16.3858 36.3224 15.7816 36.1245C15.1775 35.9266 14.6045 35.2391 14.5316 34.562C14.4587 33.8849 14.4483 31.9057 14.5525 31.3016C14.6566 30.6974 15.4483 29.8849 16.2296 29.7807ZM19.2191 31.562C19.2191 31.4161 16.49 31.4682 16.2504 31.562V34.4161C16.2504 34.4161 16.3546 34.5307 16.365 34.5307H19.0941C19.0941 34.5307 19.2087 34.4266 19.2087 34.4161V31.562H19.2191Z" fill="#4065D3"/>
<path d="M6.85432 29.7812C7.50015 29.6875 9.30223 29.6875 9.93765 29.7812C10.6147 29.875 11.3022 30.4479 11.521 31.0938C11.7397 31.7396 11.7085 33.8229 11.6356 34.4792C11.5627 35.1354 10.771 36.1458 9.88557 36.25C9.00015 36.3542 6.97932 36.3229 6.38557 36.0833C5.93765 35.8958 5.57307 35.5938 5.36473 35.1458C5.08348 34.5312 5.06265 31.8854 5.23973 31.2083C5.41682 30.5313 6.13557 29.8854 6.85432 29.7812ZM7.08348 31.5C7.01057 31.5208 6.94807 31.5729 6.9064 31.6354C6.8439 31.7708 6.82307 33.9063 6.86473 34.1771C6.9064 34.4479 6.95848 34.4896 7.2189 34.5313C7.6564 34.5938 9.12515 34.5938 9.57307 34.5313C10.021 34.4688 9.88557 34.4375 9.92723 34.1771C9.98973 33.7396 9.98973 32.2708 9.92723 31.8229C9.86473 31.375 9.83348 31.5104 9.57307 31.4688C9.31265 31.4271 7.31265 31.4271 7.08348 31.4896V31.5Z" fill="#4065D3"/>
<path d="M33.7085 30.6255C34.5106 30.7817 34.6148 32.063 33.8335 32.313C33.0523 32.563 31.5523 32.3963 31.219 32.3442C30.8856 32.2921 30.5835 31.7817 30.5523 31.3755C30.4898 30.688 30.4585 27.6671 30.6044 27.1255C30.9064 26.0838 32.3439 26.4588 32.3439 27.3026V30.6255C32.7502 30.6776 33.3335 30.5526 33.7085 30.6255Z" fill="#140505"/>
<path d="M16.3643 14.916H19.0934C19.0934 14.916 19.208 15.0202 19.208 15.0306V17.7598C19.208 17.791 19.0413 17.9056 18.9788 17.916C18.7184 17.9993 17.0101 17.9889 16.6663 17.9577C16.3226 17.9264 16.2393 17.8535 16.2393 17.7598V15.0306C16.2393 15.0098 16.333 14.9577 16.3538 14.916H16.3643Z" fill="#FEFEFE"/>
<path d="M25.6247 14.916H28.4789C28.4789 14.916 28.5934 15.0202 28.5934 15.0306V17.7598C28.5934 17.791 28.4268 17.9056 28.3643 17.916C28.0934 17.9993 26.333 17.9889 25.9789 17.9577C25.6247 17.9264 25.583 17.8952 25.5414 17.6139C25.4997 17.3327 25.4893 14.916 25.6247 14.916Z" fill="#FEFEFE"/>
<path d="M7.08347 23.3018C7.30222 23.2393 9.27097 23.2393 9.57305 23.281C9.87514 23.3227 9.89597 23.3747 9.92722 23.6352C9.98972 24.0727 9.98972 25.5414 9.92722 25.9893C9.86472 26.4372 9.83347 26.3122 9.57305 26.3435C9.13555 26.406 7.6668 26.406 7.21889 26.3435C6.77097 26.281 6.89597 26.2497 6.86472 25.9893C6.83347 25.7289 6.84389 23.5831 6.90639 23.4477C6.96889 23.3122 7.01055 23.3331 7.08347 23.3122V23.3018Z" fill="#FEFEFE"/>
<path d="M19.2191 23.3546V26.2087C19.2191 26.2087 19.1149 26.3233 19.1045 26.3233H16.3753C16.3753 26.3233 16.2607 26.2191 16.2607 26.2087V23.3546C16.5003 23.2608 19.2295 23.2087 19.2295 23.3546H19.2191Z" fill="#FEFEFE"/>
<path d="M6.98958 14.916H9.80208C9.80208 14.916 9.91667 15.0202 9.91667 15.0306V17.7598C9.91667 17.791 9.75 17.9056 9.6875 17.916C9.41667 17.9993 7.65625 17.9889 7.30208 17.9577C6.94792 17.9264 6.875 17.8535 6.875 17.7598V15.0306C6.875 15.0098 6.96875 14.9577 6.98958 14.916Z" fill="#FEFEFE"/>
<path d="M19.2191 31.5616V34.4158C19.2191 34.4158 19.1149 34.5303 19.1045 34.5303H16.3753C16.3753 34.5303 16.2607 34.4262 16.2607 34.4158V31.5616C16.5003 31.4678 19.2295 31.4158 19.2295 31.5616H19.2191Z" fill="#FEFEFE"/>
<path d="M7.08347 31.501C7.30222 31.4385 9.27097 31.4385 9.57305 31.4802C9.87514 31.5219 9.89597 31.574 9.92722 31.8344C9.98972 32.2719 9.98972 33.7406 9.92722 34.1885C9.86472 34.6365 9.83347 34.5115 9.57305 34.5427C9.13555 34.6052 7.6668 34.6052 7.21889 34.5427C6.77097 34.4802 6.89597 34.449 6.86472 34.1885C6.83347 33.9281 6.84389 31.7823 6.90639 31.6469C6.96889 31.5115 7.01055 31.5323 7.08347 31.5115V31.501Z" fill="#FEFEFE"/>
</g>
<defs>
<clipPath id="clip0_1328_29400">
<rect width="40" height="40" fill="white"/>
</clipPath>
</defs>
</svg>
