<svg width="40" height="40" viewBox="0 0 40 40" fill="none" xmlns="http://www.w3.org/2000/svg">
<g clip-path="url(#clip0_1328_29420)">
<path d="M39.9581 23.2194C39.5623 27.5944 36.7914 31.8444 33.0831 34.1152C25.4477 38.7923 15.3539 35.334 12.1768 27.0111C8.67684 17.8444 15.0831 8.08399 24.7393 7.43816V5.56316C24.1768 5.60483 23.4789 5.56316 23.3123 4.92774C23.1456 4.29233 23.5102 3.89649 24.0727 3.84441C24.6352 3.79233 26.4893 3.76108 27.1977 3.84441C27.906 3.92774 28.0831 4.65691 27.7393 5.16733C27.4268 5.62566 26.9477 5.57358 26.4581 5.56316V7.43816C31.8331 7.79233 36.6352 11.1569 38.781 16.084C39.3123 17.3132 39.8539 19.1569 39.9581 20.4902C40.0206 21.209 40.0206 22.5007 39.9581 23.2194ZM16.6456 12.8548C10.1456 19.334 12.5935 30.5527 21.1768 33.6882C30.9893 37.2715 40.656 28.209 37.6873 18.1777C34.9893 9.05274 23.3956 6.12566 16.6456 12.8548Z" fill="#140505"/>
<path d="M0 21.0312V20.4895C0.208333 20.2604 0.385417 19.9479 0.739583 19.9375C2.90625 20.1354 5.5 19.6875 7.61458 19.9375C8.75 20.0729 8.54167 21.7187 7.38542 21.6562C5.33333 21.4791 2.91667 21.875 0.90625 21.6562C0.416667 21.6041 0.229167 21.4375 0 21.0312Z" fill="#4065D3"/>
<path d="M3.10445 14.959C3.93778 14.834 6.67736 14.834 7.5107 14.959C8.67736 15.1257 8.65653 16.5736 7.52111 16.7298C6.75028 16.834 3.77111 16.8444 3.02111 16.7194C1.90653 16.5319 1.90653 15.1361 3.10445 14.959Z" fill="#4065D3"/>
<path d="M2.79203 24.875H7.75036C8.62536 25.1979 8.55245 26.4271 7.60453 26.5729C6.65661 26.7188 3.60453 26.6771 2.94828 26.5625C2.29203 26.4479 1.93786 25.1979 2.79203 24.875Z" fill="#4065D3"/>
<path d="M16.6458 12.8548C23.4062 6.12563 34.9895 9.05272 37.6875 18.1777C40.6562 28.209 31 37.2715 21.177 33.6881C12.5833 30.5527 10.1354 19.334 16.6458 12.8548ZM24.7187 11.2923C16.9375 11.8861 12.4895 20.6777 16.5833 27.3548C20.7916 34.2298 30.9166 33.9902 34.8125 26.9486C38.9062 19.5527 33.0833 10.6465 24.7187 11.2923Z" fill="#FEFEFE"/>
<path d="M24.7191 11.291C33.0837 10.6452 38.9066 19.541 34.8128 26.9473C30.917 33.9994 20.792 34.2285 16.5837 27.3535C12.4899 20.666 16.9378 11.8848 24.7191 11.291ZM24.7399 13.0619C20.6045 13.3223 17.1983 16.864 16.7816 20.9577H18.542C18.8024 20.9577 19.1878 21.5098 19.1983 21.7806C19.2087 22.0515 18.8753 22.6765 18.542 22.6765H16.7816C17.2087 26.864 20.5524 30.2181 24.7399 30.6452V28.8848C24.7399 28.5723 25.3128 28.2077 25.6358 28.2285C25.9587 28.2494 26.4587 28.6244 26.4587 28.8848V30.6452C30.5524 30.239 34.0837 26.8327 34.3441 22.6765H32.5837C32.3024 22.6765 31.9795 22.0723 31.9899 21.7806C32.0003 21.489 32.3858 20.9577 32.6566 20.9577H34.3337C34.0941 16.8848 30.5108 13.3119 26.4483 13.0619V14.739C26.4483 15.0202 25.917 15.3952 25.6253 15.4056C25.3337 15.416 24.7295 15.0931 24.7295 14.8119V13.0515L24.7399 13.0619Z" fill="#4065D3"/>
<path d="M24.7399 13.0625V14.8229C24.7399 15.1042 25.3441 15.4271 25.6357 15.4167C25.9274 15.4062 26.4587 15.0208 26.4587 14.75V13.0729C30.5212 13.3229 34.0941 16.8958 34.3441 20.9688H32.667C32.3857 20.9688 32.0107 21.5 32.0003 21.7917C31.9899 22.0833 32.3128 22.6875 32.5941 22.6875H34.3545C34.0941 26.8438 30.5732 30.25 26.4691 30.6562V28.8958C26.4691 28.6354 25.917 28.25 25.6462 28.2396C25.3753 28.2292 24.7503 28.5938 24.7503 28.8958V30.6562C20.5628 30.2292 17.2191 26.875 16.792 22.6875H18.5524C18.8857 22.6875 19.2295 22.1146 19.2087 21.7917C19.1878 21.4688 18.8128 20.9688 18.5524 20.9688H16.792C17.2087 16.875 20.6149 13.3333 24.7503 13.0729L24.7399 13.0625ZM25.3337 17.8438C25.0837 17.8958 24.7816 18.2396 24.7399 18.5L24.7712 22.1354L27.667 25.1042C28.3232 25.5833 29.1982 24.9375 29.0003 24.1667C28.8441 23.5521 26.9378 22.1354 26.5003 21.5104C26.2191 20.5938 27.1149 17.4479 25.3441 17.8542L25.3337 17.8438Z" fill="#FEFEFE"/>
<path d="M25.3337 17.8427C27.1045 17.4364 26.2087 20.5822 26.4899 21.4989C26.9274 22.1239 28.8337 23.5406 28.9899 24.1552C29.1878 24.926 28.3128 25.5718 27.6566 25.0927L24.7607 22.1239L24.7295 18.4885C24.7712 18.2385 25.0837 17.8947 25.3232 17.8322L25.3337 17.8427Z" fill="#140505"/>
</g>
<defs>
<clipPath id="clip0_1328_29420">
<rect width="40" height="40" fill="white"/>
</clipPath>
</defs>
</svg>
