<svg width="20" height="20" viewBox="0 0 20 20" fill="none" xmlns="http://www.w3.org/2000/svg">
<g clip-path="url(#clip0_1673_3194)">
<path d="M10.5104 -0.000651042C10.7708 0.0670573 11.0364 0.0983073 11.302 0.166016C13.2552 0.676432 14.8281 2.51497 14.9687 4.54622C15.1145 6.72852 14.8541 9.06706 14.9687 11.265C15.7083 12.2702 16.151 13.3171 16.2187 14.5879C16.2864 15.8587 16.2864 17.041 16.2187 18.0671C16.151 19.0879 15.5729 19.765 14.5781 19.9993H13.9531C13.7864 19.9108 13.6041 19.8796 13.4322 19.7962C12.4843 19.3431 11.2864 18.4837 10.3645 17.9056C9.44265 17.3275 10.1406 17.7337 10.0208 17.6608L6.58328 19.7962L5.98432 19.9993H5.35932C4.4062 19.6973 3.85932 19.0827 3.79682 18.0671C3.72911 17.041 3.74474 15.6191 3.79682 14.5879C3.8489 13.5566 4.30724 12.2754 5.04682 11.265C5.1614 9.06706 4.90099 6.72852 5.04682 4.54622C5.18224 2.52539 6.73953 0.692057 8.68224 0.171224L9.42182 -0.00585938H10.5156L10.5104 -0.000651042ZM14.0989 10.5046V4.62435C13.526 -0.386067 6.42182 -0.349609 5.89578 4.66081V10.5046C6.58328 9.99414 7.37494 9.68164 8.20307 9.50456C8.21349 9.4681 8.21349 8.77539 8.20307 8.73372C8.19265 8.69206 7.77599 8.35352 7.69265 8.25977C7.26036 7.75456 6.99474 7.08789 6.94786 6.42643C6.9114 5.86914 6.89578 4.90039 6.94786 4.35352C7.01036 3.71289 7.63015 3.94206 8.0989 3.90039C8.56765 3.85872 8.99474 3.69206 9.29682 3.37956C9.5989 3.06706 9.64057 2.70768 9.98432 2.69727C10.3281 2.68685 10.4687 3.13997 10.6822 3.35872C10.9947 3.68164 11.4947 3.86914 11.9322 3.9056C12.3854 3.94206 12.9843 3.7181 13.0468 4.35352C13.0989 4.90039 13.0833 5.86914 13.0468 6.42643C13.0052 7.11914 12.7135 7.84831 12.2447 8.35872C11.776 8.86914 11.8229 8.70247 11.802 8.77539C11.7447 8.96289 11.8281 9.29622 11.7916 9.50456C12.6197 9.68685 13.4166 9.99414 14.0989 10.5046ZM12.1874 4.76497C11.3645 4.79622 10.5885 4.49935 10.0156 3.91081C9.40099 4.47852 8.66661 4.80664 7.81245 4.76497C7.83328 5.93164 7.60411 7.07227 8.57286 7.93164C9.54161 8.79102 10.9895 8.61393 11.7499 7.5931C12.5104 6.57227 12.1458 5.75456 12.1874 4.76497ZM10.9374 9.2181C10.2916 9.36393 9.70828 9.36393 9.06245 9.2181C9.07286 9.33268 9.04161 9.47852 9.06245 9.58789C9.08328 9.69727 9.82286 10.5514 9.92182 10.6452C10.0208 10.7389 9.9687 10.7129 10.0156 10.7025L10.9166 9.65039L10.9374 9.22331V9.2181ZM8.58849 10.3587L7.85411 10.4681C7.88015 10.6243 8.32807 11.6191 8.38536 11.6348C8.51036 11.6712 9.13536 11.291 9.29682 11.2285L8.58849 10.3587ZM12.151 10.4681L11.4166 10.3587L10.7083 11.2493L11.6197 11.64C11.7083 11.5254 12.1979 10.515 12.151 10.4733V10.4681ZM15.3541 15.1556C15.3385 14.6712 15.3229 14.1869 15.2187 13.7077C14.9947 12.6712 14.3072 11.6712 13.4322 11.0827C12.5572 10.4941 13.0833 10.8483 13.0156 10.8327C12.9479 10.8171 12.8906 10.9837 12.8645 11.0358C12.6666 11.4525 12.4583 12.0566 12.2291 12.4316C12.0937 12.6504 11.8906 12.6973 11.6458 12.6348L9.98953 11.8743L8.36453 12.6348C8.11974 12.6973 7.92182 12.6504 7.78119 12.4316L7.01557 10.8223C6.06765 11.3223 5.2812 12.2025 4.92182 13.2181C4.56245 14.2337 4.66661 14.4837 4.65099 15.1504H6.13536V14.1139C6.13536 14.0827 6.27078 13.89 6.31245 13.8587C6.45307 13.7598 6.6562 13.7493 6.80203 13.8431C6.94786 13.9368 6.99994 14.041 6.99994 14.0775V16.166C7.27599 16.1348 7.54682 15.9733 7.81245 15.8848C7.86974 15.4889 7.85411 15.0202 7.99474 14.64C8.24474 13.9629 8.96349 13.5671 9.67182 13.666C9.79161 13.6816 9.92182 13.7858 10.026 13.7806C10.1302 13.7754 10.2291 13.6816 10.3437 13.666C10.9531 13.5775 11.5937 13.8691 11.901 14.4056C12.2083 14.9421 12.1458 15.3848 12.2031 15.8796C12.4791 15.9525 12.7343 16.1348 13.0208 16.1556V14.0671C13.0208 14.0306 13.1718 13.8639 13.2187 13.8327C13.3645 13.7389 13.5677 13.7493 13.7083 13.8483C13.8489 13.9473 13.8854 14.0723 13.8854 14.1035V15.14H15.3697L15.3541 15.1556ZM4.64578 16.015V18.1035C4.64578 18.5618 5.05203 19.041 5.50515 19.1191C5.95828 19.1973 6.02599 19.0983 6.31245 18.9473C7.29682 18.4368 8.24995 17.6764 9.23432 17.1452C9.42182 16.9889 9.54161 16.8327 9.56765 16.5775C9.59369 16.3223 9.60932 14.6452 9.55203 14.5619C9.40619 14.3535 8.91661 14.7025 8.81765 14.89C8.62495 15.2598 8.77078 16.2702 8.48953 16.515L6.61453 17.2598C6.45307 17.3223 6.13015 17.0723 6.13015 16.9316V16.015H4.64578ZM13.8645 16.015V16.9316C13.8645 17.0723 13.5416 17.3223 13.3802 17.2598L11.5052 16.515C11.1249 16.1921 11.5312 14.9994 10.9062 14.6139C10.7812 14.5358 10.4583 14.4421 10.4218 14.6243C10.4635 15.2441 10.3645 15.9316 10.4218 16.541C10.4791 17.1504 10.5104 16.9264 10.651 17.0671C11.6562 17.6348 12.6406 18.3952 13.6562 18.9368C13.9479 19.0931 14.1406 19.1816 14.4895 19.1244C14.9427 19.0462 15.3489 18.5671 15.3489 18.1087V16.0202H13.8645V16.015Z" fill="#140505"/>
<path d="M20.0001 6.32918V6.56356C19.8699 6.89689 19.4949 6.89168 19.2189 7.04793C19.0001 7.17293 18.797 7.37085 18.6668 7.5896C18.4793 7.9021 18.4845 8.41772 18.0314 8.4021C17.5782 8.38647 17.6251 7.96981 17.4845 7.69376C17.3439 7.41772 17.0678 7.14689 16.8022 7.01147C16.5366 6.87606 16.1043 6.87085 16.0939 6.4646C16.0782 6.01147 16.5886 6.01668 16.9064 5.82918C17.2241 5.64168 17.3543 5.45418 17.4845 5.19897C17.6147 4.94376 17.6616 4.38126 18.1668 4.51147C18.672 4.64168 18.4793 4.9646 18.6043 5.20939C18.7293 5.45418 19.0418 5.77189 19.3126 5.90731C19.5834 6.04272 19.8647 6.01668 20.0053 6.32918H20.0001ZM18.0834 5.93856C18.0157 5.89168 17.8959 6.10522 17.8491 6.1521C17.7501 6.25106 17.6511 6.34481 17.5366 6.42814C17.5834 6.49585 18.0157 6.9646 18.0626 6.95418L18.5522 6.42814C18.3751 6.29793 18.172 6.13647 18.0834 5.93856Z" fill="#4065D3"/>
<path d="M0 9.60992V9.37554C0.130208 9.06304 0.385417 9.0995 0.640625 8.97971C0.895833 8.85992 1.25521 8.54221 1.40104 8.25575C1.54688 7.96929 1.52604 7.64117 1.83854 7.55783C2.375 7.41721 2.38021 8.02658 2.57292 8.3495C2.69271 8.55263 2.89583 8.75575 3.09896 8.87554C3.39063 9.04742 3.89583 9.07346 3.91146 9.4745C3.92708 9.93283 3.45312 9.91721 3.15625 10.0891C2.85938 10.261 2.61979 10.5422 2.51042 10.7714C2.40104 11.0005 2.38021 11.4433 1.97917 11.4537C1.57813 11.4641 1.53125 10.9589 1.34375 10.6412C1.15625 10.3235 1.01042 10.2245 0.791667 10.0995C0.572917 9.9745 0.140625 9.94846 0.0104167 9.61513L0 9.60992ZM2.20312 9.74013C2.25521 9.68804 2.48438 9.55263 2.46354 9.4745C2.44271 9.39638 2.20833 9.25575 2.15104 9.19846C2.03125 9.07867 1.97396 8.83908 1.85938 9.0995L1.44792 9.50575C1.57812 9.537 1.90104 9.98492 1.9375 9.99533C2.02083 10.0162 2.15104 9.787 2.20312 9.73492V9.74013Z" fill="#4065D3"/>
<path d="M14.0989 10.5046C13.4166 9.99419 12.6249 9.68169 11.7916 9.50461C11.828 9.29627 11.7447 8.96294 11.802 8.77544C11.8593 8.58794 12.1562 8.45252 12.2447 8.35877C12.7135 7.84836 13.0051 7.11919 13.0468 6.42648C13.0833 5.86919 13.0989 4.89523 13.0468 4.35357C12.9843 3.71815 12.3853 3.94211 11.9322 3.90565C11.4895 3.8744 10.9895 3.68169 10.6822 3.35877C10.4687 3.14002 10.3489 2.68169 9.98429 2.69731C9.61971 2.71294 9.51034 3.16607 9.29679 3.37961C8.99471 3.6869 8.52596 3.86398 8.09888 3.90044C7.67179 3.9369 7.01034 3.71294 6.94784 4.35357C6.89575 4.90044 6.91138 5.86919 6.94784 6.42648C6.99471 7.09315 7.26034 7.75982 7.69263 8.25982C8.12492 8.75982 8.19263 8.70252 8.20304 8.73377C8.21346 8.76502 8.21346 9.46294 8.20304 9.50461C7.37492 9.68169 6.57804 9.99419 5.89575 10.5046V4.66086C6.42179 -0.34956 13.526 -0.386018 14.0989 4.6244V10.5046Z" fill="#FEFEFE"/>
<path d="M15.3542 15.1569H13.8699V14.1205C13.8699 14.0892 13.7345 13.8965 13.6928 13.8653C13.5522 13.7663 13.349 13.7559 13.2032 13.8496C13.0574 13.9434 13.0053 14.0475 13.0053 14.084V16.1725C12.724 16.1465 12.4688 15.9642 12.1876 15.8965C12.1303 15.3965 12.1407 14.8705 11.8855 14.4225C11.6303 13.9746 10.9428 13.5944 10.3282 13.683C9.71362 13.7715 10.0938 13.7923 10.0105 13.7975C9.92716 13.8028 9.78133 13.7038 9.65633 13.683C8.948 13.584 8.22925 13.9798 7.97925 14.6569C7.72925 15.334 7.85425 15.5007 7.79696 15.9017C7.52612 15.9903 7.2605 16.1517 6.98446 16.183V14.0944C6.98446 14.058 6.83341 13.8913 6.78654 13.86C6.64071 13.7663 6.43758 13.7767 6.29696 13.8757C6.15633 13.9746 6.11987 14.0996 6.11987 14.1309V15.1673H4.6355C4.65633 14.5007 4.68758 13.8705 4.90633 13.235C5.26571 12.2194 6.04696 11.3392 7.00008 10.8392L7.76571 12.4486C7.90633 12.6621 8.09904 12.7142 8.34904 12.6517L9.97404 11.8913L11.6303 12.6517C11.8699 12.7142 12.0782 12.6673 12.2136 12.4486C12.4428 12.0788 12.6511 11.4694 12.849 11.0528C13.047 10.6361 12.9324 10.8288 13.0001 10.8496C13.0678 10.8705 13.3386 11.0475 13.4167 11.0996C14.2917 11.6882 14.9792 12.6882 15.2032 13.7246C15.3074 14.1986 15.323 14.683 15.3386 15.1725L15.3542 15.1569Z" fill="#FEFEFE"/>
<path d="M12.1874 4.76628C12.1458 5.75065 12.3801 6.74544 11.7499 7.5944C11.1197 8.44336 9.53638 8.78711 8.57283 7.93294C7.60929 7.07878 7.83325 5.93294 7.81242 4.76628C8.66658 4.80794 9.40096 4.47461 10.0155 3.91211C10.5885 4.50065 11.3645 4.79753 12.1874 4.76628ZM9.13013 6.33919C8.94783 6.37565 8.802 6.55794 8.78637 6.74023C8.75512 7.1569 9.47388 7.52669 9.83325 7.56836C10.3749 7.63607 11.6249 7.11003 11.151 6.48503C10.7812 6.00065 10.3957 6.71419 10.0207 6.7194C9.64575 6.72461 9.51554 6.26107 9.13013 6.33919Z" fill="#FEFEFE"/>
<path d="M4.64575 16.0154H6.13013V16.9321C6.13013 17.0727 6.45304 17.3227 6.6145 17.2602L8.4895 16.5154C8.77075 16.2758 8.63013 15.2602 8.81763 14.8904C8.91138 14.7029 9.40617 14.354 9.552 14.5623C9.69784 14.7706 9.59367 16.3644 9.56763 16.5779C9.54159 16.7915 9.42179 16.9842 9.23429 17.1456C8.24992 17.6769 7.29679 18.4373 6.31242 18.9477C6.02596 19.0987 5.83846 19.1769 5.50513 19.1196C5.17179 19.0623 4.64575 18.5623 4.64575 18.104V16.0154Z" fill="#FEFEFE"/>
<path d="M13.8646 16.0166H15.349V18.1051C15.349 18.5635 14.9428 19.0426 14.4896 19.1208C14.1407 19.1833 13.948 19.0947 13.6563 18.9333C12.6407 18.3916 11.6615 17.6312 10.6511 17.0635C10.5105 16.9229 10.4428 16.7354 10.4219 16.5374C10.3646 15.9281 10.4636 15.2406 10.4219 14.6208C10.4584 14.4333 10.7761 14.527 10.9063 14.6104C11.5313 14.9958 11.125 16.1885 11.5053 16.5114L13.3803 17.2562C13.5417 17.3187 13.8646 17.0687 13.8646 16.9281V16.0114V16.0166Z" fill="#FEFEFE"/>
<path d="M10.9375 9.2181L10.9167 9.64518L10.0156 10.6973C9.96876 10.7077 9.94793 10.666 9.92189 10.64C9.82293 10.5462 9.07814 9.65039 9.06251 9.58268C9.04168 9.47331 9.07293 9.32747 9.06251 9.21289C9.70834 9.35872 10.2917 9.35872 10.9375 9.21289V9.2181Z" fill="#FEFEFE"/>
<path d="M8.58862 10.3594L9.29696 11.2292C9.1355 11.2917 8.5105 11.6719 8.3855 11.6354C8.2605 11.599 7.87508 10.625 7.85425 10.4688L8.58862 10.3594Z" fill="#FEFEFE"/>
<path d="M12.151 10.4681C12.1978 10.515 11.703 11.5202 11.6197 11.6348L10.7083 11.2441L11.4166 10.3535L12.151 10.4629V10.4681Z" fill="#FEFEFE"/>
<path d="M3.0364 0.400651C3.58848 0.286068 3.54682 0.817318 3.74473 1.16107C3.94265 1.50482 4.09369 1.59857 4.31244 1.72878C4.63536 1.91628 5.26557 1.95273 5.08328 2.48398C4.90098 3.01523 4.59369 2.78086 4.32807 2.93711C4.06244 3.09336 3.84369 3.33815 3.71869 3.57773C3.59369 3.81732 3.56765 4.29648 3.14578 4.29648C2.76036 4.29648 2.72911 3.85898 2.59369 3.59336C2.45828 3.32773 2.20828 3.0569 1.91661 2.90586C1.62494 2.75482 1.19786 2.73398 1.18744 2.35378C1.17703 1.97357 1.60411 1.9319 1.89057 1.78607C2.17703 1.64023 2.48953 1.29128 2.65619 0.947526C2.82286 0.603776 2.73432 0.457943 3.04161 0.395443L3.0364 0.400651ZM3.20307 1.83815C3.15619 1.8069 2.66661 2.29648 2.6614 2.33294C2.65098 2.39544 3.09369 2.74961 3.14578 2.85378C3.23432 2.73398 3.61973 2.44753 3.63536 2.32773C3.65098 2.25482 3.56244 2.26003 3.51557 2.21315C3.40619 2.10898 3.24994 1.97878 3.20307 1.83815Z" fill="#4065D3"/>
<path d="M18.0833 5.93782C18.1718 6.13574 18.3749 6.2972 18.552 6.4274L18.0624 6.95345C18.0155 6.96386 17.5833 6.49511 17.5364 6.4274C17.651 6.34928 17.7499 6.25553 17.8489 6.15136C17.9478 6.0472 18.0103 5.88574 18.0833 5.93782Z" fill="#FEFEFE"/>
<path d="M2.20321 9.74044C2.15112 9.79253 2.01571 10.0217 1.93758 10.0009C1.85946 9.98003 1.57821 9.54253 1.448 9.51128L1.85946 9.10503C1.97404 8.84461 2.03133 9.08419 2.15112 9.20399C2.27091 9.32378 2.45841 9.45919 2.46362 9.48003C2.48446 9.56336 2.25529 9.69357 2.20321 9.74565V9.74044Z" fill="#FEFEFE"/>
<path d="M9.13022 6.33905C9.51564 6.26613 9.60939 6.72447 10.0208 6.71926C10.4323 6.71405 10.7865 6.00051 11.1511 6.48488C11.625 7.10988 10.3802 7.63593 9.83335 7.56822C9.28647 7.50051 8.75522 7.15676 8.78647 6.74009C8.81772 6.32343 8.94793 6.37551 9.13022 6.33905Z" fill="#140505"/>
<path d="M3.20322 1.8394C3.2501 1.98003 3.40635 2.10503 3.51572 2.2144C3.6251 2.32378 3.65114 2.25607 3.63552 2.32898C3.61989 2.44878 3.23447 2.73523 3.14593 2.85503C3.09385 2.75086 2.65114 2.39669 2.66156 2.33419C2.67197 2.27169 3.15635 1.80815 3.20322 1.8394Z" fill="#FEFEFE"/>
</g>
<defs>
<clipPath id="clip0_1673_3194">
<rect width="20" height="20" fill="white"/>
</clipPath>
</defs>
</svg>
