<svg width="50" height="50" viewBox="0 0 50 50" fill="none" xmlns="http://www.w3.org/2000/svg">
<g clip-path="url(#clip0_1328_29194)">
<path d="M19.9219 0L23.2943 1.75781L26.6667 0H27.2526L30.625 1.75781L33.9844 0H34.5703L37.9427 1.75781L41.3021 0H41.888L45.2604 1.75781L48.6198 0H49.1146C49.6224 0.208333 49.7917 0.377604 50 0.885417V30.5729C49.5443 32.1094 48.6198 33.5156 47.1224 34.1927C46.7708 34.349 45.8073 34.6745 45.4557 34.6745H34.4661V45.4688C34.4661 45.7031 34.2188 46.5234 34.1276 46.7839C33.5026 48.4766 31.9141 49.6745 30.1693 50.013H4.10156C2.65625 49.5573 1.38021 48.8411 0.638021 47.474C0.364583 46.9792 0.247396 46.4193 0 45.9115V42.7865C0.130208 42.5521 0.559896 42.0052 0.833333 42.0052H4.88281V14.2057C4.88281 12.526 7.34375 9.96094 9.03646 9.96094H18.5547V0.729167C18.5547 0.559896 19.0885 0.130208 19.2318 0H19.9089H19.9219ZM47.8516 2.92969C47.0703 3.11198 45.9505 4.16667 45.1693 4.10156C44.388 4.03646 42.1354 2.30469 41.5625 2.34375C40.6641 2.63021 38.6849 4.16667 37.8516 4.10156C37.0182 4.03646 34.8177 2.30469 34.2448 2.34375C33.3464 2.61719 31.4583 4.11458 30.625 4.11458C29.7917 4.11458 27.8906 2.53906 26.9271 2.34375C26.0286 2.61719 24.1406 4.11458 23.3073 4.11458C22.474 4.11458 21.4974 3.08594 20.7161 2.92969V9.96094H38.0469C38.2292 9.96094 39.2708 10.3516 39.5052 10.4557C41.0156 11.1849 42.0964 12.8255 42.2135 14.4922C42.5521 19.362 41.8359 24.6875 42.2135 29.5443C42.3698 31.5625 43.9323 32.9948 45.9766 32.3307C48.0208 31.6667 47.8776 30.9505 47.8776 30.1302V2.92969H47.8516ZM33.099 12.1094H9.32292C8.41146 12.1094 7.03125 13.6068 7.03125 14.5052V41.9922H25.7292C26.0807 41.9922 26.5625 42.487 26.6406 42.8385C26.9401 44.3099 26.1589 45.7161 27.474 47.0312C29.349 48.9062 32.4349 47.3568 32.3307 44.7786V14.2969C32.3568 13.8802 32.5 13.4375 32.6432 13.0599C32.7865 12.6823 32.9948 12.4479 33.112 12.1094H33.099ZM40.9115 32.526C40.7552 32.0964 40.4688 31.7448 40.3255 31.3151C40.1823 30.8854 40.0651 30.2865 40.0391 29.8437C39.6745 24.9349 40.3125 19.5703 40.0391 14.6094C39.7917 11.9401 36.1198 11.2109 34.8177 13.5026C34.7526 13.6068 34.4661 14.2708 34.4661 14.3229V32.5391H40.9115V32.526ZM24.5052 44.1406H2.14844C2.08333 45.2083 2.17448 46.25 2.96875 47.0312C3.76302 47.8125 4.15365 47.8516 4.54427 47.8516H25.2995C25.2083 47.4479 24.9479 47.1224 24.8047 46.7318C24.6615 46.3411 24.5182 45.7682 24.5182 45.651V44.1406H24.5052Z" fill="#140505"/>
<path d="M33.099 12.1094C32.9948 12.4479 32.7604 12.7214 32.6302 13.0599C32.5 13.3984 32.3438 13.8932 32.3047 14.2969V44.7786C32.4219 47.3568 29.3359 48.9062 27.4609 47.0312C26.1458 45.7161 26.9141 44.3099 26.6276 42.8385C26.3411 41.3672 26.0807 41.9922 25.7161 41.9922H7.03125V14.5052C7.03125 13.6068 8.42448 12.1094 9.32292 12.1094H33.099ZM18.4375 16.0417C14.6354 16.4323 11.4323 19.7917 10.8724 23.5156C9.72656 31.1068 18.1771 36.5365 24.6094 32.2656C32.2917 27.1615 28.0729 15.0651 18.4505 16.0417H18.4375ZM15.3125 35.9635C13.75 36.1979 13.8411 37.9948 15.2995 38.1771C18.0469 37.9948 21.1849 38.4635 23.8802 38.1771C25.5729 38.0078 25.5599 36.1328 23.9714 35.9375C21.3021 35.625 18.0469 36.1328 15.3125 35.9505V35.9635Z" fill="#FEFEFE"/>
<path d="M47.8519 2.93033V30.1309C47.8519 30.9512 46.7191 32.084 45.9508 32.3314C43.9066 32.9954 42.3311 31.5631 42.1878 29.5449C41.8232 24.6881 42.5394 19.3626 42.1878 14.4928C42.0706 12.8262 40.9899 11.1855 39.4795 10.4564C39.2451 10.3392 38.2035 9.96158 38.0212 9.96158H20.6904V2.93033C21.4717 3.08658 22.5264 4.11523 23.2816 4.11523C24.0368 4.11523 26.0029 2.61783 26.9014 2.3444C27.8649 2.53971 29.7269 4.11523 30.5993 4.11523C31.4717 4.11523 33.3206 2.61783 34.2191 2.3444C34.792 2.30533 37.0186 4.05013 37.8258 4.10221C38.6331 4.15429 40.6383 2.61783 41.5368 2.3444C42.1097 2.30533 44.3363 4.05013 45.1436 4.10221C45.9508 4.15429 47.0446 3.11263 47.8258 2.93033H47.8519Z" fill="#FEFEFE"/>
<path d="M40.9111 32.5254H34.4658V14.3093C34.4658 14.2572 34.7523 13.5931 34.8174 13.489C36.1195 11.1973 39.7913 11.9265 40.0387 14.5957C40.3122 19.5567 39.6611 24.9213 40.0387 29.8301C40.0778 30.2728 40.182 30.8718 40.3252 31.3015C40.4684 31.7312 40.7679 32.0957 40.9111 32.5124V32.5254Z" fill="#FEFEFE"/>
<path d="M24.5048 44.1406V45.651C24.5048 45.7682 24.7392 46.5495 24.7912 46.7318C24.9215 47.1224 25.1949 47.4479 25.286 47.8516H4.54385C4.15323 47.8516 3.25479 47.3177 2.96833 47.0313C2.18708 46.25 2.08291 45.1953 2.14802 44.1406H24.5178H24.5048Z" fill="#FEFEFE"/>
<path d="M18.4371 16.0416C28.0725 15.052 32.2782 27.1614 24.5959 32.2655C18.1636 36.5364 9.72615 31.1067 10.859 23.5155C11.4189 19.7916 14.622 16.4322 18.4241 16.0416H18.4371ZM18.6324 18.19C14.9866 18.6197 12.4475 22.3697 13.0074 25.9114C13.9709 32.1353 22.4084 33.6848 25.5074 28.19C28.6064 22.6952 24.2444 17.526 18.6324 18.19Z" fill="#140505"/>
<path d="M15.3124 35.9629C18.0467 36.1452 21.3019 35.6374 23.9712 35.9499C25.5598 36.1452 25.5728 38.0202 23.8801 38.1895C21.1848 38.4629 18.0467 37.9942 15.2993 38.1895C13.841 38.0072 13.7499 36.2103 15.3124 35.9759V35.9629Z" fill="#4065D3"/>
<path d="M18.6327 18.1899C24.2447 17.5259 28.3202 23.203 25.5077 28.1899C22.6952 33.1769 13.9713 32.1483 13.0077 25.9113C12.4609 22.3696 14.9999 18.6196 18.6327 18.1899ZM21.8489 22.3826C21.6536 22.4087 21.5364 22.4998 21.3801 22.604C20.8723 22.9686 19.0885 25.104 18.776 25.1821C18.4635 25.2602 17.6692 23.8931 16.8489 23.9321C16.0286 23.9712 15.6119 24.7394 15.8984 25.4556C16.1848 26.1717 17.578 27.3696 17.9426 27.617C18.3072 27.8644 18.6978 28.0207 19.2187 27.7472C19.7395 27.4738 22.4739 24.6483 22.8124 24.2186C23.5025 23.3071 22.9426 22.2003 21.8619 22.3826H21.8489Z" fill="#FEFEFE"/>
<path d="M21.8494 22.3832C22.9301 22.2009 23.503 23.3077 22.7999 24.2191C22.4614 24.6618 19.5577 27.5655 19.2062 27.7478C18.6853 28.0212 18.3989 27.9301 17.9301 27.6176C17.4614 27.3051 16.0291 25.8077 15.8858 25.4561C15.6124 24.7399 16.0551 23.9587 16.8364 23.9327C17.6176 23.9066 18.3858 25.2868 18.7634 25.1827C19.141 25.0785 20.8598 22.9561 21.3676 22.6045C21.8754 22.253 21.641 22.4222 21.8364 22.3832H21.8494Z" fill="#4065D3"/>
</g>
<defs>
<clipPath id="clip0_1328_29194">
<rect width="50" height="50" fill="white"/>
</clipPath>
</defs>
</svg>
