<svg width="20" height="20" viewBox="0 0 20 20" fill="none" xmlns="http://www.w3.org/2000/svg">
<g clip-path="url(#clip0_1969_11901)">
<path d="M20.0001 12.7696V13.9415C19.8647 14.7227 19.6615 15.4363 19.2761 16.129C16.5469 21.0717 8.96362 19.4311 8.47924 13.8998C8.4532 13.629 8.46362 13.2019 8.47924 12.9207C8.5782 11.3582 9.44278 9.74357 10.6667 8.78003C11.8907 7.81649 11.2761 8.36336 11.5261 8.23316C14.8803 6.45191 19.0001 8.36336 19.8542 12.03L20.0001 12.7644V12.7696ZM13.8647 8.4467C10.0782 8.74357 8.04695 13.0665 10.2501 16.1811C12.2709 19.0404 16.599 18.8738 18.4167 15.8946C20.5001 12.4832 17.8282 8.13941 13.8647 8.4467Z" fill="#140505"/>
<path d="M11.5259 8.23932C11.2759 8.36952 10.8853 8.61432 10.6665 8.78619C10.6197 5.67682 7.76549 3.37473 4.70299 4.04661C1.91132 4.66119 0.249861 7.56223 1.09361 10.3018C2.05194 13.406 5.76549 14.7029 8.48424 12.9268C8.46861 13.2029 8.45819 13.6299 8.48424 13.906C8.0884 14.1456 7.60403 14.3226 7.15611 14.432C4.45819 15.0831 1.66653 13.7445 0.525903 11.2237C0.265486 10.6508 0.150903 10.0622 0.010278 9.45286C0.0363196 9.06223 -0.0261804 8.62473 0.010278 8.24452C0.50507 3.01536 7.41653 1.17161 10.4842 5.51536C11.0624 6.33827 11.3644 7.24973 11.5311 8.23932H11.5259Z" fill="#4065D3"/>
<path d="M15.6147 0.829686C16.0106 0.741145 16.2606 1.11094 16.0991 1.47552C15.6408 2.50156 14.797 3.53802 14.3126 4.56927C14.0001 4.99635 13.3699 4.70469 13.5314 4.17864L15.3179 1.07969C15.3804 0.991145 15.5054 0.85052 15.6147 0.829686Z" fill="#4065D3"/>
<path d="M11.0522 1.33133C11.2814 1.30529 11.4272 1.4407 11.5106 1.63862C11.8022 2.32091 11.8804 3.26883 12.1408 3.98237C12.1929 4.46675 11.5314 4.66987 11.3179 4.21675C11.1877 3.47195 10.7866 2.61258 10.6825 1.88341C10.646 1.61779 10.771 1.36779 11.0522 1.33133Z" fill="#4065D3"/>
<path d="M17.5312 5.08362C18.0156 5.04717 18.1979 5.64612 17.8021 5.90654L15.3698 6.55758C14.8906 6.58883 14.7083 6.00029 15.1094 5.75029L17.5312 5.08362Z" fill="#4065D3"/>
<path d="M13.8644 8.44954C17.828 8.13704 20.4998 12.4808 18.4165 15.8975C16.5936 18.8818 12.2655 19.0433 10.2498 16.1839C8.05193 13.0693 10.0832 8.74642 13.8644 8.44954ZM16.6665 11.8975C16.9894 11.5745 16.6978 11.2412 16.3644 11.111C15.7186 10.8558 14.953 11.0745 14.5623 11.6475C14.3748 11.9235 14.3436 12.2985 14.7238 12.3975C15.1457 12.5068 15.1561 12.1839 15.3905 12.0068C15.9165 11.611 16.3071 12.2464 16.6613 11.8922L16.6665 11.8975ZM12.2238 11.9235C11.7394 11.9912 10.6717 12.7464 11.2603 13.2204C11.8488 13.6943 11.9373 12.8506 12.3436 12.7829C12.7498 12.7152 13.1092 13.1318 13.3853 12.7308C13.8384 12.0797 12.6821 11.861 12.2238 11.9235ZM16.0467 13.4443C14.9998 13.585 13.7655 14.1787 12.6926 14.3454C12.1248 14.5277 12.4113 15.1162 12.6301 15.4808C13.5519 17.0068 15.8853 16.8089 16.5467 15.1579C16.7551 14.6422 16.9426 13.3297 16.0519 13.4495L16.0467 13.4443Z" fill="#FEFEFE"/>
<path d="M10.6719 8.78664C9.4479 9.75018 8.58852 11.3648 8.48436 12.9273C5.77082 14.6981 2.05207 13.4064 1.09373 10.3023C0.249984 7.56268 1.91144 4.66164 4.70311 4.04706C7.76561 3.37518 10.625 5.67206 10.6666 8.78664H10.6719ZM4.37498 6.60955C3.99478 6.68768 3.71873 7.61997 4.17707 7.84393C4.89582 8.18768 5.23957 6.43247 4.37498 6.60955ZM7.69269 7.50539C7.30727 7.58351 7.08332 8.50539 7.47915 8.71372C8.08853 9.04185 8.43748 7.85435 8.06769 7.57831C7.6979 7.30226 7.8229 7.47414 7.69269 7.50539ZM4.00519 11.3908C4.96873 12.2866 6.51561 12.146 7.28644 11.0887C8.05727 10.0314 7.94269 10.0523 7.35936 9.81268L3.84373 8.87518C3.27082 8.8231 3.29165 9.71372 3.33332 10.0939C3.38019 10.5366 3.68228 11.0939 4.00519 11.396V11.3908Z" fill="#FEFEFE"/>
<path d="M16.0471 13.4413C16.9377 13.3215 16.7502 14.6288 16.5419 15.1496C15.8804 16.8059 13.5471 16.9986 12.6252 15.4726C11.7033 13.9465 12.12 14.5246 12.6877 14.3371C13.7606 14.1705 15.0002 13.5819 16.0419 13.4361L16.0471 13.4413ZM15.8231 14.4101L13.4013 15.0923C14.146 16.1028 15.7606 15.6705 15.8231 14.4101Z" fill="#140505"/>
<path d="M16.6668 11.8946C16.3127 12.2488 15.9168 11.6133 15.396 12.0092C14.8752 12.405 15.1512 12.5092 14.7293 12.3998C14.3439 12.3008 14.3804 11.9206 14.5679 11.6498C14.9585 11.0769 15.7293 10.8581 16.37 11.1133C16.7033 11.2436 16.9897 11.5769 16.672 11.8998L16.6668 11.8946Z" fill="#140505"/>
<path d="M12.224 11.9204C12.6771 11.8579 13.8386 12.0766 13.3854 12.7277C13.1094 13.1235 12.7396 12.712 12.3438 12.7797C11.9479 12.8475 11.7448 13.6131 11.2604 13.2172C10.7761 12.8214 11.7396 11.9881 12.224 11.9204Z" fill="#140505"/>
<path d="M4.0053 11.3902C3.68239 11.0881 3.3803 10.5308 3.33343 10.0881C3.29176 9.70792 3.27093 8.81729 3.84385 8.86938L7.35947 9.80688C7.94281 10.0465 7.54176 10.7288 7.28655 11.0829C6.51572 12.1402 4.96885 12.2808 4.0053 11.385V11.3902ZM6.60947 10.5048L4.1876 9.87979C4.2553 10.7965 5.18239 11.3538 6.04176 11.0152C6.2501 10.9319 6.53655 10.7288 6.60426 10.5048H6.60947Z" fill="#140505"/>
<path d="M4.3752 6.61028C5.23979 6.4332 4.89604 8.1832 4.17729 7.84466C3.71374 7.62591 3.98979 6.68841 4.3752 6.61028Z" fill="#140505"/>
<path d="M7.69254 7.50673C7.82275 7.48069 7.95817 7.50152 8.06754 7.57965C8.43733 7.85569 8.09358 9.04319 7.479 8.71506C6.86442 8.38694 7.30712 7.58486 7.69254 7.50673Z" fill="#140505"/>
<path d="M15.8228 14.4102C15.7603 15.6758 14.1457 16.1029 13.4009 15.0924L15.8228 14.4102Z" fill="#FEFEFE"/>
<path d="M6.60954 10.5039C6.53662 10.7279 6.25537 10.931 6.04704 11.0143C5.18766 11.3581 4.26058 10.7956 4.19287 9.87891L6.61475 10.5039H6.60954Z" fill="#FEFEFE"/>
</g>
<defs>
<clipPath id="clip0_1969_11901">
<rect width="20" height="20" fill="white"/>
</clipPath>
</defs>
</svg>
