<svg width="52" height="52" viewBox="0 0 52 52" fill="none" xmlns="http://www.w3.org/2000/svg">
<rect width="52" height="52" rx="10" fill="#7DA0F9" fill-opacity="0.3"/>
<path d="M35.5837 16.2757C35.306 15.4423 34.4726 14.8867 33.6392 14.8867H18.3608C17.3886 14.8867 16.6941 15.4423 16.4163 16.2757L13.4995 24.6093V35.7209C13.4995 36.4154 14.194 37.1098 14.8885 37.1098H16.2774C17.1108 37.1098 17.6663 36.4154 17.6663 35.7209V34.332H34.3337V35.7209C34.3337 36.4154 35.0282 37.1098 35.7226 37.1098H37.1116C37.8061 37.1098 38.5005 36.4154 38.5005 35.7209V24.6093L35.5837 16.2757ZM18.7775 17.6646H33.0836L34.6115 21.8314H17.3886L18.7775 17.6646ZM35.7226 31.5541H16.2774V24.6093H35.7226V31.5541ZM19.7498 25.9983C20.8609 25.9983 21.8332 26.9705 21.8332 28.0817C21.8332 29.1929 20.8609 30.1651 19.7498 30.1651C18.6386 30.1651 17.6663 29.1929 17.6663 28.0817C17.6663 26.9705 18.6386 25.9983 19.7498 25.9983ZM32.2503 25.9983C33.3614 25.9983 34.3337 26.9705 34.3337 28.0817C34.3337 29.1929 33.3614 30.1651 32.2503 30.1651C31.1391 30.1651 30.1669 29.1929 30.1669 28.0817C30.1669 26.9705 31.1391 25.9983 32.2503 25.9983Z" fill="#4065D3"/>
</svg>
