<svg width="58" height="58" viewBox="0 0 58 58" fill="none" xmlns="http://www.w3.org/2000/svg">
<path d="M6.67604 21.0696C6.47969 21.7644 5.87552 23.7279 5.87552 24.3019C5.87552 24.8758 5.90573 24.6493 6.01146 24.8456C6.19271 25.193 6.63073 25.2383 6.67604 25.6008C4.89375 25.3591 2.47708 27.7003 2.47708 29.392V41.6868H20.8286V34.3763C20.8286 34.0138 21.5688 33.2888 22.0068 33.4097H36.0688C36.4615 33.3493 37.1412 34.0591 37.1412 34.3763V41.6868H55.4927V29.5128C55.4927 27.7305 53.1667 25.4045 51.2938 25.6008C51.3391 25.2383 51.7771 25.193 51.9583 24.8456C52.3208 24.1357 51.5505 22.2628 51.324 21.4321C51.0974 20.6013 51.324 21.0696 51.2938 20.9487C52.3662 19.967 52.8193 17.3841 54.4052 17.2029C55.9912 17.0216 57.4714 16.9612 57.9698 18.1091V18.7888C57.5771 20.2841 55.6589 19.3779 55.0245 19.7555C54.3901 20.1331 52.9854 22.9576 52.9854 23.1539C52.9854 23.456 53.7406 23.5618 54.0125 23.7128C56.2177 24.8607 57.3807 26.5977 57.9698 28.9841V43.3633C57.7734 43.605 57.3203 44.1487 57.0031 44.1487H53.212V48.2873C53.212 49.2539 51.6412 50.6435 50.75 50.9154C49.8135 51.2024 45.8865 51.1722 44.7688 51.0664C43.6661 50.9607 42.5635 50.2508 42.0198 49.2841C41.9292 49.118 41.5516 48.2722 41.5516 48.1664V44.1487H16.4333V48.0607C16.4333 49.5862 14.5151 50.9456 13.0953 51.0664C11.6755 51.1873 8.11094 51.2024 7.14427 50.8852C6.28333 50.6133 4.75781 49.2086 4.75781 48.2873V44.1487H0.966667C0.649479 44.1487 0.196354 43.5899 0 43.3633V28.8633C0.271875 28.4253 0.317188 27.8815 0.513542 27.3982C1.19323 25.767 2.34115 24.5737 3.88177 23.743C5.4224 22.9123 4.98438 23.4409 4.98438 23.1388C4.98438 22.8368 3.11146 19.8461 2.94531 19.7404C2.31094 19.3628 0.392708 20.269 0 18.7737V18.094C0.302083 17.5654 0.589063 17.3086 1.22344 17.218C1.85781 17.1274 3.6401 17.1123 4.19896 17.3539C5.04479 17.7315 5.98125 20.2841 6.69115 21.0394L6.67604 21.0696ZM34.6641 35.917H23.3359V41.6868H34.6641V35.917ZM13.926 44.1789H7.25V47.8644C7.25 48.106 7.82396 48.544 8.11094 48.5894C9.01719 48.7253 11.7813 48.6951 12.7479 48.5894C13.7146 48.4836 13.926 48.3024 13.926 47.7284V44.1638V44.1789ZM50.75 44.1789H44.074V47.7435C44.074 48.3024 44.799 48.5591 45.2521 48.6045C46.2188 48.6951 48.9828 48.7404 49.8891 48.6045C50.1609 48.5591 50.75 48.1211 50.75 47.8795V44.194V44.1789Z" fill="#140505"/>
<path d="M51.3241 20.9654C51.3543 21.0711 51.309 21.2826 51.3543 21.4487C51.5809 22.2794 52.3663 24.1523 51.9887 24.8622C51.6111 25.5721 51.3694 25.2549 51.3241 25.6174C36.4616 25.4362 21.5538 25.4211 6.6913 25.6174C6.64599 25.2549 6.20796 25.2096 6.02671 24.8622C5.84546 24.5148 5.89078 24.5299 5.89078 24.3185C5.89078 23.7445 6.51005 21.781 6.6913 21.0862C7.47671 18.1711 8.38296 14.6367 9.37984 11.8273C10.3767 9.01797 12.7028 7.14505 15.6934 6.93359H42.4429C45.3882 7.19036 47.6689 9.07839 48.6507 11.8273C49.6173 14.5763 50.5689 18.1258 51.3392 20.9805L51.3241 20.9654ZM45.0861 22.9893C46.2491 22.9893 47.9106 23.1404 48.9981 22.9893C50.0856 22.8383 49.1944 23.0497 49.1642 22.8232L46.1585 12.3409C45.4788 10.6341 44.0288 9.56172 42.2012 9.39557H15.9048C13.9262 9.53151 12.3705 10.7247 11.7361 12.5977L8.82099 22.9893C15.5423 22.9893 22.2637 22.9893 28.985 22.9893C29.846 22.9893 30.722 22.9893 31.583 22.9893C35.208 22.9893 38.833 22.9893 42.458 22.9893C43.3189 22.9893 44.1949 22.9893 45.0559 22.9893H45.0861Z" fill="#4065D3"/>
<path d="M51.324 25.6026C53.1818 25.3911 55.5229 27.7323 55.5229 29.5146V41.6885H37.1714V34.3781C37.1714 34.0609 36.4917 33.351 36.099 33.4114H22.037C21.599 33.2906 20.8589 34.0156 20.8589 34.3781V41.6885H2.49219V29.3937C2.49219 27.7021 4.90885 25.3609 6.69115 25.6026C21.5536 25.4062 36.4615 25.4213 51.324 25.6026ZM11.1922 28.9255C5.075 29.6203 6.04167 39.0302 12.4005 38.2901C18.7594 37.55 17.3849 28.2156 11.1922 28.9255ZM45.7354 28.9255C39.6333 29.6203 40.5849 39.0302 46.9437 38.2901C52.8193 37.5953 51.9432 28.2156 45.7354 28.9255Z" fill="#FEFEFE"/>
<path d="M34.6641 35.918H23.3359V41.6878H34.6641V35.918Z" fill="#FEFEFE"/>
<path d="M45.086 22.988C44.225 22.988 43.349 22.988 42.4881 22.988C42.4427 21.9005 41.5516 20.6167 40.736 19.937C37.5188 17.2635 32.4438 18.8797 31.6131 22.988C30.7521 22.988 29.8761 22.988 29.0151 22.988C29.7099 18.4719 34.0599 15.4208 38.561 16.2214C41.8537 16.8104 44.7084 19.6349 45.1011 22.988H45.086Z" fill="#140505"/>
<path d="M11.192 28.925C17.3847 28.2151 18.2758 37.5948 12.4003 38.2896C6.52477 38.9844 5.07477 29.6349 11.192 28.925ZM11.4185 31.4021C8.62425 31.7495 9.06227 36.1599 12.0529 35.7823C14.817 35.4349 14.394 31.0396 11.4185 31.4021Z" fill="#4065D3"/>
<path d="M45.7355 28.925C51.9282 28.2151 52.8042 37.5948 46.9438 38.2896C40.585 39.0297 39.6334 29.6349 45.7355 28.925ZM45.962 31.4021C43.1678 31.7495 43.6058 36.1599 46.5964 35.7823C49.3605 35.4349 48.9376 31.0396 45.962 31.4021Z" fill="#4065D3"/>
<path d="M11.4191 31.4001C14.3946 31.0376 14.8326 35.4329 12.0534 35.7803C9.04771 36.1579 8.60969 31.7475 11.4191 31.4001Z" fill="#FEFEFE"/>
<path d="M45.962 31.4001C48.9375 31.0376 49.3756 35.4329 46.5964 35.7803C43.5907 36.1579 43.1527 31.7475 45.962 31.4001Z" fill="#FEFEFE"/>
</svg>
