<svg width="20" height="20" viewBox="0 0 20 20" fill="none" xmlns="http://www.w3.org/2000/svg">
<path d="M2.30208 7.26476C2.23438 7.50434 2.02604 8.18143 2.02604 8.37934C2.02604 8.57726 2.03646 8.49914 2.07292 8.56684C2.13542 8.68664 2.28646 8.70226 2.30208 8.82726C1.6875 8.74393 0.854167 9.55122 0.854167 10.1346V14.3741H7.18229V11.8533C7.18229 11.7283 7.4375 11.4783 7.58854 11.52H12.4375C12.5729 11.4991 12.8073 11.7439 12.8073 11.8533V14.3741H19.1354V10.1762C19.1354 9.56163 18.3333 8.75955 17.6875 8.82726C17.7031 8.70226 17.8542 8.68664 17.9167 8.56684C18.0417 8.32205 17.776 7.67622 17.6979 7.38976C17.6198 7.1033 17.6979 7.26476 17.6875 7.22309C18.0573 6.88455 18.2135 5.99393 18.7604 5.93143C19.3073 5.86893 19.8177 5.84809 19.9896 6.24393V6.4783C19.8542 6.99393 19.1927 6.68143 18.974 6.81164C18.7552 6.94184 18.2708 7.9158 18.2708 7.98351C18.2708 8.08768 18.5313 8.12414 18.625 8.17622C19.3854 8.57205 19.7865 9.17101 19.9896 9.99393V14.9523C19.9219 15.0356 19.7656 15.2231 19.6562 15.2231H18.349V16.6502C18.349 16.9835 17.8073 17.4627 17.5 17.5564C17.1771 17.6554 15.8229 17.645 15.4375 17.6085C15.0573 17.5721 14.6771 17.3273 14.4896 16.9939C14.4583 16.9366 14.3281 16.645 14.3281 16.6085V15.2231H5.66667V16.5721C5.66667 17.0981 5.00521 17.5668 4.51562 17.6085C4.02604 17.6502 2.79688 17.6554 2.46354 17.546C2.16667 17.4523 1.64063 16.9679 1.64063 16.6502V15.2231H0.333333C0.223958 15.2231 0.0677083 15.0304 0 14.9523V9.95226C0.09375 9.80122 0.109375 9.61372 0.177083 9.44705C0.411458 8.88455 0.807292 8.47309 1.33854 8.18664C1.86979 7.90018 1.71875 8.08247 1.71875 7.9783C1.71875 7.87414 1.07292 6.84289 1.01562 6.80643C0.796875 6.67622 0.135417 6.98872 0 6.47309V6.23872C0.104167 6.05643 0.203125 5.96789 0.421875 5.93664C0.640625 5.90539 1.25521 5.90018 1.44792 5.98351C1.73958 6.11372 2.0625 6.99393 2.30729 7.25434L2.30208 7.26476ZM11.9531 12.3846H8.04688V14.3741H11.9531V12.3846ZM4.80208 15.2335H2.5V16.5043C2.5 16.5877 2.69792 16.7387 2.79688 16.7543C3.10938 16.8012 4.0625 16.7908 4.39583 16.7543C4.72917 16.7179 4.80208 16.6554 4.80208 16.4575V15.2283V15.2335ZM17.5 15.2335H15.1979V16.4627C15.1979 16.6554 15.4479 16.7439 15.6042 16.7596C15.9375 16.7908 16.8906 16.8064 17.2031 16.7596C17.2969 16.7439 17.5 16.5929 17.5 16.5096V15.2387V15.2335Z" fill="#140505"/>
<path d="M17.6979 7.22917C17.7084 7.26563 17.6927 7.33854 17.7084 7.39583C17.7865 7.68229 18.0573 8.32813 17.9271 8.57292C17.7969 8.81771 17.7136 8.70833 17.6979 8.83333C12.5729 8.77083 7.43232 8.76563 2.30732 8.83333C2.29169 8.70833 2.14065 8.69271 2.07815 8.57292C2.01565 8.45313 2.03128 8.45833 2.03128 8.38542C2.03128 8.1875 2.24482 7.51042 2.30732 7.27083C2.57815 6.26563 2.89065 5.04688 3.2344 4.07813C3.57815 3.10938 4.38024 2.46354 5.41149 2.39062H14.6354C15.6511 2.47917 16.4375 3.13021 16.7761 4.07813C17.1094 5.02604 17.4375 6.25 17.7032 7.23438L17.6979 7.22917ZM15.5469 7.92708C15.9479 7.92708 16.5209 7.97917 16.8959 7.92708C17.2709 7.875 16.9636 7.94792 16.9532 7.86979L15.9167 4.25521C15.6823 3.66667 15.1823 3.29688 14.5521 3.23958H5.4844C4.80211 3.28646 4.26565 3.69792 4.0469 4.34375L3.04169 7.92708C5.3594 7.92708 7.67711 7.92708 9.99482 7.92708C10.2917 7.92708 10.5938 7.92708 10.8907 7.92708C12.1407 7.92708 13.3907 7.92708 14.6407 7.92708C14.9375 7.92708 15.2396 7.92708 15.5365 7.92708H15.5469Z" fill="#4065D3"/>
<path d="M17.6979 8.82814C18.3385 8.75523 19.1458 9.56252 19.1458 10.1771V14.375H12.8177V11.8542C12.8177 11.7448 12.5833 11.5 12.4479 11.5209H7.59896C7.44792 11.4792 7.19271 11.7292 7.19271 11.8542V14.375H0.859375V10.1354C0.859375 9.5521 1.69271 8.74481 2.30729 8.82814C7.43229 8.76044 12.5729 8.76564 17.6979 8.82814ZM3.85938 9.97398C1.75 10.2136 2.08333 13.4584 4.27604 13.2031C6.46875 12.9479 5.99479 9.72919 3.85938 9.97398ZM15.7708 9.97398C13.6667 10.2136 13.9948 13.4584 16.1875 13.2031C18.2135 12.9636 17.9115 9.72919 15.7708 9.97398Z" fill="#FEFEFE"/>
<path d="M11.9531 12.3848H8.04688V14.3743H11.9531V12.3848Z" fill="#FEFEFE"/>
<path d="M15.5468 7.92812C15.2499 7.92812 14.9478 7.92812 14.651 7.92812C14.6353 7.55312 14.328 7.11041 14.0468 6.87603C12.9374 5.95416 11.1874 6.51145 10.901 7.92812C10.6041 7.92812 10.302 7.92812 10.0051 7.92812C10.2447 6.37082 11.7447 5.31874 13.2968 5.59478C14.4322 5.79791 15.4166 6.77187 15.552 7.92812H15.5468Z" fill="#140505"/>
<path d="M3.85936 9.97415C5.99478 9.72936 6.30207 12.9637 4.27603 13.2033C2.24999 13.4429 1.74999 10.2189 3.85936 9.97415ZM3.93749 10.8283C2.97395 10.9481 3.12499 12.4689 4.15624 12.3387C5.10936 12.2189 4.96353 10.7033 3.93749 10.8283Z" fill="#4065D3"/>
<path d="M15.7708 9.97415C17.9062 9.72936 18.2083 12.9637 16.1874 13.2033C13.9947 13.4585 13.6666 10.2189 15.7708 9.97415ZM15.8489 10.8283C14.8853 10.9481 15.0364 12.4689 16.0676 12.3387C17.0208 12.2189 16.8749 10.7033 15.8489 10.8283Z" fill="#4065D3"/>
<path d="M3.93752 10.8276C4.96356 10.7026 5.11461 12.2183 4.15627 12.338C3.11981 12.4683 2.96877 10.9474 3.93752 10.8276Z" fill="#FEFEFE"/>
<path d="M15.8489 10.8276C16.8749 10.7026 17.026 12.2183 16.0677 12.338C15.0312 12.4683 14.8801 10.9474 15.8489 10.8276Z" fill="#FEFEFE"/>
</svg>
