<svg width="50" height="50" viewBox="0 0 50 50" fill="none" xmlns="http://www.w3.org/2000/svg">
<g clip-path="url(#clip0_1280_32393)">
<path d="M25.4947 0.000325522C27.1613 0.351888 28.19 1.60189 28.1249 3.32064C28.0598 5.03939 27.4608 6.62793 27.0572 8.00814C26.6535 9.38835 26.5233 9.87012 26.1718 10.7425C25.8202 11.6149 25.3775 12.5524 24.9999 13.2816C23.7369 15.7295 22.0181 17.904 20.2212 19.9743V47.0186C19.9738 48.5811 18.828 49.6748 17.2916 50.0003H16.0155C15.1171 49.5706 14.3098 49.18 13.7889 48.2686C13.2681 47.3571 13.3723 46.2503 13.1379 45.2087C12.9426 45.9378 13.0468 46.7321 12.8514 47.4613C12.4999 48.7764 11.341 49.6618 10.065 50.0003H8.78895C7.23947 49.4795 6.18478 48.4248 6.05457 46.7321V37.0055C4.17957 37.0837 3.0728 35.9118 2.85145 34.1149C2.63009 32.318 2.65614 28.9977 2.64312 26.6019C2.63009 24.2061 2.49989 21.9535 2.85145 19.6878C3.20301 17.4222 4.3228 15.2738 6.93999 14.7399C7.04416 14.6227 6.48426 13.516 6.40614 13.2686C4.67437 7.81283 9.60926 2.7347 15.1171 4.25814C17.4478 4.90918 19.3358 6.82324 19.9738 9.16699C20.5077 8.12533 20.9244 6.97949 21.2499 5.84668C21.6666 4.38835 21.8098 1.82324 22.8775 0.833659C23.9452 -0.155924 23.8931 0.22168 24.427 -0.0126953H25.4947V0.000325522ZM5.93739 34.7399C6.04155 34.6227 6.05457 34.3883 6.06759 34.2321V20.9508C6.38009 19.6227 8.17697 19.7399 8.21603 21.1331L8.2551 46.8753C8.74989 48.1384 10.2473 48.1904 10.7551 46.9274L12.0442 34.0498C12.3306 32.917 13.841 32.917 14.1405 34.0498L15.5728 47.0706C16.2238 48.3206 18.0337 47.9821 18.0728 46.5368V19.2061C18.19 18.6722 19.3879 17.6566 19.7785 17.1878C22.6822 13.7113 24.9087 9.06283 25.7291 4.58366C25.8332 4.01074 26.1067 3.12533 25.8332 2.61751C25.5598 2.1097 24.5181 1.97949 24.1796 2.63053C23.841 3.28158 23.815 4.53158 23.6718 5.14355C22.8645 8.39876 21.5363 11.5368 19.6223 14.2712C17.7082 17.0055 17.3306 17.7868 16.2759 16.0941C15.2212 14.4014 16.4712 14.8441 16.9009 14.2842C20.065 10.1956 16.2759 4.76595 11.4843 6.4196C6.69259 8.07324 7.42176 10.7295 8.81499 13.3857C9.28374 14.2712 10.4035 14.9092 10.1431 15.9118C9.8827 16.9144 9.0103 16.4977 8.46343 16.5758C5.18218 17.0316 4.9478 18.9456 4.79155 21.8883C4.60926 25.4561 4.6353 30.2738 4.98687 33.8024C5.33843 37.3311 5.44259 35.2087 5.93739 34.7009V34.7399Z" fill="#140505"/>
<path d="M28.1248 3.32031C28.6196 5.3125 29.0754 7.34375 30.0259 9.17969C30.7681 6.39323 33.3722 4.20573 36.2759 3.9974C41.2889 3.64583 45.1431 8.3724 43.6196 13.2031C43.5415 13.4505 42.9295 14.6224 43.0597 14.7396C45.6899 15.2734 46.8228 17.2656 47.1483 19.7786C47.6431 23.6068 47.591 30.2604 47.1483 34.1146C46.7056 37.9688 45.7811 37.0964 43.9321 37.0052V46.7318C43.8019 48.4245 42.6952 49.5573 41.1066 50H39.7394C38.9191 49.5964 38.1379 49.2578 37.604 48.4766C36.966 47.526 37.0571 46.3932 36.8618 45.3125C36.7186 45.3125 36.6405 47.0443 36.5884 47.2917C36.2889 48.7109 35.1821 49.5443 33.88 50H32.604C31.0806 49.5964 29.9868 48.5286 29.7785 46.9271V19.974C29.0363 18.9974 28.1899 18.112 27.4478 17.1224C26.7056 16.1328 25.7941 14.5703 24.9868 13.2813C25.3644 12.5521 25.8592 11.4974 26.1587 10.7422C27.2655 13.0599 28.6326 15.2474 30.2603 17.2396C30.6899 17.7604 31.8228 18.6849 31.9139 19.2969V46.5365C31.9139 47.6042 33.0728 48.2292 33.9712 47.6042C34.8696 46.9792 34.479 46.875 34.5571 46.3411C35.1431 42.3568 35.104 38.2422 35.6379 34.2448C35.8071 33.0859 37.4347 32.9036 37.7472 34.0625C38.3071 38.3724 38.6717 42.7083 39.2577 47.0052C39.7785 48.1901 41.341 48.125 41.7316 46.888L41.7837 20.9635C42.0702 19.7266 43.6327 19.7266 43.9191 20.9635C43.9712 25.5208 43.841 30.1042 43.9842 34.6615C44.5571 35.2474 44.9347 34.4141 44.9868 33.8542C45.3644 30.4297 45.3384 25.8073 45.1821 22.3307C45.0649 19.5443 44.9868 17.0833 41.7056 16.6276C41.0285 16.5365 40.0389 16.8359 39.8306 15.8594C39.6222 14.8828 40.5597 14.4531 41.0155 13.6719C43.3202 9.84375 39.9478 5.29948 35.5988 6.30208C32.578 6.99219 31.0675 10.3906 32.3306 13.1901C32.617 13.8411 33.7759 14.9349 33.841 15.2995C34.0233 16.4583 32.7472 17.0573 31.8879 16.276C29.9478 14.4922 28.255 10.7422 27.2524 8.30729C27.1873 8.16406 27.2524 7.96875 27.005 8.02083C27.4217 6.64062 28.0207 4.76563 28.0728 3.33333L28.1248 3.32031Z" fill="#4065D3"/>
<path d="M5.93758 34.74C5.44278 35.2347 5.02612 34.2842 4.98705 33.8415C4.63549 30.2999 4.59643 25.4952 4.79174 21.9275C4.94799 18.9847 5.18237 17.0707 8.46362 16.615C11.7449 16.1592 9.93497 16.7582 10.1433 15.9509C10.3516 15.1436 9.28393 14.3103 8.81518 13.4249C7.42195 10.7556 8.63289 7.44829 11.4845 6.45871C16.2891 4.79204 20.0652 10.2347 16.9011 14.3233C16.4714 14.8832 15.7032 15.2217 16.2761 16.1332C17.3308 17.8259 19.0496 15.1306 19.6225 14.3103C21.5496 11.5629 22.8647 8.42485 23.672 5.18267C24.4792 1.94048 23.9454 3.11235 24.1798 2.66965C24.5183 2.0186 25.4949 2.00558 25.8334 2.65662C26.172 3.30767 25.8334 4.04985 25.7292 4.62277C24.8959 9.08892 22.6693 13.7504 19.7787 17.2269C19.3881 17.6957 18.1902 18.7113 18.086 19.2452V46.5759C18.0339 48.0212 16.224 48.3597 15.573 47.1097L14.1407 34.0889C13.8282 32.9561 12.3308 32.9691 12.0443 34.0889L10.7553 46.9665C10.2475 48.2295 8.75008 48.1775 8.25528 46.9144L8.21622 21.1722C8.17716 19.779 6.38028 19.6488 6.06778 20.99V34.2712C6.05476 34.4275 6.05476 34.6749 5.93758 34.779V34.74ZM11.4845 11.0941C12.5131 10.0004 10.7813 8.55506 9.85685 9.60975C8.93237 10.6644 10.5079 12.1358 11.4845 11.0941ZM15.2996 9.29725C13.7501 9.60975 14.6485 12.1228 16.1068 11.2764C17.1876 10.6514 16.5886 9.03683 15.2996 9.29725ZM12.0834 11.4457C11.3022 11.6019 11.0287 12.4483 11.4454 13.1124C12.474 14.779 15.5209 13.7764 15.0001 12.0967C14.8699 11.667 14.2709 11.3676 13.8282 11.4196C13.3855 11.4717 13.3334 11.7191 13.1381 11.7061C12.9428 11.6931 12.7475 11.3025 12.0834 11.4327V11.4457Z" fill="#FEFEFE"/>
<path d="M27.0575 8.00812C27.3179 7.95604 27.2397 8.13833 27.3049 8.29458C28.3075 10.7295 30.0002 14.4795 31.9403 16.2633C33.8804 18.0472 34.0757 16.4456 33.8934 15.2868C33.8413 14.9222 32.6825 13.8284 32.383 13.1774C31.12 10.3779 32.6434 6.9925 35.6512 6.28937C40.0002 5.28677 43.3726 9.83104 41.0679 13.6592C40.5991 14.4274 39.6877 14.8831 39.883 15.8467C40.0783 16.8102 41.0679 16.5237 41.758 16.6149C45.0522 17.0706 45.1174 19.5185 45.2345 22.318C45.3908 25.7946 45.4038 30.417 45.0392 33.8415C44.6746 37.2659 44.5965 35.2347 44.0366 34.6488C43.8804 30.1045 44.0236 25.5211 43.9715 20.9508C43.6851 19.7139 42.1226 19.7139 41.8361 20.9508L41.784 46.8753C41.3934 48.1123 39.8179 48.1774 39.3101 46.9925C38.7241 42.6956 38.3595 38.3597 37.7996 34.0498C37.4741 32.8909 35.8595 33.0732 35.6903 34.2321C35.1564 38.2295 35.1825 42.3441 34.6095 46.3284C34.5314 46.8623 34.4923 47.2529 34.0236 47.5915C33.1252 48.2165 31.9793 47.5915 31.9793 46.5238V19.2842C31.8882 18.6722 30.7554 17.7477 30.3257 17.2269C28.6981 15.2477 27.3179 13.0602 26.2241 10.7295C26.5757 9.85708 26.8361 8.89354 27.1095 7.9951L27.0575 8.00812ZM34.0496 9.29718C32.7996 9.58364 33.1772 11.8493 34.7528 11.3545C35.9897 10.9639 35.521 8.95864 34.0496 9.29718ZM38.9325 9.29718C37.9038 9.53156 37.8908 11.3545 39.2059 11.4326C40.7944 11.5237 40.6642 8.90656 38.9325 9.29718ZM35.7163 11.4456C34.896 11.6279 34.7137 12.7737 35.2996 13.3857C35.8856 13.9977 37.3309 14.18 38.1382 13.581C38.9455 12.9821 38.7241 11.2503 37.4611 11.4326C36.1981 11.6149 37.0444 11.7191 36.8752 11.7191C36.5757 11.7191 36.3413 11.3154 35.7163 11.4456Z" fill="#FEFEFE"/>
<path d="M12.0834 11.4455C12.7344 11.3153 12.8646 11.7059 13.1381 11.7189C13.4115 11.7319 13.5808 11.4585 13.8282 11.4325C14.2709 11.3804 14.8568 11.6668 15 12.1095C15.5209 13.7892 12.474 14.7918 11.4454 13.1252C10.4167 11.4585 11.3151 11.6148 12.0834 11.4585V11.4455Z" fill="#140505"/>
<path d="M11.4844 11.0943C10.5079 12.136 8.94536 10.6386 9.85682 9.60995C10.7683 8.5813 12.5261 10.0006 11.4844 11.0943Z" fill="#140505"/>
<path d="M15.2995 9.29692C16.5885 9.03651 17.1745 10.6381 16.1068 11.2761C14.6484 12.1224 13.75 9.62244 15.2995 9.29692Z" fill="#140505"/>
<path d="M35.7159 11.4454C36.3409 11.3022 36.5753 11.7189 36.8748 11.7189C37.1742 11.7189 37.2133 11.4715 37.4607 11.4324C38.7237 11.2371 39.2445 12.7345 38.1378 13.5809C37.031 14.4272 36.0024 14.1277 35.2992 13.3855C34.5961 12.6434 34.8826 11.6408 35.7159 11.4454Z" fill="#140505"/>
<path d="M34.0494 9.2969C35.5207 8.95836 35.9765 10.9766 34.7525 11.3542C33.177 11.849 32.8124 9.58336 34.0494 9.2969Z" fill="#140505"/>
<path d="M38.9324 9.29704C40.6642 8.89339 40.7944 11.5236 39.2058 11.4325C37.8907 11.3543 37.9038 9.54444 38.9324 9.29704Z" fill="#140505"/>
</g>
<defs>
<clipPath id="clip0_1280_32393">
<rect width="50" height="50" fill="white"/>
</clipPath>
</defs>
</svg>
