<svg width="70" height="70" viewBox="0 0 70 70" fill="none" xmlns="http://www.w3.org/2000/svg">
<g clip-path="url(#clip0_625_13003)">
<path d="M36.7861 0.000651041C37.6976 0.23763 38.6273 0.347005 39.557 0.583984C46.3929 2.37044 51.8981 8.80534 52.3903 15.9147C52.9007 23.5527 51.9893 31.7376 52.3903 39.4303C54.9789 42.9486 56.5283 46.6126 56.7653 51.0605C57.0023 55.5085 57.0023 59.6465 56.7653 63.2376C56.5283 66.8105 54.5049 69.1803 51.0231 70.0006H48.8356C48.2523 69.6908 47.6143 69.5814 47.0127 69.2897C43.695 67.7038 39.5023 64.696 36.2757 62.6725C33.0492 60.6491 35.4919 62.071 35.0726 61.8158L23.0414 69.2897L20.945 70.0006H18.7575C15.4216 68.9434 13.5075 66.7923 13.2887 63.2376C13.0518 59.6465 13.1065 54.6699 13.2887 51.0605C13.471 47.4512 15.0752 42.9668 17.6637 39.4303C18.0648 31.7376 17.1533 23.5527 17.6637 15.9147C18.1377 8.8418 23.5882 2.42513 30.3877 0.602214L32.9762 -0.0175781H36.8044L36.7861 0.000651041ZM49.346 36.7689V16.1882C47.3408 -1.34831 22.4762 -1.2207 20.6351 16.3158V36.7689C23.0414 34.9824 25.8122 33.8887 28.7106 33.2689C28.7471 33.1413 28.7471 30.7168 28.7106 30.571C28.6742 30.4251 27.2158 29.2402 26.9242 28.9121C25.4111 27.1439 24.4815 24.8105 24.3174 22.4954C24.1898 20.5449 24.1351 17.1543 24.3174 15.2402C24.5361 12.998 26.7054 13.8001 28.346 13.6543C29.9867 13.5085 31.4815 12.9251 32.5387 11.8314C33.596 10.7376 33.7419 9.47982 34.945 9.44336C36.1481 9.4069 36.6403 10.9928 37.3877 11.7585C38.4815 12.8887 40.2315 13.5449 41.7627 13.6725C43.3486 13.8001 45.445 13.0163 45.6637 15.2402C45.846 17.1543 45.7914 20.5449 45.6637 22.4954C45.5179 24.9199 44.4971 27.472 42.8565 29.2585C41.2158 31.0449 41.3799 30.4616 41.307 30.7168C41.1065 31.373 41.3981 32.5397 41.2705 33.2689C44.169 33.9069 46.958 34.9824 49.346 36.7689ZM42.6559 16.6803C39.7757 16.7897 37.0596 15.7506 35.0544 13.6908C32.9033 15.6777 30.333 16.8262 27.3434 16.6803C27.4164 20.7637 26.6143 24.7559 30.0049 27.7637C33.3955 30.7715 38.4632 30.1517 41.1247 26.5788C43.7861 23.0059 42.5101 20.1439 42.6559 16.6803ZM38.2809 32.2663C36.0205 32.7767 33.9789 32.7767 31.7184 32.2663C31.7549 32.6673 31.6455 33.1777 31.7184 33.5605C31.7914 33.9434 34.3799 36.9329 34.7262 37.2611C35.0726 37.5892 34.8903 37.498 35.0544 37.4616L38.208 33.7793L38.2809 32.2845V32.2663ZM30.0596 36.2585L27.4893 36.6413C27.5804 37.1881 29.1481 40.6699 29.3486 40.7246C29.7861 40.8522 31.9736 39.5215 32.5387 39.3027L30.0596 36.2585ZM42.5283 36.6413L39.958 36.2585L37.4789 39.3756L40.669 40.7428C40.9789 40.3418 42.6924 36.8053 42.5283 36.6595V36.6413ZM53.7393 53.0475C53.6846 51.3522 53.6299 49.6569 53.2653 47.9798C52.4815 44.3522 50.0752 40.8522 47.0127 38.7923C43.9502 36.7324 45.7914 37.972 45.5544 37.9173C45.3174 37.8626 45.1169 38.446 45.0257 38.6283C44.333 40.0866 43.6039 42.2012 42.8018 43.5137C42.3278 44.2793 41.6169 44.4434 40.7601 44.2246L34.9632 41.5631L29.2757 44.2246C28.419 44.4434 27.7262 44.2793 27.2341 43.5137L24.5544 37.8809C21.2367 39.6309 18.4841 42.7116 17.2262 46.2663C15.9684 49.821 16.333 50.696 16.2783 53.0293H21.4736V49.4017C21.4736 49.2923 21.9476 48.6178 22.0934 48.5085C22.5856 48.1621 23.2966 48.1256 23.807 48.4538C24.3174 48.7819 24.4997 49.1465 24.4997 49.2741V56.584C25.4658 56.4746 26.4137 55.9095 27.3434 55.5996C27.544 54.2142 27.4893 52.5736 27.9815 51.2428C28.8565 48.873 31.3721 47.4876 33.8512 47.834C34.2705 47.8887 34.7262 48.2533 35.0908 48.235C35.4554 48.2168 35.8018 47.8887 36.2028 47.834C38.3356 47.5241 40.5778 48.5449 41.6533 50.4225C42.7289 52.3001 42.5101 53.8496 42.7106 55.5814C43.6768 55.8366 44.57 56.4746 45.5726 56.5475V49.2376C45.5726 49.11 46.1012 48.5267 46.2653 48.4173C46.7757 48.0892 47.4867 48.1256 47.9789 48.472C48.471 48.8184 48.5986 49.2559 48.5986 49.3652V52.9928H53.794L53.7393 53.0475ZM16.2601 56.0553V63.3652C16.2601 64.9694 17.682 66.6465 19.2679 66.9199C20.8539 67.1934 21.0908 66.847 22.0934 66.3184C25.5387 64.5319 28.8747 61.8704 32.32 60.0111C32.9762 59.4642 33.3955 58.9173 33.4867 58.0241C33.5778 57.1309 33.6325 51.2611 33.432 50.9694C32.9216 50.2402 31.208 51.4616 30.8617 52.1178C30.1872 53.4121 30.6976 56.9486 29.7132 57.8053L23.1507 60.4121C22.5856 60.6309 21.4554 59.7559 21.4554 59.2637V56.0553H16.2601ZM48.5257 56.0553V59.2637C48.5257 59.7559 47.3955 60.6309 46.8304 60.4121L40.2679 57.8053C38.9372 56.6751 40.3591 52.5007 38.1716 51.1517C37.7341 50.8783 36.6039 50.5501 36.4763 51.1881C36.6221 53.3574 36.2757 55.7637 36.4763 57.8965C36.6768 60.0293 36.7861 59.2454 37.2783 59.7376C40.7966 61.7246 44.2419 64.3861 47.7966 66.2819C48.8174 66.8288 49.4919 67.1387 50.7132 66.9381C52.2992 66.6647 53.721 64.9876 53.721 63.3835V56.0736H48.5257V56.0553Z" fill="#140505"/>
<path d="M70.0003 22.1482V22.9685C69.5445 24.1352 68.232 24.117 67.2659 24.6639C66.5003 25.1014 65.7893 25.7941 65.3336 26.5597C64.6773 27.6534 64.6956 29.4581 63.1096 29.4034C61.5237 29.3487 61.6878 27.8904 61.1956 26.9243C60.7034 25.9581 59.7372 25.0102 58.8075 24.5362C57.8779 24.0623 56.3648 24.0441 56.3284 22.6222C56.2737 21.0362 58.0601 21.0545 59.1721 20.3982C60.2841 19.742 60.7398 19.0857 61.1956 18.1925C61.6513 17.2993 61.8154 15.3305 63.5836 15.7862C65.3518 16.242 64.6773 17.3722 65.1148 18.229C65.5523 19.0857 66.6461 20.1977 67.594 20.6717C68.5419 21.1456 69.5263 21.0545 70.0185 22.1482H70.0003ZM63.2919 20.781C63.0549 20.617 62.6357 21.3644 62.4716 21.5284C62.1253 21.8748 61.7789 22.2029 61.3779 22.4946C61.5419 22.7316 63.0549 24.3722 63.219 24.3357L64.9325 22.4946C64.3128 22.0389 63.6018 21.4737 63.2919 20.781Z" fill="#4065D3"/>
<path d="M0 33.6318V32.8115C0.455729 31.7177 1.34896 31.8453 2.24219 31.4261C3.13542 31.0068 4.39323 29.8948 4.90365 28.8922C5.41406 27.8896 5.34115 26.7412 6.4349 26.4495C8.3125 25.9573 8.33073 28.0901 9.00521 29.2203C9.42448 29.9313 10.1354 30.6422 10.8464 31.0615C11.8672 31.663 13.6354 31.7542 13.6901 33.1578C13.7448 34.762 12.0859 34.7073 11.0469 35.3089C10.0078 35.9104 9.16927 36.8948 8.78646 37.6969C8.40365 38.499 8.33073 40.0484 6.92708 40.0849C5.52344 40.1214 5.35938 38.3531 4.70313 37.2412C4.04688 36.1292 3.53646 35.7828 2.77083 35.3453C2.00521 34.9078 0.492188 34.8167 0.0364583 33.65L0 33.6318ZM7.71094 34.0875C7.89323 33.9052 8.69531 33.4313 8.6224 33.1578C8.54948 32.8844 7.72917 32.3922 7.52865 32.1917C7.10938 31.7724 6.90885 30.9339 6.50781 31.8453L5.06771 33.2672C5.52344 33.3766 6.65365 34.9443 6.78125 34.9807C7.07292 35.0537 7.52865 34.2516 7.71094 34.0693V34.0875Z" fill="#4065D3"/>
<path d="M49.3462 36.7691C46.9582 34.9826 44.1873 33.8888 41.2707 33.2691C41.3983 32.5399 41.1066 31.3732 41.3071 30.717C41.5077 30.0607 42.5467 29.5868 42.8566 29.2586C44.4972 27.4722 45.5181 24.9201 45.6639 22.4956C45.7915 20.5451 45.8462 17.1362 45.6639 15.2404C45.4452 13.0165 43.3488 13.8003 41.7629 13.6727C40.2134 13.5633 38.4634 12.8888 37.3879 11.7586C36.6405 10.993 36.2212 9.38885 34.9452 9.44353C33.6691 9.49822 33.2863 11.0842 32.5389 11.8316C31.4816 12.9071 29.841 13.5269 28.3462 13.6545C26.8514 13.7821 24.5363 12.9982 24.3175 15.2404C24.1353 17.1545 24.1899 20.5451 24.3175 22.4956C24.4816 24.829 25.4113 27.1623 26.9243 28.9123C28.4373 30.6623 28.6743 30.4618 28.7108 30.5711C28.7472 30.6805 28.7472 33.1232 28.7108 33.2691C25.8123 33.8888 23.0233 34.9826 20.6353 36.7691V16.3159C22.4764 -1.22053 47.341 -1.34813 49.3462 16.1883V36.7691Z" fill="#FEFEFE"/>
<path d="M53.7397 53.0463H48.5444V49.4187C48.5444 49.3093 48.0705 48.6348 47.9246 48.5255C47.4325 48.1791 46.7215 48.1427 46.2111 48.4708C45.7007 48.7989 45.5184 49.1635 45.5184 49.2911V56.601C44.534 56.5098 43.6408 55.8718 42.6564 55.6349C42.4559 53.8849 42.4923 52.0437 41.5991 50.476C40.7059 48.9083 38.2996 47.5776 36.1486 47.8875C33.9976 48.1973 35.3283 48.2703 35.0366 48.2885C34.745 48.3067 34.2345 47.9604 33.797 47.8875C31.3179 47.5411 28.8022 48.9265 27.9272 51.2963C27.0522 53.6661 27.4897 54.2494 27.2892 55.6531C26.3413 55.963 25.4116 56.5281 24.4455 56.6375V49.3276C24.4455 49.2 23.9168 48.6166 23.7528 48.5072C23.2424 48.1791 22.5314 48.2156 22.0392 48.5619C21.547 48.9083 21.4194 49.3458 21.4194 49.4552V53.0828H16.2241C16.297 50.7494 16.4064 48.5437 17.172 46.3197C18.4298 42.7651 21.1642 39.6843 24.5002 37.9343L27.1799 43.5671C27.672 44.3145 28.3465 44.4968 29.2215 44.2781L34.909 41.6166L40.7059 44.2781C41.5444 44.4968 42.2736 44.3328 42.7476 43.5671C43.5496 42.2729 44.2788 40.1401 44.9715 38.6817C45.6642 37.2234 45.2632 37.8979 45.5002 37.9708C45.7371 38.0437 46.6851 38.6635 46.9585 38.8458C50.021 40.9057 52.4272 44.4057 53.2111 48.0333C53.5757 49.6921 53.6304 51.3875 53.6851 53.101L53.7397 53.0463Z" fill="#FEFEFE"/>
<path d="M42.6564 16.679C42.5106 20.1243 43.3309 23.6061 41.1252 26.5775C38.9195 29.5488 33.3778 30.752 30.0054 27.7624C26.633 24.7728 27.4169 20.7624 27.3439 16.679C30.3335 16.8249 32.9038 15.6582 35.0549 13.6895C37.0601 15.7493 39.7762 16.7884 42.6564 16.679ZM31.9559 22.1842C31.3179 22.3118 30.8075 22.9499 30.7528 23.5879C30.6434 25.0462 33.1591 26.3405 34.4169 26.4863C36.3127 26.7233 40.6877 24.8822 39.0288 22.6947C37.7346 20.9993 36.3856 23.4967 35.0731 23.515C33.7606 23.5332 33.3049 21.9108 31.9559 22.1842Z" fill="#FEFEFE"/>
<path d="M16.2603 56.0549H21.4556V59.2633C21.4556 59.7554 22.5858 60.6304 23.1509 60.4117L29.7134 57.8049C30.6978 56.9664 30.2056 53.4117 30.8618 52.1174C31.1899 51.4612 32.9217 50.2398 33.4321 50.969C33.9425 51.6982 33.578 57.2763 33.4868 58.0237C33.3957 58.7711 32.9764 59.4456 32.3202 60.0107C28.8748 61.87 25.5389 64.5315 22.0936 66.3179C21.091 66.8466 20.4347 67.12 19.2681 66.9195C18.1014 66.719 16.2603 64.969 16.2603 63.3648V56.0549Z" fill="#FEFEFE"/>
<path d="M48.5263 56.0542H53.7216V63.3641C53.7216 64.9683 52.2998 66.6454 50.7138 66.9188C49.4925 67.1376 48.818 66.8277 47.7972 66.2626C44.2425 64.3667 40.8154 61.7053 37.2789 59.7183C36.7867 59.2261 36.5498 58.5698 36.4768 57.8771C36.2763 55.7443 36.6227 53.3381 36.4768 51.1688C36.6045 50.5126 37.7164 50.8407 38.1722 51.1323C40.3597 52.4813 38.9378 56.6558 40.2685 57.786L46.831 60.3928C47.3961 60.6115 48.5263 59.7365 48.5263 59.2443V56.036V56.0542Z" fill="#FEFEFE"/>
<path d="M38.281 32.2663L38.2081 33.7611L35.0545 37.4434C34.8904 37.4798 34.8175 37.334 34.7264 37.2428C34.38 36.9147 31.7732 33.7793 31.7185 33.5423C31.6456 33.1595 31.755 32.6491 31.7185 32.248C33.979 32.7585 36.0206 32.7585 38.281 32.248V32.2663Z" fill="#FEFEFE"/>
<path d="M30.0601 36.2578L32.5392 39.3021C31.9741 39.5208 29.7866 40.8516 29.3491 40.724C28.9116 40.5964 27.5627 37.1875 27.4897 36.6406L30.0601 36.2578Z" fill="#FEFEFE"/>
<path d="M42.5285 36.6413C42.6925 36.8053 40.9608 40.3236 40.6691 40.7246L37.479 39.3574L39.9582 36.2402L42.5285 36.623V36.6413Z" fill="#FEFEFE"/>
<path d="M10.6273 1.40325C12.5596 1.00221 12.4137 2.86159 13.1064 4.06471C13.7992 5.26784 14.3278 5.59596 15.0934 6.05169C16.2236 6.70794 18.4294 6.83555 17.7913 8.69492C17.1533 10.5543 16.0778 9.73398 15.1481 10.2809C14.2184 10.8277 13.4528 11.6845 13.0153 12.523C12.5778 13.3616 12.4867 15.0387 11.0101 15.0387C9.66114 15.0387 9.55176 13.5074 9.0778 12.5777C8.60384 11.648 7.72884 10.7001 6.70801 10.1715C5.68718 9.64284 4.19239 9.56992 4.15593 8.23919C4.11947 6.90846 5.61426 6.76263 6.61687 6.25221C7.61947 5.7418 8.71322 4.52044 9.29655 3.31732C9.87989 2.11419 9.56999 1.60378 10.6455 1.38503L10.6273 1.40325ZM11.2106 6.4345C11.0466 6.32513 9.33301 8.03867 9.31478 8.16628C9.27832 8.38503 10.8278 9.62461 11.0101 9.98919C11.32 9.56992 12.6689 8.56732 12.7236 8.14805C12.7783 7.89284 12.4684 7.91107 12.3044 7.747C11.9216 7.38242 11.3747 6.92669 11.2106 6.4345Z" fill="#4065D3"/>
<path d="M63.2915 20.7814C63.6014 21.4741 64.3123 22.0392 64.9321 22.4949L63.2186 24.3361C63.0545 24.3725 61.5415 22.7319 61.3774 22.4949C61.7785 22.2215 62.1248 21.8934 62.4712 21.5288C62.8175 21.1642 63.0363 20.5991 63.2915 20.7814Z" fill="#FEFEFE"/>
<path d="M7.7111 34.0877C7.52881 34.2699 7.05485 35.072 6.78141 34.9991C6.50798 34.9262 5.5236 33.3949 5.06787 33.2856L6.50798 31.8637C6.90902 30.9522 7.10954 31.7908 7.52881 32.21C7.94808 32.6293 8.60433 33.1033 8.62256 33.1762C8.69548 33.4679 7.89339 33.9236 7.7111 34.1059V34.0877Z" fill="#FEFEFE"/>
<path d="M31.9558 22.1847C33.3047 21.9295 33.6329 23.5337 35.073 23.5155C36.5131 23.4972 37.7526 20.9998 39.0287 22.6951C40.6875 24.8826 36.3308 26.7238 34.4167 26.4868C32.5026 26.2498 30.6433 25.0467 30.7526 23.5884C30.862 22.13 31.3178 22.3123 31.9558 22.1847Z" fill="#140505"/>
<path d="M11.2109 6.43497C11.375 6.92716 11.9219 7.36466 12.3047 7.74747C12.6875 8.13028 12.7786 7.89331 12.7239 8.14851C12.6693 8.56778 11.3203 9.57039 11.0104 9.98966C10.8281 9.62508 9.27863 8.38549 9.31509 8.16674C9.35154 7.94799 11.0469 6.3256 11.2109 6.43497Z" fill="#FEFEFE"/>
</g>
<defs>
<clipPath id="clip0_625_13003">
<rect width="70" height="70" fill="white"/>
</clipPath>
</defs>
</svg>
