<svg width="20" height="20" viewBox="0 0 20 20" fill="none" xmlns="http://www.w3.org/2000/svg">
<g clip-path="url(#clip0_1969_11920)">
<g clip-path="url(#clip1_1969_11920)">
<path d="M18.6355 -0.0429688C19.3491 0.123698 19.8022 0.58724 20.0001 1.28516V3.11849C19.9011 3.5612 19.8334 4.00391 19.698 4.4362C19.1355 6.21224 17.7136 7.70182 15.9897 8.38411C15.7345 8.48307 15.1407 8.61328 14.9636 8.72786C14.7866 8.84245 14.5678 9.29036 14.4532 9.42578C13.7345 10.306 12.7345 10.9518 11.6459 11.2904C11.6876 11.7227 11.5157 12.4206 11.7657 12.7799C12.0105 13.1341 12.3438 13.056 12.7032 13.1289C13.8438 13.3581 14.1147 14.4362 14.0209 15.4622H14.7813C14.9011 15.4622 15.1928 15.6706 15.1928 15.7956V19.0977H16.073C16.0991 19.0977 16.2501 19.2018 16.2813 19.2383C16.4949 19.4883 16.3647 19.8216 16.0886 19.957H3.90634C3.64072 19.8216 3.50009 19.5039 3.70843 19.2435C3.91676 18.9831 3.91155 19.0977 3.92197 19.0977H4.80218V15.8372C4.81259 15.6654 5.05739 15.4622 5.21364 15.4622H5.97405C5.92718 14.6081 6.0053 13.7435 6.83343 13.2904C7.24488 13.0664 7.77613 13.1654 8.08343 12.9362C8.54697 12.5924 8.30218 11.7852 8.35426 11.2852C7.26572 10.9466 6.27093 10.306 5.54697 9.42057C4.82301 8.53516 5.15113 8.80599 5.03655 8.71745C4.86468 8.58724 4.03655 8.3737 3.75009 8.2487C2.15113 7.54036 0.849051 6.12891 0.312593 4.46224C-0.223865 2.79557 0.109468 3.58724 9.30243e-05 3.15495V1.2487C0.125093 0.988281 0.19801 0.753906 0.390718 0.52474C0.583426 0.295573 0.937593 0.123698 1.29176 -0.0429688H18.6355ZM3.67197 0.816406H1.46363C1.44801 0.816406 1.22926 0.915365 1.19801 0.941406C1.01572 1.0612 0.88551 1.28516 0.859468 1.50391C0.781343 2.17578 0.869885 3.21224 1.03655 3.86849C1.47926 5.61328 2.79176 7.00911 4.47405 7.61849L3.67197 0.821615V0.816406ZM15.4688 0.816406H4.53134L5.16155 6.53516C5.45843 8.34245 6.67718 9.75911 8.3803 10.3893C8.78655 10.5404 9.1928 10.4622 9.2553 10.9987C9.39072 12.1445 9.30738 13.6602 7.9428 13.931C7.59384 14.0039 7.27093 13.931 7.02093 14.2591C6.77093 14.5872 6.8803 14.4987 6.8803 14.5091V15.4674H13.1303V14.5091C13.1303 14.4935 13.0105 14.2852 12.9897 14.2591C12.7397 13.931 12.4168 14.0039 12.0678 13.931C11.5522 13.8268 11.0366 13.4154 10.8647 12.9102C10.7241 12.4935 10.6928 11.3997 10.7501 10.957C10.8074 10.5143 11.2605 10.5247 11.6251 10.3893C13.3282 9.75391 14.5418 8.34766 14.8438 6.53516L15.4741 0.816406H15.4688ZM15.4688 7.64974C17.5366 6.95182 19.0105 4.96745 19.1407 2.79036C19.1616 2.45703 19.1824 1.73828 19.1303 1.43099C19.0782 1.1237 18.7761 0.852865 18.4584 0.816406C17.797 0.74349 17.0053 0.873698 16.3282 0.816406L15.7397 6.33724L15.4741 7.64974H15.4688ZM14.3334 16.3216H5.66676V19.0924H14.3386V16.3216H14.3334Z" fill="#140505"/>
<path d="M18.6353 -0.0429688H19.9998V1.28516C19.7967 0.58724 19.3488 0.123698 18.6353 -0.0429688Z" fill="#FEFEFE"/>
<path d="M1.29167 -0.0429688C0.942708 0.123698 0.651042 0.21224 0.390625 0.52474C0.130208 0.83724 0.125 0.983073 0 1.2487V-0.0429688H1.29167Z" fill="#FEFEFE"/>
<path d="M15.4686 0.816406L14.8384 6.53516C14.5415 8.34766 13.3228 9.75391 11.6196 10.3893C9.9165 11.0247 10.8071 10.4779 10.7446 10.957C10.6821 11.4362 10.7186 12.4935 10.8592 12.9102C11.0311 13.4154 11.5467 13.8268 12.0623 13.931C12.578 14.0352 12.7342 13.931 12.9842 14.2591C13.005 14.2852 13.1248 14.4987 13.1248 14.5091V15.4674H6.87484V14.5091C6.87484 14.4935 6.99463 14.2852 7.01546 14.2591C7.26546 13.931 7.58838 14.0039 7.93734 13.931C9.30713 13.6549 9.39046 12.1445 9.24984 10.9987C9.18734 10.4622 8.78109 10.5404 8.37484 10.3893C6.67692 9.75912 5.45296 8.34245 5.15609 6.53516L4.52588 0.816406H15.4634H15.4686ZM9.9113 2.34766C9.854 2.35807 9.79671 2.38411 9.74463 2.41536C9.48421 2.59245 9.21338 3.51953 8.98421 3.80078C8.854 3.91016 7.82796 3.96745 7.56755 4.02474C7.30713 4.08203 7.10921 4.3112 7.20296 4.60286C7.29671 4.89453 8.13005 5.44661 8.31234 5.72266C8.39567 6.00391 8.07275 6.85286 8.08838 7.19661C8.104 7.54036 8.38005 7.66537 8.67171 7.59245C9.02067 7.4987 9.52588 7.09766 9.89046 6.97787C10.255 6.85807 9.96859 6.94141 10.0155 6.94661C10.5571 7.06641 11.6821 8.18099 11.9113 7.19661C11.9113 6.85807 11.604 5.9987 11.6873 5.72266C11.7707 5.44661 12.578 4.94141 12.7342 4.70182C12.8905 4.46224 12.8384 4.27995 12.6769 4.13411C12.4321 3.91536 11.3853 3.95182 11.0363 3.82161C10.7811 3.54557 10.4946 2.50391 10.1769 2.37891C9.85921 2.25391 10.0103 2.33724 9.9113 2.35286V2.34766Z" fill="#FEFEFE"/>
<path d="M14.3384 16.3203H5.6665V19.0911H14.3384V16.3203Z" fill="#FEFEFE"/>
<path d="M9.91148 2.34772C10.0104 2.3321 10.0834 2.3373 10.1771 2.37376C10.4948 2.49876 10.7813 3.54043 11.0365 3.81647C11.3854 3.95189 12.4271 3.91022 12.6771 4.12897C12.9271 4.34772 12.849 4.5196 12.7344 4.69668C12.6198 4.87376 11.7344 5.57168 11.6875 5.71751C11.6042 5.99355 11.9115 6.85293 11.9115 7.19147C11.6823 8.17585 10.5625 7.06126 10.0157 6.94147C9.96878 6.93105 9.93232 6.9571 9.89065 6.97272C9.52086 7.09251 9.02086 7.49876 8.6719 7.5873C8.38023 7.66543 8.09898 7.50918 8.08857 7.19147C8.07815 6.87376 8.39586 5.99876 8.31253 5.71751C8.13023 5.44147 7.29169 4.86855 7.20315 4.59772C7.11461 4.32689 7.29169 4.0873 7.56773 4.0196C7.84378 3.95189 8.85419 3.8998 8.9844 3.79564C9.21357 3.51439 9.4844 2.5873 9.74482 2.41022C10.0052 2.23314 9.84898 2.35293 9.91148 2.34251V2.34772ZM10.0365 3.74876C9.94794 3.72793 9.97398 3.75918 9.94794 3.80085C9.81253 4.01439 9.68753 4.48835 9.46357 4.60293C9.23961 4.71751 8.83857 4.68626 8.58857 4.76439C8.56253 4.80085 9.15628 5.30085 9.19794 5.42585C9.28648 5.71751 9.11461 6.10814 9.09898 6.40501C9.38544 6.35293 9.69794 6.0196 9.97919 6.01439C10.2604 6.00918 10.6094 6.3321 10.8959 6.40501C10.8802 6.10814 10.7084 5.71751 10.7969 5.42585C10.8854 5.13418 11.4323 4.80085 11.4063 4.76439C11.1459 4.67585 10.7344 4.72272 10.5104 4.5873C10.2865 4.45189 10.1459 3.96751 10.0417 3.74876H10.0365Z" fill="#4065D3"/>
<path d="M10.0365 3.74837C10.1407 3.96712 10.3074 4.46712 10.5053 4.58691C10.7032 4.7067 11.1459 4.67545 11.4011 4.76399C11.4272 4.80045 10.8334 5.30045 10.7918 5.42545C10.7032 5.71712 10.8751 6.10774 10.8907 6.40462C10.6043 6.3317 10.2761 6.00358 9.97404 6.01399C9.67196 6.02441 9.3803 6.35254 9.09384 6.40462C9.10946 6.10774 9.28134 5.71712 9.19279 5.42545C9.10425 5.13379 8.55738 4.80045 8.58342 4.76399C8.83342 4.68587 9.22925 4.72233 9.45842 4.60254C9.68759 4.48274 9.80217 4.00879 9.94279 3.80045C10.0834 3.59212 9.94279 3.73274 10.0313 3.74837H10.0365Z" fill="#FEFEFE"/>
</g>
</g>
<defs>
<clipPath id="clip0_1969_11920">
<rect width="20" height="20" fill="white"/>
</clipPath>
<clipPath id="clip1_1969_11920">
<rect width="20" height="20" fill="white" transform="translate(0 -0.0429688)"/>
</clipPath>
</defs>
</svg>
