<svg width="50" height="50" viewBox="0 0 50 50" fill="none" xmlns="http://www.w3.org/2000/svg">
<g clip-path="url(#clip0_1280_32347)">
<g clip-path="url(#clip1_1280_32347)">
<path d="M46.5878 -0.104492C48.3717 0.312175 49.5045 1.47103 49.9993 3.21582V7.79915C49.7519 8.90592 49.5826 10.0127 49.2441 11.0934C47.8378 15.5335 44.2831 19.2575 39.9732 20.9632C39.3352 21.2106 37.8508 21.5361 37.4081 21.8226C36.9654 22.1091 36.4185 23.2288 36.1321 23.5674C34.3352 25.7679 31.8352 27.3825 29.1138 28.2288C29.218 29.3096 28.7883 31.0544 29.4133 31.9528C30.0253 32.8382 30.8586 32.6429 31.7571 32.8252C34.6086 33.3981 35.2857 36.0934 35.0513 38.6585H36.9524C37.2519 38.6585 37.981 39.1794 37.981 39.4919V47.7471H40.1816C40.2467 47.7471 40.6243 48.0075 40.7024 48.0986C41.2362 48.7236 40.9107 49.557 40.2206 49.8955H9.76488C9.10082 49.557 8.74926 48.7627 9.27009 48.1117C9.79092 47.4606 9.7779 47.7471 9.80395 47.7471H12.0045V39.596C12.0305 39.1663 12.6425 38.6585 13.0331 38.6585H14.9342C14.817 36.5231 15.0123 34.3617 17.0826 33.2288C18.1112 32.6689 19.4394 32.9163 20.2076 32.3434C21.3664 31.4841 20.7545 29.4658 20.8847 28.2158C18.1633 27.3695 15.6763 25.7679 13.8664 23.5544C12.0565 21.3408 12.8769 22.0179 12.5904 21.7966C12.1607 21.471 10.0904 20.9372 9.37426 20.6247C5.37686 18.8538 2.12165 15.3252 0.780506 11.1585C-0.56064 6.99186 0.272694 8.97103 -0.000744001 7.8903V3.12467C0.311756 2.47363 0.494048 1.8877 0.975819 1.31478C1.45759 0.741862 2.34301 0.312175 3.22842 -0.104492H46.5878ZM9.17894 2.04395H3.65811C3.61905 2.04395 3.07217 2.29134 2.99405 2.35645C2.53832 2.65592 2.2128 3.21582 2.14769 3.7627C1.95238 5.44238 2.17374 8.03353 2.5904 9.67415C3.69717 14.0361 6.97842 17.5257 11.1842 19.0492L9.17894 2.05697V2.04395ZM38.6711 2.04395H11.3274L12.9029 16.3408C13.6451 20.8591 16.692 24.4007 20.9498 25.9762C21.9654 26.3538 22.981 26.1585 23.1373 27.4997C23.4758 30.3643 23.2675 34.1533 19.856 34.8304C18.9836 35.0127 18.1763 34.8304 17.5513 35.6507C16.9263 36.471 17.1998 36.2497 17.1998 36.2757V38.6716H32.8248V36.2757C32.8248 36.2367 32.5253 35.7158 32.4732 35.6507C31.8482 34.8304 31.0409 35.0127 30.1685 34.8304C28.8795 34.57 27.5904 33.5413 27.1607 32.2783C26.8092 31.2367 26.731 28.5023 26.8743 27.3955C27.0175 26.2887 28.1503 26.3148 29.0618 25.9762C33.3196 24.3877 36.3534 20.8721 37.1086 16.3408L38.6842 2.04395H38.6711ZM38.6711 19.1273C43.8404 17.3825 47.5253 12.4216 47.8508 6.97884C47.9029 6.14551 47.955 4.34863 47.8248 3.5804C47.6946 2.81217 46.9394 2.13509 46.1451 2.04395C44.4914 1.86165 42.5123 2.18717 40.8196 2.04395L39.3482 15.846L38.6842 19.1273H38.6711ZM35.8326 40.807H14.1659V47.7341H35.8456V40.807H35.8326Z" fill="#140505"/>
<path d="M46.5889 -0.104492H50.0003V3.21582C49.4925 1.47103 48.3727 0.312175 46.5889 -0.104492Z" fill="#FEFEFE"/>
<path d="M3.22917 -0.104492C2.35677 0.312175 1.6276 0.533529 0.976563 1.31478C0.325521 2.09603 0.3125 2.46061 0 3.12467V-0.104492H3.22917Z" fill="#FEFEFE"/>
<path d="M38.6722 2.04395L37.0967 16.3408C36.3545 20.8721 33.3076 24.3877 29.0498 25.9762C24.792 27.5648 27.0186 26.1976 26.8623 27.3955C26.7061 28.5934 26.7972 31.2367 27.1488 32.2783C27.5784 33.5413 28.8675 34.57 30.1566 34.8304C31.4456 35.0908 31.8363 34.8304 32.4613 35.6507C32.5133 35.7158 32.8128 36.2497 32.8128 36.2757V38.6716H17.1878V36.2757C17.1878 36.2367 17.4873 35.7158 17.5394 35.6507C18.1644 34.8304 18.9717 35.0127 19.8441 34.8304C23.2686 34.1403 23.4769 30.3643 23.1253 27.4997C22.9691 26.1585 21.9535 26.3538 20.9378 25.9762C16.693 24.4007 13.6331 20.8591 12.891 16.3408L11.3154 2.04395H38.6592H38.6722ZM24.779 5.87207C24.6357 5.89811 24.4925 5.96322 24.3623 6.04134C23.7113 6.48405 23.0342 8.80176 22.4613 9.50488C22.1357 9.77832 19.5706 9.92155 18.9196 10.0648C18.2686 10.208 17.7738 10.7809 18.0081 11.5101C18.2425 12.2393 20.3258 13.6195 20.7816 14.3096C20.9899 15.0127 20.1826 17.1351 20.2217 17.9945C20.2607 18.8538 20.9508 19.1663 21.68 18.9841C22.5524 18.7497 23.8154 17.7471 24.7269 17.4476C25.6383 17.1481 24.9222 17.3564 25.0394 17.3695C26.3936 17.6689 29.2061 20.4554 29.779 17.9945C29.779 17.1481 29.0107 14.9997 29.2191 14.3096C29.4274 13.6195 31.4456 12.3564 31.8363 11.7575C32.2269 11.1585 32.0967 10.7028 31.693 10.3382C31.0811 9.79134 28.4639 9.88249 27.5915 9.55697C26.9534 8.86686 26.2373 6.2627 25.443 5.9502C24.6488 5.6377 25.0264 5.84603 24.779 5.88509V5.87207Z" fill="#FEFEFE"/>
<path d="M35.8467 40.8066H14.167V47.7337H35.8467V40.8066Z" fill="#FEFEFE"/>
<path d="M24.7785 5.87223C25.0259 5.83317 25.2082 5.84619 25.4425 5.93734C26.2368 6.24984 26.9529 8.854 27.591 9.54411C28.4634 9.88265 31.0675 9.77848 31.6925 10.3254C32.3175 10.8722 32.1222 11.3019 31.8358 11.7446C31.5493 12.1873 29.3358 13.9321 29.2186 14.2967C29.0102 14.9868 29.7785 17.1353 29.7785 17.9816C29.2055 20.4425 26.4061 17.6561 25.0389 17.3566C24.9217 17.3306 24.8305 17.3957 24.7264 17.4347C23.8019 17.7342 22.5519 18.7498 21.6795 18.9712C20.9503 19.1665 20.2472 18.7759 20.2212 17.9816C20.1951 17.1873 20.9894 14.9998 20.7811 14.2967C20.3253 13.6066 18.229 12.1743 18.0076 11.4972C17.7863 10.8201 18.229 10.2212 18.9191 10.0519C19.6092 9.88265 22.1352 9.75244 22.4608 9.49202C23.0337 8.7889 23.7108 6.47119 24.3618 6.02848C25.0128 5.58577 24.6222 5.88525 24.7785 5.85921V5.87223ZM25.091 9.37484C24.8696 9.32275 24.9347 9.40088 24.8696 9.50504C24.5311 10.0389 24.2186 11.2238 23.6587 11.5103C23.0988 11.7967 22.0962 11.7186 21.4712 11.9139C21.4061 12.005 22.8904 13.255 22.9946 13.5675C23.216 14.2967 22.7863 15.2733 22.7472 16.0155C23.4634 15.8853 24.2446 15.0519 24.9477 15.0389C25.6509 15.0259 26.5233 15.8332 27.2394 16.0155C27.2003 15.2733 26.7707 14.2967 26.992 13.5675C27.2134 12.8384 28.5805 12.005 28.5154 11.9139C27.8644 11.6925 26.8358 11.8097 26.2759 11.4712C25.716 11.1326 25.3644 9.92171 25.104 9.37484H25.091Z" fill="#4065D3"/>
<path d="M25.0911 9.37483C25.3515 9.92171 25.7682 11.1717 26.263 11.4712C26.7578 11.7707 27.8646 11.6925 28.5026 11.9139C28.5677 12.005 27.0833 13.255 26.9791 13.5675C26.7578 14.2967 27.1875 15.2733 27.2265 16.0155C26.5104 15.8332 25.6901 15.0129 24.9349 15.0389C24.1797 15.0649 23.4505 15.8852 22.7343 16.0155C22.7734 15.2733 23.2031 14.2967 22.9817 13.5675C22.7604 12.8384 21.3932 12.005 21.4583 11.9139C22.0833 11.7186 23.0729 11.8097 23.6458 11.5102C24.2187 11.2108 24.5052 10.0259 24.8567 9.50504C25.2083 8.98421 24.8567 9.33577 25.0781 9.37483H25.0911Z" fill="#FEFEFE"/>
</g>
</g>
<defs>
<clipPath id="clip0_1280_32347">
<rect width="50" height="50" fill="white"/>
</clipPath>
<clipPath id="clip1_1280_32347">
<rect width="50" height="50" fill="white" transform="translate(0 -0.104492)"/>
</clipPath>
</defs>
</svg>
