<svg width="50" height="50" viewBox="0 0 50 50" fill="none" xmlns="http://www.w3.org/2000/svg">
<g clip-path="url(#clip0_1280_32370)">
<path d="M0 30.8587C0.325521 30.0645 0.898438 29.4004 1.8099 29.2962C4.3099 29.0098 7.34375 29.4916 9.89583 29.3223C10.8724 29.4785 11.5365 30.2858 11.6276 31.2494C13.5026 30.2728 15.4036 29.9082 17.526 30.0905C21.224 30.8978 24.9479 31.6009 28.6198 32.4733C29.6875 32.7207 30.7031 32.8379 31.6536 33.4369C32.6042 34.0358 33.3984 35.1817 33.5026 36.3275L33.7891 36.2754C37.0443 34.4395 40.2604 31.7181 43.5286 29.9994C46.1328 28.6452 49.5703 29.9733 49.9089 33.0072C49.9479 33.1634 49.974 33.3197 50.013 33.502V34.4785C49.9609 35.6634 49.2448 36.8093 48.2552 37.4473C43.2422 40.7285 38.1641 44.0228 33.0859 47.2259C30.638 48.7754 28.1641 50.0124 25.2344 49.8041C21.0286 49.0749 16.849 48.1895 12.6823 47.278C12.5 47.239 12.3307 47.1738 12.1484 47.1087C11.9661 47.0436 11.7969 46.9525 11.6276 46.8744C11.9401 47.0046 11.9271 48.1374 11.6276 48.2936C11.7057 48.2936 11.8099 48.3587 11.7969 48.4108C11.4974 49.3353 11.0026 49.9473 9.97396 49.9994H1.66667C0.638021 49.9603 0.0520833 49.3614 0 48.3327V30.8587Z" fill="#140505"/>
<path d="M28.2296 0C30.7426 0.625 31.0681 2.8125 30.8598 5.07813C30.3129 5.39063 29.2582 5.39063 28.7113 5.07813L28.503 4.98698V3.24219C28.4119 2.68229 28.2686 2.40885 27.6697 2.33073C26.1723 2.14844 24.0108 2.17448 22.5004 2.31771C20.99 2.46094 21.5238 2.77344 21.4587 3.61979L21.4848 4.9349L21.2764 5.07813C20.7296 5.39063 19.6749 5.39063 19.128 5.07813C18.9327 2.79948 19.2452 0.638021 21.7582 0H28.2296Z" fill="#140505"/>
<path d="M50.0004 33.4899C49.8312 33.4118 49.9223 33.1514 49.8963 32.9951H50.0004V33.4899Z" fill="#140505"/>
<path d="M21.2894 5.07813C21.654 4.98698 22.0316 4.88281 22.4222 4.88281C24.1279 4.84375 25.8727 4.84375 27.5785 4.88281C29.2842 4.92188 28.3337 4.98698 28.7113 5.07813H30.8597C31.5368 5.07813 31.0811 5.23437 31.1852 5.18229C33.2816 5.40365 36.0941 4.85677 38.1123 5.18229C38.8415 5.29948 39.5837 6.02865 39.792 6.71875C40.1045 7.72135 40.0394 12.5521 39.9352 13.8021C39.8311 15.0521 39.7399 15.0391 39.3102 15.5208C38.8805 16.0026 38.7243 15.8724 38.6722 16.1589V24.9479C38.516 25.9375 37.8519 26.6927 36.8884 26.9792C28.9457 27.0703 20.9509 27.1224 13.0212 26.9531C12.1227 26.6667 11.5238 25.9505 11.3285 25.0391C11.1201 23.8021 11.6149 16.4844 11.2243 15.9635C10.8337 15.4427 10.8337 15.7031 10.6774 15.5339C10.2477 15.0651 10.1045 14.4531 10.0524 13.8151C9.94825 12.5521 9.88315 7.86458 10.1696 6.8099C10.4561 5.75521 11.1201 5.32552 11.8753 5.19531C13.8936 4.85677 16.693 5.39063 18.8024 5.19531C18.9196 5.2474 19.1149 5.09115 19.1279 5.09115H21.2894V5.07813Z" fill="#4065D3"/>
<path d="M11.6279 44.727V33.8546C13.3337 32.5395 15.1696 32.0317 17.3311 32.24C21.2633 32.6046 25.7816 34.4145 29.779 34.9353C32.5394 35.7036 31.667 39.6619 28.8024 39.1411L17.7347 36.7192C16.3675 36.6541 16.042 38.464 17.3701 38.8416L28.8675 41.3155C30.7034 41.4457 31.9795 40.6645 33.0863 39.2843L44.7399 31.7973C47.1097 30.7687 48.9977 33.6853 47.0706 35.4041C41.7061 38.7244 36.5368 42.3833 31.1592 45.6645C29.193 46.8624 27.5915 47.6437 25.1696 47.4614L11.6279 44.74V44.727Z" fill="#FEFEFE"/>
<path d="M9.46615 31.4453H2.14844V47.8516H9.46615V31.4453Z" fill="#FEFEFE"/>
<path d="M19.141 15.82L12.3831 14.1533C12.318 14.1533 12.2139 13.945 12.2139 13.9059V7.46061C12.2139 7.46061 12.3441 7.31738 12.3571 7.31738H37.6436C37.6436 7.31738 37.7868 7.44759 37.7868 7.46061V13.9059C37.7868 13.945 37.6826 14.1273 37.6175 14.1533L30.8597 15.82L30.6514 15.6637C30.6644 14.9997 30.0003 14.0101 29.3102 13.9841C27.2008 13.9059 25.0133 13.9059 22.891 13.8929C22.1097 13.8929 21.3285 13.8929 20.5732 14.0361C19.8441 14.1663 19.4014 14.9606 19.3623 15.6507L19.154 15.807L19.141 15.82Z" fill="#FEFEFE"/>
<path d="M19.1406 18.0726L19.3359 18.2158C19.0755 19.9736 19.5964 21.0023 20.8854 21.2887C23.737 21.3929 26.6667 21.3929 29.5182 21.2106C30.625 21.1455 30.7682 19.0231 30.6641 18.2158L30.8594 18.0726L36.5234 16.6143V24.7653C36.5234 24.7653 36.3932 24.9085 36.3802 24.9085H13.6198C13.6198 24.9085 13.4766 24.7783 13.4766 24.7653V16.6143L19.1406 18.0726Z" fill="#FEFEFE"/>
<path d="M30.8592 15.8209C30.9113 16.511 30.8722 17.3704 30.8592 18.0605C30.8331 19.3886 31.0805 20.8209 29.5441 21.3808C26.8227 21.3808 23.7498 21.6803 21.0415 21.4719C18.9581 21.3157 19.1665 19.5969 19.1404 18.0474C19.1144 16.498 19.0883 16.498 19.1404 15.8079C19.2316 14.6099 19.7915 13.8417 21.0415 13.7506C23.6977 13.5553 26.6274 13.8938 29.3227 13.7766C30.3644 14.0631 30.781 14.7662 30.8592 15.8079V15.8209Z" fill="#140505"/>
<path d="M28.7109 15.9111H21.2891V19.3226H28.7109V15.9111Z" fill="#FEFEFE"/>
</g>
<defs>
<clipPath id="clip0_1280_32370">
<rect width="50" height="50" fill="white"/>
</clipPath>
</defs>
</svg>
