<svg width="48" height="48" viewBox="0 0 48 48" fill="none" xmlns="http://www.w3.org/2000/svg">
<rect width="48" height="48" rx="10" fill="#EDF2FF"/>
<path d="M24.0008 24.543C22.9869 24.543 22.0144 24.9458 21.2975 25.6627C20.5805 26.3797 20.1777 27.3521 20.1777 28.366C20.1777 29.38 20.5805 30.3524 21.2975 31.0693C22.0144 31.7863 22.9869 32.1891 24.0008 32.1891C25.0147 32.1891 25.9871 31.7863 26.7041 31.0693C27.4211 30.3524 27.8238 29.38 27.8238 28.366C27.8238 27.3521 27.4211 26.3797 26.7041 25.6627C25.9871 24.9458 25.0147 24.543 24.0008 24.543ZM22.3623 28.366C22.3623 27.9315 22.535 27.5147 22.8422 27.2075C23.1495 26.9002 23.5662 26.7276 24.0008 26.7276C24.4353 26.7276 24.8521 26.9002 25.1594 27.2075C25.4666 27.5147 25.6392 27.9315 25.6392 28.366C25.6392 28.8006 25.4666 29.2173 25.1594 29.5246C24.8521 29.8319 24.4353 30.0045 24.0008 30.0045C23.5662 30.0045 23.1495 29.8319 22.8422 29.5246C22.535 29.2173 22.3623 28.8006 22.3623 28.366Z" fill="#4065D3"/>
<path d="M30.037 16.4778L26.5645 11.6094L13.7966 21.8093L13.0888 21.8016V21.8126H12.5317V34.9202H35.4701V21.8126H34.4193L32.3286 15.6968L30.037 16.4778ZM32.1113 21.8126H21.1576L29.3161 19.0316L30.9785 18.4996L32.1113 21.8126ZM27.8786 17.214L19.4569 20.0845L26.1265 14.7563L27.8786 17.214ZM14.7163 30.7356V25.995C15.1775 25.8322 15.5964 25.5683 15.9422 25.2226C16.2881 24.877 16.5523 24.4582 16.7153 23.9972H31.2866C31.4494 24.4584 31.7135 24.8774 32.0594 25.2233C32.4053 25.5692 32.8242 25.8332 33.2855 25.9961V30.7367C32.8242 30.8995 32.4053 31.1636 32.0594 31.5095C31.7135 31.8554 31.4494 32.2743 31.2866 32.7356H16.7174C16.5538 32.2743 16.2892 31.8553 15.943 31.5093C15.5968 31.1633 15.1777 30.899 14.7163 30.7356Z" fill="#4065D3"/>
</svg>
