<svg width="75" height="75" viewBox="0 0 75 75" fill="none" xmlns="http://www.w3.org/2000/svg">
<g clip-path="url(#clip0_477_7617)">
<path d="M29.8828 0L34.9414 2.63672L40 0H40.8789L45.9375 2.63672L50.9766 0H51.8555L56.9141 2.63672L61.9531 0H62.832L67.8906 2.63672L72.9297 0H73.6719C74.4336 0.3125 74.6875 0.566406 75 1.32812V45.8594C74.3164 48.1641 72.9297 50.2734 70.6836 51.2891C70.1562 51.5234 68.7109 52.0117 68.1836 52.0117H51.6992V68.2031C51.6992 68.5547 51.3281 69.7852 51.1914 70.1758C50.2539 72.7148 47.8711 74.5117 45.2539 75.0195H6.15234C3.98438 74.3359 2.07031 73.2617 0.957031 71.2109C0.546875 70.4688 0.371094 69.6289 0 68.8672V64.1797C0.195312 63.8281 0.839844 63.0078 1.25 63.0078H7.32422V21.3086C7.32422 18.7891 11.0156 14.9414 13.5547 14.9414H27.832V1.09375C27.832 0.839844 28.6328 0.195312 28.8477 0H29.8633H29.8828ZM71.7773 4.39453C70.6055 4.66797 68.9258 6.25 67.7539 6.15234C66.582 6.05469 63.2031 3.45703 62.3438 3.51562C60.9961 3.94531 58.0273 6.25 56.7773 6.15234C55.5273 6.05469 52.2266 3.45703 51.3672 3.51562C50.0195 3.92578 47.1875 6.17188 45.9375 6.17188C44.6875 6.17188 41.8359 3.80859 40.3906 3.51562C39.043 3.92578 36.2109 6.17188 34.9609 6.17188C33.7109 6.17188 32.2461 4.62891 31.0742 4.39453V14.9414H57.0703C57.3438 14.9414 58.9062 15.5273 59.2578 15.6836C61.5234 16.7773 63.1445 19.2383 63.3203 21.7383C63.8281 29.043 62.7539 37.0312 63.3203 44.3164C63.5547 47.3438 65.8984 49.4922 68.9648 48.4961C72.0312 47.5 71.8164 46.4258 71.8164 45.1953V4.39453H71.7773ZM49.6484 18.1641H13.9844C12.6172 18.1641 10.5469 20.4102 10.5469 21.7578V62.9883H38.5938C39.1211 62.9883 39.8438 63.7305 39.9609 64.2578C40.4102 66.4648 39.2383 68.5742 41.2109 70.5469C44.0234 73.3594 48.6523 71.0352 48.4961 67.168V21.4453C48.5352 20.8203 48.75 20.1562 48.9648 19.5898C49.1797 19.0234 49.4922 18.6719 49.668 18.1641H49.6484ZM61.3672 48.7891C61.1328 48.1445 60.7031 47.6172 60.4883 46.9727C60.2734 46.3281 60.0977 45.4297 60.0586 44.7656C59.5117 37.4023 60.4688 29.3555 60.0586 21.9141C59.6875 17.9102 54.1797 16.8164 52.2266 20.2539C52.1289 20.4102 51.6992 21.4062 51.6992 21.4844V48.8086H61.3672V48.7891ZM36.7578 66.2109H3.22266C3.125 67.8125 3.26172 69.375 4.45312 70.5469C5.64453 71.7188 6.23047 71.7773 6.81641 71.7773H37.9492C37.8125 71.1719 37.4219 70.6836 37.207 70.0977C36.9922 69.5117 36.7773 68.6523 36.7773 68.4766V66.2109H36.7578Z" fill="#140505"/>
<path d="M49.6484 18.1641C49.4922 18.6719 49.1406 19.082 48.9453 19.5898C48.75 20.0977 48.5156 20.8398 48.457 21.4453V67.168C48.6328 71.0352 44.0039 73.3594 41.1914 70.5469C39.2187 68.5742 40.3711 66.4648 39.9414 64.2578C39.5117 62.0508 39.1211 62.9883 38.5742 62.9883H10.5469V21.7578C10.5469 20.4102 12.6367 18.1641 13.9844 18.1641H49.6484ZM27.6563 24.0625C21.9531 24.6484 17.1484 29.6875 16.3086 35.2734C14.5898 46.6602 27.2656 54.8047 36.9141 48.3984C48.4375 40.7422 42.1094 22.5977 27.6758 24.0625H27.6563ZM22.9688 53.9453C20.625 54.2969 20.7617 56.9922 22.9492 57.2656C27.0703 56.9922 31.7773 57.6953 35.8203 57.2656C38.3594 57.0117 38.3398 54.1992 35.957 53.9062C31.9531 53.4375 27.0703 54.1992 22.9688 53.9258V53.9453Z" fill="#FEFEFE"/>
<path d="M71.7773 4.3955V45.1963C71.7773 46.4268 70.0781 48.126 68.9258 48.4971C65.8594 49.4932 63.4961 47.3447 63.2812 44.3174C62.7344 37.0322 63.8086 29.0439 63.2812 21.7393C63.1055 19.2393 61.4844 16.7783 59.2188 15.6846C58.8672 15.5088 57.3047 14.9424 57.0313 14.9424H31.0352V4.3955C32.207 4.62988 33.7891 6.17284 34.9219 6.17284C36.0547 6.17284 39.0039 3.92675 40.3516 3.51659C41.7969 3.80956 44.5898 6.17284 45.8984 6.17284C47.207 6.17284 49.9805 3.92675 51.3281 3.51659C52.1875 3.458 55.5273 6.07519 56.7383 6.15331C57.9492 6.23144 60.957 3.92675 62.3047 3.51659C63.1641 3.458 66.5039 6.07519 67.7148 6.15331C68.9258 6.23144 70.5664 4.66894 71.7383 4.3955H71.7773Z" fill="#FEFEFE"/>
<path d="M61.3672 48.7891H51.6992V21.4649C51.6992 21.3868 52.1289 20.3907 52.2266 20.2344C54.1797 16.7969 59.6875 17.8907 60.0586 21.8946C60.4687 29.336 59.4922 37.3829 60.0586 44.7462C60.1172 45.4102 60.2734 46.3087 60.4883 46.9532C60.7031 47.5977 61.1523 48.1446 61.3672 48.7696V48.7891Z" fill="#FEFEFE"/>
<path d="M36.7577 66.2109V68.4766C36.7577 68.6523 37.1092 69.8242 37.1874 70.0977C37.3827 70.6836 37.7928 71.1719 37.9295 71.7773H6.81627C6.23033 71.7773 4.88267 70.9766 4.45298 70.5469C3.28111 69.375 3.12486 67.793 3.22252 66.2109H36.7772H36.7577Z" fill="#FEFEFE"/>
<path d="M27.6561 24.0624C42.1092 22.578 48.4178 40.7421 36.8944 48.3983C27.246 54.8046 14.5897 46.66 16.2889 35.2733C17.1288 29.6874 21.9335 24.6483 27.6366 24.0624H27.6561ZM27.9491 27.285C22.4803 27.9296 18.6717 33.5546 19.5116 38.8671C20.9569 48.203 33.6131 50.5272 38.2616 42.285C42.91 34.0428 36.3671 26.2889 27.9491 27.285Z" fill="#140505"/>
<path d="M22.9685 53.9453C27.0701 54.2188 31.9529 53.4571 35.9568 53.9258C38.3396 54.2188 38.3592 57.0313 35.8201 57.2852C31.7771 57.6953 27.0701 56.9922 22.949 57.2852C20.7615 57.0117 20.6248 54.3164 22.9685 53.9649V53.9453Z" fill="#4065D3"/>
<path d="M27.9491 27.2829C36.3671 26.2869 42.4803 34.8025 38.2616 42.2829C34.0428 49.7634 20.9569 48.2204 19.5116 38.865C18.6913 33.5525 22.4999 27.9275 27.9491 27.2829ZM32.7733 33.572C32.4803 33.6111 32.3046 33.7478 32.0702 33.904C31.3085 34.4509 28.6327 37.654 28.1639 37.7712C27.6952 37.8884 26.5038 35.8376 25.2733 35.8962C24.0428 35.9548 23.4178 37.1072 23.8475 38.1814C24.2772 39.2556 26.3671 41.0525 26.9139 41.4236C27.4608 41.7947 28.0467 42.029 28.828 41.6189C29.6092 41.2087 33.7108 36.9704 34.2186 36.3259C35.2538 34.9587 34.4139 33.2986 32.7928 33.572H32.7733Z" fill="#FEFEFE"/>
<path d="M32.7736 33.5767C34.3947 33.3033 35.2541 34.9634 34.1994 36.3306C33.6916 36.9947 29.3361 41.3502 28.8087 41.6236C28.0275 42.0337 27.5978 41.897 26.8947 41.4283C26.1916 40.9595 24.0431 38.7134 23.8283 38.1861C23.4181 37.1119 24.0822 35.94 25.2541 35.9009C26.4259 35.8619 27.5783 37.9322 28.1447 37.7759C28.7111 37.6197 31.2892 34.4361 32.0509 33.9087C32.8126 33.3814 32.4611 33.6353 32.754 33.5767H32.7736Z" fill="#4065D3"/>
</g>
<defs>
<clipPath id="clip0_477_7617">
<rect width="75" height="75" fill="white"/>
</clipPath>
</defs>
</svg>
