<svg width="48" height="48" viewBox="0 0 48 48" fill="none" xmlns="http://www.w3.org/2000/svg">
<rect width="48" height="48" rx="10" fill="#EDF2FF"/>
<path d="M16.1769 18.9966C15.8283 16.7006 17.4471 14.6383 19.9202 13.8827C20.359 13.7494 20.8322 13.788 21.2436 13.9907C21.6551 14.1934 21.974 14.5449 22.1358 14.9741L22.9298 17.0912C23.0576 17.4318 23.0807 17.8028 22.9961 18.1566C22.9116 18.5104 22.7232 18.8309 22.4552 19.0769L20.0935 21.2397C19.977 21.3464 19.8901 21.4816 19.8415 21.6319C19.7929 21.7823 19.7841 21.9427 19.8161 22.0975L19.838 22.1924L19.8946 22.4297C20.1891 23.5822 20.6365 24.6902 21.2251 25.724C21.8678 26.8216 22.6643 27.8216 23.5905 28.6934L23.6635 28.7591C23.7814 28.8638 23.9244 28.9361 24.0785 28.9691C24.2327 29.002 24.3928 28.9944 24.5432 28.9471L27.5966 27.9853C27.9436 27.8763 28.3152 27.8735 28.6638 27.9773C29.0124 28.081 29.3221 28.2865 29.5531 28.5675L30.9986 30.3214C31.6009 31.0515 31.5279 32.1246 30.8361 32.7689C28.9435 34.5338 26.3409 34.8951 24.5304 33.4405C22.3102 31.6513 20.4391 29.4679 19.0113 26.9997C17.5694 24.5349 16.6089 21.8194 16.1769 18.9966ZM21.7288 22.2179L23.6854 20.422C24.2216 19.9302 24.5987 19.2894 24.7681 18.5817C24.9376 17.8741 24.8916 17.1319 24.6362 16.4506L23.8441 14.3335C23.5192 13.4698 22.8777 12.7622 22.0498 12.3544C21.222 11.9466 20.27 11.8692 19.3872 12.1379C16.3156 13.0778 13.8498 15.8319 14.3718 19.2722C14.7369 21.6741 15.5782 24.7293 17.4344 27.9196C18.975 30.5808 20.9932 32.935 23.3879 34.8641C26.1036 37.0451 29.7283 36.3005 32.0827 34.1067C32.7564 33.4794 33.1653 32.6188 33.226 31.7003C33.2867 30.7818 32.9946 29.8748 32.4094 29.1643L30.9639 27.4085C30.5015 26.8473 29.882 26.4369 29.1848 26.2301C28.4876 26.0233 27.7445 26.0295 27.0509 26.2478L24.5158 27.0454C23.8612 26.3705 23.2879 25.6214 22.8075 24.8132C22.3439 23.996 21.9823 23.125 21.7307 22.2198" fill="#4065D3"/>
</svg>
