<svg width="45" height="45" viewBox="0 0 45 45" fill="none" xmlns="http://www.w3.org/2000/svg">
<g clip-path="url(#clip0_494_6393)">
<path d="M2 31.75L2.5 38H19L22.25 29.25L21.25 27.5L15.25 24L7.25 25.25L2 31.75Z" fill="#FEFEFE"/>
<path fill-rule="evenodd" clip-rule="evenodd" d="M0.519775 34.1231C0.56665 33.6544 0.789307 32.7638 0.918213 32.2716C0.790362 32.7597 0.569103 33.6397 0.519775 34.1114V34.1174C0.519872 34.1193 0.519966 34.1212 0.519775 34.1231ZM0.519775 34.1174V34.1231C0.519966 34.1212 0.519872 34.1193 0.519775 34.1174Z" fill="#4065D3"/>
<path d="M0.918213 32.2716C0.789307 32.7638 0.56665 33.6544 0.519775 34.1231V34.1114C0.48805 34.416 0.500987 34.7377 0.513941 35.0599C0.524913 35.3328 0.535896 35.6059 0.519775 35.8692C0.554859 35.988 0.586834 36.1073 0.618708 36.2263C0.725242 36.624 0.830638 37.0175 1.04712 37.3692H4.55103C4.52212 37.3672 4.49686 37.3662 4.47164 37.3652C4.35372 37.3607 4.23687 37.3562 3.75415 37.2403C3.71869 37.2318 3.68375 37.2237 3.64933 37.2158C3.11509 37.0922 2.70872 36.9983 2.48853 35.7872C2.25415 34.4981 3.19165 33.5958 4.42212 33.4903C6.37915 33.3263 9.25024 33.3614 11.5471 33.4903C13.844 33.6192 16.0002 34.92 16.2463 37.3575C16.4634 37.3575 16.6855 37.3614 16.9095 37.3652C17.3625 37.3731 17.8228 37.381 18.262 37.3575C17.9573 34.1583 15.1213 31.7677 11.9807 31.5567C9.75415 31.4044 6.49634 31.4278 4.24634 31.5567C4.05259 31.5692 3.85884 31.6084 3.66509 31.6476C3.49556 31.6818 3.32603 31.7161 3.15649 31.7325C5.71118 24.42 15.7307 22.5684 20.8635 28.3927C20.9999 28.5437 21.1201 28.7129 21.2401 28.8818C21.4088 29.1193 21.577 29.3562 21.7893 29.5411C21.9241 29.1895 22.0764 28.838 22.2288 28.4864C22.3811 28.1349 22.5334 27.7833 22.6682 27.4317L21.0862 25.8966C19.8674 24.9474 18.5549 24.0684 17.0432 23.6583C17.0239 23.5876 16.9588 23.6227 16.9562 23.6184C16.954 23.615 16.9941 23.5849 17.137 23.4474C17.2587 23.3301 17.3908 23.2181 17.5247 23.1047C17.7388 22.9232 17.9573 22.7379 18.1448 22.5216C21.2385 18.8536 19.3049 12.7481 14.6409 11.6934C9.78931 10.5919 5.84009 14.3419 6.33228 19.2052C6.50806 20.9864 7.63306 22.545 8.95728 23.6583C5.05493 24.9474 1.96118 28.2989 0.918213 32.2716ZM12.2737 13.4981C6.83618 14.1544 6.95337 22.463 12.426 22.9669C19.4807 23.6114 19.3518 12.6427 12.2737 13.4981Z" fill="#4065D3"/>
<path d="M45 25.1363V25.6636L41.1328 37.3589H44.3437C44.5195 37.3589 44.9297 37.8745 45 38.062V44.2144C44.8242 44.6245 44.6836 44.7886 44.2969 45.0113H0.632813L0.0234375 44.4019V38.0738L0.550781 37.3706H4.06641C7.59375 37.6636 12.1289 37.4058 15.75 37.3706C19.3711 37.3355 17.1211 37.4058 17.7656 37.3706C18.4102 37.3355 18.375 37.3706 18.4688 37.2183C19.3477 34.7808 20.2734 32.3667 21.1992 29.941C22.125 27.5152 21.2461 29.6363 21.2813 29.5425C21.5508 28.8394 21.8906 28.1363 22.1602 27.4331C22.4297 26.73 22.9219 24.9488 23.3438 24.6206C23.7656 24.2925 23.5547 24.4683 23.707 24.4566H44.1797C44.6016 24.4683 44.8242 24.8199 45.0117 25.1597L45 25.1363ZM42.6328 26.3667H24.668L20.4961 37.3589H39.0352L42.6328 26.3667ZM43.0664 39.2808H1.94531V43.0542H43.0664V39.2808Z" fill="#140505"/>
<path d="M43.0664 39.2808H1.94531V43.0542H43.0664V39.2808Z" fill="#FEFEFE"/>
<path d="M42.6328 26.3667H24.668L20.4961 37.3589H39.0352L42.6328 26.3667Z" fill="#FEFEFE"/>
<path d="M42.0587 0.0715223C43.4766 0.493397 44.3907 1.41918 44.8829 2.79027C44.9649 3.01293 45.0001 3.2473 45.0001 3.48168V15.6575C45.0001 15.927 44.9415 16.1965 44.8477 16.4543C44.6602 16.9231 44.4727 17.3684 44.1212 17.7903C42.586 19.6418 40.2071 19.1145 38.0391 19.1379C37.4766 19.1379 36.9493 19.3723 36.5626 19.7825C35.8829 20.4856 34.9337 21.5871 34.5587 21.845C34.1837 22.1028 33.7852 22.0911 33.3633 21.7981C32.9415 21.5051 32.0743 20.4739 31.4063 19.7825C31.0196 19.3723 30.4805 19.1496 29.918 19.1379C27.6212 19.1145 25.1837 19.6653 23.6719 17.509C23.2852 16.97 23.086 16.384 22.9922 15.7512C22.8985 15.1184 22.9571 15.4582 22.9688 15.3059C23.168 11.5207 22.6407 7.3723 22.9688 3.64574C23.1212 1.87621 24.2696 0.587147 25.8985 0.083241C27.5274 -0.420665 26.2969 -0.010509 26.5079 -0.010509H41.4962C41.6954 -0.010509 41.8946 0.0129285 42.0821 0.0715223H42.0587ZM27.3399 17.2161C28.0079 17.2395 28.6876 17.2161 29.3555 17.2161C30.0235 17.2161 30.1407 17.1926 30.5977 17.1926C31.0548 17.1926 31.6641 17.4153 32.0508 17.7903L32.4844 18.2121C33.3165 19.0325 34.6524 19.009 35.4493 18.177C36.2462 17.345 36.1876 17.4387 36.3751 17.345C36.8672 17.1106 37.9688 17.2278 38.5782 17.2161C39.1876 17.2043 39.9258 17.2395 40.5938 17.2161C41.7422 17.1809 42.4923 17.0286 42.9024 16.0325C43.3126 15.0364 43.043 15.5286 43.0547 15.259V3.88012C43.0547 3.64574 43.0313 3.41137 42.9493 3.18871C42.7501 2.66137 42.3516 2.25121 41.8243 2.05199C41.2969 1.85277 41.2969 1.9348 41.0274 1.9348C36.3751 1.89965 26.8477 1.92308 26.8477 1.92308C26.8477 1.92308 25.0392 1.81909 25.0001 3.24878C24.961 4.67847 25.0001 4.74878 25.0001 4.74878L24.8672 15.2356C24.8672 15.2356 24.7851 17.2043 27.3282 17.2043C29.8713 17.2043 27.3399 17.2161 27.3399 17.2161Z" fill="#140505"/>
<path d="M12.5158 13.5476C19.5939 12.6921 19.7228 23.6609 12.6681 23.0163C7.19545 22.5242 7.07826 14.2038 12.5158 13.5476Z" fill="#FEFEFE"/>
<path d="M27.3398 17.2266C27.6797 15.0821 29.0273 13.1016 31.0312 12.211C31.125 12.0821 30.6562 11.5196 30.5625 11.3204C28.8633 7.85163 32.6836 4.27741 36.0117 6.30476C37.5469 7.23054 38.2031 9.30476 37.5703 10.9805C36.9375 12.6563 37.0664 11.7657 36.9141 12.211C38.8945 13.043 40.3359 15.0938 40.6055 17.2266C39.9375 17.2501 39.2578 17.2266 38.5898 17.2266C37.7109 12.1876 30.293 12.211 29.3672 17.2266C28.6992 17.2266 28.0195 17.2501 27.3516 17.2266H27.3398ZM33.8203 7.66413C31.418 7.87507 31.6172 11.4962 33.9727 11.5079C36.3281 11.5196 36.4336 7.42976 33.8203 7.66413Z" fill="#4065D3"/>
<path d="M38.5898 17.2275C37.9922 17.2275 36.8789 17.1104 36.3867 17.3565C35.8828 17.6025 34.1484 19.6885 33.9727 19.6885L31.582 17.333C31.1484 17.1221 29.918 17.2275 29.3672 17.2275C30.293 12.2119 37.7227 12.1885 38.5898 17.2275Z" fill="#FEFEFE"/>
<path d="M30.9134 30.8668C31.3119 30.7847 32.7064 30.7965 33.0345 30.984C33.6556 31.3355 33.6556 32.4019 32.9877 32.6832C32.3197 32.9644 30.972 32.8472 30.6322 32.6832C29.8353 32.273 30.0228 31.0425 30.9017 30.8668H30.9134Z" fill="#140505"/>
<path d="M33.8196 7.66397C36.4329 7.4296 36.5618 11.5312 33.9719 11.5077C31.3821 11.4843 31.4173 7.87491 33.8196 7.66397Z" fill="#FEFEFE"/>
</g>
<defs>
<clipPath id="clip0_494_6393">
<rect width="45" height="45" fill="white"/>
</clipPath>
</defs>
</svg>
