<svg width="20" height="20" viewBox="0 0 20 20" fill="none" xmlns="http://www.w3.org/2000/svg">
<g clip-path="url(#clip0_1948_1778)">
<path d="M8.09372 0L9.18747 0.177083C12.6718 0.880208 15.7343 4.0625 14.6354 7.8125C13.5364 11.5625 13.5312 10 12.5937 10.8073C12.5781 10.875 12.625 10.9531 12.6458 11.0156C12.901 11.7604 13.8229 12.9427 13.0364 13.5938C12.6771 13.8906 12.2968 13.776 11.8854 13.6927C11.0156 13.5208 10.2135 13.1979 9.42705 12.7917C9.11976 12.6302 9.00518 12.4427 8.63018 12.4583C8.05205 12.4844 7.51039 12.5677 6.91143 12.5365C4.19789 12.3906 1.26559 10.75 0.34372 8.09375C0.18747 7.64583 0.114553 7.18229 0.0208032 6.71875C0.0416366 6.41667 -0.00523843 6.07812 0.0208032 5.78125C0.260387 3.13542 2.61976 1 5.07809 0.322917L6.72393 0H8.08851H8.09372ZM12.5052 12.9271C12.5156 12.8698 12.4948 12.8333 12.4739 12.7812C12.2656 12.2083 11.7448 11.3542 11.625 10.8177C11.5208 10.3438 11.9791 10.2031 12.2708 9.9375C16.401 6.14583 12.6198 1.10417 7.83851 0.854167C4.17185 0.666667 -0.177113 3.54167 1.09372 7.64583C2.14059 11.0208 6.40622 12.2604 9.54685 11.3958C9.96872 11.2812 11.1458 10.6406 11.0625 11.5417C11.026 11.9635 10.3854 11.9427 10.1458 12.1094C9.90622 12.276 10.1146 12.1562 10.1458 12.1875C10.2239 12.276 11.1718 12.6146 11.3489 12.6667C11.7291 12.7812 12.1198 12.8542 12.5104 12.9271H12.5052Z" fill="#4065D3"/>
<path d="M20 9.02036V9.56723C19.5 11.2652 18.5521 12.8693 17.5313 14.3068C16.4167 15.8797 14.9532 17.4943 13.4584 18.7079C12.8073 19.2339 12.073 19.7964 11.2553 19.9995H10.5938C10.3334 19.911 10.099 19.8433 9.85421 19.7027C9.54171 19.5204 8.58338 18.7756 8.34379 18.5152C8.10421 18.2547 8.01567 17.8537 8.17192 17.5204C8.77608 16.7912 9.349 15.9214 9.98442 15.2287C10.6198 14.536 10.6303 14.7079 11.099 14.8954C11.5678 15.0829 12.2657 15.9162 12.4896 15.9318C12.7136 15.9474 12.5938 15.9162 12.6355 15.8902C13.875 14.4162 15.0573 12.8954 16.2709 11.4006C16.3282 11.2652 16.2917 11.1558 16.1928 11.0516C15.6563 10.4735 14.3594 10.0724 14.9844 9.02036C15.6146 8.34848 16.1459 7.44223 16.7761 6.79119C17.4063 6.14015 17.5417 6.35369 17.9636 6.61932C18.4584 6.92661 19.5834 7.88494 19.8073 8.40578L19.9948 9.02036H20ZM17.4219 7.34328L15.7084 9.52036C16.0678 9.97869 17.0573 10.4058 17.1459 11.0412C17.2344 11.6766 17.1667 11.6245 17.0261 11.8537L13.2813 16.5099C12.2553 17.3381 11.5157 16.2339 10.7292 15.7131L8.99483 17.8849C8.98963 17.9474 9.08338 18.0099 9.12504 18.0516C9.38546 18.2964 10.2761 19.0099 10.5782 19.0985C11.2605 19.286 11.7344 18.9058 12.2605 18.5412C14.724 16.8172 17.3803 13.5047 18.6355 10.7808C18.8959 10.2131 19.2657 9.4839 19.0469 8.86932C18.8907 8.41619 18.0313 7.76515 17.6303 7.47348C17.2292 7.18182 17.4584 7.32765 17.4167 7.35369L17.4219 7.34328Z" fill="#140505"/>
<path d="M17.4218 7.3444C17.4582 7.31836 17.5936 7.43294 17.6353 7.46419C18.0415 7.75586 18.8957 8.4069 19.052 8.86003C19.2655 9.47461 18.9009 10.209 18.6405 10.7715C17.3801 13.4954 14.7238 16.8079 12.2655 18.5319C11.7395 18.9017 11.2655 19.2767 10.5832 19.0892C9.90092 18.9017 9.38529 18.2871 9.13009 18.0423C8.87488 17.7975 8.99467 17.9382 8.99988 17.8757L10.7343 15.7038C11.5207 16.2246 12.2603 17.334 13.2863 16.5007L17.0311 11.8444C17.1718 11.6204 17.1874 11.2923 17.1509 11.0319C17.0624 10.3965 16.0728 9.97461 15.7134 9.51107L17.427 7.33398L17.4218 7.3444Z" fill="#FEFEFE"/>
<path d="M5.66151 6.45281C6.20317 6.32781 6.18755 6.91115 6.47401 7.18719C6.94276 7.64552 7.76567 7.60385 8.15109 7.0674C8.53651 6.53094 8.33338 6.34865 8.85422 6.4476C9.37505 6.54656 8.94276 7.52573 8.68234 7.79136C7.75005 8.74448 6.01567 8.47885 5.47401 7.24969C5.35422 6.97885 5.27088 6.54135 5.66672 6.4476L5.66151 6.45281Z" fill="#140505"/>
<path d="M10.4583 5.56259C10.8697 5.98968 10.203 6.58343 9.82284 6.17718C9.44263 5.77093 10.078 5.16676 10.4583 5.56259Z" fill="#140505"/>
<path d="M4.2551 5.43761C4.88531 5.31782 5.02594 6.32823 4.32281 6.29178C3.80719 6.26573 3.81239 5.52094 4.2551 5.43761Z" fill="#140505"/>
</g>
<defs>
<clipPath id="clip0_1948_1778">
<rect width="20" height="20" fill="white"/>
</clipPath>
</defs>
</svg>
