<svg width="18" height="13" viewBox="0 0 18 13" fill="none" xmlns="http://www.w3.org/2000/svg">
<path d="M17.268 0.322025C17.4742 0.528486 17.59 0.808352 17.59 1.10015C17.59 1.39195 17.4742 1.67181 17.268 1.87827L6.62382 12.5224C6.41736 12.7286 6.1375 12.8444 5.8457 12.8444C5.5539 12.8444 5.27404 12.7286 5.06758 12.5224L0.296064 7.7509C0.101324 7.54221 -0.00476565 7.26605 0.000164445 6.98065C0.00509454 6.69526 0.120659 6.42292 0.322491 6.22108C0.524332 6.01925 0.796664 5.90369 1.08206 5.89876C1.36746 5.89383 1.64362 5.99992 1.85231 6.19466L5.8457 10.188L15.7117 0.322025C15.9182 0.115822 16.198 0 16.4898 0C16.7816 0 17.0615 0.115822 17.268 0.322025Z" fill="#4065D3"/>
</svg>
