<svg width="50" height="50" viewBox="0 0 50 50" fill="none" xmlns="http://www.w3.org/2000/svg">
<path d="M43.2811 29.287C42.7863 34.7557 39.3228 40.0682 34.6874 42.9067C25.1431 48.7531 12.5259 44.4302 8.55455 34.0265C4.17955 22.5682 12.1874 10.3677 24.2577 9.56039V7.21664C23.5546 7.26873 22.6822 7.21664 22.4738 6.42237C22.2655 5.6281 22.7212 5.13331 23.4243 5.06821C24.1275 5.0031 26.4452 4.96404 27.3306 5.06821C28.216 5.17237 28.4374 6.08383 28.0077 6.72185C27.617 7.29477 27.0181 7.22967 26.4061 7.21664V9.56039C33.1249 10.0031 39.1275 14.2088 41.8098 20.3677C42.4738 21.9041 43.1509 24.2088 43.2811 25.8755C43.3592 26.7739 43.3592 28.3885 43.2811 29.287ZM14.1405 16.3312C6.01549 24.4302 9.07538 38.4536 19.8046 42.3729C32.0702 46.8521 44.1535 35.5239 40.4426 22.9849C37.0702 11.5786 22.578 7.91977 14.1405 16.3312Z" fill="#140505"/>
<path d="M14.1412 16.3312C22.5917 7.91974 37.0709 11.5786 40.4433 22.9848C44.1542 35.5239 32.0839 46.852 19.8053 42.3729C9.06309 38.4536 6.00319 24.4302 14.1412 16.3312ZM24.2324 14.3781C14.5058 15.1203 8.9459 26.1098 14.0631 34.4562C19.3235 43.0499 31.9798 42.7505 36.8496 33.9484C41.9667 24.7036 34.6881 13.5708 24.2324 14.3781Z" fill="#FEFEFE"/>
<path d="M24.2319 14.3794C34.6876 13.5721 41.9662 24.6919 36.8491 33.9497C31.9793 42.7648 19.323 43.0513 14.0626 34.4575C8.94541 26.0982 14.5053 15.1216 24.2319 14.3794ZM24.2579 16.593C19.0886 16.9185 14.8308 21.3456 14.31 26.4628H16.5105C16.836 26.4628 17.3178 27.1529 17.3308 27.4914C17.3438 27.8299 16.9272 28.6112 16.5105 28.6112H14.31C14.8438 33.8456 19.0235 38.0383 24.2579 38.5721V36.3716C24.2579 35.981 24.9741 35.5253 25.3777 35.5513C25.7813 35.5773 26.4063 36.0461 26.4063 36.3716V38.5721C31.5235 38.0643 35.9376 33.8065 36.2631 28.6112H34.0626C33.711 28.6112 33.3074 27.856 33.3204 27.4914C33.3334 27.1268 33.8152 26.4628 34.1537 26.4628H36.2501C35.9506 21.3716 31.4714 16.9055 26.3933 16.593V18.6893C26.3933 19.0409 25.7293 19.5096 25.3647 19.5227C25.0001 19.5357 24.2449 19.132 24.2449 18.7805V16.5799L24.2579 16.593Z" fill="#4065D3"/>
<path d="M24.2572 16.5918V18.7923C24.2572 19.1439 25.0124 19.5475 25.377 19.5345C25.7415 19.5215 26.4056 19.0397 26.4056 18.7012V16.6048C31.4837 16.9173 35.9499 21.3835 36.2624 26.4746H34.166C33.8145 26.4746 33.3457 27.1387 33.3327 27.5033C33.3197 27.8678 33.7233 28.623 34.0749 28.623H36.2754C35.9499 33.8184 31.5488 38.0762 26.4186 38.584V36.3835C26.4186 36.0579 25.7285 35.5762 25.39 35.5632C25.0514 35.5501 24.2702 36.0059 24.2702 36.3835V38.584C19.0358 38.0501 14.8561 33.8574 14.3223 28.623H16.5228C16.9395 28.623 17.3691 27.9069 17.3431 27.5033C17.3171 27.0996 16.8483 26.4746 16.5228 26.4746H14.3223C14.8431 21.3574 19.1009 16.9303 24.2702 16.6048L24.2572 16.5918ZM24.9993 22.5684C24.6868 22.6335 24.3092 23.0632 24.2572 23.3887L24.2962 27.9329L27.916 31.6439C28.7363 32.2428 29.8301 31.4355 29.5827 30.472C29.3874 29.7038 27.0046 27.9329 26.4577 27.1517C26.1061 26.0059 27.2259 22.0736 25.0124 22.5814L24.9993 22.5684Z" fill="#FEFEFE"/>
<path d="M24.9993 22.5685C27.2129 22.0606 26.0931 25.9929 26.4447 27.1388C26.9915 27.92 29.3743 29.6908 29.5697 30.4591C29.8171 31.4226 28.7233 32.2299 27.903 31.6309L24.2832 27.92L24.2441 23.3757C24.2962 23.0632 24.6869 22.6336 24.9863 22.5554L24.9993 22.5685Z" fill="#140505"/>
</svg>
