<svg width="128" height="128" viewBox="0 0 128 128" fill="none" xmlns="http://www.w3.org/2000/svg">
<mask id="mask0_2414_4695" style="mask-type:luminance" maskUnits="userSpaceOnUse" x="0" y="0" width="128" height="128">
<path d="M0 0H127.622V127.623H0V0Z" fill="white"/>
</mask>
<g mask="url(#mask0_2414_4695)">
<path d="M127.623 122.126L121.572 127.623V111.272L127.623 122.126ZM0 6.05578H16.3346L5.4953 0L0 6.05578Z" fill="#127F16"/>
</g>
<mask id="mask1_2414_4695" style="mask-type:luminance" maskUnits="userSpaceOnUse" x="5" y="0" width="123" height="123">
<path d="M5.80078 0H127.623V122.651H5.80078V0Z" fill="white"/>
</mask>
<g mask="url(#mask1_2414_4695)">
<path d="M127.623 62.1542V121.822L5.80078 0H65.4697L127.623 62.1542Z" fill="url(#paint0_linear_2414_4695)"/>
</g>
<path d="M50.166 24.9089C47.3651 22.0085 47.6537 18.602 50.5023 15.8511L50.6059 15.7511C53.3897 13.0627 57.1825 13.1035 59.6708 15.6802C61.7214 17.8037 62.2476 20.4734 60.2724 22.7812L58.5844 21.0332C59.6269 19.6511 59.5987 18.3522 58.3108 17.0185C56.7353 15.3871 54.441 15.5507 52.3693 17.5513L52.2658 17.6513C50.1811 19.6645 49.9138 21.8493 51.5643 23.5585C52.8022 24.8403 54.3249 25.1215 55.8077 24.0399L57.4332 25.7232C54.9436 27.6019 52.2916 27.1101 50.166 24.9089ZM61.0069 33.3625C62.695 35.1105 65.0915 34.9232 67.0984 32.9851L67.202 32.8851C69.1054 31.047 69.4914 28.6223 67.7409 26.8096C65.9903 24.9968 63.6188 25.2101 61.6248 27.1356L61.5212 27.2357C59.5013 29.1863 59.3814 31.6792 61.0069 33.3625ZM59.5965 34.6745C56.8581 31.8389 57.103 28.0242 59.7703 25.4484L59.8739 25.3484C62.58 22.7351 66.4625 22.7392 69.1134 25.4842C71.7767 28.2421 71.6596 32.0336 68.9405 34.6594L68.8369 34.7594C66.1307 37.3727 62.3098 37.4842 59.5965 34.6745ZM67.7307 42.8386L73.9752 30.7778L75.7132 32.5776L70.529 42.2382L80.3771 37.4073L81.9401 39.0258L69.6563 44.8326L67.7307 42.8386ZM73.9903 49.3206L83.2482 40.3804L88.8375 46.1682L87.4779 47.4811L83.5517 43.4154L81.0139 45.8661L84.1648 49.1291L82.87 50.3795L79.719 47.1165L77.0129 49.7298L81.1517 54.0157L79.7921 55.3286L73.9903 49.3206ZM81.2924 56.8821L90.5503 47.9419L93.5512 51.0494C95.5143 53.0823 96.0611 55.3068 94.1706 57.1324L94.1188 57.1824C92.6687 58.5828 91.0553 58.3892 89.6447 57.5244L88.157 63.9907L86.3564 62.1261L87.7602 56.0912L86.6974 54.9906L82.9554 58.6042L81.2924 56.8821ZM87.9275 53.8028L89.2654 55.1882C90.3782 56.3406 91.4579 56.474 92.442 55.5237L92.4938 55.4737C93.5555 54.4484 93.2804 53.4379 92.2176 52.3373L90.8796 50.9519L87.9275 53.8028ZM89.4858 65.3667L98.7437 56.4264L104.333 62.2142L102.973 63.5272L99.0472 59.4614L96.5094 61.9122L99.6603 65.1751L98.3655 66.4255L95.2145 63.1626L92.5084 65.7759L96.6472 70.0617L95.2876 71.3746L89.4858 65.3667ZM99.8104 73.3374L100.786 74.3473C102.786 76.419 104.94 76.2657 106.986 74.2901L107.09 74.1901C109.084 72.2645 109.413 70.1952 107.312 68.0199L106.349 67.0229L99.8104 73.3374ZM96.7879 72.9282L106.046 63.9879L108.759 66.7977C111.873 70.0218 111.547 73.364 108.854 75.9648L108.737 76.0774C106.044 78.6782 102.615 78.962 99.4762 75.712L96.7879 72.9282ZM106.499 83.1653C105.948 82.5956 105.939 81.7043 106.495 81.1667C107.065 80.6165 107.955 80.6575 108.506 81.2272C109.068 81.8099 109.078 82.7012 108.508 83.2513C107.952 83.789 107.061 83.748 106.499 83.1653ZM108.773 79.768L115.022 73.283L116.71 75.031L109.998 81.0369L108.773 79.768Z" fill="white"/>
<defs>
<linearGradient id="paint0_linear_2414_4695" x1="66.7117" y1="0" x2="66.7117" y2="121.822" gradientUnits="userSpaceOnUse">
<stop stop-color="#0A5E0E"/>
<stop offset="1" stop-color="#209225"/>
</linearGradient>
</defs>
</svg>
