<svg width="120" height="84" viewBox="0 0 120 84" fill="none" xmlns="http://www.w3.org/2000/svg">
<mask id="mask0_690_16090" style="mask-type:luminance" maskUnits="userSpaceOnUse" x="2" y="0" width="116" height="84">
<path d="M2.96963 0H117.573V83.7382H2.96963V0Z" fill="white"/>
</mask>
<g mask="url(#mask0_690_16090)">
<path d="M97.3535 57.2992C97.6014 55.9479 97.3807 54.0785 95.8375 51.4599C93.1994 46.987 85.0235 49.4374 80.192 48.6446C76.2687 48.002 76.6269 42.7678 76.6269 42.7678C96.829 33.8624 111.712 37.9345 115.822 50.7257C119.195 61.2361 116.982 65.8682 112.778 67.5589C112.688 64.1941 110.836 62.0124 110.836 62.0124C111.909 65.0739 110.529 68.1685 107.383 69.0379C107.365 66.3923 105.439 63.4914 105.439 63.4914C106.512 66.5544 104.148 69.4973 101.501 70.191C101.526 66.4193 100.043 64.9703 100.043 64.9703C96.0158 66.0049 93.7783 63.9658 92.702 60.9013C92.702 60.9013 96.683 61.0274 97.3603 57.2977" fill="black"/>
<path d="M40.5253 50.6113C41.4845 51.1413 42.807 51.5016 45.109 51.0932C52.2136 49.8305 61.2757 40.8516 61.2757 40.8516C61.751 44.9942 64.6812 42.7509 63.5183 45.6173C57.4068 60.6878 49.6876 66.5706 38.7326 65.7103C31.0236 65.1097 28.377 61.4731 28.5467 59.5827C31.2019 60.3589 33.1168 59.6562 33.1168 59.6562C30.5924 59.6157 27.8982 57.0917 28.6775 54.7989C30.1632 55.2031 31.7478 55.2286 33.2492 54.8725C30.7248 54.832 28.7131 52.5467 29.1647 50.3125C32.3698 51.2704 34.2118 50.5062 34.2118 50.5062C33.823 47.6533 35.9213 46.2254 38.4457 46.2644C38.4457 46.2644 37.8974 49.1578 40.5355 50.6113" fill="black"/>
<path d="M59.8251 42.2516C59.8251 42.2516 59.8625 42.1885 60.0475 42.2516C71.0534 45.5083 83.6805 40.4107 87.5664 38.8672C89.916 58.7424 84.6804 80.5186 84.6804 80.5186C53.0447 80.5186 59.8285 42.2606 59.8285 42.2606" fill="black"/>
<path d="M84.7637 80.1328C84.6924 80.5577 84.6584 80.7004 84.6771 80.5112C84.6771 80.5112 84.7076 80.3806 84.7637 80.1328Z" fill="#557EFA"/>
<path d="M57.1191 13.308C61.3802 12.9521 74.1652 10.5062 81.8114 17.0812C84.6974 19.5572 87.1776 29.2628 87.5664 39.03C83.6805 40.5736 70.8242 45.5105 59.8183 42.2537C56.8237 40.9226 53.9879 39.3285 51.3539 37.4955V16.2164C53.2001 15.1309 55.1287 14.1592 57.1259 13.308" fill="#557EFA"/>
<path d="M85.9932 12.8546L60.8832 5.9087C60.7799 5.88416 60.6833 5.84142 60.5991 5.78305C60.5149 5.72467 60.4449 5.65186 60.3933 5.56898C60.3417 5.4861 60.3096 5.39486 60.2988 5.30073C60.288 5.20659 60.2989 5.11151 60.3307 5.02117C60.3625 4.93083 60.4146 4.84711 60.4839 4.77501C60.5531 4.70291 60.6381 4.64393 60.7338 4.6016C60.8295 4.55927 60.9338 4.53446 61.0406 4.52866C61.1474 4.52287 61.2544 4.5362 61.3552 4.56786L86.4668 11.5138L85.9932 12.8546Z" fill="#557EFA"/>
<path d="M81.9369 1.73931L79.6672 1.11168C77.7377 0.578282 75.6476 0.744653 73.8568 1.5742C72.0659 2.40374 70.721 3.82851 70.1179 5.53508L69.1723 8.20473L75.4723 9.94646L86.305 11.963L86.9365 10.1807C87.2354 9.33579 87.3432 8.44708 87.2536 7.56533C87.1641 6.68358 86.8791 5.82607 86.4148 5.04176C85.9506 4.25746 85.3161 3.56173 84.5478 2.99431C83.7795 2.4269 82.8923 1.99891 81.9369 1.7348" fill="#557EFA"/>
<path d="M82.7228 1.99993C78.9574 1.34378 77.1358 3.83475 75.9644 7.15005L75.0206 9.8197L84.2592 12.3722L86.3065 11.9578L86.9364 10.1786C87.4958 8.59501 87.3753 6.88459 86.5979 5.37474C85.8204 3.86488 84.4407 2.66167 82.7228 1.99543" fill="#557EFA"/>
<path d="M67.45 33.3016C71.0541 33.3016 73.5615 30.7926 73.5615 27.1981C73.5615 23.4293 70.8164 20.3633 67.45 20.3633C64.0835 20.3633 61.3385 23.4293 61.3385 27.1981C61.3385 30.7926 63.8544 33.3016 67.45 33.3016Z" fill="white"/>
<path d="M67.4493 21.1421C64.5633 21.1421 62.2138 23.8553 62.2138 27.1976C62.2138 30.5399 64.5566 32.5204 67.4493 32.5204C70.3421 32.5204 72.6866 30.5474 72.6866 27.1976C72.6866 23.8478 70.3421 21.1421 67.4493 21.1421ZM67.4493 19.582C71.3098 19.582 74.4521 22.9979 74.4521 27.1976C74.4521 31.1871 71.5067 34.0819 67.4493 34.0819C63.392 34.0819 60.4482 31.1871 60.4482 27.1976C60.4482 22.9934 63.5889 19.582 67.4493 19.582Z" fill="#557EFA"/>
<path d="M62.0419 28.3575C62.0419 29.8259 63.2303 31.0166 64.6869 31.0166C66.1435 31.0166 67.3369 29.8259 67.3369 28.3575C67.3369 26.889 66.1486 25.6953 64.6869 25.6953C63.2252 25.6953 62.0419 26.886 62.0419 28.3575Z" fill="black"/>
<path d="M67.4493 21.1421C64.5633 21.1421 62.2138 23.8553 62.2138 27.1976C62.2138 30.5399 64.5566 32.5204 67.4493 32.5204C70.3421 32.5204 72.6866 30.5474 72.6866 27.1976C72.6866 23.8478 70.3421 21.1421 67.4493 21.1421ZM67.4493 19.582C71.3098 19.582 74.4521 22.9979 74.4521 27.1976C74.4521 31.1871 71.5067 34.0819 67.4493 34.0819C63.392 34.0819 60.4482 31.1871 60.4482 27.1976C60.4482 22.9934 63.5889 19.582 67.4493 19.582Z" fill="#557EFA"/>
<path d="M75.9633 38.9121L61.2821 37.1193L60.7167 29.2305C60.7167 29.2305 63.6995 32.5998 76.1025 29.7245L75.9633 38.9121Z" fill="#557EFA"/>
<path d="M5.11698 42.2411H59.8356C59.8356 42.2411 63.326 27.3598 57.138 13.2969C-13.9459 18.1182 5.11189 42.2411 5.11189 42.2411" fill="#FF9313"/>
<path d="M5.11669 42.2436C5.11669 42.2436 22.7417 41.8998 41.8131 38.14C51.6017 36.2106 58.5892 32.4674 60.7503 29.2227C60.8963 31.7587 60.8692 37.7016 59.8353 42.2436" fill="#FF7000"/>
<path d="M55.9053 83.7391H70.9023C70.9023 80.6851 68.6207 78.634 65.1439 78.625C61.6671 78.616 55.9121 80.6836 55.9053 83.7391Z" fill="#557EFA"/>
<path d="M94.6885 83.7391H79.6983C79.6983 80.6851 81.9799 78.634 85.4567 78.625C88.9335 78.616 94.6902 80.6836 94.6953 83.7391" fill="#557EFA"/>
<g opacity="0.35">
<mask id="mask1_690_16090" style="mask-type:luminance" maskUnits="userSpaceOnUse" x="2" y="18" width="34" height="25">
<path d="M2.79431 18.8047H35.3535V42.2415H2.79431V18.8047Z" fill="white"/>
</mask>
<g mask="url(#mask1_690_16090)">
<mask id="mask2_690_16090" style="mask-type:luminance" maskUnits="userSpaceOnUse" x="2" y="18" width="34" height="25">
<path d="M2.79431 18.8047H35.3535V42.2415H2.79431V18.8047Z" fill="white"/>
</mask>
<g mask="url(#mask2_690_16090)">
<path d="M22.2018 18.8047C30.0586 22.9338 35.3535 30.6665 35.3535 39.5403C35.3528 40.4433 35.2961 41.3455 35.1838 42.243H5.11839C5.11839 42.243 -6.48843 27.5494 22.2035 18.8047" fill="#FF3000"/>
</g>
</g>
</g>
</g>
</svg>
