<svg width="65" height="65" viewBox="0 0 65 65" fill="none" xmlns="http://www.w3.org/2000/svg">
<g clip-path="url(#clip0_1373_29744)">
<path d="M1.65836 64.8638C0.371905 64.4237 0.642739 62.0709 1.84456 62.0709H5.83935V46.1425C5.83935 45.9394 6.33024 45.0084 6.49951 44.7714C7.31201 43.6034 8.4292 43.1295 9.83415 43.0279C11.3914 42.9263 15.7586 42.8417 17.1128 43.2479C18.1115 43.5526 19.8042 45.0761 19.8042 46.1425V62.0709H25.5256V37.7636C25.5256 37.7128 25.8302 36.968 25.881 36.8495C26.4904 35.58 27.8615 34.7505 29.2664 34.649C30.6883 34.5474 35.5633 34.4628 36.7313 34.8183C37.8993 35.1737 39.4904 36.6464 39.4904 37.7636V62.0709H45.2118V23.8157C45.2118 22.7323 46.9045 21.2258 47.9032 20.9211C48.9019 20.6164 53.7599 20.5826 55.3003 20.7011C56.8407 20.8196 57.7378 21.3443 58.5164 22.4446C59.2951 23.5448 59.1766 23.6125 59.1766 23.8157V62.0709H63.1714C64.4071 62.0709 64.6779 64.5591 63.2391 64.8638H1.65836ZM56.3667 62.0709V24.3235C56.3667 23.9511 55.6388 23.5617 55.2834 23.511C53.9969 23.3248 50.8146 23.3925 49.4435 23.511C48.0724 23.6295 47.9878 23.7649 47.9878 24.3404V62.0878H56.3667V62.0709ZM36.6974 62.0709V38.2714C36.6974 37.899 35.9696 37.5097 35.6141 37.4589C34.3276 37.2727 31.1453 37.3404 29.7742 37.4589C28.4032 37.5774 28.3185 37.7128 28.3185 38.2883V62.0878H36.6974V62.0709ZM17.0112 62.0709V46.6503C17.0112 46.2779 16.2834 45.8886 15.9279 45.8378C14.6414 45.6516 11.4591 45.7193 10.0881 45.8378C8.71696 45.9563 8.63232 46.0917 8.63232 46.6672V62.0878H17.0112V62.0709Z" fill="#140505"/>
<path d="M18.1456 -0.102555C31.0779 1.08234 34.1417 19.4821 21.9542 24.6956C8.27715 30.5524 -2.91165 12.4066 8.56491 2.8089C10.4777 1.21776 12.712 0.456038 15.0988 -0.102555C16.0805 -0.0348472 17.1808 -0.187191 18.1456 -0.102555ZM15.8436 2.72427C8.09095 3.40135 3.9946 12.4573 8.58184 18.7881C12.712 24.4756 21.3618 24.3063 25.2381 18.4665C29.9607 11.3402 24.324 1.9964 15.8436 2.72427Z" fill="#4065D3"/>
<path d="M46.2099 11.4422C46.0575 11.3237 45.9221 11.5606 45.8544 11.6453C45.2789 12.3731 44.7372 13.5919 44.1786 14.4213C38.1695 23.5281 29.7737 30.6205 19.1604 33.7013C15.9104 34.6492 11.0184 35.614 7.66689 35.2924C4.31532 34.9708 5.56793 34.006 6.46506 32.9396C7.3622 31.8731 8.97027 32.5672 9.95204 32.4994C15.4703 32.144 20.9885 30.5528 25.8466 27.9461C33.4468 23.8666 39.439 17.282 43.6539 9.83409C42.7229 9.83409 42.0796 10.4435 41.064 10.2742C40.0484 10.1049 39.7776 8.3445 40.6916 7.76898C42.0289 7.51508 45.4481 5.83929 46.6161 6.00857C47.7841 6.17784 47.4794 6.49945 47.6994 6.95648C48.4273 8.49685 48.7997 10.6974 49.3414 12.3562C49.1721 13.7104 47.4794 14.269 46.7177 12.9994C46.5484 12.7117 46.2606 11.476 46.1929 11.4252L46.2099 11.4422Z" fill="#140505"/>
<path d="M56.3672 62.071H47.9883V24.3236C47.9883 23.7481 49.0039 23.5281 49.444 23.4942C50.8151 23.3927 53.9805 23.3249 55.2839 23.4942C56.5872 23.6635 56.3672 23.9343 56.3672 24.3067V62.0541V62.071Z" fill="#FEFEFE"/>
<path d="M36.6973 62.0709H28.3184V38.2714C28.3184 37.6959 29.334 37.4758 29.7741 37.442C31.1452 37.3404 34.3105 37.2727 35.6139 37.442C36.9173 37.6112 36.6973 37.8821 36.6973 38.2545V62.0539V62.0709Z" fill="#FEFEFE"/>
<path d="M17.0117 62.0709H8.63281V46.6503C8.63281 46.0748 9.64844 45.8547 10.0885 45.8209C11.4596 45.7193 14.625 45.6516 15.9284 45.8209C17.2318 45.9901 17.0117 46.261 17.0117 46.6334V62.0539V62.0709Z" fill="#FEFEFE"/>
<path d="M15.8446 2.7245C24.3251 1.9797 29.9618 11.3235 25.2391 18.4667C21.3628 24.3065 12.6961 24.4758 8.58287 18.7883C3.99563 12.4576 8.09198 3.40158 15.8446 2.7245ZM18.4344 7.10861C18.3836 7.02397 18.4175 6.68543 18.299 6.4146C17.8928 5.51746 16.3524 5.51746 15.8954 6.31304C15.4383 7.10861 15.76 7.00705 15.5907 7.21017C15.4214 7.4133 15.1167 7.46408 14.9305 7.63335C13.1193 9.27528 13.0008 11.7128 15.2014 13.0669C15.7938 13.4224 18.0113 14.1164 18.1467 14.5735C18.2821 15.0305 17.8589 15.6399 17.385 15.7922C15.9292 16.2492 15.0829 14.5396 13.8472 15.5552C12.7131 16.4862 13.5256 17.6203 14.5581 18.1451C15.5907 18.6698 15.3876 18.3651 15.5738 18.5344C15.76 18.7037 15.7769 19.2115 16.0477 19.5162C16.6909 20.2102 17.9435 20.0409 18.3159 19.1438C18.6883 18.2466 18.3667 18.5852 18.4683 18.4159C18.5698 18.2466 19.1961 18.0097 19.4162 17.8404C21.3628 16.2492 21.549 13.3039 19.3485 11.8482C18.8915 11.5435 16.437 10.7818 16.3863 10.4771C16.3355 10.1724 16.6571 9.74923 16.9956 9.69845C17.7743 9.56304 18.2482 10.4263 19.01 10.4432C20.1779 10.4771 20.8042 9.2245 20.1948 8.24272C19.5855 7.26095 18.5191 7.21017 18.4514 7.12554L18.4344 7.10861Z" fill="#FEFEFE"/>
<path d="M18.4328 7.10848C18.4836 7.19312 19.7023 7.49781 20.1763 8.22567C20.6502 8.95353 20.1763 10.46 18.9914 10.4262C18.2466 10.4093 17.7557 9.54598 16.9771 9.6814C16.1984 9.81682 16.2831 10.0876 16.3677 10.46C16.4523 10.8324 18.8729 11.5265 19.3299 11.8311C21.5305 13.3038 21.3443 16.2491 19.3976 17.8233C17.451 19.3975 18.5344 18.2973 18.4497 18.3988C18.3482 18.5681 18.382 18.8897 18.2974 19.1267C17.925 20.0238 16.6724 20.1931 16.0291 19.4991C15.3859 18.8051 15.7752 18.7205 15.5552 18.5173C15.3351 18.3142 14.8273 18.2804 14.5396 18.128C13.507 17.6033 12.6776 16.4692 13.8286 15.5382C15.0643 14.5225 15.9107 16.2322 17.3664 15.7751C17.8403 15.6228 18.2635 15.0473 18.1281 14.5564C17.9927 14.0655 15.7752 13.4054 15.1828 13.0499C12.9823 11.6957 13.1008 9.27515 14.912 7.61629C16.7232 5.95744 15.4706 7.31161 15.5721 7.19312C15.7414 6.97307 15.7075 6.56682 15.8768 6.29598C16.3508 5.50041 17.8742 5.50041 18.2805 6.39754C18.6867 7.29468 18.3651 7.00692 18.4159 7.09155L18.4328 7.10848Z" fill="#4065D3"/>
</g>
<defs>
<clipPath id="clip0_1373_29744">
<rect width="65" height="65" fill="white"/>
</clipPath>
</defs>
</svg>
