<svg width="19" height="15" viewBox="0 0 19 15" fill="none" xmlns="http://www.w3.org/2000/svg">
<path d="M18.2864 3.66846V12.0527C18.2864 12.6086 18.0655 13.1418 17.6724 13.5349C17.2793 13.928 16.7462 14.1488 16.1903 14.1488H3.61389C3.05798 14.1488 2.52483 13.928 2.13175 13.5349C1.73866 13.1418 1.51782 12.6086 1.51782 12.0527L1.51782 3.66846" stroke="#FEFEFE" stroke-width="1.40856" stroke-linecap="round" stroke-linejoin="round"/>
<path d="M18.2864 3.66833C18.2864 3.11242 18.0655 2.57928 17.6724 2.18619C17.2793 1.7931 16.7462 1.57227 16.1903 1.57227L3.61389 1.57227C3.05798 1.57227 2.52483 1.7931 2.13175 2.18619C1.73866 2.57928 1.51782 3.11242 1.51782 3.66833L8.79118 8.20981C9.12431 8.41802 9.50925 8.52842 9.90209 8.52842C10.2949 8.52842 10.6799 8.41802 11.013 8.20981L18.2864 3.66833Z" stroke="#FEFEFE" stroke-width="1.40856" stroke-linecap="round" stroke-linejoin="round"/>
</svg>
