<svg width="45" height="45" viewBox="0 0 45 45" fill="none" xmlns="http://www.w3.org/2000/svg">
<g clip-path="url(#clip0_875_17760)">
<path d="M45 16.8753V33.5745C44.707 33.8909 44.4844 34.2073 43.9922 34.1956H1.00781C0.527344 34.1956 0.292969 33.8909 0 33.5745V16.7933C0.292969 16.4769 0.515625 16.1605 1.00781 16.1722L44.2969 16.2191C44.6719 16.3245 44.7891 16.5823 45 16.8753ZM43.0664 18.1058H1.93359V32.262H5.44922V27.6448C5.44922 27.4573 5.91797 26.9652 6.15234 26.9417H38.8477C39.082 26.9652 39.5508 27.4573 39.5508 27.6448V32.262H43.0664V18.1058ZM37.6172 28.8284H7.38281V32.2503H37.6172V28.8284Z" fill="#140505"/>
<path d="M35.0626 0C35.6954 0.152344 36.3399 0.234375 36.9727 0.421875C40.7696 1.48828 43.7579 4.60547 44.6837 8.4375C44.8009 8.92969 44.8126 9.45703 44.9884 9.9375V11.25C44.7071 12.0703 43.5587 12.2461 43.1485 11.4609C42.7384 10.6758 43.0079 10.1133 42.9376 9.64453C42.3868 6.01172 39.5977 2.97656 36.0001 2.16797C32.4024 1.35938 34.5001 2.03906 33.7852 1.93359C32.7891 1.76953 32.754 0.375 33.6446 0H35.0509H35.0626Z" fill="#4065D3"/>
<path d="M32.9531 45.001C31.2188 43.7354 29.8945 41.8487 29.625 39.669C29.3555 37.4893 29.4258 37.7002 30.5391 37.6885C31.7461 37.6885 31.4766 39.2471 31.6758 40.0674C31.875 40.8877 32.3438 41.6846 32.8711 42.3057C33.5742 43.1494 35.1328 43.9932 33.4805 44.9893H32.9531V45.001Z" fill="#4065D3"/>
<path d="M12.0466 45H11.5193C9.86696 44.0039 11.4256 43.1602 12.1287 42.3164C12.8318 41.4727 13.1248 40.8633 13.324 40.0781C13.5232 39.293 13.2537 37.6992 14.4607 37.6992C15.574 37.6992 15.4685 38.8945 15.3748 39.6797C15.117 41.8477 13.7693 43.7578 12.0466 45.0117V45Z" fill="#4065D3"/>
<path d="M25.4885 45.0005H24.8791C24.5041 44.7779 24.2463 44.5201 24.1877 44.0748C24.0353 43.0435 24.0588 39.7857 24.1877 38.7193C24.34 37.3365 26.051 37.3716 26.215 38.7193C26.3791 40.0669 26.3557 43.0435 26.215 44.0748C26.0744 45.106 25.8869 44.7896 25.5236 45.0005H25.4885Z" fill="#4065D3"/>
<path d="M20.133 45H19.5236C19.09 44.7539 18.8908 44.4844 18.8322 43.9805C18.6799 42.8203 18.715 40.0898 18.8205 38.8945C18.9611 37.2773 20.7072 37.2773 20.8479 38.8945C20.9533 40.0898 20.9768 42.8203 20.8361 43.9805C20.6955 45.1406 20.5783 44.7539 20.1447 45H20.133Z" fill="#4065D3"/>
<path d="M33.8082 5.02617C35.6363 4.68633 38.1207 6.30352 39.0582 7.82695C39.6324 8.76445 40.9215 12.2215 38.8004 11.952C36.6793 11.6824 38.0738 10.7566 37.9332 10.1004C37.5934 8.56524 36.3512 7.38164 34.8277 7.05352C33.3043 6.72539 33.6207 7.01836 33.2809 6.6668C32.7652 6.13945 33.0816 5.1668 33.8199 5.02617H33.8082Z" fill="#4065D3"/>
<path d="M33.8206 10.0313C35.0628 9.85557 35.3323 11.6954 34.3011 11.9298C32.7191 12.2931 32.6722 10.1954 33.8206 10.0313Z" fill="#4065D3"/>
<path d="M43.0664 18.1055V32.2617H39.5508V27.6445C39.5508 27.457 39.082 26.9648 38.8477 26.9414H6.15234C5.91797 26.9648 5.44922 27.457 5.44922 27.6445V32.2617H1.93359V18.1055H43.0664ZM8.37891 23.168C8.50781 23.2969 8.8125 23.4492 9 23.4609H19.8984C21.0352 23.332 21.0703 21.668 19.8984 21.5273H9C8.21484 21.5625 7.86328 22.6289 8.37891 23.168ZM24.8438 21.6445C23.8594 21.8437 23.8594 23.332 24.8438 23.543C26.3789 23.8594 26.4492 21.3164 24.8438 21.6445ZM30.2109 21.6445C29.1328 21.8906 29.3789 23.8125 30.7031 23.543C32.0273 23.2734 31.5937 21.3281 30.2109 21.6445ZM35.6602 21.6445C34.7109 21.8672 34.7695 23.4844 35.9062 23.5664C37.3359 23.6719 37.2188 21.2812 35.6602 21.6445Z" fill="#FEFEFE"/>
<path d="M37.6172 28.8281H7.38281V32.25H37.6172V28.8281Z" fill="#FEFEFE"/>
<path d="M8.37955 23.168C7.86393 22.6289 8.21549 21.5625 9.00065 21.5273H19.8991C21.071 21.668 21.0358 23.3438 19.8991 23.4609H9.00065C8.80143 23.4492 8.50846 23.2969 8.37955 23.168Z" fill="#140505"/>
<path d="M35.6604 21.645C37.2307 21.2818 37.3362 23.6724 35.9065 23.5669C34.7698 23.4849 34.7112 21.8677 35.6604 21.645Z" fill="#4065D3"/>
<path d="M24.8437 21.6445C26.4492 21.3164 26.3789 23.8594 24.8437 23.543C23.8594 23.3438 23.8594 21.8555 24.8437 21.6445Z" fill="#4065D3"/>
<path d="M30.2107 21.6439C31.5818 21.3275 31.9099 23.2845 30.7029 23.5423C29.4959 23.8001 29.1326 21.9017 30.2107 21.6439Z" fill="#4065D3"/>
</g>
<defs>
<clipPath id="clip0_875_17760">
<rect width="45" height="45" fill="white"/>
</clipPath>
</defs>
</svg>
