<svg width="45" height="45" viewBox="0 0 45 45" fill="none" xmlns="http://www.w3.org/2000/svg">
<g clip-path="url(#clip0_875_17742)">
<path d="M6.86763 28.3006C7.51216 28.4061 8.25044 28.6522 8.80122 29.0038C9.58638 29.5077 9.94966 30.2108 11.0395 30.3163C13.6176 30.5741 14.227 28.1249 17.145 28.2069C17.7661 28.2186 18.5161 28.4061 19.0786 28.6522C20.1567 29.1092 20.8364 30.1991 22.02 30.3163C24.645 30.5858 25.2778 27.9842 28.4301 28.2069C30.7036 28.371 31.6879 30.3983 33.5161 30.3983C35.3442 30.3983 36.2817 28.4061 38.5434 28.2186C40.9458 28.0194 41.3208 29.0624 43.0551 29.9647C43.5825 30.246 44.1215 30.2577 44.52 30.4686C44.9184 30.6796 44.7426 30.8319 44.9887 30.8436V44.203C44.8129 44.6131 44.6723 44.7772 44.2856 44.9999H0.797315C0.340284 44.8124 0.18794 44.66 0.0121586 44.203C0.0238774 41.5428 -0.0112789 38.871 0.0121586 36.2108C0.0121586 34.5116 0.0941899 32.7538 0.0941899 31.0311C0.445752 30.2225 1.30122 30.3631 2.02778 29.9764C2.75435 29.5897 2.98872 29.203 3.52778 28.8866C4.58247 28.2772 5.67231 28.1131 6.85591 28.3124L6.86763 28.3006ZM43.0668 32.0858C41.6372 31.8046 40.8637 30.328 39.4106 30.1639C37.395 29.9413 36.8208 31.5116 35.1567 32.0389C33.4926 32.5663 32.1333 32.3436 30.8793 31.5819C29.6254 30.8202 29.8832 30.6561 29.1801 30.3749C26.6137 29.3671 25.7231 31.8749 23.4028 32.2381C21.4106 32.5546 20.5551 31.9686 19.0668 30.9022C15.9848 28.7225 15.1293 31.7108 12.4926 32.2147C11.3911 32.4256 10.3129 32.2733 9.30513 31.7928C8.29731 31.3124 7.7231 30.2811 6.36372 30.1639C4.37153 29.9764 3.77388 31.5702 2.06294 32.0858C1.95747 33.703 2.10981 35.3202 1.93403 36.9256C2.37935 36.9256 2.62544 36.4686 2.95356 36.2342C4.59419 35.0741 6.43403 34.8397 8.27388 35.7186C9.39888 36.2577 9.80903 37.1835 11.227 37.3358C12.645 37.4881 13.6293 36.1522 15.1176 35.5663C16.6059 34.9803 17.8715 35.0741 19.1606 35.6483C20.145 36.0936 20.6606 36.9842 21.7856 37.2421C24.0122 37.7577 24.4223 36.2342 26.1098 35.5546C27.7973 34.8749 28.9106 35.0624 30.2114 35.6717C31.5122 36.2811 31.7817 37.16 33.1176 37.3358C35.0278 37.5819 35.602 36.1522 37.0903 35.5546C38.5786 34.9569 40.5004 35.1444 42.0004 36.1756C43.5004 37.2069 42.645 36.8436 43.0668 36.9139V32.0858ZM43.0668 39.0233C41.0981 38.5311 40.5473 36.6561 38.227 37.2186C37.3012 37.4413 37.0434 37.9335 36.3403 38.4139C34.9106 39.3866 33.1528 39.5389 31.5473 38.8944C30.2465 38.3671 29.602 37.078 27.9848 37.0897C26.1801 37.0897 25.184 39.1288 22.8754 39.2811C20.684 39.4335 20.2387 38.578 18.6801 37.6053C16.102 35.9881 15.0239 38.4725 12.9965 39.0702C11.8481 39.41 10.6879 39.3397 9.57466 38.8944C8.46138 38.4491 7.59419 37.0663 6.02388 37.0897C4.57075 37.1131 4.1606 37.9569 3.10591 38.5663C2.05122 39.1756 2.29731 38.9061 1.93403 39.1522V43.0663H43.0551V39.0233H43.0668Z" fill="#4065D3"/>
<path d="M34.2769 10.1013V18.363H37.0425C37.0777 18.363 37.4995 18.7146 37.5464 18.8201C37.6988 19.1716 37.6519 19.6638 37.3941 19.9451C37.1363 20.2263 36.9136 20.2966 36.8667 20.2966H34.2769V23.7185H44.3433C44.4956 23.7185 44.8824 24.199 44.9995 24.3279V30.8318C44.7535 30.8318 44.7769 30.5974 44.5308 30.4568C44.1324 30.2341 43.5933 30.2224 43.066 29.9529V25.6404H19.0777V28.6286C18.5152 28.3943 17.7652 28.2068 17.1441 28.1833C17.1089 27.3396 17.2261 26.4724 17.0621 25.6286H8.80033V28.9685C8.24955 28.6169 7.51127 28.3708 6.86674 28.2654V25.6286H2.02689V29.9411C1.30033 30.3279 0.444862 30.1872 0.0932999 30.9958C0.105019 29.0505 -0.223133 26.3787 -0.00047683 24.5505C-0.00047683 23.613 0.433144 23.7068 0.667519 23.7068H6.86674V13.9919C6.86674 13.3943 5.22611 13.4294 4.83939 13.5466C4.18314 13.7576 4.60502 15.1755 3.4683 15.2576C2.33158 15.3396 2.33158 13.8396 2.68314 13.0661C3.87846 10.4529 8.88236 11.1091 8.88236 14.2497V18.3396H17.0503V13.9919C17.0503 13.3708 15.1871 13.3826 14.8589 13.6404C14.5308 13.8982 14.6128 14.3201 14.4722 14.6716C14.1324 15.5505 12.7613 15.3865 12.6558 14.4372C12.2808 11.3083 17.2613 10.3591 18.7027 12.9607C20.1441 15.5622 16.7573 13.3005 19.066 14.0036V23.7185H32.2495V20.2966H29.6597C29.3785 20.2966 28.9449 19.781 28.9097 19.4646C28.8746 19.1482 29.0738 18.363 29.4839 18.363H32.2495V10.1013C32.8472 9.98412 33.105 9.86693 33.773 9.93724C34.441 10.0076 34.1363 10.0779 34.2652 10.1013H34.2769ZM17.1441 20.2966H8.80033V23.5896C8.80033 23.5896 8.91752 23.7185 8.92924 23.7185H17.0152C17.0152 23.7185 17.1441 23.6013 17.1441 23.5896V20.2966Z" fill="#140505"/>
<path d="M34.4529 0L36.7614 0.46875C40.0544 1.32422 43.1599 3.77344 44.3904 6.98437C44.6833 7.74609 44.8005 8.54297 44.9997 9.31641V10.5469C44.32 11.8828 43.5232 11.0156 42.6208 10.6758C41.4138 10.2305 40.0779 10.2422 38.8825 10.7109C37.6872 11.1797 38.0154 11.3672 37.2536 11.1914C36.4919 11.0156 35.4372 10.3242 34.2654 10.0898C33.0935 9.85547 33.9841 9.94922 33.7732 9.92578C33.0935 9.85547 32.8357 9.97266 32.2497 10.0898C31.0896 10.3242 30.1989 10.9805 29.2614 11.1914C28.3239 11.4023 28.3943 10.9922 27.82 10.7812C26.2263 10.1719 25.031 10.1953 23.4607 10.8398C23.0036 11.0273 22.9099 11.332 22.2771 11.2266C21.2458 11.0625 21.5154 9.49219 21.6325 8.75391C22.2888 4.66406 25.9333 1.41797 29.8357 0.433594L32.0739 -0.0117188H34.4411L34.4529 0ZM36.5622 8.78906C36.4099 7.04297 36.0583 5.07422 35.1677 3.53906C33.1404 0.0468752 31.2888 3.04687 30.5622 5.46094C30.2458 6.51562 30.0349 7.67578 29.9763 8.77734C32.0739 7.72266 34.4646 7.74609 36.5622 8.77734V8.78906ZM29.7068 2.55469C26.8357 3.39844 24.3396 5.74219 23.6482 8.70703C25.113 8.32031 26.6013 8.34375 28.0427 8.80078C28.1716 6.64453 28.6755 4.46484 29.7185 2.56641L29.7068 2.55469ZM42.8904 8.69531C42.1989 5.74219 39.6911 3.38672 36.8318 2.54297C37.8747 4.44141 38.3786 6.62109 38.5075 8.77734C39.9489 8.32031 41.4372 8.30859 42.9021 8.68359L42.8904 8.69531Z" fill="#4065D3"/>
<path d="M45 44.2031V45H44.2969C44.6836 44.7773 44.8242 44.6133 45 44.2031Z" fill="#FEFEFE"/>
<path d="M36.5625 8.78929C34.4648 7.75804 32.0742 7.7346 29.9766 8.78929C30.0469 7.68772 30.2461 6.52757 30.5625 5.47288C31.2891 3.05882 33.1523 0.0470995 35.168 3.55101C36.0586 5.08616 36.4102 7.05491 36.5625 8.80101V8.78929Z" fill="#FEFEFE"/>
<path d="M29.707 2.55469C28.6641 4.45312 28.1602 6.63281 28.0312 8.78906C26.5898 8.33203 25.1016 8.32031 23.6367 8.69531C24.3281 5.73047 26.8242 3.38672 29.6953 2.54297L29.707 2.55469Z" fill="#FEFEFE"/>
<path d="M42.8906 8.69531C41.4258 8.30859 39.9375 8.33203 38.4961 8.78906C38.3672 6.63281 37.8633 4.45313 36.8203 2.55469C39.6914 3.39844 42.1875 5.74219 42.8789 8.70703L42.8906 8.69531Z" fill="#FEFEFE"/>
</g>
<defs>
<clipPath id="clip0_875_17742">
<rect width="45" height="45" fill="white"/>
</clipPath>
</defs>
</svg>
