<svg width="45" height="45" viewBox="0 0 45 45" fill="none" xmlns="http://www.w3.org/2000/svg">
<g clip-path="url(#clip0_875_17757)">
<path d="M0.0117188 5.70312C0.175781 5.39844 0.386719 5.07031 0.761719 5H6.01172C6.86719 5.32812 6.67969 6.18359 6.69141 6.93359H38.332C38.332 6.19531 38.1562 5.33984 39.0117 5.02344H44.2617C44.6367 5.07031 44.8477 5.41016 45.0117 5.70312V23.2812C44.7891 23.6211 44.6133 23.9141 44.168 23.9844C43.3945 24.1016 39.9492 24.1016 39.1641 23.9844C38.3789 23.8672 38.2969 22.8008 38.3203 22.0508H24.2109C23.9297 22.0508 23.5195 21.5117 23.4727 21.207C23.4023 20.7617 23.4141 19.3906 23.4727 18.9336C23.5312 18.4766 23.9063 17.8438 23.8945 17.5156C23.8828 17.1875 23.3086 16.5312 23.1094 16.332C23.0625 16.6602 23.0508 17.0234 22.9219 17.3398C22.6875 17.9258 21.6562 18.9688 21.5391 19.4727C21.4219 19.9766 21.7852 21.2539 21.2109 21.7812C20.6367 22.3086 20.7891 22.0391 20.7656 22.0391H6.69141C6.71484 22.7891 6.82031 23.8203 5.84766 23.9727C4.875 24.125 1.62891 24.0898 0.84375 23.9727C0.0585938 23.8555 0.269531 23.6328 0 23.3633V5.70312H0.0117188ZM4.75781 6.94531H1.94531V22.0625H4.75781V6.94531ZM43.0781 6.94531H40.2656V22.0625H43.0781V6.94531ZM38.332 8.86719H6.69141V20.1172H19.6055C19.6289 19.7891 19.5703 19.4258 19.6055 19.1094C19.7109 18.2305 20.8945 17.3047 21.1406 16.5195C21.3867 15.7461 21.4102 13.4609 21.9375 13.0156C22.4648 12.5703 23.0391 12.8164 23.4609 13.3086C24.3398 14.3516 25.043 15.8516 25.8867 16.9531C26.0508 18.0312 25.207 19.0039 25.4062 20.1172H38.3203V8.86719H38.332Z" fill="#140505"/>
<path d="M22.2186 25.8598C22.7225 25.7426 23.0975 25.9184 23.367 26.3402C24.5506 29.0824 27.867 32.6801 27.5975 35.7269C27.1873 40.3324 21.1756 42.0551 18.4217 38.3168C15.3983 34.2035 20.0389 30.0316 21.6326 26.3402C21.7616 26.1527 21.9725 25.9184 22.2069 25.8598H22.2186ZM22.5936 28.8246L22.4178 28.8832C21.6678 30.4418 20.578 31.9301 19.828 33.4887C19.078 35.0473 19.0897 35.9496 19.9569 37.1332C22.16 40.1098 26.8241 37.5082 25.4178 33.9574L22.5936 28.8363V28.8246Z" fill="#4065D3"/>
<path d="M38.332 8.86719V20.1172H25.418C25.2188 18.9922 26.0625 18.0312 25.8984 16.9531C25.0547 15.8516 24.3516 14.3516 23.4727 13.3086C22.5938 12.2656 22.5352 12.5234 21.9492 13.0156C21.3633 13.5078 21.3984 15.7461 21.1523 16.5195C20.9062 17.3047 19.7109 18.2305 19.6172 19.1094C19.5234 19.9883 19.6406 19.7891 19.6172 20.1172H6.69141V8.86719H38.332Z" fill="#FEFEFE"/>
<path d="M4.75781 6.94531H1.94531V22.0625H4.75781V6.94531Z" fill="#FEFEFE"/>
<path d="M43.0781 6.94531H40.2656V22.0625H43.0781V6.94531Z" fill="#FEFEFE"/>
<path d="M22.5933 28.8242L25.4175 33.9453C26.8237 37.5078 22.148 40.1094 19.9566 37.1211C19.0776 35.9375 19.2183 34.7188 19.8276 33.4766C20.437 32.2344 21.6675 30.4414 22.4175 28.8711L22.5933 28.8125V28.8242Z" fill="#FEFEFE"/>
</g>
<defs>
<clipPath id="clip0_875_17757">
<rect width="45" height="45" fill="white"/>
</clipPath>
</defs>
</svg>
