<svg width="45" height="45" viewBox="0 0 45 45" fill="none" xmlns="http://www.w3.org/2000/svg">
<g clip-path="url(#clip0_875_17754)">
<path d="M39.0371 0C40.8887 0.386719 42.377 1.66406 42.8574 3.51562C43.0684 16.1484 43.0684 28.8633 42.8574 41.4844C42.3652 43.3594 40.8301 44.6602 38.9434 45H5.89648C4.10352 44.5312 2.62695 43.3359 2.1582 41.4844C1.94727 28.8516 1.94727 16.1367 2.1582 3.50391C2.62695 1.67578 4.11523 0.457031 5.89648 0H39.0371ZM16.4434 1.93359H6.29492C5.25195 1.93359 3.96289 3.38672 3.96289 4.44141V40.3945C3.85742 41.5078 5.19336 43.0664 6.29492 43.0664H16.4434V1.93359ZM18.3887 43.0664H38.7324C39.7754 43.0664 41.0644 41.6133 41.0644 40.5586V4.60547C41.1699 3.49219 39.834 1.93359 38.7324 1.93359H18.3887V43.0664Z" fill="#140505"/>
<path d="M18.3887 43.0664V1.93359H38.7324C39.834 1.93359 41.1582 3.49219 41.0644 4.60547V40.5586C41.0644 41.6133 39.7754 43.0664 38.7324 43.0664H18.3887ZM21.5176 14.7891C21.1543 14.8711 20.8379 15.3281 20.8379 15.6914V29.2266C20.8262 30.457 22.6191 30.668 22.7715 29.4023C22.7246 24.7148 22.8652 19.9922 22.7012 15.3164C22.502 14.8125 22.0215 14.6719 21.5176 14.7891ZM26.8848 16.3711C26.4512 16.5 26.1699 16.8047 26.1113 17.2734C26.3574 20.6016 25.7949 24.375 26.1113 27.6562C26.4277 30.9375 26.4863 28.6055 27.1191 28.6641C30.166 28.957 33.6934 28.4297 36.7988 28.6641C37.1738 28.6172 37.5254 28.3945 37.6777 28.0547V16.9688C37.5254 16.6289 37.1621 16.4063 36.7988 16.3594L26.8848 16.3828V16.3711Z" fill="#FEFEFE"/>
<path d="M16.4432 1.93359V43.0664H6.29475C5.19319 43.0664 3.86897 41.5078 3.96272 40.3945V4.44141C3.96272 3.38672 5.25178 1.93359 6.29475 1.93359H16.4432ZM13.0799 14.707C12.7752 14.707 12.3299 14.9414 12.2127 15.2344C12.1072 20.0625 12.1072 24.9492 12.2127 29.7773C12.8221 30.6914 14.0057 30.293 14.076 29.2266C14.0408 24.6445 14.158 20.0508 14.0174 15.4922C13.9354 15.082 13.5018 14.707 13.0799 14.7188V14.707Z" fill="#FEFEFE"/>
<path d="M26.8845 16.3711L36.7986 16.3477C37.1736 16.3945 37.5252 16.6172 37.6775 16.957V28.043C37.5252 28.3828 37.1736 28.6055 36.7986 28.6523C33.6931 28.418 30.1775 28.9453 27.1189 28.6523C26.4861 28.5938 26.1697 28.2773 26.1111 27.6445C25.7947 24.375 26.3572 20.5898 26.1111 17.2617C26.1697 16.8047 26.4392 16.4883 26.8845 16.3594V16.3711ZM30.9509 18.2812H28.0447V26.7188H35.7791V18.2812H32.8728V19.9922C32.8728 20.0742 32.533 20.4492 32.4275 20.5195C32.0994 20.7305 31.6423 20.707 31.3259 20.4844C31.0095 20.2617 30.9275 19.9805 30.9275 19.9102V18.2812H30.9509Z" fill="#140505"/>
<path d="M21.5176 14.7888C22.0215 14.6716 22.5137 14.8122 22.7012 15.3161C22.8653 19.9919 22.7247 24.7146 22.7715 29.4021C22.6192 30.6677 20.8262 30.4568 20.8379 29.2263V15.6911C20.8379 15.3279 21.1544 14.8708 21.5176 14.7888Z" fill="#4065D3"/>
<path d="M13.0801 14.707C13.502 14.707 13.9238 15.0703 14.0176 15.4805C14.1582 20.0508 14.041 24.6445 14.0762 29.2148C14.0059 30.2812 12.8105 30.6797 12.2129 29.7656C12.1074 24.9375 12.1074 20.0508 12.2129 15.2227C12.3301 14.9297 12.7871 14.707 13.0801 14.6953V14.707Z" fill="#4065D3"/>
<path d="M30.9512 18.2812V19.9102C30.9512 19.9805 31.2559 20.4141 31.3496 20.4844C31.666 20.707 32.123 20.7305 32.4512 20.5195C32.7793 20.3086 32.8965 20.0742 32.8965 19.9922V18.2812H35.8027V26.7188H28.0684V18.2812H30.9746H30.9512Z" fill="#FEFEFE"/>
</g>
<defs>
<clipPath id="clip0_875_17754">
<rect width="45" height="45" fill="white"/>
</clipPath>
</defs>
</svg>
