<svg width="45" height="45" viewBox="0 0 45 45" fill="none" xmlns="http://www.w3.org/2000/svg">
<g clip-path="url(#clip0_875_17739)">
<g clip-path="url(#clip1_875_17739)">
<path d="M36.3047 0C38.3789 0.375 39.9375 1.98047 40.1719 4.08984V36.7852C40.0312 38.8359 38.6719 40.4297 36.6914 40.9453C36.5391 41.1562 36.7266 43.6172 36.6445 44.1562C36.5625 44.6953 36.2812 44.7773 35.9414 45H8.96484C7.79297 44.1328 8.61328 42.2344 8.30859 40.957C6.38672 40.4766 4.93359 38.8008 4.82812 36.7969V4.08984C5.0625 1.98047 6.58594 0.46875 8.61328 0H36.293H36.3047ZM6.77344 27.4219V36.9609C6.77344 37.8984 8.21484 39.1875 9.1875 39.1172H35.8242C37.0898 39.0469 38.168 37.9688 38.2383 36.7031V4.42969C38.2031 3.11719 37.125 2.01562 35.8242 1.92188H9.09375C8.15625 1.89844 6.76172 3.16406 6.76172 4.07812V13.6172H8.77734V4.69922C8.77734 4.51172 9.24609 4.01953 9.48047 3.99609H35.4961C35.8359 4.11328 36.0352 4.32422 36.1523 4.65234V36.3867C36.0352 36.7266 35.8242 36.9258 35.4961 37.043L9.69141 37.0898C9.375 37.1367 8.76563 36.5977 8.76563 36.3398V27.4219H6.75H6.77344ZM34.2773 5.88281H10.7227V35.1562H34.2773V5.88281ZM8.78906 15.5625H6.77344V25.5H8.78906V15.5625ZM34.7109 41.0391H10.2891V43.0547H34.7227V41.0391H34.7109Z" fill="#140505"/>
<path d="M34.2773 5.88281V35.1562H10.7227V5.88281H34.2773ZM23.4609 19.2422V16.7344C23.4609 16.4414 25.4297 15.4688 24.6914 14.3555C23.9531 13.2422 23.1094 14.3555 22.5352 14.8477C22.207 14.8477 21.75 13.6875 20.7305 14.0039C19.7109 14.3203 20.0742 14.6602 20.1211 15.0586C20.1914 15.6445 21.5273 16.6172 21.5273 16.7344V19.2422L19.3242 17.9766C19.0547 17.168 18.8203 15.1641 17.4844 15.8672C16.6172 16.3359 17.1914 17.2969 17.2148 18.0117C16.3242 18.0352 15.1875 18.5508 15.7383 19.6289C16.2891 20.707 17.5898 19.7344 18.3867 19.6992L20.5664 21C20.0156 21.1172 18.75 22.1836 18.3164 22.2305C17.6602 22.3008 16.2891 21.1992 15.7383 22.2891C15.1875 23.3789 16.3242 23.8828 17.2148 23.9062C17.4141 24.1055 16.5234 25.3477 17.3906 25.9805C18.6914 26.9297 19.1016 24.7734 19.3242 23.9531L21.5273 22.6875V25.1953C21.5273 25.3125 20.1914 26.2852 20.1211 26.8711C20.0508 27.457 20.332 27.7969 20.7305 27.9258C21.75 28.2422 22.207 27.082 22.5352 27.082C22.8633 27.082 23.2148 27.8555 23.6133 27.9492C24.457 28.1484 25.1016 27.4219 24.7734 26.6133C24.4453 25.8047 23.4609 25.3008 23.4609 25.1953V22.6875L25.6641 23.9531C25.9688 24.5391 25.9102 25.6406 26.5078 26.0039C27.1055 26.3672 27.8906 26.0039 27.9961 25.3125C28.1016 24.6211 27.7031 24.3633 27.7734 23.9062C28.6641 23.8828 29.8008 23.3672 29.25 22.2891C28.6992 21.2109 27.3281 22.2891 26.6719 22.2305C26.0156 22.1719 24.9961 21.0938 24.4219 21L26.6016 19.6992C27.3867 19.7344 28.7461 20.6133 29.25 19.6289C29.7539 18.6445 28.6523 18.0352 27.7734 18.0117C27.7969 17.2969 28.3711 16.3359 27.5039 15.8672C26.1797 15.1523 25.9336 17.168 25.6641 17.9766L23.4609 19.2422Z" fill="#FEFEFE"/>
<path d="M6.77344 27.4222H8.78906V36.3402C8.78906 36.598 9.38672 37.137 9.71484 37.0902L35.5195 37.0433C35.8594 36.9261 36.0586 36.7152 36.1758 36.387V4.65266C36.0586 4.31282 35.8477 4.1136 35.5195 3.99641H9.49219C9.25781 4.01985 8.78906 4.51204 8.78906 4.69954V13.6175H6.77344V4.09016C6.77344 3.1761 8.16797 1.91048 9.10547 1.93391H35.8242C37.1367 2.01595 38.2148 3.11751 38.2383 4.43001V36.6917C38.168 37.9574 37.0898 39.0355 35.8242 39.1058H9.17578C8.20313 39.1761 6.76172 37.887 6.76172 36.9495V27.4105L6.77344 27.4222Z" fill="#FEFEFE"/>
<path d="M34.7227 41.0391H10.2891V43.0547H34.7227V41.0391Z" fill="#FEFEFE"/>
<path d="M8.78906 15.5625H6.77344V25.5H8.78906V15.5625Z" fill="#FEFEFE"/>
<path d="M23.4611 19.2421L25.6642 17.9765C25.9338 17.1679 26.1681 15.164 27.5041 15.8671C28.3713 16.3359 27.797 17.2968 27.7736 18.0116C28.6642 18.0351 29.8009 18.5507 29.2502 19.6288C28.6994 20.707 27.3986 19.7343 26.6017 19.6991L24.422 20.9999C24.9963 21.0937 26.215 22.1835 26.672 22.2304C27.3283 22.3007 28.6994 21.1991 29.2502 22.289C29.8009 23.3788 28.6642 23.8827 27.7736 23.9062C27.7033 24.3632 28.0666 24.8788 27.9963 25.3124C27.8791 26.0038 27.1173 26.3788 26.508 26.0038C25.8986 25.6288 25.9689 24.539 25.6642 23.9531L23.4611 22.6874V25.1952C23.4611 25.289 24.6213 26.2265 24.7736 26.6132C25.1017 27.4218 24.4572 28.1484 23.6134 27.9491C22.7697 27.7499 22.7931 27.082 22.5353 27.082C22.2775 27.082 21.7502 28.2421 20.7306 27.9257C19.7111 27.6093 20.0744 27.2695 20.1213 26.871C20.1916 26.2851 21.5275 25.3124 21.5275 25.1952V22.6874L19.3244 23.9531C19.1017 24.7734 18.6916 26.9296 17.3908 25.9804C16.5236 25.3593 17.4142 24.1171 17.215 23.9062C16.3244 23.8827 15.1877 23.3671 15.7384 22.289C16.2892 21.2109 17.6603 22.289 18.3166 22.2304C18.9728 22.1718 20.0158 21.1171 20.5666 20.9999L18.3869 19.6991C17.6017 19.7343 16.2423 20.6132 15.7384 19.6288C15.2345 18.6445 16.3361 18.0351 17.215 18.0116C17.1916 17.2968 16.6173 16.3359 17.4845 15.8671C18.8088 15.1523 19.0548 17.1679 19.3244 17.9765L21.5275 19.2421V16.7343C21.5275 16.6171 20.1916 15.6445 20.1213 15.0585C20.0509 14.4726 20.3322 14.1327 20.7306 14.0038C21.7502 13.6874 22.2072 14.8476 22.5353 14.8476C23.1095 14.3554 24.0236 13.3476 24.6916 14.3554C25.3595 15.3632 23.4611 16.4413 23.4611 16.7343V19.2421Z" fill="#4065D3"/>
</g>
</g>
<defs>
<clipPath id="clip0_875_17739">
<rect width="45" height="45" fill="white"/>
</clipPath>
<clipPath id="clip1_875_17739">
<rect width="45" height="45" fill="white"/>
</clipPath>
</defs>
</svg>
