<svg width="45" height="45" viewBox="0 0 45 45" fill="none" xmlns="http://www.w3.org/2000/svg">
<g clip-path="url(#clip0_875_17736)">
<path d="M15.5383 14.5079C16.1828 14.5079 16.8273 14.5079 17.4719 14.5079C18.1164 14.5079 20.3664 14.1798 20.5422 15.2579C20.718 16.336 20.4367 17.9884 20.5891 18.1993C21.6672 18.3399 22.6516 18.6095 23.6008 19.1485C25.6398 20.297 27.0344 22.4884 27.2336 24.8321V33.7618C28.8859 33.4923 30.7375 34.6173 30.925 36.3517C31.1125 38.086 31.0773 41.5548 30.8898 42.6446C30.7023 43.7345 29.9758 44.3204 29.2023 44.7423L28.382 45.0118H4.47578C3.22188 44.5782 2.21407 43.629 2.09688 42.2462C1.97969 40.8634 1.95625 37.8751 2.09688 36.4454C2.2375 35.0157 4.06563 33.4923 5.78829 33.7618V24.9259C6.08125 21.5626 8.40157 19.0431 11.6711 18.3282C11.9289 18.2696 12.2102 18.3517 12.4328 18.211C12.5852 18.0001 12.3977 15.7735 12.4797 15.2696C12.6555 14.1915 14.718 14.5314 15.55 14.5196L15.5383 14.5079ZM18.6203 16.4298H14.4016V18.1876H18.6203V16.4298ZM25.3 43.0665V24.7384C25.3 22.3126 22.4992 20.2735 20.2492 20.1212C17.9992 19.9689 14.9523 19.9806 12.8547 20.1212C10.4992 20.2735 7.72188 22.2892 7.72188 24.8321V43.0665H25.3ZM5.78829 35.6837C5.01485 35.6134 4.3 35.7189 4.05391 36.5392C4.14766 38.2735 3.86641 40.2657 4.03047 41.9767C4.19454 43.6876 4.9211 43.1603 5.78829 43.0665V35.6837ZM27.2336 43.0665C27.9719 43.1251 28.6867 43.0665 28.9563 42.2814C28.8977 40.5001 29.1555 38.4493 29.0031 36.6915C28.8508 34.9337 28.0422 35.5899 27.2453 35.6837V43.0665H27.2336Z" fill="#140505"/>
<path d="M41.8236 0C42.1283 0.164062 42.4564 0.375 42.5267 0.75C42.6556 1.55859 42.6205 4.10156 42.5267 4.96875C42.433 5.83594 42.5033 5.29688 42.3509 5.49609C42.1986 5.69531 41.847 5.89453 41.7767 5.89453H36.3744V10.9453C36.3744 10.9922 36.1752 11.25 36.1166 11.2969C35.7064 11.6719 35.2142 11.5781 34.7103 11.6016C34.2064 11.625 33.3392 11.625 32.6947 11.6016C32.0502 11.5781 31.4642 11.6953 31.1244 11.1094C30.7845 10.5234 30.9369 10.6289 30.9369 10.5938V5.89453H25.6166C25.5463 5.89453 25.1127 5.58984 25.0423 5.49609C24.89 5.29688 24.89 5.20312 24.8666 4.96875C24.7494 3.63281 24.9603 2.10938 24.8666 0.75C24.9134 0.398438 25.2416 0.210938 25.4759 0L41.8236 0ZM40.5931 1.93359H26.7884V3.94922H40.5931V1.93359ZM34.4408 5.88281H32.9408V9.65625H34.4408V5.88281Z" fill="#140505"/>
<path d="M32.6828 11.6019C33.3391 11.6253 34.0539 11.6253 34.6984 11.6019C34.6047 13.6409 34.8273 15.7855 34.6984 17.8011C34.5109 20.848 31.8742 23.1214 28.8859 21.6683C24.632 19.594 28.2414 13.4651 25.7101 10.1605C23.8469 7.73467 20.132 7.74639 18.3391 10.2308C17.4016 11.5315 17.4016 12.9378 17.4601 14.4964C16.8156 14.4964 16.1711 14.4964 15.5266 14.4964C15.4445 12.7386 15.5266 11.1917 16.4172 9.63311C18.7141 5.64873 24.468 5.28545 27.2453 8.96514C30.0226 12.6448 28.3469 15.3284 28.6516 18.6331C29.3195 20.6487 32.0617 20.6019 32.6359 18.5628L32.6594 11.6019H32.6828Z" fill="#4065D3"/>
<path d="M25.2998 43.0664H7.72168V24.832C7.72168 22.2891 10.499 20.2734 12.8545 20.1211C14.9521 19.9805 18.1514 19.9805 20.249 20.1211C22.3467 20.2617 25.2998 22.3242 25.2998 24.7383V43.0664ZM12.5381 21.7383C10.8506 21.9375 9.57324 23.2734 9.31543 24.9258C9.33887 30.2578 9.22168 35.6133 9.37402 40.9336C9.5498 41.1914 9.7959 41.4727 10.1357 41.4844C14.4717 41.4375 18.8428 41.5664 23.167 41.4141C23.46 41.2148 23.7412 40.9453 23.7178 40.5586V24.9961C23.5186 23.25 22.1475 21.9258 20.4014 21.7148C17.9053 21.8906 14.9756 21.4336 12.5264 21.7266L12.5381 21.7383Z" fill="#FEFEFE"/>
<path d="M27.2334 43.0661V35.6833C28.0303 35.5895 28.9092 35.7536 28.9912 36.6911C29.1553 38.4489 28.8975 40.4997 28.9443 42.2809C28.6865 43.0778 27.96 43.1247 27.2217 43.0661H27.2334Z" fill="#FEFEFE"/>
<path d="M5.78886 35.6841V43.0669C4.92167 43.1606 4.1248 42.9731 4.03105 41.977C3.86699 40.2661 4.14824 38.2739 4.05449 36.5395C4.3123 35.7192 5.01542 35.6137 5.78886 35.6841Z" fill="#FEFEFE"/>
<path d="M18.6201 16.4297H14.4014V18.1875H18.6201V16.4297Z" fill="#FEFEFE"/>
<path d="M40.5928 1.93359H26.7881V3.94922H40.5928V1.93359Z" fill="#FEFEFE"/>
<path d="M34.4522 5.88281H32.9521V9.65625H34.4522V5.88281Z" fill="#FEFEFE"/>
<path d="M12.5387 21.7375C14.9879 21.4445 17.9059 21.9015 20.4137 21.7257C22.1481 21.9367 23.5192 23.2609 23.7184 25.007V40.5695C23.7418 40.9562 23.4606 41.2257 23.1676 41.425C18.8434 41.5773 14.4723 41.4484 10.1364 41.4953C9.78481 41.4953 9.55043 41.2023 9.37465 40.9445C9.22231 35.6242 9.33949 30.2687 9.31606 24.9367C9.57387 23.2726 10.8512 21.9484 12.5387 21.7492V21.7375ZM21.7848 39.55V25.007C21.7848 24.4914 20.8707 23.6711 20.3317 23.6476C17.9645 23.7648 15.3864 23.4601 13.0426 23.6476C12.3512 23.6945 11.8121 23.9054 11.4723 24.5382C11.1325 25.1711 11.2496 24.9718 11.2496 25.0187V39.5617H21.7965L21.7848 39.55Z" fill="#4065D3"/>
<path d="M21.7842 39.5503H11.2373V25.0074C11.2373 24.9605 11.4131 24.6089 11.46 24.5269C11.8115 23.8941 12.3389 23.6949 13.0303 23.6363C15.374 23.4605 17.9521 23.7652 20.3193 23.6363C20.8584 23.6597 21.7725 24.48 21.7725 24.9956V39.5386L21.7842 39.5503ZM13.499 25.3355C12.4561 25.7105 12.5967 27.0816 13.7451 27.2456C14.8936 27.4097 18.2451 27.3863 19.2646 27.2456C20.2842 27.105 20.5889 25.7105 19.5342 25.3238H13.499V25.3355ZM13.6748 28.8511C12.4912 29.0503 12.5615 30.6089 13.5693 30.7613C15.3037 31.0308 17.6592 30.5738 19.4521 30.7613C20.542 30.5269 20.4365 28.9917 19.3584 28.8277C18.2803 28.6636 14.5303 28.6988 13.6748 28.8394V28.8511ZM13.499 32.4488C12.5498 32.7652 12.585 34.1597 13.5928 34.3472C15.2334 34.6402 17.6357 34.1714 19.3701 34.3589C20.4834 34.2066 20.5068 32.7183 19.4639 32.437H13.5107L13.499 32.4488ZM13.7686 35.9644C12.4443 36.1519 12.4443 37.7456 13.7686 37.9449C14.7881 38.0972 18.2568 38.0972 19.2764 37.9566C20.5303 37.7808 20.6123 36.1636 19.2646 35.9644C18.2451 35.812 14.7881 35.812 13.7686 35.9644Z" fill="#FEFEFE"/>
<path d="M13.7686 35.9658C14.7881 35.8135 18.2451 35.8135 19.2646 35.9658C20.6123 36.165 20.5303 37.7822 19.2764 37.958C18.2568 38.0986 14.7881 38.0869 13.7686 37.9463C12.4443 37.7588 12.4443 36.165 13.7686 35.9658Z" fill="#4065D3"/>
<path d="M13.4992 25.3359H19.5344C20.5891 25.6992 20.4133 27.082 19.2649 27.2461C18.1164 27.4102 14.7649 27.3867 13.7453 27.2461C12.7258 27.1055 12.4445 25.7109 13.4992 25.3359Z" fill="#4065D3"/>
<path d="M13.6753 28.8517C14.5308 28.7111 18.5035 28.6994 19.3589 28.84C20.2144 28.9807 20.5425 30.5392 19.4527 30.7736C17.648 30.5744 15.3043 31.0314 13.5699 30.7736C12.5621 30.6213 12.4918 29.0627 13.6753 28.8635V28.8517Z" fill="#4065D3"/>
<path d="M13.4996 32.4492H19.4527C20.5074 32.7188 20.4722 34.1953 19.3589 34.3594C17.6363 34.1719 15.2339 34.6406 13.5816 34.3477C11.9293 34.0547 12.5503 32.7773 13.4878 32.4492H13.4996Z" fill="#4065D3"/>
</g>
<defs>
<clipPath id="clip0_875_17736">
<rect width="45" height="45" fill="white"/>
</clipPath>
</defs>
</svg>
