<svg width="45" height="45" viewBox="0 0 45 45" fill="none" xmlns="http://www.w3.org/2000/svg">
<g clip-path="url(#clip0_875_17745)">
<path d="M17.5774 18.8086V27.5508C17.6478 28.043 18.1751 28.1016 18.5853 28.1367C19.9915 28.2422 22.8509 28.2891 24.2103 28.1367C24.7728 28.0664 25.0306 27.7969 25.054 27.2227V18.8203C25.7571 18.4219 26.2962 17.7539 26.9876 17.3203V27.6328C26.847 28.4062 26.472 29.0977 25.8392 29.5664C25.2063 30.0352 25.3118 29.7656 25.3118 29.7891V38.3203H28.429C29.4017 38.3203 30.8431 39.7734 30.8431 40.7344V43.0664H33.8782C33.9603 43.0664 34.3353 43.4062 34.4056 43.5117C34.7806 44.1211 34.4407 44.6602 33.9251 45H8.69463C8.06182 44.707 7.71026 43.9453 8.24932 43.3711C8.78838 42.7969 8.70635 43.0664 8.72979 43.0664H11.6712V41.0039C11.6712 39.9258 12.9837 38.3203 14.0853 38.3203H17.2962V29.9297C16.4642 29.4844 15.8196 28.8633 15.6321 27.9023V17.3203C16.0423 17.7773 17.0149 18.5039 17.554 18.8203L17.5774 18.8086ZM23.3782 30.0586H19.2532V38.3203H23.3782V30.0586ZM28.9212 43.0664V41.0039C28.9212 40.6523 28.2767 40.1719 27.9134 40.2539H14.554C14.3079 40.2305 13.722 40.6055 13.722 40.8281V43.0664H28.9329H28.9212Z" fill="#140505"/>
<path d="M27.0704 0C27.6094 0.28125 27.8204 0.714844 27.668 1.33594C27.5157 1.95703 27.1993 1.93359 27.0352 1.93359H24.3516V5.27344C23.8477 5.0625 22.9337 4.72266 22.418 4.66406V1.94531H20.1329V4.66406C19.8868 4.6875 18.4337 5.09766 18.1993 5.19141V1.93359H15.6094C15.4571 1.93359 15.0821 1.62891 15.0001 1.48828C14.6134 0.867187 14.9649 0.257812 15.5626 0L27.0704 0Z" fill="#140505"/>
<path d="M22.4069 4.66504C22.9225 4.72363 23.8366 5.06348 24.3405 5.27441C25.8522 5.93066 27.2819 7.23144 28.0319 8.69629C28.7819 10.1611 28.653 10.1611 28.735 10.6299C28.9225 11.6025 28.8756 12.9971 28.6413 13.9697C28.4069 14.9424 28.1842 15.458 27.9381 15.9033C27.692 16.3486 27.0358 16.9229 26.9772 17.3096C26.2975 17.7314 25.7467 18.3994 25.0436 18.8096C22.7819 20.0869 19.8288 20.0752 17.567 18.8096C17.0163 18.5049 16.0553 17.7783 15.6335 17.3096C15.2116 16.8408 14.3678 15.4814 14.1335 14.8486C13.8991 14.2158 13.7233 13.1963 13.6881 12.5635C13.5358 9.65723 15.4577 6.31738 18.1647 5.18066C18.3991 5.08691 19.8522 4.67676 20.0983 4.65332C20.6022 4.59473 21.8795 4.59473 22.3835 4.65332L22.4069 4.66504ZM20.4616 6.62207C18.4108 6.85645 16.5006 8.55566 15.9147 10.5127C14.4733 15.2822 19.3835 19.4658 23.86 17.2275C29.3444 14.4736 27.0124 5.89551 20.4733 6.63379L20.4616 6.62207Z" fill="#4065D3"/>
<path d="M14.1556 14.8594C12.89 15.9492 11.929 17.3789 10.5814 18.3516H4.45245C3.40949 18.0352 3.50324 16.6875 4.55792 16.4531L9.94855 16.3945C11.1204 15.0469 12.4329 13.8047 13.722 12.5742C13.7571 13.207 13.9446 14.2617 14.1673 14.8594H14.1556Z" fill="#140505"/>
<path d="M28.0312 8.69486C30.2109 8.82377 32.6016 8.51908 34.7578 8.69486C36.9844 8.87064 39.0703 10.687 39.7148 12.7847C40.2187 14.437 39.8906 16.2886 39.9844 18.0113C41.2852 17.812 41.8125 19.3589 40.6055 19.898L32.1445 19.9214C30.8789 19.4175 31.3477 17.8003 32.6953 18.0113V15.9019H27.9492C28.1953 15.4566 28.5352 14.4722 28.6523 13.9683C30.2227 14.0972 32.0625 13.7925 33.6094 13.9683C33.7969 13.9917 34.125 14.0738 34.2773 14.1792C34.4297 14.2847 34.6289 14.648 34.6289 14.7066V17.9995H38.0508V14.0855C38.0508 12.48 36.1406 10.7456 34.582 10.605C32.7188 10.441 30.6211 10.7339 28.7344 10.605C28.6523 10.1363 28.2539 9.10502 28.0312 8.67142V8.69486Z" fill="#140505"/>
<path d="M36.1874 21.6447C36.5507 21.5861 36.6445 21.6447 36.914 21.8439C37.4296 22.2306 39.5976 24.9025 39.8554 25.4884C41.5429 29.297 36.8085 32.7189 33.7499 29.9298C30.9257 27.3517 33.4101 24.3048 35.3788 22.2423C35.6132 21.9962 35.8476 21.7033 36.1874 21.6447ZM36.4687 24.1759C36.3632 24.0939 36.0702 24.4337 35.9882 24.5275C35.6132 24.9376 34.6288 26.0861 34.5116 26.5665C33.914 29.004 37.289 29.8829 38.0976 27.8673C38.7538 26.2384 37.1601 25.3829 36.4687 24.1759Z" fill="#4065D3"/>
<path d="M25.0547 18.8086V27.2109C25.043 27.7969 24.7852 28.0664 24.2227 28.125C22.8633 28.2773 20.0039 28.2305 18.5977 28.125C18.1875 28.0898 17.6602 28.043 17.6016 27.5391V18.7969C19.8516 20.0625 22.8047 20.0742 25.0664 18.7969L25.0547 18.8086Z" fill="#FEFEFE"/>
<path d="M28.9219 43.0679H13.7109V40.8296C13.7109 40.6069 14.2969 40.2319 14.543 40.2554H27.9023C28.2656 40.1733 28.9102 40.6538 28.9102 41.0054V43.0679H28.9219Z" fill="#FEFEFE"/>
<path d="M23.3672 30.0586H19.2422V38.3203H23.3672V30.0586Z" fill="#FEFEFE"/>
<path d="M20.1328 4.66406V1.94531H22.418V4.66406C21.9141 4.60547 20.6367 4.60547 20.1328 4.66406Z" fill="#FEFEFE"/>
<path d="M20.461 6.62098C27.0001 5.8827 29.3321 14.4725 23.8477 17.2147C19.3711 19.4647 14.4727 15.2811 15.9024 10.4999C16.4883 8.54286 18.4102 6.84364 20.4493 6.60927L20.461 6.62098ZM20.8946 8.90614C16.6524 9.39833 17.1915 16.0077 21.8321 15.4686C25.8633 14.9882 25.3008 8.40224 20.8946 8.90614Z" fill="#FEFEFE"/>
<path d="M28.7344 10.6412C30.6211 10.7701 32.7188 10.4771 34.582 10.6412C36.1406 10.7701 38.0508 12.5045 38.0508 14.1217V18.0357H34.6289V14.7428C34.6289 14.6842 34.3594 14.274 34.2773 14.2154C34.125 14.11 33.7969 14.0279 33.6094 14.0045C32.0625 13.817 30.2344 14.1217 28.6523 14.0045C28.875 13.0318 28.9219 11.6373 28.7461 10.6646L28.7344 10.6412Z" fill="#FEFEFE"/>
<path d="M36.469 24.1746C37.1604 25.37 38.7424 26.2371 38.0979 27.8661C37.2893 29.8817 33.9143 29.0028 34.5119 26.5653C34.6291 26.0848 35.6135 24.9364 35.9885 24.5262C36.3635 24.1161 36.3635 24.0926 36.469 24.1746Z" fill="#FEFEFE"/>
<path d="M20.8942 8.90639C25.2887 8.40248 25.863 14.9884 21.8317 15.4689C17.1911 16.0197 16.6637 9.39858 20.8942 8.90639ZM22.2887 13.1486C22.8161 12.5861 22.7927 11.7306 22.2302 11.2033C21.1051 10.1251 19.3239 11.4494 20.0973 12.8908C20.8708 14.3322 21.6911 13.7697 22.277 13.1486H22.2887Z" fill="#140505"/>
<path d="M22.2893 13.1479C21.7034 13.769 20.5198 13.6518 20.1096 12.8901C19.3362 11.4487 21.1174 10.1245 22.2424 11.2026C23.3674 12.2807 22.8284 12.5854 22.301 13.1479H22.2893Z" fill="#FEFEFE"/>
</g>
<defs>
<clipPath id="clip0_875_17745">
<rect width="45" height="45" fill="white"/>
</clipPath>
</defs>
</svg>
