<svg width="45" height="45" viewBox="0 0 45 45" fill="none" xmlns="http://www.w3.org/2000/svg">
<g clip-path="url(#clip0_875_17748)">
<path d="M17.4023 0C17.8359 0.234375 18.0586 0.410156 18.1055 0.914062C18.2695 2.69531 17.9766 4.73438 18.1055 6.53906C18.1289 6.76172 17.5898 7.28906 17.4492 7.28906H15.4687C15.5742 8.89453 15.3281 10.6758 15.4687 12.2578C15.6094 13.9805 17.0977 15.7148 18.8086 15.9844V14.3555C18.8086 13.9102 19.4062 13.5 19.8281 13.4414C20.7539 13.3125 24.3633 13.3008 25.2539 13.4531C26.5195 13.6641 26.1797 15.1992 26.2031 16.1602C26.2266 17.1211 26.2031 17.4492 26.2031 18.0938C26.2148 21.0469 26.2148 24.0117 26.2031 26.9766C26.2031 27.6445 26.2031 28.3242 26.2031 28.9922C26.2031 29.6602 26.4961 31.3125 25.2539 31.5234C24.3633 31.6758 20.7539 31.6641 19.8281 31.5352C19.4062 31.4766 18.8086 31.0664 18.8086 30.6211V28.8164C16.9687 28.875 15.2109 28.8164 13.4297 28.3477C8.58984 27.0938 4.54687 23.1797 3.21094 18.3516C2.22656 14.8008 2.78906 10.9336 2.63672 7.27734H0.65625C0.503906 7.27734 0.117187 6.79688 0 6.66797V0.609375C0.234375 0.363281 0.398438 0.175781 0.703125 0H17.4023ZM16.1719 1.93359H1.93359V5.35547H16.1719V1.93359ZM13.4531 7.28906H4.66406V15.5977C5.16797 20.707 8.82422 25.0781 13.7812 26.4258C15.4453 26.8828 17.0859 26.9414 18.8086 26.8945V18.0117C16.7695 17.6836 14.9297 16.3242 14.0742 14.4375C13.2187 12.5508 13.5703 9.63281 13.4414 7.28906H13.4531ZM24.1641 15.4688H20.8242V29.5312H24.1641V15.4688Z" fill="#140505"/>
<path d="M26.1914 16.1718C32.3672 15.6679 38.3438 18.8085 40.9688 24.4569C42.9258 28.6757 42.2344 33.1757 42.3633 37.6991H44.25C44.5195 37.6991 44.8945 38.1562 45 38.4022V44.2851C44.8008 44.6249 44.6367 44.789 44.2969 44.9882H27.5977C27.2227 44.789 26.9648 44.6015 26.9063 44.1444C27.0117 42.3983 26.7305 40.4179 26.9063 38.6952C26.9414 38.3085 27.2109 37.6874 27.6562 37.6874H29.543C29.4375 36.0585 29.6836 34.2421 29.543 32.6249C29.4023 30.9726 27.8672 29.1913 26.2031 28.9804C26.2031 28.3124 26.2031 27.6327 26.2031 26.9647C28.2539 27.2812 30.0703 28.6522 30.9375 30.539C31.9336 32.7187 31.4414 35.3554 31.5703 37.6874H40.3594V29.3788C39.8086 23.6249 35.2383 18.8905 29.4961 18.1874C28.4062 18.0585 27.3047 18.0937 26.2148 18.0937C26.2148 17.4491 26.2148 16.8046 26.2148 16.1601L26.1914 16.1718ZM43.0664 39.6327H28.8281V43.0546H43.0664V39.6327Z" fill="#4065D3"/>
<path d="M26.1914 18.1055C27.293 18.1055 28.3828 18.0703 29.4727 18.1992C35.2266 18.9023 39.7852 23.6367 40.3477 29.3906V37.6992H31.5586C31.4414 35.3672 31.9219 32.7305 30.9258 30.5508C30.0586 28.6641 28.2422 27.293 26.1914 26.9766C26.2031 24.0234 26.2031 21.0586 26.1914 18.0938V18.1055Z" fill="#FEFEFE"/>
<path d="M13.4531 7.28906C13.5703 9.63281 13.0781 12.2461 14.0859 14.4375C15.0937 16.6289 16.7812 17.6836 18.8203 18.0117V26.8945C17.0977 26.9531 15.457 26.8828 13.793 26.4258C8.83594 25.0781 5.17969 20.707 4.66406 15.5977V7.28906H13.4531Z" fill="#FEFEFE"/>
<path d="M16.1719 1.93359H1.93359V5.35547H16.1719V1.93359Z" fill="#FEFEFE"/>
<path d="M24.1758 15.4688H20.8359V29.5312H24.1758V15.4688Z" fill="#FEFEFE"/>
<path d="M43.0664 39.6328H28.8281V43.0547H43.0664V39.6328Z" fill="#FEFEFE"/>
</g>
<defs>
<clipPath id="clip0_875_17748">
<rect width="45" height="45" fill="white"/>
</clipPath>
</defs>
</svg>
