<svg width="45" height="45" viewBox="0 0 45 45" fill="none" xmlns="http://www.w3.org/2000/svg">
<g clip-path="url(#clip0_875_17751)">
<path d="M18.7266 29.8823C18.7266 28.1245 18.7266 26.3666 18.7266 24.6088C18.1055 24.6557 17.0156 24.6674 16.8867 23.8588C16.7578 23.0502 16.793 20.4135 16.8867 19.6401C16.9805 18.8667 17.2969 18.8432 17.7188 18.8081C20.7773 19.019 24.1992 18.5268 27.2227 18.8081C27.6797 18.8549 27.9492 19.0659 28.125 19.4877C28.043 20.8354 28.3008 22.4643 28.1484 23.7768C28.043 24.6791 27 24.6557 26.2969 24.6088C26.2969 26.3666 26.2969 28.1245 26.2969 29.8823C26.2969 31.6401 26.2969 31.1713 26.2969 31.8159C26.2969 32.8588 26.1797 34.3002 26.2969 35.2963C26.4141 36.2924 26.332 35.601 26.4375 35.601H39.2227C39.2227 34.851 39.0586 34.101 39.9023 33.7729C41.2266 33.8784 43.0078 33.562 44.2734 33.7612C44.6367 33.8198 44.8008 34.1245 45.0234 34.3706V44.3081C44.8242 44.6479 44.6602 44.812 44.3203 45.0112H39.9258C39.0938 44.6713 39.2109 43.9331 39.2227 43.1596H5.80078C5.8125 43.9331 5.92969 44.6596 5.09766 45.0112H0.703125C0.363281 44.812 0.199219 44.6479 0 44.3081V34.3706C0.222656 34.1245 0.398438 33.8198 0.75 33.7612C2.01562 33.562 3.79688 33.8901 5.12109 33.7729C5.96484 34.101 5.80078 34.851 5.80078 35.601H18.5859C18.6797 35.601 18.7148 35.3901 18.7266 35.2963C18.8438 34.312 18.7266 32.8706 18.7266 31.8159C18.7266 30.7612 18.7266 30.5268 18.7266 29.8823ZM26.1914 20.7416H18.8086V22.6752H26.1914V20.7416ZM24.3516 24.6088H20.6602V36.6909C20.6602 36.9956 20.0391 37.5229 19.7344 37.5229H5.80078V41.2143H39.1992V37.5229H25.2656C24.9727 37.5229 24.3398 36.9838 24.3398 36.6909V24.6088H24.3516ZM3.86719 35.6831H1.93359V43.0659H3.86719V35.6831ZM43.0664 35.6831H41.1328V43.0659H43.0664V35.6831Z" fill="#4065D3"/>
<path d="M22.7578 0L42.2695 12.2578L42.5391 12.8672L42.4922 18.8906C41.6836 20.4258 40.5703 18.8906 39.5391 18.5391V31.1484C39.5391 31.4648 38.7422 31.8398 38.4375 31.8047H26.2617C26.2617 31.1602 26.2617 30.5156 26.2617 29.8711L37.6055 29.7773V17.25L22.5234 7.80469L22.3125 7.85156L7.37109 17.2148V29.7422L18.7148 29.8711C18.7148 30.5156 18.7148 31.1602 18.7148 31.8047H6.55078C6.24609 31.8398 5.44922 31.4648 5.44922 31.1484V18.5391C4.44141 18.9023 3.30469 20.4141 2.49609 18.8906L2.44922 12.8672L2.71875 12.2578L22.2422 0H22.7695H22.7578ZM40.6055 16.7812V13.4883L22.5234 2.12109L4.39453 13.4531V16.793C4.75781 16.6758 5.10938 16.418 5.4375 16.2188C10.957 12.7852 16.418 9.25781 21.9375 5.82422C22.5703 5.41406 23.0039 5.82422 23.543 6.12891L40.6055 16.8047V16.7812Z" fill="#140505"/>
<path d="M44.2969 45C44.6367 44.8008 44.8008 44.6367 45 44.2969V45" fill="#FEFEFE"/>
<path d="M18.7266 29.8828L7.38281 29.7539V17.2266L22.3242 7.86328L22.5352 7.81641L37.6172 17.2617V29.7891L26.2734 29.8828C26.2734 28.125 26.2734 26.3672 26.2734 24.6094C26.9648 24.6562 28.0195 24.6797 28.125 23.7773C28.2773 22.4648 28.0195 20.8359 28.1016 19.4883C27.9258 19.0664 27.6562 18.8438 27.1992 18.8086C24.1875 18.5391 20.7539 19.0195 17.6953 18.8086C17.2734 18.8438 16.9102 19.2305 16.8633 19.6406C16.7695 20.4141 16.7578 23.1211 16.8633 23.8594C16.9687 24.5977 18.082 24.6562 18.7031 24.6094C18.7031 26.3672 18.7031 28.125 18.7031 29.8828H18.7266Z" fill="#FEFEFE"/>
<path d="M24.3516 24.6094V36.6914C24.3516 36.9961 24.9727 37.5234 25.2773 37.5234H39.2109V41.2148H5.80078V37.5234H19.7344C20.0273 37.5234 20.6602 36.9844 20.6602 36.6914V24.6094H24.3516Z" fill="#FEFEFE"/>
<path d="M26.1914 20.7422H18.8086V22.6758H26.1914V20.7422Z" fill="#FEFEFE"/>
<path d="M3.86719 35.6836H1.93359V43.0664H3.86719V35.6836Z" fill="#FEFEFE"/>
<path d="M43.0664 35.6836H41.1328V43.0664H43.0664V35.6836Z" fill="#FEFEFE"/>
<path d="M40.6055 16.7812L23.543 6.11719C23.0039 5.8125 22.5703 5.40234 21.9375 5.8125C16.418 9.24609 10.957 12.7734 5.4375 16.207C5.10938 16.4063 4.75781 16.6758 4.39453 16.7812V13.4414L22.5234 2.12109L40.6055 13.4883V16.7812Z" fill="#FEFEFE"/>
</g>
<defs>
<clipPath id="clip0_875_17751">
<rect width="45" height="45" fill="white"/>
</clipPath>
</defs>
</svg>
