<svg width="43" height="43" viewBox="0 0 43 43" fill="none" xmlns="http://www.w3.org/2000/svg">
<path fill-rule="evenodd" clip-rule="evenodd" d="M0.00012207 21.15C0.00012207 9.46919 9.46931 0 21.1501 0C32.831 0 42.3002 9.46919 42.3002 21.15C42.3002 32.8309 32.831 42.3 21.1501 42.3C9.46931 42.3 0.00012207 32.8309 0.00012207 21.15Z" fill="#FEFEFE"/>
<path fill-rule="evenodd" clip-rule="evenodd" d="M23.7232 14.0703H25.549V10.8906C25.2346 10.8477 24.1512 10.75 22.8899 10.75C20.2573 10.75 18.4543 12.4062 18.4543 15.4492V18.25H15.549V21.8047H18.4543V30.75H22.0149V21.8047H24.8027L25.2459 18.25H22.0149V15.8008C22.0149 14.7734 22.2914 14.0703 23.7232 14.0703Z" fill="#666666"/>
</svg>
