<svg width="50" height="50" viewBox="0 0 50 50" fill="none" xmlns="http://www.w3.org/2000/svg">
<rect width="50" height="50" rx="4.44444" fill="#7DA0F9" fill-opacity="0.3"/>
<path d="M35.5028 17.3017C35.7654 17.5646 35.9129 17.921 35.9129 18.2925C35.9129 18.6641 35.7654 19.0205 35.5028 19.2834L21.9485 32.8377C21.6856 33.1003 21.3292 33.2478 20.9576 33.2478C20.5861 33.2478 20.2297 33.1003 19.9668 32.8377L13.8907 26.7617C13.6427 26.4959 13.5076 26.1442 13.5139 25.7808C13.5202 25.4174 13.6673 25.0706 13.9243 24.8136C14.1814 24.5566 14.5281 24.4094 14.8916 24.4031C15.255 24.3968 15.6067 24.5319 15.8724 24.7799L20.9576 29.8651L33.5211 17.3017C33.784 17.0391 34.1404 16.8916 34.512 16.8916C34.8836 16.8916 35.2399 17.0391 35.5028 17.3017Z" fill="#4065D3"/>
</svg>
