<svg width="50" height="50" viewBox="0 0 50 50" fill="none" xmlns="http://www.w3.org/2000/svg">
<g clip-path="url(#clip0_1094_29316)">
<path d="M34.18 -0.104492C34.3233 -0.000325508 34.4795 0.0647787 34.6227 0.181966C38.0342 3.11165 41.0811 7.03092 44.4795 10.0518L44.7009 10.5205L44.6748 49.1273C44.5576 49.5439 44.2712 49.6742 43.9457 49.9085H5.96389C5.61233 49.583 5.26077 49.3356 5.27379 48.7887L5.32587 0.689779C5.44306 0.273112 5.72952 0.142904 6.05504 -0.0914714H34.18V-0.104492ZM32.8129 2.04395H7.42223V47.7471H42.5785V11.8096H33.8415C33.516 11.8096 32.8129 11.2106 32.8129 10.8851V2.04395ZM40.9118 9.66113L34.9483 3.60645V9.66113H40.9118Z" fill="#140505"/>
<path d="M32.8125 2.04395V10.8851C32.8125 11.2236 33.5026 11.8096 33.8411 11.8096H42.5781V47.7471H7.42188V2.04395H32.8125ZM22.1484 15.0648C20.4297 15.2341 19.0625 16.6273 18.8672 18.32C19.1667 23.6585 18.4245 29.5309 18.8672 34.8044C19.4792 42.3174 30.6641 42.3564 31.1719 34.6091C31.5365 29.0231 30.8984 23.0466 31.1589 17.4216C30.9766 16.1716 29.2057 16.1716 29.0234 17.3174V34.5049C28.5547 39.4528 21.7187 39.6221 21.0156 34.6872V18.5023C21.3411 16.8226 23.4896 16.7575 23.9062 18.4242L23.9323 33.932C24.1016 35.2992 26.0026 35.1299 26.0807 33.8278V18.3981C25.9115 16.458 24.1146 14.8695 22.1484 15.0518V15.0648Z" fill="#FEFEFE"/>
<path d="M40.9115 9.66113H34.9609V3.60645L40.9115 9.66113Z" fill="#FEFEFE"/>
<path d="M22.1487 15.0641C24.1149 14.8688 25.9118 16.4574 26.081 18.4105V33.8402C26.0029 35.1423 24.0889 35.3115 23.9326 33.9443L23.9066 18.4365C23.4899 16.7699 21.3415 16.835 21.0029 18.5147V34.6995C21.693 39.6344 28.542 39.4652 29.0107 34.5173V17.3298C29.193 16.1839 30.9639 16.1709 31.1461 17.4339C30.8857 23.0589 31.5237 29.0355 31.1592 34.6214C30.6514 42.3688 19.4665 42.3298 18.8545 34.8167C18.4248 29.5303 19.167 23.6709 18.8545 18.3324C19.0498 16.6266 20.417 15.2464 22.1357 15.0772L22.1487 15.0641Z" fill="#4065D3"/>
</g>
<defs>
<clipPath id="clip0_1094_29316">
<rect width="50" height="50" fill="white"/>
</clipPath>
</defs>
</svg>
