<svg width="70" height="70" viewBox="0 0 70 70" fill="none" xmlns="http://www.w3.org/2000/svg">
<g clip-path="url(#clip0_625_13011)">
<path d="M59.8827 0C60.0833 0.182292 60.8307 0.783854 60.8307 1.02083V12.5052C60.8307 12.5052 61.0129 12.7057 61.0312 12.7057H66.901C67.1926 12.7057 68.1041 13.7083 67.94 14.1276L67.8671 61.651C67.6301 62.3802 67.0833 62.6536 66.3541 62.7448H45.4999C46.4478 61.9792 47.9062 60.7214 48.6353 59.737H64.8958V47.1589C58.8255 46.3385 54.5234 40.2682 56.8932 34.3073C58.151 31.1536 61.5051 28.6198 64.8958 28.2917V15.7135H5.06764V59.737H21.7473C22.2577 60.4297 24.2629 62.1432 25.0286 62.7448H3.4817C2.86191 62.6719 2.36972 62.3255 2.15097 61.7422C1.96868 45.7005 1.98691 29.5859 2.15097 13.5443C2.58847 12.724 3.29941 12.6875 4.10149 12.487L58.9166 0H59.8827ZM57.8228 3.42708L17.2083 12.724H57.8228V3.42708ZM64.9322 31.3177C57.5312 32.8125 57.44 42.7474 64.9322 44.0417V31.3177Z" fill="#140505"/>
<path d="M48.6718 59.7549C47.9426 60.7393 46.4843 61.9971 45.5363 62.7627C44.5884 63.5284 45.3176 62.7992 45.19 62.8903C42.091 65.3513 38.8827 67.6664 35.6926 69.9997H34.8723C31.6822 67.6664 28.4738 65.333 25.3749 62.8903C25.2473 62.7992 25.0832 62.781 25.0285 62.7627C24.2629 62.1612 22.2577 60.4476 21.7473 59.7549C19.9426 57.3122 19.4504 53.8669 19.2863 50.932C19.0676 47.3773 18.8853 42.7107 19.1405 39.1742C19.3957 35.6377 19.4139 37.6429 20.5624 37.0414C25.0103 34.708 30.1145 33.0492 34.5988 30.6976C35.1457 30.5518 35.729 30.6065 36.2395 30.8435C40.6509 33.1039 45.6275 34.7627 50.0025 37.0414C50.6405 37.3695 51.315 37.6247 51.2785 38.4997C50.7134 45.1534 52.9374 54.0857 48.6718 59.7732V59.7549ZM48.2343 39.5388L35.328 33.7784L22.3124 39.5388V52.2992C22.6405 55.0518 23.5884 57.6768 25.7759 59.4815L35.2369 66.5726C38.19 64.3122 41.3619 62.2523 44.2238 59.8825C46.8488 57.7133 47.979 55.4711 48.2707 52.0258L48.2343 39.5388Z" fill="#4065D3"/>
<path d="M21.7293 59.7546H5.06787V15.7129H64.9507V28.291C61.5601 28.6191 58.2059 31.153 56.9481 34.3066C54.5783 40.2676 58.8804 46.3379 64.9507 47.1582V59.7363H48.6903C52.9377 54.0488 50.7137 45.1165 51.297 38.4629C51.3335 37.5879 50.659 37.3509 50.021 37.0046C45.646 34.7259 40.6694 33.0671 36.258 30.8066C35.7476 30.5697 35.1642 30.515 34.6173 30.6608C30.133 33.0124 25.047 34.6712 20.5809 37.0046C16.1147 39.3379 19.2684 37.7702 19.159 39.1374C18.9038 42.6738 19.0861 47.3405 19.3049 50.8952C19.4871 53.8119 19.9611 57.2572 21.7658 59.7181L21.7293 59.7546Z" fill="#FEFEFE"/>
<path d="M57.8229 3.42773V12.7246H17.2266L57.8229 3.42773Z" fill="#FEFEFE"/>
<path d="M64.9322 31.3184V44.0423C57.44 42.748 57.5311 32.8314 64.9322 31.3184Z" fill="#FEFEFE"/>
<path d="M48.2345 39.5397L48.271 52.0267C47.9793 55.4538 46.8491 57.7142 44.2241 59.8835C41.3621 62.2533 38.1903 64.3132 35.2371 66.5736L25.7762 59.4824C23.5887 57.696 22.6226 55.0527 22.2944 52.3001V39.5397L35.3465 33.7793L48.2528 39.5397H48.2345ZM40.4325 44.8626C40.159 44.8991 39.8127 45.0814 39.5757 45.2454L34.3804 50.4408C33.5783 49.821 32.5757 48.1803 31.5002 48.1074C30.3517 48.0163 29.6043 49.2194 30.0418 50.2767C30.4793 51.334 32.9403 52.9382 33.5601 53.8678C34.034 54.1777 34.5262 54.2324 35.0366 53.9772L41.9455 47.0866C42.4924 46.0293 41.5991 44.7168 40.4325 44.8809V44.8626Z" fill="#FEFEFE"/>
<path d="M40.4324 44.862C41.5991 44.6979 42.4923 46.0104 41.9454 47.0677L35.0366 53.9583C34.5262 54.2135 34.034 54.1589 33.56 53.849C32.9402 52.9193 30.3881 51.1146 30.0418 50.2578C29.6954 49.401 30.3517 48.0156 31.5001 48.0885C32.5574 48.1615 33.5782 49.8021 34.3803 50.4219L39.5756 45.2266C39.8126 45.0625 40.159 44.8802 40.4324 44.8438V44.862Z" fill="#4065D3"/>
</g>
<defs>
<clipPath id="clip0_625_13011">
<rect width="70" height="70" fill="white"/>
</clipPath>
</defs>
</svg>
