<svg width="137" height="63" viewBox="0 0 137 63" fill="none" xmlns="http://www.w3.org/2000/svg">
<path d="M63.0997 19.2449C63.0997 22.4445 60.5966 24.8022 57.5248 24.8022C54.4529 24.8022 51.9497 22.4445 51.9497 19.2449C51.9497 16.0227 54.4529 13.6875 57.5248 13.6875C60.5966 13.6875 63.0997 16.0227 63.0997 19.2449ZM60.6592 19.2449C60.6592 17.2454 59.2085 15.8774 57.5248 15.8774C55.8409 15.8774 54.3903 17.2454 54.3903 19.2449C54.3903 21.2243 55.8409 22.6124 57.5248 22.6124C59.2085 22.6124 60.6592 21.2218 60.6592 19.2449Z" fill="#EA4335"/>
<path d="M75.1266 19.2449C75.1266 22.4445 72.6234 24.8022 69.5515 24.8022C66.4797 24.8022 63.9766 22.4445 63.9766 19.2449C63.9766 16.0252 66.4797 13.6875 69.5515 13.6875C72.6234 13.6875 75.1266 16.0227 75.1266 19.2449ZM72.686 19.2449C72.686 17.2454 71.2354 15.8774 69.5515 15.8774C67.8678 15.8774 66.4171 17.2454 66.4171 19.2449C66.4171 21.2243 67.8678 22.6124 69.5515 22.6124C71.2354 22.6124 72.686 21.2218 72.686 19.2449Z" fill="#FBBC05"/>
<path d="M86.6518 14.0233V24.0006C86.6518 28.1047 84.2314 29.7809 81.37 29.7809C78.6765 29.7809 77.0554 27.9793 76.444 26.5061L78.5688 25.6217C78.9472 26.5261 79.8742 27.5935 81.3676 27.5935C83.1991 27.5935 84.3342 26.4635 84.3342 24.3362V23.537H84.249C83.7027 24.2109 82.6505 24.7998 81.3224 24.7998C78.5438 24.7998 75.998 22.3794 75.998 19.2649C75.998 16.1279 78.5438 13.6875 81.3224 13.6875C82.6479 13.6875 83.7003 14.2763 84.249 14.9303H84.3342V14.0257H86.6518V14.0233ZM84.5071 19.2649C84.5071 17.3081 83.2016 15.8774 81.5405 15.8774C79.8566 15.8774 78.446 17.3081 78.446 19.2649C78.446 21.2018 79.8566 22.6124 81.5405 22.6124C83.2016 22.6124 84.5071 21.2018 84.5071 19.2649Z" fill="#4285F4"/>
<path d="M90.473 8.17188V24.4582H88.0928V8.17188H90.473Z" fill="#34A853"/>
<path d="M99.7485 21.0726L101.643 22.3354C101.031 23.2399 99.558 24.7984 97.0125 24.7984C93.8554 24.7984 91.4976 22.358 91.4976 19.241C91.4976 15.9361 93.8754 13.6836 96.7394 13.6836C99.6232 13.6836 101.034 15.9787 101.495 17.219L101.748 17.8504L94.319 20.9273C94.8877 22.0423 95.7722 22.611 97.0125 22.611C98.2552 22.611 99.117 21.9997 99.7485 21.0726ZM93.918 19.0731L98.8841 17.011C98.611 16.317 97.7892 15.8334 96.822 15.8334C95.5817 15.8334 93.8554 16.9283 93.918 19.0731Z" fill="#EA4335"/>
<path d="M42.9395 17.7969V15.4392H50.8848C50.9625 15.8501 51.0025 16.3362 51.0025 16.8624C51.0025 18.6313 50.5189 20.8187 48.9605 22.3772C47.4446 23.9557 45.5078 24.7976 42.942 24.7976C38.1864 24.7976 34.1875 20.9239 34.1875 16.1683C34.1875 11.4127 38.1864 7.53906 42.942 7.53906C45.5729 7.53906 47.4471 8.57137 48.8552 9.91688L47.1915 11.5806C46.1818 10.6335 44.8137 9.89682 42.9395 9.89682C39.4668 9.89682 36.7507 12.6956 36.7507 16.1683C36.7507 19.6411 39.4668 22.4398 42.9395 22.4398C45.1921 22.4398 46.4749 21.5353 47.2968 20.7135C47.9632 20.047 48.4017 19.0949 48.5746 17.7945L42.9395 17.7969Z" fill="#4285F4"/>
<path d="M24.2112 47.5952L19.5616 51.6073L20.9782 57.6073C21.0563 57.933 21.0362 58.2746 20.9203 58.5889C20.8045 58.9032 20.598 59.176 20.3272 59.3731C20.0563 59.5701 19.7331 59.6824 19.3984 59.6959C19.0637 59.7093 18.7325 59.6232 18.4467 59.4485L13.2289 56.2372L8.00789 59.4485C7.72213 59.6222 7.39136 59.7075 7.05725 59.6935C6.72313 59.6796 6.40061 59.5671 6.13029 59.3703C5.85997 59.1734 5.65394 58.901 5.53814 58.5873C5.42235 58.2736 5.40196 57.9326 5.47955 57.6073L6.90129 51.6073L2.25171 47.5952C1.99887 47.3767 1.81602 47.0885 1.72598 46.7667C1.63594 46.4449 1.64271 46.1037 1.74544 45.7857C1.84817 45.4677 2.04231 45.187 2.30361 44.9787C2.56491 44.7703 2.8818 44.6436 3.21469 44.6143L9.31081 44.1225L11.6625 38.4314C11.7898 38.1212 12.0064 37.8559 12.2849 37.6692C12.5633 37.4825 12.891 37.3828 13.2263 37.3828C13.5615 37.3828 13.8892 37.4825 14.1677 37.6692C14.4461 37.8559 14.6628 38.1212 14.7901 38.4314L17.1407 44.1225L23.2368 44.6143C23.5704 44.6425 23.8882 44.7685 24.1504 44.9766C24.4127 45.1846 24.6077 45.4654 24.7111 45.7838C24.8145 46.1022 24.8216 46.444 24.7315 46.7664C24.6415 47.0888 24.4583 47.3775 24.205 47.5962L24.2112 47.5952Z" fill="#DB8616"/>
<path d="M51.6955 47.5952L47.046 51.6073L48.4625 57.6073C48.5407 57.933 48.5206 58.2746 48.4047 58.5889C48.2888 58.9032 48.0824 59.176 47.8115 59.3731C47.5406 59.5701 47.2174 59.6824 46.8828 59.6959C46.5481 59.7093 46.2169 59.6232 45.9311 59.4485L40.7132 56.2372L35.4923 59.4485C35.2065 59.6222 34.8757 59.7075 34.5416 59.6935C34.2075 59.6796 33.885 59.5671 33.6147 59.3703C33.3443 59.1734 33.1383 58.901 33.0225 58.5873C32.9067 58.2736 32.8863 57.9326 32.9639 57.6073L34.3857 51.6073L29.7361 47.5952C29.4832 47.3767 29.3004 47.0885 29.2104 46.7667C29.1203 46.4449 29.1271 46.1037 29.2298 45.7857C29.3325 45.4677 29.5267 45.187 29.788 44.9787C30.0493 44.7703 30.3662 44.6436 30.6991 44.6143L36.7952 44.1225L39.1468 38.4314C39.2741 38.1212 39.4908 37.8559 39.7692 37.6692C40.0477 37.4825 40.3754 37.3828 40.7106 37.3828C41.0459 37.3828 41.3736 37.4825 41.6521 37.6692C41.9305 37.8559 42.1472 38.1212 42.2745 38.4314L44.6251 44.1225L50.7212 44.6143C51.0548 44.6425 51.3726 44.7685 51.6348 44.9766C51.8971 45.1846 52.0921 45.4654 52.1955 45.7838C52.2988 46.1022 52.3059 46.444 52.2159 46.7664C52.1259 47.0888 51.9427 47.3775 51.6893 47.5962L51.6955 47.5952Z" fill="#DB8616"/>
<path d="M79.1726 47.5952L74.523 51.6073L75.9396 57.6073C76.0177 57.933 75.9976 58.2746 75.8817 58.5889C75.7659 58.9032 75.5595 59.176 75.2886 59.3731C75.0177 59.5701 74.6945 59.6824 74.3598 59.6959C74.0251 59.7093 73.6939 59.6232 73.4081 59.4485L68.1903 56.2372L62.9693 59.4485C62.6836 59.6222 62.3528 59.7075 62.0187 59.6935C61.6846 59.6796 61.362 59.5671 61.0917 59.3703C60.8214 59.1734 60.6154 58.901 60.4996 58.5873C60.3838 58.2736 60.3634 57.9326 60.441 57.6073L61.8627 51.6073L57.2131 47.5952C56.9603 47.3767 56.7774 47.0885 56.6874 46.7667C56.5974 46.4449 56.6041 46.1037 56.7069 45.7857C56.8096 45.4677 57.0037 45.187 57.265 44.9787C57.5263 44.7703 57.8432 44.6436 58.1761 44.6143L64.2722 44.1225L66.6239 38.4314C66.7512 38.1212 66.9678 37.8559 67.2463 37.6692C67.5247 37.4825 67.8524 37.3828 68.1877 37.3828C68.523 37.3828 68.8507 37.4825 69.1291 37.6692C69.4076 37.8559 69.6242 38.1212 69.7515 38.4314L72.1021 44.1225L78.1982 44.6143C78.5318 44.6425 78.8496 44.7685 79.1119 44.9766C79.3741 45.1846 79.5691 45.4654 79.6725 45.7838C79.7759 46.1022 79.783 46.444 79.693 46.7664C79.6029 47.0888 79.4198 47.3775 79.1664 47.5962L79.1726 47.5952Z" fill="#DB8616"/>
<path d="M106.662 47.5952L102.012 51.6073L103.429 57.6073C103.507 57.933 103.487 58.2746 103.371 58.5889C103.255 58.9032 103.049 59.176 102.778 59.3731C102.507 59.5701 102.184 59.6824 101.849 59.6959C101.514 59.7093 101.183 59.6232 100.897 59.4485L95.6795 56.2372L90.4586 59.4485C90.1728 59.6222 89.842 59.7075 89.5079 59.6935C89.1738 59.6796 88.8513 59.5671 88.581 59.3703C88.3107 59.1734 88.1046 58.901 87.9888 58.5873C87.873 58.2736 87.8526 57.9326 87.9302 57.6073L89.352 51.6073L84.7024 47.5952C84.4496 47.3767 84.2667 47.0885 84.1767 46.7667C84.0866 46.4449 84.0934 46.1037 84.1961 45.7857C84.2989 45.4677 84.493 45.187 84.7543 44.9787C85.0156 44.7703 85.3325 44.6436 85.6654 44.6143L91.7615 44.1225L94.1131 38.4314C94.2404 38.1212 94.4571 37.8559 94.7355 37.6692C95.014 37.4825 95.3417 37.3828 95.677 37.3828C96.0122 37.3828 96.3399 37.4825 96.6184 37.6692C96.8968 37.8559 97.1135 38.1212 97.2408 38.4314L99.5914 44.1225L105.688 44.6143C106.021 44.6425 106.339 44.7685 106.601 44.9766C106.863 45.1846 107.058 45.4654 107.162 45.7838C107.265 46.1022 107.272 46.444 107.182 46.7664C107.092 47.0888 106.909 47.3775 106.656 47.5962L106.662 47.5952Z" fill="#DB8616"/>
<path d="M134.146 47.5952L129.496 51.6073L130.913 57.6073C130.991 57.933 130.971 58.2746 130.855 58.5889C130.739 58.9032 130.533 59.176 130.262 59.3731C129.991 59.5701 129.668 59.6824 129.333 59.6959C128.998 59.7093 128.667 59.6232 128.381 59.4485L123.163 56.2372L117.942 59.4485C117.657 59.6222 117.326 59.7075 116.992 59.6935C116.658 59.6796 116.335 59.5671 116.065 59.3703C115.795 59.1734 115.589 58.901 115.473 58.5873C115.357 58.2736 115.337 57.9326 115.414 57.6073L116.836 51.6073L112.186 47.5952C111.933 47.3767 111.751 47.0885 111.661 46.7667C111.571 46.4449 111.577 46.1037 111.68 45.7857C111.783 45.4677 111.977 45.187 112.238 44.9787C112.499 44.7703 112.816 44.6436 113.149 44.6143L119.245 44.1225L121.597 38.4314C121.724 38.1212 121.941 37.8559 122.219 37.6692C122.498 37.4825 122.826 37.3828 123.161 37.3828C123.496 37.3828 123.824 37.4825 124.102 37.6692C124.381 37.8559 124.597 38.1212 124.725 38.4314L127.075 44.1225L133.171 44.6143C133.505 44.6425 133.823 44.7685 134.085 44.9766C134.347 45.1846 134.542 45.4654 134.646 45.7838C134.749 46.1022 134.756 46.444 134.666 46.7664C134.576 47.0888 134.393 47.3775 134.14 47.5962L134.146 47.5952Z" fill="#D3D3D3"/>
<g clip-path="url(#clip0_1910_2924)">
<path d="M134.15 47.5952L129.5 51.6073L130.917 57.6073C130.995 57.933 130.975 58.2746 130.859 58.5889C130.743 58.9032 130.537 59.176 130.266 59.3731C129.995 59.5701 129.672 59.6824 129.337 59.6959C129.002 59.7093 128.671 59.6232 128.385 59.4485L123.167 56.2372L117.946 59.4485C117.661 59.6222 117.33 59.7075 116.996 59.6935C116.662 59.6796 116.339 59.5671 116.069 59.3703C115.798 59.1734 115.592 58.901 115.477 58.5873C115.361 58.2736 115.34 57.9326 115.418 57.6073L116.84 51.6073L112.19 47.5952C111.937 47.3767 111.754 47.0885 111.664 46.7667C111.574 46.4449 111.581 46.1037 111.684 45.7857C111.787 45.4677 111.981 45.187 112.242 44.9787C112.503 44.7703 112.82 44.6436 113.153 44.6143L119.249 44.1225L121.601 38.4314C121.728 38.1212 121.945 37.8559 122.223 37.6692C122.502 37.4825 122.829 37.3828 123.165 37.3828C123.5 37.3828 123.828 37.4825 124.106 37.6692C124.385 37.8559 124.601 38.1212 124.729 38.4314L127.079 44.1225L133.175 44.6143C133.509 44.6425 133.827 44.7685 134.089 44.9766C134.351 45.1846 134.546 45.4654 134.65 45.7838C134.753 46.1022 134.76 46.444 134.67 46.7664C134.58 47.0888 134.397 47.3775 134.143 47.5962L134.15 47.5952Z" fill="#DB8616"/>
</g>
<defs>
<clipPath id="clip0_1910_2924">
<rect width="7.78051" height="23.3415" fill="white" transform="translate(111.22 37.5117)"/>
</clipPath>
</defs>
</svg>
