<svg width="58" height="58" viewBox="0 0 58 58" fill="none" xmlns="http://www.w3.org/2000/svg">
<g clip-path="url(#clip0_477_7786)">
<path d="M0 35.7955C0.377604 34.8742 1.04219 34.1039 2.09948 33.983C4.99948 33.6507 8.51875 34.2096 11.4792 34.0132C12.612 34.1945 13.3823 35.1309 13.488 36.2486C15.663 35.1158 17.8682 34.6929 20.3302 34.9044C24.6198 35.8408 28.9396 36.6565 33.199 37.6684C34.4375 37.9554 35.6156 38.0914 36.7182 38.7861C37.8208 39.4809 38.7422 40.8101 38.863 42.1393L39.1953 42.0789C42.9714 39.9492 46.7021 36.7924 50.4932 34.7986C53.5141 33.2278 57.5016 34.7684 57.8943 38.2877C57.9396 38.469 57.9698 38.6502 58.0151 38.8617V39.9945C57.9547 41.369 57.124 42.6981 55.976 43.4382C50.1609 47.2445 44.2703 51.0658 38.3797 54.7815C35.5401 56.5789 32.6703 58.0138 29.2719 57.7721C24.3932 56.9263 19.5448 55.8992 14.7115 54.8419C14.5 54.7966 14.3036 54.721 14.0922 54.6455C13.8807 54.57 13.6844 54.4643 13.488 54.3736C13.8505 54.5247 13.8354 55.8387 13.488 56.02C13.5786 56.02 13.6995 56.0955 13.6844 56.1559C13.337 57.2283 12.763 57.9382 11.5698 57.9986H1.93333C0.740104 57.9533 0.0604167 57.2585 0 56.0653V35.7955Z" fill="#140505"/>
<path d="M32.7457 0C35.6608 0.725 36.0384 3.2625 35.7968 5.89062C35.1624 6.25313 33.939 6.25313 33.3046 5.89062L33.0629 5.7849V3.76094C32.9572 3.11146 32.791 2.79427 32.0962 2.70365C30.3593 2.49219 27.852 2.5224 26.0999 2.68854C24.3478 2.85469 24.9671 3.21719 24.8916 4.19896L24.9218 5.72448L24.6801 5.89062C24.0457 6.25313 22.8223 6.25313 22.1879 5.89062C21.9614 3.2474 22.3239 0.740104 25.239 0H32.7457Z" fill="#140505"/>
<path d="M58.0003 38.8474C57.8039 38.7568 57.9097 38.4547 57.8795 38.2734H58.0003V38.8474Z" fill="#140505"/>
<path d="M24.6952 5.88945C25.1182 5.78372 25.5562 5.66289 26.0093 5.66289C27.9879 5.61758 30.0119 5.61758 31.9906 5.66289C33.9692 5.7082 32.8666 5.78372 33.3046 5.88945H35.7968C36.5822 5.88945 36.0536 6.0707 36.1744 6.01029C38.6062 6.26706 41.8687 5.63268 44.2098 6.01029C45.0557 6.14622 45.9166 6.99206 46.1583 7.79258C46.5208 8.9556 46.4452 14.5592 46.3244 16.0092C46.2036 17.4592 46.0978 17.4441 45.5994 18.003C45.101 18.5618 44.9197 18.4108 44.8593 18.7431V28.9384C44.6781 30.0863 43.9077 30.9624 42.79 31.2947C33.5765 31.4004 24.3025 31.4608 15.1041 31.2645C14.0619 30.9322 13.3671 30.1014 13.1405 29.0441C12.8989 27.6092 13.4728 19.1207 13.0197 18.5165C12.5666 17.9124 12.5666 18.2145 12.3853 18.0181C11.8869 17.4743 11.7208 16.7645 11.6603 16.0243C11.5395 14.5592 11.464 9.12174 11.7963 7.89831C12.1286 6.67487 12.8989 6.17643 13.7749 6.02539C16.1161 5.63268 19.3635 6.25195 21.8103 6.02539C21.9463 6.08581 22.1728 5.90456 22.1879 5.90456H24.6952V5.88945Z" fill="#4065D3"/>
<path d="M13.4878 51.8837V39.2718C15.4664 37.7462 17.5961 37.1572 20.1034 37.3989C24.6649 37.8218 29.906 39.9212 34.543 40.5254C37.7451 41.4166 36.7331 46.0082 33.4102 45.4041L20.5716 42.5947C18.9857 42.5192 18.6081 44.6186 20.1487 45.0567L33.4857 47.9265C35.6154 48.0775 37.0956 47.1713 38.3795 45.5702L51.8977 36.8853C54.6466 35.6921 56.8368 39.0754 54.6013 41.0692C48.3784 44.9207 42.3821 49.165 36.144 52.9713C33.8633 54.3608 32.0055 55.2671 29.1961 55.0556L13.4878 51.8989V51.8837Z" fill="#FEFEFE"/>
<path d="M10.9807 36.4766H2.49219V55.5078H10.9807V36.4766Z" fill="#FEFEFE"/>
<path d="M22.2029 18.3513L14.3638 16.418C14.2883 16.418 14.1675 16.1763 14.1675 16.131V8.65443C14.1675 8.65443 14.3185 8.48828 14.3336 8.48828H43.6659C43.6659 8.48828 43.8321 8.63932 43.8321 8.65443V16.131C43.8321 16.1763 43.7112 16.3878 43.6357 16.418L35.7966 18.3513L35.555 18.1701C35.5701 17.3997 34.7998 16.2518 33.9993 16.2216C31.5524 16.131 29.0149 16.131 26.5529 16.1159C25.6466 16.1159 24.7404 16.1159 23.8644 16.282C23.0185 16.4331 22.505 17.3544 22.4597 18.1549L22.218 18.3362L22.2029 18.3513Z" fill="#FEFEFE"/>
<path d="M22.2031 20.9651L22.4297 21.1312C22.1276 23.1703 22.7318 24.3635 24.2271 24.6958C27.5349 24.8167 30.9333 24.8167 34.2411 24.6052C35.525 24.5297 35.6911 22.0677 35.5703 21.1312L35.7969 20.9651L42.3672 19.2734V28.7286C42.3672 28.7286 42.2161 28.8948 42.201 28.8948H15.799C15.799 28.8948 15.6328 28.7437 15.6328 28.7286V19.2734L22.2031 20.9651Z" fill="#FEFEFE"/>
<path d="M35.7966 18.3525C35.857 19.153 35.8117 20.1499 35.7966 20.9504C35.7664 22.491 36.0534 24.1525 34.2711 24.802C31.1143 24.802 27.5497 25.1494 24.4081 24.9077C21.9914 24.7265 22.2331 22.7327 22.2029 20.9353C22.1726 19.1379 22.1424 19.1379 22.2029 18.3374C22.3086 16.9478 22.9581 16.0567 24.4081 15.9509C27.4893 15.7244 30.8877 16.1171 34.0143 15.9811C35.2226 16.3134 35.706 17.1291 35.7966 18.3374V18.3525Z" fill="#140505"/>
<path d="M33.3047 18.457H24.6953V22.4143H33.3047V18.457Z" fill="#FEFEFE"/>
</g>
<defs>
<clipPath id="clip0_477_7786">
<rect width="58" height="58" fill="white"/>
</clipPath>
</defs>
</svg>
