<svg width="20" height="20" viewBox="0 0 20 20" fill="none" xmlns="http://www.w3.org/2000/svg">
<path d="M20 9.06236V9.33319C19.5208 10.0624 18.9219 9.13528 18.5 8.82278L18.3594 8.78632V18.4738H19.5885C19.7448 18.4738 19.9323 18.6561 20 18.7863V19.0207C19.9115 19.1822 19.7969 19.3436 19.5938 19.3332H0.40625C0.197917 19.3436 0.0833333 19.1822 0 19.0207V18.7863C0.0677083 18.6561 0.255208 18.4738 0.411458 18.4738H1.64062V8.78632C1.10417 8.96861 0.552083 10.1249 0 9.33319V9.02069C0.0625 8.94778 0.125 8.86965 0.192708 8.80715C3.15104 6.10924 6.46354 3.67174 9.43229 0.979028C9.69271 0.791529 9.85938 0.520695 10.2135 0.702987C13.2812 3.36444 16.474 5.8957 19.5312 8.57278C19.7031 8.72382 19.8958 8.85924 20 9.06236ZM13.6719 18.479C14.9479 18.479 16.224 18.479 17.5 18.479V8.03111L10.0208 1.68215L9.90625 1.72382L2.5 8.0259V18.4738C3.77604 18.4738 5.05208 18.4738 6.32812 18.4738C7.60417 18.4738 6.90104 18.4738 7.1875 18.4738C9.0625 18.4738 10.9375 18.4738 12.8125 18.4738C13.099 18.4738 13.3854 18.4738 13.6719 18.4738V18.479Z" fill="#140505"/>
<path d="M13.672 18.4792C13.3855 18.4792 13.099 18.4792 12.8126 18.4792V14.4948H11.5417C11.2553 14.4948 11.073 13.9635 11.3282 13.7344C11.5834 13.5052 11.4897 13.6354 11.5001 13.6354H12.8074V11.25H7.18237V18.4792C6.89591 18.4792 6.60946 18.4792 6.323 18.4792V10.7656C6.32821 10.6042 6.46362 10.4844 6.59383 10.4115L13.297 10.3906C13.4584 10.401 13.5782 10.5312 13.6511 10.6615L13.6667 18.474L13.672 18.4792Z" fill="#4065D3"/>
</svg>
