<svg width="52" height="52" viewBox="0 0 52 52" fill="none" xmlns="http://www.w3.org/2000/svg">
<rect width="52" height="52" rx="10" fill="#7DA0F9" fill-opacity="0.3"/>
<path d="M18.0591 34.9322H22.0296V28.3147C22.0296 27.9397 22.1566 27.6256 22.4108 27.3724C22.6649 27.1191 22.979 26.9921 23.3531 26.9912H28.6471C29.0221 26.9912 29.3366 27.1182 29.5907 27.3724C29.8448 27.6265 29.9715 27.9406 29.9706 28.3147V34.9322H33.9411V23.0207L26.0001 17.065L18.0591 23.0207V34.9322ZM15.4121 34.9322V23.0207C15.4121 22.6016 15.5061 22.2045 15.694 21.8296C15.882 21.4546 16.1409 21.1457 16.4709 20.9031L24.4119 14.9474C24.8751 14.5944 25.4045 14.418 26.0001 14.418C26.5957 14.418 27.1251 14.5944 27.5883 14.9474L35.5293 20.9031C35.8601 21.1457 36.1195 21.4546 36.3075 21.8296C36.4954 22.2045 36.5889 22.6016 36.5881 23.0207V34.9322C36.5881 35.6601 36.3287 36.2835 35.8098 36.8023C35.291 37.3211 34.6681 37.58 33.9411 37.5792H28.6471C28.2721 37.5792 27.958 37.4521 27.7047 37.198C27.4515 36.9439 27.3245 36.6298 27.3236 36.2557V29.6382H24.6766V36.2557C24.6766 36.6307 24.5495 36.9452 24.2954 37.1993C24.0413 37.4534 23.7272 37.58 23.3531 37.5792H18.0591C17.3312 37.5792 16.7083 37.3202 16.1903 36.8023C15.6724 36.2843 15.413 35.661 15.4121 34.9322Z" fill="#4065D3"/>
</svg>
