<svg width="58" height="58" viewBox="0 0 58 58" fill="none" xmlns="http://www.w3.org/2000/svg">
<path d="M58 26.2807V27.0661C56.6104 29.1807 54.8734 26.4921 53.65 25.5859L53.2422 25.4801V53.5739H56.8068C57.2599 53.5739 57.8036 54.1025 58 54.4801V55.1598C57.7432 55.6281 57.4109 56.0963 56.8219 56.0661H1.17813C0.573958 56.0963 0.241667 55.6281 0 55.1598V54.4801C0.196354 54.1025 0.740104 53.5739 1.19323 53.5739H4.75781V25.4801C3.20208 26.0088 1.60104 29.3619 0 27.0661V26.1598C0.18125 25.9484 0.3625 25.7218 0.558854 25.5406C9.13802 17.7166 18.7443 10.6478 27.3536 2.83899C28.1089 2.29524 28.5922 1.50982 29.6193 2.03847C38.5156 9.7567 47.7745 17.0973 56.6406 24.8609C57.1391 25.2989 57.6979 25.6916 58 26.2807ZM39.6484 53.589C43.349 53.589 47.0495 53.589 50.75 53.589V23.29L29.0604 4.87805L28.7281 4.99888L7.25 23.2749V53.5739C10.9505 53.5739 14.651 53.5739 18.3516 53.5739C22.0521 53.5739 20.013 53.5739 20.8438 53.5739C26.2812 53.5739 31.7188 53.5739 37.1562 53.5739C37.987 53.5739 38.8177 53.5739 39.6484 53.5739V53.589Z" fill="#140505"/>
<path d="M39.6484 53.5896C38.8177 53.5896 37.9869 53.5896 37.1562 53.5896V42.0349H33.4708C32.6401 42.0349 32.1114 40.4943 32.8515 39.8297C33.5916 39.1651 33.3198 39.5427 33.35 39.5427H37.1411V32.625H20.8286V53.5896C19.9979 53.5896 19.1672 53.5896 18.3364 53.5896V31.2203C18.3515 30.7521 18.7442 30.4047 19.1218 30.1932L38.5609 30.1328C39.0291 30.163 39.3765 30.5406 39.588 30.9182L39.6333 53.5745L39.6484 53.5896Z" fill="#4065D3"/>
</svg>
