<svg width="70" height="70" viewBox="0 0 70 70" fill="none" xmlns="http://www.w3.org/2000/svg">
<g clip-path="url(#clip0_625_13023)">
<path d="M70.0002 23.4061V43.4947L69.1252 44.315L60.5028 46.9035L57.8595 50.9504C58.2606 51.6066 58.8621 51.9712 59.2267 52.6822C60.922 55.9087 58.4064 59.6457 54.8335 59.3358C54.5601 61.7421 52.2814 63.3098 49.9116 63.1639C49.3465 66.1171 46.3752 67.4843 43.6226 66.5728C42.4012 69.7264 38.4637 70.3098 36.0392 68.0676C35.146 68.9973 34.2163 69.7082 32.9403 69.9634H31.1538C29.8048 69.3254 28.4741 68.6509 28.0002 67.1014C25.2476 68.0129 22.2762 66.6092 21.7111 63.6926C19.2502 63.8202 16.9897 62.0702 16.7892 59.591C13.5262 59.6822 11.3205 56.4738 12.4507 53.3931C13.5809 50.3124 13.4168 51.9712 13.3621 51.7525C13.2345 51.2603 10.2085 48.7994 9.75277 48.1066C7.10954 46.8853 3.51839 46.5936 0.92985 45.4452C0.474121 45.2447 0.2736 44.8983 -0.0180664 44.552V24.4634C0.419434 23.7342 0.875163 23.2785 1.78662 23.4061L33.8153 32.8124C45.0262 28.6561 56.7476 25.9035 68.159 22.3124C69.0705 22.1848 69.5444 22.6405 69.9637 23.3697L70.0002 23.4061ZM66.9923 25.8671L40.0861 33.7603C36.2762 34.6535 32.284 36.9686 29.9325 40.1587C27.5809 43.3488 29.8778 43.2941 31.5731 42.7655C33.2684 42.2369 34.672 39.5207 35.6017 38.8645C37.2241 37.7343 37.771 39.2108 38.8283 40.0129C40.7423 41.453 43.3127 41.6718 45.4637 40.6691C47.6147 39.6665 46.9038 39.4843 47.6512 39.466C48.3986 39.4478 49.4012 40.3957 49.1824 41.3801C48.9637 42.3645 48.7267 41.8905 48.8543 42.1639C49.7476 42.8202 55.0887 48.7264 55.5627 48.7264C56.0366 48.7264 55.7814 48.5988 55.8908 48.4895C57.0939 47.2134 57.7137 44.6431 59.5002 44.0233L66.9923 41.8723V25.8853V25.8671ZM3.00798 26.9608V42.9478L11.0835 45.3358C11.8673 45.7186 15.2215 49.6561 15.659 49.6561C17.172 48.6353 18.12 46.7577 19.9246 46.1197C22.9325 45.0806 25.9585 47.3046 25.995 50.44C28.2554 50.7863 29.9507 52.5181 30.0054 54.8332C32.6121 55.2342 34.2892 57.2395 34.2528 59.8827C36.3309 60.4113 37.8257 62.1249 37.8986 64.3124C37.9351 65.2056 37.4429 65.4244 38.4455 66.0806C39.4481 66.7369 41.2345 65.9165 40.87 64.3488C40.7788 63.966 40.3778 63.7655 40.2684 63.4374C40.0132 62.6353 40.2319 61.815 41.034 61.4504C43.0392 60.5207 43.8595 64.4035 45.9559 63.7837C46.5575 63.6014 47.0314 62.8905 47.0132 62.2707C47.0132 60.94 44.3153 59.6457 44.0601 58.4244C43.8048 57.203 45.0991 56.1639 46.2658 56.7655C47.4325 57.3671 48.7814 59.7733 49.8934 60.1014C51.0054 60.4296 51.9533 59.591 51.9351 58.5884C51.9168 57.4764 49.0913 55.4165 48.3257 54.4322C47.1955 52.9738 48.3986 51.315 50.0939 51.9895C51.2241 52.7369 53.5757 55.9816 54.6877 56.2733C56.3647 56.7108 57.3856 55.0155 56.2736 53.7395L46.1382 43.6587C42.8205 44.9712 39.4116 44.2056 36.6043 42.1457C35.0366 43.4217 33.87 45.591 31.6642 45.828C27.271 46.2837 24.9012 41.6171 27.6356 38.2447C28.4012 37.2968 29.8595 36.2941 30.4976 35.3645C31.1356 34.4348 30.6798 35.2369 30.6252 35.0181L3.00798 26.9608ZM21.2918 48.854C21.0366 48.8723 20.6538 49.0728 20.4351 49.2369C19.8153 49.6744 15.9325 53.5572 15.5314 54.1587C14.4923 55.7264 16.133 57.3488 17.7736 56.2551C18.3387 55.8723 22.2397 51.9712 22.6226 51.4061C23.3882 50.2577 22.6226 48.7264 21.2918 48.854ZM26.6147 53.9217C26.2137 53.5025 25.5392 53.3749 24.9741 53.5025C24.0991 53.703 20.9455 57.604 19.9793 58.3332C19.2866 60.0832 20.8726 61.3775 22.422 60.229C23.8804 59.1535 25.3387 57.0389 26.7788 55.8358C27.0522 55.3072 27.0522 54.3775 26.6147 53.9217ZM25.0653 63.9478C25.7397 64.6587 26.633 64.4764 27.3439 63.9296C28.0548 63.3827 30.534 60.8853 30.8804 60.3566C31.8465 58.7889 30.133 57.203 28.5835 58.3332C28.1278 58.6613 25.1564 61.6327 24.9194 62.052C24.5366 62.69 24.5549 63.4191 25.0835 63.966L25.0653 63.9478ZM31.0809 66.5363C32.5757 68.1223 36.0757 64.8046 34.3257 63.2369C32.5757 61.6691 31.7918 63.4738 31.0991 64.4035C30.4064 65.3332 30.4611 65.8801 31.0991 66.5546L31.0809 66.5363Z" fill="#140505"/>
<path d="M36.6407 0.0358915C50.3125 1.56714 53.4297 20.8901 40.5964 26.4682C25.9401 32.8484 13.9636 13.3796 26.1771 3.17131C28.237 1.45777 30.6433 0.619225 33.2136 0.0176623C34.3073 0.108808 35.5651 -0.109942 36.6407 0.0176623V0.0358915ZM33.8698 3.08016C25.7214 3.86402 21.3646 13.4526 26.1771 20.1062C30.9167 26.6505 40.961 25.9578 44.6068 18.739C48.4714 11.0645 42.3646 2.25985 33.8698 3.08016Z" fill="#4065D3"/>
<path d="M3.00781 26.9609L30.625 35.0182C30.6797 35.2188 30.5703 35.237 30.4974 35.3646C29.8594 36.2943 28.401 37.2969 27.6354 38.2448C24.901 41.6172 27.2708 46.2656 31.6641 45.8281C36.0573 45.3906 35.0365 43.4401 36.6042 42.1458C39.4115 44.2057 42.8203 44.9714 46.138 43.6589L56.2734 53.7396C57.3854 55.0156 56.3646 56.7109 54.6875 56.2734C53.5755 55.9818 51.224 52.7188 50.0938 51.9896C48.3984 51.3151 47.1953 52.974 48.3255 54.4323C49.0912 55.4167 51.9167 57.4766 51.9349 58.5885C51.9349 59.5911 50.8412 60.375 49.8932 60.1016C48.9453 59.8281 47.2682 57.276 46.2656 56.7656C45.263 56.2552 43.7865 57.1302 44.0599 58.4245C44.3333 59.7188 46.9948 60.9583 47.013 62.2708C47.0313 63.5833 46.5391 63.6016 45.9557 63.7839C43.8412 64.4036 43.0208 60.5391 41.0339 61.4505C39.0469 62.362 40.0313 62.6354 40.2682 63.4375C40.5052 64.2396 40.7786 63.9661 40.8698 64.349C41.2344 65.9167 39.8307 67.0104 38.4453 66.0807C37.0599 65.151 37.9349 65.2057 37.8984 64.3125C37.8255 62.125 36.349 60.4115 34.2526 59.8828C34.2891 57.2396 32.612 55.2344 30.0052 54.8333C29.9505 52.5182 28.2552 50.7865 25.9948 50.4401C25.9583 47.2865 22.9323 45.0807 19.9245 46.1198C18.1016 46.7396 17.1719 48.6172 15.6589 49.6562C15.2214 49.6562 11.8672 45.737 11.0833 45.3359L3.00781 42.9479V26.9609Z" fill="#FEFEFE"/>
<path d="M66.9921 25.8678V41.8548L59.4999 44.0059C57.7317 44.6257 57.0937 47.196 55.8906 48.472C54.6875 49.748 55.7812 48.709 55.5624 48.709C55.0885 48.709 49.7473 42.8027 48.8541 42.1465C48.7265 41.873 49.1093 41.6908 49.1822 41.3626C49.4192 40.3783 48.6718 39.4303 47.651 39.4486C46.6302 39.4668 46.1562 40.3236 45.4635 40.6517C43.3124 41.6725 40.7239 41.4538 38.8281 39.9954C37.7708 39.1934 37.2239 37.7168 35.6015 38.847C34.6718 39.5033 32.3385 42.5111 31.5729 42.748C29.8776 43.2767 28.8749 41.5632 29.9322 40.1413C32.2656 36.9512 36.276 34.6543 40.0859 33.7428L66.9921 25.8496V25.8678Z" fill="#FEFEFE"/>
<path d="M21.2917 48.8533C22.6225 48.7439 23.3881 50.2569 22.6225 51.4053C22.2397 51.9705 18.3386 55.8715 17.7735 56.2543C16.1329 57.3481 14.4923 55.7257 15.5313 54.158C15.9324 53.5382 19.8152 49.6736 20.435 49.2361C21.0548 48.7986 21.0183 48.8897 21.2917 48.8533Z" fill="#FEFEFE"/>
<path d="M26.6144 53.9216C27.0519 54.3774 27.0519 55.3071 26.7785 55.8357C25.3384 57.0388 23.88 59.1534 22.4217 60.2289C20.854 61.3774 19.2863 60.0649 19.979 58.3331C20.9451 57.6039 24.117 53.7029 24.9738 53.5024C25.5207 53.3748 26.2134 53.5024 26.6144 53.9216Z" fill="#FEFEFE"/>
<path d="M25.065 63.9483C24.5363 63.4015 24.5181 62.6723 24.9009 62.0343C25.2837 61.3963 28.1092 58.6619 28.565 58.3155C30.1144 57.1853 31.8462 58.7895 30.8618 60.339C30.5337 60.8676 27.8905 63.4926 27.3254 63.9119C26.7603 64.3312 25.7212 64.641 25.0467 63.9301L25.065 63.9483Z" fill="#FEFEFE"/>
<path d="M31.0804 66.5365C30.4606 65.8802 30.6065 65.0599 31.0804 64.3854C31.5544 63.711 33.1585 62.1979 34.307 63.2188C36.057 64.8047 32.557 68.1224 31.0622 66.5183L31.0804 66.5365Z" fill="#FEFEFE"/>
<path d="M33.87 3.08064C42.383 2.26033 48.4898 11.065 44.607 18.7395C40.9611 25.9582 30.9169 26.651 26.1773 20.1067C21.3648 13.453 25.7215 3.8645 33.87 3.08064ZM36.5132 7.54679C36.4221 7.43741 36.659 6.43481 35.9481 5.85148C35.2372 5.26814 33.8153 5.55981 33.5601 6.59887C33.3049 7.63793 33.5601 7.69262 33.4689 7.82023C33.3778 7.94783 33.0861 7.9296 32.9585 8.05721C30.6981 9.93481 30.6616 13.1614 33.2684 14.7109C35.8752 16.2603 36.1669 15.5129 35.5835 16.8437C35.0002 18.1744 33.7606 16.8437 32.9403 16.9348C32.12 17.026 31.2267 18.3385 31.8465 19.2681C32.4663 20.1978 33.396 20.0885 33.4689 20.1614C33.5419 20.2343 33.4689 20.7629 33.5054 20.9999C33.7971 22.203 35.3283 22.6223 36.1304 21.6379C36.9325 20.6536 36.3491 20.1249 36.495 19.8879C36.6408 19.651 36.8778 19.7786 37.0054 19.651C39.2476 17.7916 39.3023 14.5468 36.6955 12.9973C34.0887 11.4478 33.7971 12.1952 34.3804 10.8645C34.9637 9.53377 35.7476 10.5911 36.4038 10.6822C38.2632 10.9739 39.1564 8.95043 37.5158 7.9296C35.8752 6.90877 36.5132 7.56502 36.4767 7.52856L36.5132 7.54679Z" fill="#FEFEFE"/>
<path d="M36.5132 7.54707C36.5496 7.58352 37.2788 7.78404 37.5522 7.94811C39.1928 8.96894 38.2996 10.9924 36.4402 10.7007C35.784 10.5913 34.8908 9.78925 34.4168 10.883C33.9428 11.9768 35.8569 12.5054 36.7319 13.0158C39.3387 14.5471 39.284 17.7919 37.0418 19.6695C34.7996 21.5471 36.5496 19.8518 36.5314 19.9064C36.3856 20.1434 36.6955 21.0002 36.1668 21.6564C35.3647 22.6408 33.8335 22.2215 33.5418 21.0184C33.2501 19.8153 33.5418 20.2528 33.5053 20.1799C33.4689 20.107 32.284 19.8882 31.883 19.2866C31.2632 18.357 31.883 17.0991 32.9767 16.9533C34.0705 16.8075 35.0731 18.1018 35.6199 16.8622C36.1668 15.6226 34.1798 15.2398 33.3048 14.7294C30.6981 13.1981 30.7345 9.95332 32.9949 8.07571C35.2553 6.19811 33.4871 7.89342 33.5053 7.83873C33.5783 7.71113 33.5053 6.98196 33.5965 6.61738C33.8517 5.57832 35.1642 5.21373 35.9845 5.86998C36.8048 6.52623 36.4585 7.43769 36.5496 7.56529L36.5132 7.54707Z" fill="#4065D3"/>
</g>
<defs>
<clipPath id="clip0_625_13023">
<rect width="70" height="70" fill="white"/>
</clipPath>
</defs>
</svg>
