<svg width="43" height="43" viewBox="0 0 43 43" fill="none" xmlns="http://www.w3.org/2000/svg">
<path fill-rule="evenodd" clip-rule="evenodd" d="M0.500122 21.15C0.500122 9.46919 9.96931 0 21.6501 0C33.331 0 42.8002 9.46919 42.8002 21.15C42.8002 32.8309 33.331 42.3 21.6501 42.3C9.96931 42.3 0.500122 32.8309 0.500122 21.15Z" fill="#F4F4F9"/>
<path fill-rule="evenodd" clip-rule="evenodd" d="M21.6514 9.87012C18.5879 9.87012 18.2035 9.88351 17.0003 9.93827C15.7994 9.99326 14.9797 10.1834 14.2625 10.4623C13.5206 10.7504 12.8912 11.1358 12.2642 11.7631C11.6368 12.3901 11.2514 13.0194 10.9623 13.7611C10.6827 14.4785 10.4923 15.2984 10.4383 16.4988C10.3845 17.7021 10.3704 18.0868 10.3704 21.1502C10.3704 24.2137 10.384 24.597 10.4385 25.8002C10.4937 27.0011 10.6839 27.8208 10.9626 28.538C11.2509 29.2799 11.6363 29.9093 12.2635 30.5363C12.8903 31.1637 13.5196 31.5501 14.2611 31.8382C14.9788 32.1171 15.7987 32.3072 16.9993 32.3622C18.2025 32.417 18.5868 32.4304 21.65 32.4304C24.7138 32.4304 25.097 32.417 26.3003 32.3622C27.5011 32.3072 28.3217 32.1171 29.0394 31.8382C29.7811 31.5501 30.4095 31.1637 31.0363 30.5363C31.6637 29.9093 32.0491 29.2799 32.3382 28.5383C32.6155 27.8208 32.8058 27.0009 32.8622 25.8005C32.9163 24.5973 32.9304 24.2137 32.9304 21.1502C32.9304 18.0868 32.9163 17.7023 32.8622 16.4991C32.8058 15.2982 32.6155 14.4785 32.3382 13.7613C32.0491 13.0194 31.6637 12.3901 31.0363 11.7631C30.4088 11.1356 29.7814 10.7502 29.0387 10.4623C28.3196 10.1834 27.4995 9.99326 26.2986 9.93827C25.0954 9.88351 24.7123 9.87012 21.6479 9.87012H21.6514ZM20.6395 11.9029C20.9398 11.9024 21.2749 11.9029 21.6514 11.9029C24.6632 11.9029 25.0201 11.9137 26.2095 11.9677C27.3093 12.018 27.9062 12.2018 28.3038 12.3562C28.8302 12.5606 29.2055 12.805 29.6001 13.1998C29.9949 13.5946 30.2393 13.9706 30.4442 14.4971C30.5986 14.8942 30.7826 15.4911 30.8327 16.5909C30.8868 17.78 30.8985 18.1372 30.8985 21.1476C30.8985 24.158 30.8868 24.5152 30.8327 25.7043C30.7824 26.8041 30.5986 27.4011 30.4442 27.7982C30.2398 28.3246 29.9949 28.6994 29.6001 29.094C29.2053 29.4888 28.8305 29.7332 28.3038 29.9377C27.9067 30.0928 27.3093 30.2761 26.2095 30.3264C25.0204 30.3804 24.6632 30.3922 21.6514 30.3922C18.6394 30.3922 18.2824 30.3804 17.0933 30.3264C15.9935 30.2756 15.3966 30.0918 14.9987 29.9374C14.4723 29.733 14.0963 29.4886 13.7015 29.0938C13.3067 28.699 13.0623 28.3239 12.8573 27.7973C12.703 27.4001 12.5189 26.8032 12.4689 25.7034C12.4148 24.5143 12.404 24.1571 12.404 21.1448C12.404 18.1325 12.4148 17.7772 12.4689 16.5881C12.5192 15.4883 12.703 14.8914 12.8573 14.4938C13.0618 13.9674 13.3067 13.5914 13.7015 13.1965C14.0963 12.8017 14.4723 12.5573 14.9987 12.3524C15.3963 12.1973 15.9935 12.014 17.0933 11.9635C18.1339 11.9165 18.5371 11.9024 20.6395 11.9V11.9029ZM27.6726 13.7758C26.9253 13.7758 26.319 14.3814 26.319 15.129C26.319 15.8763 26.9253 16.4826 27.6726 16.4826C28.4199 16.4826 29.0262 15.8763 29.0262 15.129C29.0262 14.3817 28.4199 13.7758 27.6726 13.7758ZM21.6515 15.3574C18.4524 15.3574 15.8586 17.9511 15.8586 21.1502C15.8586 24.3493 18.4524 26.9419 21.6515 26.9419C24.8505 26.9419 27.4433 24.3493 27.4433 21.1502C27.4433 17.9511 24.8505 15.3574 21.6515 15.3574ZM21.6514 17.3902C23.7279 17.3902 25.4115 19.0735 25.4115 21.1502C25.4115 23.2267 23.7279 24.9103 21.6514 24.9103C19.5747 24.9103 17.8914 23.2267 17.8914 21.1502C17.8914 19.0735 19.5747 17.3902 21.6514 17.3902Z" fill="#666666"/>
</svg>
