<svg width="43" height="43" viewBox="0 0 43 43" fill="none" xmlns="http://www.w3.org/2000/svg">
<path fill-rule="evenodd" clip-rule="evenodd" d="M0 21.15C0 9.46919 9.46919 0 21.15 0C32.8309 0 42.3 9.46919 42.3 21.15C42.3 32.8309 32.8309 42.3 21.15 42.3C9.46919 42.3 0 32.8309 0 21.15Z" fill="#FEFEFE"/>
<path d="M22.5491 29.75H18.5491V17.75H22.5491V19.75C23.4017 18.6652 24.6947 18.0186 26.0741 17.987C28.5547 18.0008 30.5563 20.0194 30.5491 22.5V29.75H26.5491V23C26.3891 21.8826 25.4309 21.0536 24.3021 21.056C23.8084 21.0716 23.3423 21.2878 23.0115 21.6546C22.6807 22.0215 22.5137 22.5073 22.5491 23V29.75ZM16.5491 29.75H12.5491V17.75H16.5491V29.75ZM14.5491 15.75C13.4445 15.75 12.5491 14.8546 12.5491 13.75C12.5491 12.6454 13.4445 11.75 14.5491 11.75C15.6536 11.75 16.5491 12.6454 16.5491 13.75C16.5491 14.2804 16.3384 14.7891 15.9633 15.1642C15.5882 15.5393 15.0795 15.75 14.5491 15.75Z" fill="#666666"/>
</svg>
