<svg width="89" height="31" viewBox="0 0 89 31" fill="none" xmlns="http://www.w3.org/2000/svg">
<mask id="mask0_1653_3868" style="mask-type:luminance" maskUnits="userSpaceOnUse" x="0" y="0" width="89" height="31">
<path d="M89 0H0V30.7365H89V0Z" fill="white"/>
</mask>
<g mask="url(#mask0_1653_3868)">
<path d="M6.34079 0V5.94859H12.4201C13.9825 5.94859 15.3552 7.13177 15.3552 8.78561C15.3552 10.3479 13.9825 11.5311 12.4201 11.5311H6.34079V21.2776C6.34079 23.5459 7.33441 24.7814 9.41315 24.7814C10.4525 24.7814 11.4919 24.5003 12.3482 24.2585C14.7603 23.6898 16.2769 25.2063 16.2769 26.9582C16.2769 27.9976 15.7539 29.0893 14.2897 29.7495C12.6358 30.5078 10.3152 30.7431 8.51759 30.7431C2.64745 30.7431 0 26.7229 0 21.4214V0.00653332H6.34079V0Z" fill="#FEFEFE"/>
<path d="M28.4551 30.7383C22.2582 30.7383 17.5712 26.7638 17.1005 21.1355C16.9567 19.2398 16.9567 16.259 17.1005 14.3699C17.5712 8.68928 22.2582 4.71484 28.4551 4.71484C34.6521 4.71484 39.2933 8.68928 39.764 14.3699C39.9078 16.259 39.9078 19.1941 39.764 21.0898C39.2933 26.7638 34.7044 30.7383 28.4551 30.7383ZM33.4689 15.3635C33.3251 12.6637 31.436 10.7746 28.4551 10.7746C25.4743 10.7746 23.6309 12.6703 23.3956 15.3635C23.304 16.6447 23.304 18.8672 23.3956 20.0962C23.6309 22.7959 25.4743 24.6851 28.4551 24.6851C31.436 24.6851 33.2794 22.7894 33.4689 20.0962C33.5605 18.8672 33.5605 16.6447 33.4689 15.3635Z" fill="#FEFEFE"/>
<path d="M58.5315 21.7932C59.0544 20.8453 59.8585 20.3289 61.0417 20.3289C62.8851 20.3289 64.114 21.7932 64.114 23.5908C64.114 26.2383 60.5187 30.7356 53.6092 30.7356C47.4122 30.7356 42.869 26.3821 42.3984 20.7995C42.2546 18.8581 42.2546 16.2564 42.3984 14.3672C42.7775 8.68665 47.458 4.71875 53.6092 4.71875C60.5645 4.71875 64.0682 9.11809 64.0682 11.7721C64.0682 13.524 62.8393 14.9882 60.9959 14.9882C59.8127 14.9882 59.0087 14.5176 58.4857 13.5697C57.4464 11.6283 55.8383 10.7785 53.7988 10.7785C50.7199 10.7785 48.9745 12.5761 48.6869 15.3216C48.5954 16.459 48.5954 18.5835 48.6869 19.8648C48.968 22.6103 50.6741 24.689 53.7988 24.689C55.8317 24.689 57.4921 23.7412 58.5315 21.7997" fill="#FEFEFE"/>
<path d="M77.5865 30.7383C71.3895 30.7383 66.7025 26.7638 66.2319 21.1355C66.0881 19.2398 66.0881 16.259 66.2319 14.3699C66.7025 8.68928 71.3895 4.71484 77.5865 4.71484C83.7835 4.71484 88.4247 8.68928 88.8953 14.3699C89.0391 16.259 89.0391 19.1941 88.8953 21.0898C88.4247 26.7638 83.8358 30.7383 77.5865 30.7383ZM82.6003 15.3635C82.4565 12.6637 80.5673 10.7746 77.5865 10.7746C74.6057 10.7746 72.7622 12.6703 72.5269 15.3635C72.4354 16.6447 72.4354 18.8672 72.5269 20.0962C72.7622 22.7959 74.6057 24.6851 77.5865 24.6851C80.5673 24.6851 82.4107 22.7894 82.6003 20.0962C82.6918 18.8672 82.6918 16.6447 82.6003 15.3635Z" fill="#FEFEFE"/>
</g>
</svg>
