<svg width="70" height="70" viewBox="0 0 70 70" fill="none" xmlns="http://www.w3.org/2000/svg">
<g clip-path="url(#clip0_625_12995)">
<path d="M3.11133 49.3895L3.88911 59.1118H29.5558L34.6113 45.5007L33.0558 42.7784L23.7224 37.334L11.278 39.2784L3.11133 49.3895Z" fill="#FEFEFE"/>
<path fill-rule="evenodd" clip-rule="evenodd" d="M0.808594 53.0802C0.88151 52.3511 1.22786 50.9656 1.42839 50.2C1.22951 50.9594 0.885325 52.3282 0.808594 53.062V53.0713C0.808745 53.0743 0.80889 53.0773 0.808594 53.0802ZM0.808594 53.0713V53.0802C0.80889 53.0773 0.808745 53.0743 0.808594 53.0713Z" fill="#4065D3"/>
<path d="M1.42839 50.2C1.22786 50.9656 0.88151 52.3511 0.808594 53.0802V53.062C0.759242 53.5358 0.779367 54.0363 0.799519 54.5374C0.816585 54.9619 0.83367 55.3868 0.808594 55.7964C0.863167 55.9811 0.912907 56.1668 0.962489 56.3518C1.12821 56.9705 1.29216 57.5825 1.62891 58.1297H7.07943C7.03447 58.1265 6.99517 58.125 6.95595 58.1235C6.77251 58.1164 6.59074 58.1094 5.83984 57.9292C5.78468 57.9159 5.73033 57.9034 5.67679 57.891C4.84575 57.6988 4.21361 57.5526 3.87109 55.6688C3.50651 53.6636 4.96484 52.2599 6.87891 52.0958C9.92318 51.8406 14.3893 51.8953 17.9622 52.0958C21.5352 52.2964 24.8893 54.3198 25.2721 58.1115C25.6098 58.1115 25.9553 58.1175 26.3036 58.1235C27.0085 58.1357 27.7243 58.1481 28.4076 58.1115C27.9336 53.1349 23.5221 49.4162 18.6367 49.088C15.1732 48.8511 10.1055 48.8875 6.60547 49.088C6.30408 49.1075 6.00269 49.1684 5.7013 49.2293C5.43759 49.2826 5.17387 49.3359 4.91016 49.3615C8.88411 37.9865 24.4701 35.1063 32.4544 44.1662C32.6666 44.401 32.8535 44.6643 33.0402 44.9271C33.3026 45.2965 33.5643 45.665 33.8945 45.9526C34.1042 45.4057 34.3411 44.8589 34.5781 44.312C34.8151 43.7651 35.0521 43.2182 35.2617 42.6714L32.8008 40.2833C30.905 38.8068 28.8633 37.4396 26.5117 36.8016C26.4817 36.6916 26.3804 36.7461 26.3763 36.7396C26.3729 36.7342 26.4354 36.6874 26.6576 36.4734C26.8469 36.2911 27.0524 36.1169 27.2606 35.9404C27.5937 35.658 27.9336 35.3698 28.2253 35.0333C33.0378 29.3276 30.0299 19.8302 22.7747 18.1896C15.2279 16.4761 9.08464 22.3094 9.85026 29.8745C10.1237 32.6453 11.8737 35.0698 13.9336 36.8016C7.86328 38.8068 3.05078 44.0203 1.42839 50.2ZM19.0924 20.9969C10.6341 22.0177 10.8164 34.9422 19.3294 35.7261C30.3034 36.7287 30.1029 19.6662 19.0924 20.9969Z" fill="#4065D3"/>
<path d="M70.0002 39.1006V39.921L63.9845 58.1137H68.9793C69.2528 58.1137 69.8908 58.9158 70.0002 59.2074V68.7777C69.7267 69.4158 69.508 69.671 68.9064 70.0173H0.984538L0.0366211 69.0694V59.2256L0.856934 58.1319H6.32568C11.8127 58.5876 18.8674 58.1866 24.5002 58.1319C30.133 58.0772 26.633 58.1866 27.6356 58.1319C28.6382 58.0772 28.5835 58.1319 28.7293 57.8949C30.0965 54.1033 31.5366 50.348 32.9767 46.5746C34.4168 42.8012 33.0496 46.1006 33.1043 45.9548C33.5236 44.8611 34.0522 43.7673 34.4715 42.6736C34.8908 41.5798 35.6564 38.809 36.3127 38.2986C36.9689 37.7881 36.6408 38.0616 36.8778 38.0434H68.7241C69.3804 38.0616 69.7267 38.6085 70.0184 39.1371L70.0002 39.1006ZM66.3179 41.0147H38.3726L31.883 58.1137H60.7215L66.3179 41.0147ZM66.9923 61.1033H3.0262V66.973H66.9923V61.1033Z" fill="#140505"/>
<path d="M66.9923 61.1033H3.0262V66.973H66.9923V61.1033Z" fill="#FEFEFE"/>
<path d="M66.3179 41.0147H38.3726L31.883 58.1137H60.7215L66.3179 41.0147Z" fill="#FEFEFE"/>
<path d="M65.4242 0.112776C67.6299 0.769026 69.0518 2.20913 69.8174 4.34194C69.945 4.6883 69.9997 5.05288 69.9997 5.41746V24.3576C69.9997 24.7768 69.9086 25.1961 69.7627 25.5971C69.4711 26.3263 69.1794 27.019 68.6325 27.6753C66.2445 30.5555 62.544 29.7352 59.1716 29.7716C58.2966 29.7716 57.4763 30.1362 56.8747 30.7742C55.8174 31.868 54.3409 33.5815 53.7575 33.9826C53.1742 34.3836 52.5544 34.3654 51.8982 33.9096C51.2419 33.4539 49.8929 31.8498 48.8539 30.7742C48.2523 30.1362 47.4138 29.7899 46.5388 29.7716C42.9659 29.7352 39.1742 30.5919 36.8226 27.2378C36.2211 26.3992 35.9112 25.4878 35.7653 24.5034C35.6195 23.519 35.7107 24.0477 35.7289 23.8107C36.0388 17.9227 35.2185 11.4695 35.7289 5.67267C35.9659 2.92007 37.7523 0.914859 40.2862 0.131005C42.82 -0.652849 40.906 -0.0148282 41.2341 -0.0148282H64.5492C64.8591 -0.0148282 65.169 0.0216301 65.4607 0.112776H65.4242ZM42.5284 26.782C43.5674 26.8185 44.6247 26.782 45.6638 26.782C46.7028 26.782 46.8851 26.7456 47.5961 26.7456C48.307 26.7456 49.2549 27.0919 49.8565 27.6753L50.531 28.3315C51.8252 29.6076 53.9034 29.5711 55.1429 28.2768C56.3825 26.9826 56.2914 27.1284 56.583 26.9826C57.3487 26.618 59.0622 26.8003 60.0101 26.782C60.9581 26.7638 62.1065 26.8185 63.1455 26.782C64.932 26.7274 66.0987 26.4904 66.7367 24.9409C67.3747 23.3914 66.9554 24.157 66.9737 23.7378V6.03726C66.9737 5.67267 66.9372 5.30809 66.8096 4.96173C66.4997 4.14142 65.8799 3.5034 65.0596 3.1935C64.2393 2.88361 64.2393 3.01121 63.82 3.01121C56.5831 2.95653 41.7627 2.99298 41.7627 2.99298C41.7627 2.99298 38.9496 2.83122 38.8887 5.05518C38.8278 7.27913 38.8887 7.38851 38.8887 7.38851L38.682 23.7013C38.682 23.7013 38.5542 26.7638 42.5101 26.7638C46.466 26.7638 42.5284 26.782 42.5284 26.782Z" fill="#140505"/>
<path d="M19.4689 21.074C30.4793 19.7433 30.6798 36.8058 19.7059 35.8032C11.1929 35.0376 11.0106 22.0949 19.4689 21.074Z" fill="#FEFEFE"/>
<path d="M42.5288 26.7979C43.0575 23.4619 45.1538 20.3812 48.271 18.9958C48.4168 18.7952 47.6877 17.9202 47.5418 17.6104C44.8986 12.2145 50.8413 6.65462 56.0184 9.80827C58.4064 11.2484 59.4272 14.4749 58.4429 17.0817C57.4585 19.6885 57.659 18.3031 57.422 18.9958C60.5028 20.29 62.745 23.4801 63.1642 26.7979C62.1252 26.8343 61.0679 26.7979 60.0288 26.7979C58.6616 18.9593 47.1226 18.9958 45.6825 26.7979C44.6434 26.7979 43.5861 26.8343 42.547 26.7979H42.5288ZM52.6095 11.9229C48.8726 12.251 49.1825 17.8838 52.8465 17.902C56.5106 17.9202 56.6746 11.5583 52.6095 11.9229Z" fill="#4065D3"/>
<path d="M60.0285 26.7969C59.0988 26.7969 57.367 26.6146 56.6014 26.9974C55.8175 27.3802 53.1196 30.625 52.8462 30.625L49.1274 26.9609C48.453 26.6328 46.5389 26.7969 45.6821 26.7969C47.1222 18.9948 58.6795 18.9583 60.0285 26.7969Z" fill="#FEFEFE"/>
<path d="M48.0887 48.0148C48.7085 47.8872 50.8777 47.9054 51.3882 48.197C52.3543 48.7439 52.3543 50.4028 51.3152 50.8403C50.2762 51.2778 48.1798 51.0955 47.6512 50.8403C46.4116 50.2023 46.7033 48.2882 48.0704 48.0148H48.0887Z" fill="#140505"/>
<path d="M52.6095 11.9213C56.6746 11.5567 56.8751 17.9369 52.8464 17.9005C48.8178 17.864 48.8725 12.2494 52.6095 11.9213Z" fill="#FEFEFE"/>
</g>
<defs>
<clipPath id="clip0_625_12995">
<rect width="70" height="70" fill="white"/>
</clipPath>
</defs>
</svg>
