<svg width="58" height="58" viewBox="0 0 58 58" fill="none" xmlns="http://www.w3.org/2000/svg">
<g clip-path="url(#clip0_477_7765)">
<path d="M23.2302 7.02498C23.2302 5.6656 23.0792 3.82289 23.2302 2.55414C23.3813 1.28539 24.0157 1.22498 24.8464 1.39112C25.6771 1.55727 25.8584 3.00727 25.8433 3.8531H30.4349C30.5709 3.8531 31.2052 4.07966 31.3714 4.17029C32.2776 4.66873 32.6552 5.83175 32.7761 6.78331C34.7698 6.94946 36.9901 6.61716 38.9386 6.78331C40.887 6.94946 40.4641 9.12446 38.712 9.2906C36.9599 9.45675 34.211 9.42654 32.7006 9.2906C31.1901 9.15466 30.3745 7.97654 30.0875 6.33018L25.9188 6.43591C25.8131 6.51143 25.7526 7.78018 25.7375 8.03696C25.6469 10.3328 25.7375 12.7495 25.7375 15.0604C25.7224 21.5552 25.7375 28.05 25.7375 34.5448C25.7375 41.0396 25.7375 36.2062 25.7375 37.037C25.7375 37.8677 25.7375 38.3963 25.7375 39.076V39.5291C25.7375 41.6437 25.7375 43.7583 25.7375 45.8729C27.5802 46.2203 27.6407 44.7854 28.411 43.6224C29.2417 42.3687 30.299 41.6135 31.8094 41.3567C39.3464 40.8432 46.8985 40.3146 54.4506 39.8765C55.236 39.8312 56.7464 39.4687 57.3959 39.8765C58.0453 40.2843 57.8641 40.4354 58.0151 40.7828V41.2359L47.3667 53.2437C46.687 52.9416 45.6599 52.4432 44.9953 52.2166L53.6651 42.3687C53.5443 42.4896 53.3782 42.4745 53.212 42.4896C46.1584 42.6859 39.1047 43.5468 32.0511 43.864C29.5136 44.6797 30.1782 48.0479 27.0365 48.3651C23.8646 48.6823 20.1943 48.1385 16.962 48.3651C15.1948 48.1385 14.8172 46.2656 12.9896 46.2203C9.84795 46.4468 6.69118 46.7036 3.53441 46.7942L7.8391 54.15C6.49482 54.0896 5.3016 53.3797 4.10837 52.9114L0.0151367 46.0995V45.314C0.453158 44.6495 0.891178 44.4984 1.66149 44.4078C5.46774 44 9.48545 44.0755 13.3219 43.7281C14.0771 43.8187 14.8323 44.0151 15.4969 44.3927C16.1615 44.7703 17.1584 45.888 17.2943 45.888H23.2453C23.2453 44.1208 23.2453 42.3385 23.2453 40.5713C23.2453 39.0609 23.2453 37.5505 23.2453 36.0401C23.2453 27.8536 23.2302 19.6521 23.2453 11.4505C23.2453 9.98539 23.2453 8.50518 23.2453 7.04008L23.2302 7.02498Z" fill="#140505"/>
<path d="M23.2304 7.02344C23.2304 8.48854 23.2304 9.96875 23.2304 11.4339C17.1132 18.2005 17.234 29.2266 23.2304 36.0234C23.2304 37.5339 23.2304 39.0443 23.2304 40.5547H1.08767C0.543924 40.5245 0.24184 40.0714 0.0152779 39.6484C0.0605904 38.7573 -0.0451388 37.8057 0.0152779 36.9297C0.0756946 36.0536 0.105903 36.8391 0.121007 36.7484C1.16319 23.5927 8.15642 7.73333 23.2304 7.02344ZM2.50747 38.0625H21.5387C15.059 30.3443 14.334 19.6505 20.0887 11.2979C20.3908 10.8599 20.7684 10.4672 21.0856 10.0292C21.4028 9.59115 21.3122 9.83281 21.146 9.74219C8.29236 12.0833 3.39861 26.5984 2.50747 38.0625Z" fill="#4065D3"/>
<path d="M4.09326 52.894C5.3016 53.3773 6.49483 54.0872 7.82399 54.1325C10.573 54.2533 12.4912 51.4893 15.9047 51.882C18.6235 52.1841 20.4662 54.8273 23.3662 53.8908C26.2662 52.9544 26.8703 51.6252 29.6193 51.882C32.625 52.1539 34.2714 55.0086 37.5188 53.7851C40.3131 52.7278 41.5667 51.0966 44.9651 52.2294C45.6448 52.4559 46.6719 52.9544 47.3365 53.2565C48.3636 53.7096 48.7261 54.2382 50.1157 54.1627C52.3964 54.057 54.6016 52.1237 56.4594 51.8971C57.275 51.8065 57.6224 52.1086 57.9849 52.7882V53.4679C57.8037 53.5888 57.7886 53.8304 57.6526 53.9815C57.3657 54.2836 52.9099 56.081 52.2453 56.2622C48.7261 57.2591 47.8802 56.1565 44.9349 54.9179C41.023 53.2716 39.875 56.3528 36.4162 56.6398C32.9573 56.9268 31.2657 54.2685 28.8188 54.3742C26.9006 54.4497 24.8011 56.4586 22.5959 56.6398C19.9677 56.8664 18.5933 55.2955 16.373 54.6007C13.473 53.6945 11.5547 56.3528 8.77555 56.6247C6.52503 56.8513 2.97555 55.3106 0.921387 54.3138C0.422949 54.0721 0.302116 53.9513 0.0151367 53.4679V52.7882C0.785449 50.9908 2.82451 52.3955 4.09326 52.9091V52.894Z" fill="#4065D3"/>
<path d="M25.7224 37.0352C25.7224 36.2044 25.7224 35.3737 25.7224 34.543H40.2224C34.5583 28.9544 29.7703 22.3992 26.0396 15.3607C25.949 15.1945 25.9943 14.9982 25.7224 15.0586C25.7224 12.7477 25.6318 10.331 25.7224 8.03516C27.2479 13.0951 29.9969 17.7018 32.9875 22.0065C36.2651 26.719 40.0714 31.5674 44.799 34.8904C45.4636 35.8117 45.0255 36.869 43.9078 37.0352H25.7224Z" fill="#4065D3"/>
<path d="M44.98 52.2297C41.5816 51.0969 40.3279 52.7432 37.5337 53.7854C34.2863 55.0089 32.6399 52.1542 29.6342 51.8823C26.8852 51.6406 25.6769 53.151 23.3811 53.8911C21.0852 54.6312 18.6383 52.1995 15.9196 51.8823C12.491 51.5047 10.5878 54.2536 7.83887 54.1328L3.53418 46.7771C6.69095 46.6865 9.84772 46.4297 12.9894 46.2031C14.817 46.2635 15.1946 48.1214 16.9618 48.3479C20.179 48.1214 23.8644 48.6802 27.0363 48.3479C30.1779 48.0307 29.5133 44.6625 32.0508 43.8469C39.1045 43.5297 46.1581 42.6688 53.2118 42.4724C53.3628 42.4724 53.5441 42.4724 53.6649 42.3516L44.9951 52.1995L44.98 52.2297Z" fill="#FEFEFE"/>
</g>
<defs>
<clipPath id="clip0_477_7765">
<rect width="58" height="58" fill="white"/>
</clipPath>
</defs>
</svg>
