<svg width="52" height="52" viewBox="0 0 52 52" fill="none" xmlns="http://www.w3.org/2000/svg">
<rect width="52" height="52" rx="10" fill="#7DA0F9" fill-opacity="0.3"/>
<path d="M18.9011 18.9002H33.0991V23.5855L26.0001 21.2665L18.9011 23.5855M16.4638 34.2814H16.5348C18.4279 34.2814 20.0843 33.2402 21.2675 31.915C22.4506 33.2402 24.1071 34.2814 26.0001 34.2814C27.8932 34.2814 29.5496 33.2402 30.7328 31.915C31.9159 33.2402 33.5724 34.2814 35.4654 34.2814H35.5246L37.7726 26.366C37.8673 26.0702 37.8318 25.7389 37.7016 25.4549C37.5478 25.171 37.2994 24.958 36.9917 24.8634L35.4654 24.3664V18.9002C35.4654 18.2726 35.2161 17.6707 34.7724 17.227C34.3286 16.7832 33.7267 16.5339 33.0991 16.5339H29.5496V12.9844H22.4506V16.5339H18.9011C18.2735 16.5339 17.6716 16.7832 17.2279 17.227C16.7841 17.6707 16.5348 18.2726 16.5348 18.9002V24.3664L15.0085 24.8634C14.7009 24.958 14.4524 25.171 14.2986 25.4549C14.1685 25.7389 14.133 26.0702 14.2276 26.366M35.4654 36.6477C33.8208 36.6477 32.1762 36.0916 30.7328 35.0741C27.8459 37.0973 24.1544 37.0973 21.2675 35.0741C19.824 36.0916 18.1794 36.6477 16.5348 36.6477H14.1685V39.014H16.5348C18.1557 39.014 19.7767 38.5999 21.2675 37.8309C24.2254 39.369 27.7749 39.369 30.7328 37.8309C32.2236 38.5999 33.8327 39.014 35.4654 39.014H37.8318V36.6477H35.4654Z" fill="#4065D3"/>
</svg>
