<svg width="20" height="20" viewBox="0 0 20 20" fill="none" xmlns="http://www.w3.org/2000/svg">
<g clip-path="url(#clip0_1948_1235)">
<path d="M8.01033 2.42281C8.01033 1.95406 7.95825 1.31864 8.01033 0.881143C8.06242 0.443643 8.28117 0.42281 8.56763 0.480102C8.85408 0.537393 8.91658 1.03739 8.91138 1.32906H10.4947C10.5416 1.32906 10.7603 1.40719 10.8176 1.43844C11.1301 1.61031 11.2603 2.01135 11.302 2.33948C11.9895 2.39677 12.7551 2.28218 13.427 2.33948C14.0989 2.39677 13.953 3.14677 13.3489 3.20406C12.7447 3.26135 11.7968 3.25093 11.276 3.20406C10.7551 3.15718 10.4739 2.75093 10.3749 2.18323L8.93742 2.21968C8.90096 2.24573 8.88013 2.68323 8.87492 2.77177C8.84367 3.56343 8.87492 4.39677 8.87492 5.19364C8.86971 7.43323 8.87492 9.67281 8.87492 11.9124C8.87492 14.152 8.87492 12.4853 8.87492 12.7718C8.87492 13.0582 8.87492 13.2405 8.87492 13.4749V13.6311C8.87492 14.3603 8.87492 15.0895 8.87492 15.8186C9.51033 15.9384 9.53117 15.4436 9.79679 15.0426C10.0833 14.6103 10.4478 14.3499 10.9687 14.2614C13.5676 14.0843 16.1718 13.902 18.776 13.7509C19.0468 13.7353 19.5676 13.6103 19.7916 13.7509C20.0155 13.8916 19.953 13.9436 20.0051 14.0634V14.2197L16.3333 18.3603C16.0989 18.2561 15.7447 18.0843 15.5155 18.0061L18.5051 14.6103C18.4635 14.652 18.4062 14.6468 18.3489 14.652C15.9166 14.7197 13.4843 15.0166 11.052 15.1259C10.177 15.4072 10.4062 16.5686 9.32283 16.678C8.22908 16.7874 6.96346 16.5999 5.84888 16.678C5.2395 16.5999 5.10929 15.9541 4.47909 15.9384C3.39575 16.0166 2.30721 16.1051 1.21867 16.1364L2.70304 18.6728C2.2395 18.652 1.82804 18.4072 1.41659 18.2457L0.00512695 15.8968V15.6259C0.156169 15.3968 0.30721 15.3447 0.572835 15.3134C1.88534 15.1728 3.27075 15.1989 4.59367 15.0791C4.85408 15.1103 5.1145 15.178 5.34367 15.3082C5.57283 15.4384 5.91659 15.8239 5.96346 15.8239H8.01554C8.01554 15.2145 8.01554 14.5999 8.01554 13.9905C8.01554 13.4697 8.01554 12.9489 8.01554 12.428C8.01554 9.6051 8.01033 6.77698 8.01554 3.94885C8.01554 3.44364 8.01554 2.93323 8.01554 2.42802L8.01033 2.42281Z" fill="#140505"/>
<path d="M8.01036 2.42188C8.01036 2.92708 8.01036 3.4375 8.01036 3.94271C5.90098 6.27604 5.94265 10.0781 8.01036 12.4219C8.01036 12.9427 8.01036 13.4635 8.01036 13.9844H0.374942C0.187442 13.974 0.0832754 13.8177 0.00515038 13.6719C0.0207754 13.3646 -0.015683 13.0365 0.00515038 12.7344C0.0259837 12.4323 0.0364004 12.7031 0.0416087 12.6719C0.400984 8.13542 2.81244 2.66667 8.01036 2.42188ZM0.864525 13.125H7.42703C5.19265 10.4635 4.94265 6.77604 6.92703 3.89583C7.03119 3.74479 7.1614 3.60938 7.27078 3.45833C7.38015 3.30729 7.3489 3.39062 7.29161 3.35938C2.85932 4.16667 1.17182 9.17187 0.864525 13.125Z" fill="#4065D3"/>
<path d="M1.41138 18.2391C1.82804 18.4058 2.2395 18.6506 2.69784 18.6662C3.64575 18.7078 4.30721 17.7547 5.48429 17.8901C6.42179 17.9943 7.05721 18.9058 8.05721 18.5828C9.05721 18.2599 9.26554 17.8016 10.2135 17.8901C11.2499 17.9839 11.8176 18.9683 12.9374 18.5464C13.901 18.1818 14.3333 17.6193 15.5051 18.0099C15.7395 18.0881 16.0937 18.2599 16.3228 18.3641C16.677 18.5203 16.802 18.7026 17.2812 18.6766C18.0676 18.6401 18.828 17.9735 19.4687 17.8953C19.7499 17.8641 19.8697 17.9683 19.9947 18.2026V18.437C19.9322 18.4787 19.927 18.562 19.8801 18.6141C19.7812 18.7183 18.2447 19.3381 18.0155 19.4006C16.802 19.7443 16.5103 19.3641 15.4947 18.937C14.1458 18.3693 13.7499 19.4318 12.5572 19.5308C11.3645 19.6297 10.7812 18.7131 9.93742 18.7495C9.27596 18.7756 8.552 19.4683 7.79159 19.5308C6.88534 19.6089 6.41138 19.0672 5.64575 18.8276C4.64575 18.5151 3.98429 19.4318 3.02596 19.5256C2.24992 19.6037 1.02596 19.0724 0.317627 18.7287C0.145752 18.6453 0.104085 18.6037 0.00512695 18.437V18.2026C0.270752 17.5828 0.973877 18.0672 1.41138 18.2443V18.2391Z" fill="#4065D3"/>
<path d="M8.86985 12.7715C8.86985 12.485 8.86985 12.1986 8.86985 11.9121H13.8698C11.9167 9.98503 10.2657 7.72461 8.97922 5.29753C8.94797 5.24023 8.9636 5.17253 8.86985 5.19336C8.86985 4.39648 8.8386 3.56315 8.86985 2.77148C9.39589 4.51628 10.3438 6.10482 11.3751 7.58919C12.5053 9.21419 13.8178 10.8861 15.448 12.0319C15.6771 12.3496 15.5261 12.7142 15.1407 12.7715H8.86985Z" fill="#4065D3"/>
<path d="M15.5104 18.0098C14.3385 17.6191 13.9063 18.1868 12.9427 18.5462C11.8229 18.9681 11.2552 17.9837 10.2188 17.89C9.27083 17.8066 8.85417 18.3275 8.0625 18.5827C7.27083 18.8379 6.42708 17.9993 5.48958 17.89C4.30729 17.7598 3.65104 18.7077 2.70313 18.666L1.21875 16.1296C2.30729 16.0983 3.39583 16.0098 4.47917 15.9316C5.10938 15.9525 5.23958 16.5931 5.84896 16.6712C6.95833 16.5931 8.22917 16.7858 9.32292 16.6712C10.4063 16.5618 10.1771 15.4004 11.0521 15.1191C13.4844 15.0098 15.9167 14.7129 18.349 14.6452C18.401 14.6452 18.4635 14.6452 18.5052 14.6035L15.5156 17.9993L15.5104 18.0098Z" fill="#FEFEFE"/>
</g>
<defs>
<clipPath id="clip0_1948_1235">
<rect width="20" height="20" fill="white"/>
</clipPath>
</defs>
</svg>
