<svg width="50" height="50" viewBox="0 0 50 50" fill="none" xmlns="http://www.w3.org/2000/svg">
<rect width="50" height="50" rx="4.44444" fill="#7DA0F9" fill-opacity="0.3"/>
<path fill-rule="evenodd" clip-rule="evenodd" d="M25.0001 13.4641C21.9406 13.4641 19.0063 14.6795 16.8429 16.8429C14.6795 19.0063 13.4641 21.9406 13.4641 25.0001C13.4641 28.0597 14.6795 30.9939 16.8429 33.1573C19.0063 35.3208 21.9406 36.5362 25.0001 36.5362C28.0597 36.5362 30.9939 35.3208 33.1573 33.1573C35.3208 30.9939 36.5362 28.0597 36.5362 25.0001C36.5362 21.9406 35.3208 19.0063 33.1573 16.8429C30.9939 14.6795 28.0597 13.4641 25.0001 13.4641ZM10.5801 25.0001C10.5801 17.0359 17.0359 10.5801 25.0001 10.5801C32.9643 10.5801 39.4202 17.0359 39.4202 25.0001C39.4202 32.9643 32.9643 39.4202 25.0001 39.4202C17.0359 39.4202 10.5801 32.9643 10.5801 25.0001ZM19.9531 22.1161C19.6719 22.1161 19.3129 22.2949 19.0793 22.7621C18.9061 23.101 18.6061 23.3577 18.2446 23.4763C17.883 23.5949 17.4893 23.5658 17.1491 23.3953C16.8089 23.2248 16.5499 22.9268 16.4285 22.5662C16.3071 22.2056 16.3331 21.8116 16.5009 21.4701C17.1297 20.2127 18.3856 19.2321 19.9531 19.2321C21.5206 19.2321 22.7751 20.2127 23.4053 21.4701C23.5731 21.8116 23.5992 22.2056 23.4778 22.5662C23.3563 22.9268 23.0973 23.2248 22.7571 23.3953C22.417 23.5658 22.0232 23.5949 21.6616 23.4763C21.3001 23.3577 21.0001 23.101 20.827 22.7621C20.5934 22.2949 20.2357 22.1161 19.9531 22.1161ZM30.0471 22.1161C29.7659 22.1161 29.4069 22.2949 29.1733 22.7621C29.0893 22.9329 28.9724 23.0854 28.8293 23.2108C28.6861 23.3362 28.5196 23.432 28.3392 23.4927C28.1588 23.5535 27.9682 23.5779 27.7784 23.5646C27.5886 23.5513 27.4032 23.5006 27.2331 23.4153C27.063 23.33 26.9114 23.2119 26.7871 23.0678C26.6628 22.9237 26.5683 22.7564 26.509 22.5756C26.4496 22.3947 26.4267 22.204 26.4415 22.0142C26.4562 21.8245 26.5084 21.6396 26.595 21.4701C27.2251 20.2127 28.4797 19.2321 30.0471 19.2321C31.6146 19.2321 32.8691 20.2127 33.4993 21.4701C33.6671 21.8116 33.6932 22.2056 33.5718 22.5662C33.4504 22.9268 33.1914 23.2248 32.8512 23.3953C32.511 23.5658 32.1172 23.5949 31.7557 23.4763C31.3941 23.3577 31.0941 23.101 30.921 22.7621C30.6874 22.2949 30.3298 22.1161 30.0471 22.1161ZM20.1031 28.3715C20.2284 28.2294 20.3805 28.1134 20.5507 28.0302C20.7208 27.9469 20.9057 27.898 21.0948 27.8862C21.2839 27.8744 21.4735 27.9 21.6527 27.9615C21.8319 28.023 21.9972 28.1192 22.1392 28.2446C22.9034 28.9195 23.9028 29.3261 25.0001 29.3261C26.0975 29.3261 27.0982 28.9195 27.8611 28.2446C28.1479 27.9915 28.5236 27.8626 28.9054 27.8864C29.2872 27.9102 29.644 28.0847 29.8972 28.3715C30.1503 28.6584 30.2792 29.034 30.2554 29.4159C30.2316 29.7977 30.0571 30.1545 29.7703 30.4076C28.4543 31.5718 26.7571 32.2131 25.0001 32.2101C23.2431 32.2131 21.546 31.5718 20.23 30.4076C20.0879 30.2823 19.9719 30.1302 19.8886 29.9601C19.8053 29.7899 19.7564 29.605 19.7446 29.4159C19.7328 29.2268 19.7584 29.0372 19.8199 28.858C19.8814 28.6788 19.9776 28.5135 20.1031 28.3715Z" fill="#4065D3"/>
</svg>
