<svg width="70" height="70" viewBox="0 0 70 70" fill="none" xmlns="http://www.w3.org/2000/svg">
<g clip-path="url(#clip0_625_12999)">
<path d="M0 11.7586C1.02083 8.2039 3.95573 5.72473 7.80208 6.16223C7.34635 2.644 10.0807 -0.382038 13.7083 0.729941C16.0781 1.44088 16.862 3.92004 16.7708 6.16223H45.4089C44.625 -1.32995 55.0338 -1.34818 54.2865 6.16223C58.224 5.68827 61.7604 8.58671 62.0885 12.506V41.0893C62.1615 41.5268 63.6745 42.256 64.1302 42.6023C66.2995 44.2794 68.0677 46.6128 69.0339 49.1831L70.0182 52.7742V56.4565C69.6354 57.4044 69.5443 58.407 69.1979 59.3914C67.3021 64.8784 62.2161 68.8888 56.4193 69.4357H6.08854C3.91927 69.1075 2.00521 67.8862 0.929687 65.9721C-0.145833 64.0581 0.328125 64.4773 0 63.6935L0 11.7586ZM11.2656 3.88359C11.0104 4.13879 10.8464 4.64921 10.8099 4.99557C10.6823 6.03463 10.6823 8.87838 10.8099 9.89921C11.0651 11.7586 13.3255 11.6857 13.6354 10.3003C13.9453 8.91484 13.763 5.48775 13.6536 4.74036C13.4714 3.57369 12.0312 3.11796 11.2474 3.88359H11.2656ZM50.8047 3.88359C50.0208 3.11796 48.5807 3.57369 48.3984 4.74036C48.2708 5.61536 48.2708 9.31588 48.4167 10.1726C48.7083 11.7768 50.987 11.7404 51.2422 10.0633C51.4974 8.38619 51.3698 6.0164 51.2422 5.01379C51.1146 4.01119 51.0417 4.15702 50.7865 3.90182L50.8047 3.88359ZM3.00781 12.506C2.82552 13.8549 3.13542 15.5685 3.00781 16.9539H59.0625V12.3784C59.0625 12.1779 58.6615 11.3575 58.5339 11.1206C57.6589 9.55286 56 8.96952 54.2682 9.15182C54.5964 16.0424 45.0078 16.006 45.3906 9.15182H16.6797C17.0625 16.0242 7.49219 16.0424 7.80208 9.15182C5.59635 8.82369 3.31771 10.2273 3.00781 12.506ZM59.0625 19.9617H3.00781V63.0919C3.00781 64.2768 4.92188 66.4461 6.08854 66.4461H45.8099C43.5677 64.4409 41.6719 62.0529 40.7422 59.1362C37.1146 47.7247 47.6146 36.9513 59.0625 40.0503V19.9617ZM54.3776 42.5659C44.7344 43.1128 39.5755 54.4148 45.6641 61.9982C50.9323 68.5607 61.2682 67.7768 65.4245 60.4305C69.5807 53.0841 63.7838 42.0372 54.3958 42.5659H54.3776Z" fill="#140505"/>
<path d="M59.0625 19.9609V40.0495C47.6146 36.9505 37.0964 47.7057 40.7422 59.1354C41.6719 62.0521 43.5677 64.4401 45.8099 66.4453H6.08854C4.92188 66.4453 3.00781 64.276 3.00781 63.0911V19.9609H59.0625ZM11.7214 23.1328C10.4271 23.3516 9.24219 24.6458 9.0599 25.9401C8.8776 27.2344 8.89583 31.1172 9.24219 32.1198C9.77083 33.7057 11.2292 34.3255 12.7969 34.4531C15.4948 34.6536 19.9063 34.8906 20.3802 31.3724C20.5625 29.987 20.5443 25.9219 19.9062 24.7552C19.2682 23.5885 18.5573 23.2786 17.7005 23.1328C16.8438 22.987 12.7422 22.9688 11.7578 23.1328H11.7214ZM28 23.1328C26.9609 23.3151 25.6484 24.6276 25.4661 25.6667C25.2839 26.7057 25.3021 30.3698 25.4297 31.5182C25.8125 34.9089 30.625 34.6719 33.1406 34.4349C35.4375 34.2161 36.5859 32.9766 36.7865 30.6979C36.987 28.3281 37.2057 23.6615 34.0885 23.151C33.0677 22.987 29.0208 22.987 28 23.151V23.1328ZM44.4063 23.1328C43.4948 23.2786 42.4193 24.1719 42.0547 25.0104C41.4714 26.3229 41.5078 31.3906 42.2005 32.6667C42.8932 33.9427 44.2057 34.362 45.6094 34.4531C48.1432 34.6354 52.5911 34.8542 53.0469 31.5C53.1927 30.4063 53.1745 26.25 52.8464 25.3021C52.5182 24.3542 51.3516 23.2786 50.2396 23.1146C49.1276 22.9505 45.4453 22.9688 44.4063 23.1328ZM12.1406 37.7708C10.7917 37.9349 9.53385 38.9193 9.16927 40.2682C8.80469 41.6172 8.89583 44.862 9.02344 46.0104C9.15104 47.1589 10.4818 48.8724 11.9766 49.0729C13.1068 49.2188 16.1328 49.2188 17.2995 49.0729C18.5755 48.9271 19.6875 48.0521 20.125 46.849C20.5625 45.6458 20.526 41.1432 20.1615 40.0677C19.7969 38.9922 18.8307 38.1536 17.8281 37.8984C16.8255 37.6432 13.3438 37.6432 12.1406 37.7891V37.7708ZM28.401 37.7708C27.0885 37.9531 25.7578 38.9922 25.4844 40.3229C25.2109 41.6536 25.3021 45.0443 25.4297 46.138C25.5573 47.2318 26.487 48.4896 27.6172 48.8724C28.7474 49.2552 32.5573 49.2188 33.7057 49.0729C34.8542 48.9271 36.4948 47.6328 36.6406 46.2656C36.7682 45.0078 36.7865 41.9089 36.6406 40.651C36.4948 39.3932 35.8021 38.6094 34.9089 38.1536C34.0156 37.6979 29.7682 37.5703 28.401 37.7526V37.7708ZM11.9948 52.1172C10.737 52.2995 9.4974 53.375 9.16927 54.6146C8.84115 55.8542 8.8776 60.4115 9.38802 61.5052C9.7526 62.2891 10.3906 62.8177 11.1745 63.1458C12.2135 63.5833 16.0599 63.5833 17.2995 63.4375C18.5391 63.2917 20.1797 61.888 20.362 60.3385C20.5443 58.7891 20.5078 55.4167 20.1615 54.4141C19.8151 53.4115 18.5938 52.2995 17.3906 52.1172C16.2604 51.9531 13.1068 51.9531 11.9948 52.1172ZM28.401 52.1172C27.0339 52.2995 25.7031 53.375 25.4661 54.7786C25.2292 56.1823 25.3021 59.3724 25.4297 60.4844C25.5573 61.5964 26.5052 62.8359 27.6172 63.2188C28.7292 63.6016 33.3958 63.5651 34.4531 63.2188C35.5104 62.8724 36.5312 61.724 36.6406 60.6302C36.75 59.5365 36.7865 56.2734 36.6406 55.0156C36.4948 53.7578 35.8021 52.974 34.9089 52.5182C34.0156 52.0625 29.7682 51.9349 28.401 52.1172Z" fill="#FEFEFE"/>
<path d="M54.3775 42.5647C63.7655 42.0361 70.0546 52.2079 65.4061 60.4293C60.7577 68.6506 50.9322 68.5595 45.6457 61.997C39.5572 54.4137 44.716 43.0934 54.3593 42.5647H54.3775ZM58.9895 53.5934C58.3332 53.4657 57.3124 53.6845 56.6015 53.5934V47.7782C56.6015 46.3017 54.0676 45.6272 53.5572 47.4683C53.2837 48.4163 53.3567 53.7027 53.466 54.9059C53.5207 55.6168 53.8306 56.4736 54.6327 56.6012C55.4348 56.7288 58.7343 56.6923 59.2082 56.5465C60.5936 56.1272 60.3931 53.885 58.9895 53.5934Z" fill="#FEFEFE"/>
<path d="M3.00778 12.5051C3.31768 10.2264 5.59632 8.82277 7.80205 9.1509C7.49216 16.0415 17.0625 16.0233 16.6797 9.1509H45.3906C45.026 16.0051 54.6146 16.0415 54.2682 9.1509C56 8.95038 57.6588 9.55194 58.5338 11.1196C59.4088 12.6874 59.0625 12.1769 59.0625 12.3775V16.953H3.00778C3.13539 15.5676 2.82549 13.854 3.00778 12.5051Z" fill="#FEFEFE"/>
<path d="M50.8047 3.88397C51.0599 4.13918 51.224 4.64959 51.2604 4.99595C51.3698 5.99855 51.4063 9.09751 51.2604 10.0454C51.0052 11.7225 48.7266 11.759 48.4349 10.1548C48.1433 8.55064 48.2709 5.59751 48.4167 4.72251C48.599 3.55584 50.0391 3.10011 50.8229 3.86574L50.8047 3.88397Z" fill="#FEFEFE"/>
<path d="M11.2655 3.88332C12.0494 3.11769 13.4895 3.57342 13.6718 4.74009C13.8541 5.90676 13.7994 9.64373 13.6535 10.3C13.3436 11.7036 11.0832 11.7583 10.828 9.89894C10.5728 8.03957 10.7004 6.03436 10.828 4.9953C10.9556 3.95623 11.0285 4.13853 11.2837 3.88332H11.2655Z" fill="#FEFEFE"/>
<path d="M27.9999 23.1328C29.0208 22.9687 33.0676 22.9687 34.0885 23.1328C37.2057 23.6615 36.9869 28.3099 36.7864 30.6797C36.6041 32.9583 35.4374 34.2161 33.1406 34.4167C30.6249 34.6536 25.8124 34.8906 25.4296 31.5C25.302 30.3516 25.2838 26.7422 25.4661 25.6484C25.6484 24.5547 26.9609 23.2969 27.9999 23.1146V23.1328ZM28.638 26.1042C28.6015 26.1771 28.4374 26.2682 28.4374 26.3047V31.0807C28.4374 31.2448 29.0025 31.4089 29.1848 31.4271C29.7864 31.5 32.776 31.5182 33.2317 31.3542C33.6874 31.1901 33.6328 31.1354 33.6328 31.0807V26.3047C33.6328 26.3047 33.4505 26.1042 33.4322 26.1042H28.6562H28.638Z" fill="#4065D3"/>
<path d="M44.4061 23.1313C45.4452 22.9672 49.1822 22.9672 50.2395 23.1131C51.2968 23.2589 52.4817 24.2433 52.8462 25.3006C53.2108 26.3578 53.1926 30.4047 53.0468 31.4985C52.591 34.8526 48.1249 34.6339 45.6093 34.4516C43.0936 34.2693 42.9296 33.9776 42.2004 32.6651C41.4712 31.3526 41.4712 26.3214 42.0546 25.0089C42.6379 23.6964 43.4947 23.2771 44.4061 23.1313ZM44.8436 26.1026C44.6067 26.1026 44.6614 30.4594 44.6978 30.824C44.7343 31.1886 44.9895 31.3891 45.4634 31.4256C45.9374 31.462 49.164 31.5167 49.6379 31.3526C50.1119 31.1886 50.039 31.1339 50.039 31.0792V26.3032C50.039 26.3032 49.8567 26.1026 49.8384 26.1026H44.8436Z" fill="#4065D3"/>
<path d="M12.1408 37.7707C13.3439 37.6249 16.7345 37.5884 17.8283 37.8801C18.922 38.1717 19.8335 39.065 20.1616 40.0493C20.4897 41.0337 20.508 45.7733 20.1252 46.8306C19.7424 47.8879 18.5757 48.9269 17.2996 49.0545C16.133 49.1821 13.1069 49.2004 11.9767 49.0545C10.4819 48.854 9.18766 47.4868 9.0236 45.992C8.85954 44.4973 8.896 41.2707 9.16943 40.2499C9.44287 39.229 10.7918 37.9165 12.1408 37.7525V37.7707ZM12.396 40.7785C12.2684 40.815 12.159 40.9061 12.0861 41.0155C11.9767 41.2525 11.9403 44.9894 12.0132 45.4634C12.0861 45.9374 12.1772 46.0103 12.633 46.0832C13.3986 46.1926 15.9689 46.1926 16.7528 46.0832C17.5366 45.9738 17.2996 45.9191 17.3726 45.4634C17.4819 44.6978 17.4819 42.1275 17.3726 41.3436C17.2632 40.5598 17.2085 40.7967 16.7528 40.7238C16.297 40.6509 12.797 40.6509 12.396 40.7603V40.7785Z" fill="#4065D3"/>
<path d="M28.4009 37.7701C29.7681 37.5878 33.7421 37.5696 34.9087 38.1711C36.0754 38.7727 36.5311 39.6659 36.6405 40.6685C36.7499 41.6711 36.7681 45.0071 36.6405 46.2831C36.4947 47.6503 35.0364 48.9263 33.7056 49.0904C32.3749 49.2545 28.6015 49.218 27.6171 48.8899C26.6327 48.5618 25.5572 47.3586 25.4296 46.1555C25.302 44.9524 25.2837 41.343 25.4843 40.3404C25.6848 39.3378 27.0884 37.9706 28.4009 37.7883V37.7701ZM33.6327 40.869C33.6327 40.6138 28.8567 40.705 28.4374 40.869V45.8638C28.4374 45.8638 28.6197 46.0644 28.6379 46.0644H33.414C33.414 46.0644 33.6145 45.8821 33.6145 45.8638V40.869H33.6327Z" fill="#4065D3"/>
<path d="M11.7214 23.1328C12.7058 22.9687 16.6798 22.9687 17.6641 23.1328C18.6485 23.2969 19.4506 23.9896 19.8699 24.7552C20.5079 25.9219 20.5261 29.987 20.3438 31.3724C19.8881 34.9089 15.4584 34.6719 12.7605 34.4531C10.0626 34.2344 9.75267 33.724 9.20579 32.1198C8.85944 31.1172 8.87767 27.0703 9.0235 25.9401C9.16934 24.8099 10.3907 23.3516 11.685 23.1328H11.7214ZM12.2318 26.1042C12.1954 26.1771 12.0313 26.2682 12.0313 26.3047V31.0807C12.0313 31.2448 12.5964 31.4089 12.7787 31.4271C13.3985 31.5 16.4975 31.5182 16.9532 31.3542C17.4089 31.1901 17.3542 31.1354 17.3542 31.0807V26.3047C17.3542 26.3047 17.1719 26.1042 17.1537 26.1042H12.2318Z" fill="#4065D3"/>
<path d="M28.401 52.1158C29.7682 51.9335 33.7421 51.9153 34.9088 52.5168C36.0755 53.1184 36.5312 54.0116 36.6406 55.0142C36.7499 56.0168 36.7682 59.3528 36.6406 60.6288C36.513 61.9049 35.4739 62.871 34.4531 63.2174C33.4322 63.5637 28.6744 63.5637 27.6171 63.2174C26.5598 62.871 25.5572 61.6679 25.4296 60.483C25.302 59.2981 25.2838 55.8345 25.4661 54.7772C25.6484 53.72 27.0338 52.2981 28.401 52.1158ZM33.6328 55.233C33.6328 54.9778 28.8567 55.0689 28.4374 55.233V60.2278C28.4374 60.2278 28.6197 60.4283 28.638 60.4283H33.414C33.414 60.4283 33.6145 60.246 33.6145 60.2278V55.233H33.6328Z" fill="#4065D3"/>
<path d="M11.9948 52.1172C13.125 51.9531 16.2787 51.9531 17.3906 52.1172C18.5755 52.2812 19.7787 53.2839 20.1615 54.4141C20.5443 55.5443 20.4896 59.1901 20.362 60.3385C20.2344 61.487 18.849 63.2552 17.2995 63.4375C15.75 63.6198 12.2136 63.5651 11.1745 63.1458C10.3906 62.8177 9.75262 62.2891 9.38804 61.5052C8.89585 60.4297 8.85939 55.7995 9.16929 54.6146C9.47919 53.4297 10.737 52.2995 11.9948 52.1172ZM12.3959 55.125C12.2682 55.1615 12.1589 55.2526 12.086 55.362C11.9766 55.599 11.9401 59.3359 12.013 59.8099C12.086 60.2839 12.1771 60.3568 12.6328 60.4297C13.3985 60.5391 15.9688 60.5391 16.7526 60.4297C17.5365 60.3203 17.2995 60.2656 17.3724 59.8099C17.4818 59.0443 17.4818 56.474 17.3724 55.6901C17.263 54.9063 17.2084 55.1432 16.7526 55.0703C16.2969 54.9974 12.7969 54.9974 12.3959 55.1068V55.125Z" fill="#4065D3"/>
<path d="M58.9894 53.5926C60.3931 53.8661 60.5754 56.1083 59.2082 56.5458C57.841 56.9833 55.216 56.6916 54.6327 56.6004C54.0493 56.5093 53.5207 55.6161 53.466 54.9051C53.3566 53.702 53.3019 48.4156 53.5571 47.4676C54.0858 45.6447 56.6014 46.301 56.6014 47.7775V53.5926C57.3124 53.6838 58.3332 53.465 58.9894 53.5926Z" fill="#140505"/>
<path d="M28.6382 26.1035H33.4142C33.4142 26.1035 33.6147 26.2858 33.6147 26.304V31.0801C33.6147 31.1348 33.3231 31.3353 33.2137 31.3535C32.758 31.4993 29.7684 31.4811 29.1668 31.4264C28.5653 31.3717 28.4194 31.2441 28.4194 31.0801V26.304C28.4194 26.2676 28.5835 26.1764 28.62 26.1035H28.6382Z" fill="#FEFEFE"/>
<path d="M44.8437 26.1035H49.8385C49.8385 26.1035 50.039 26.2858 50.039 26.304V31.0801C50.039 31.1348 49.7474 31.3353 49.638 31.3535C49.164 31.4993 46.0833 31.4811 45.4635 31.4264C44.8437 31.3717 44.7708 31.3171 44.6979 30.8249C44.625 30.3327 44.6067 26.1035 44.8437 26.1035Z" fill="#FEFEFE"/>
<path d="M12.3956 40.7787C12.7784 40.6693 16.2237 40.6693 16.7524 40.7422C17.281 40.8151 17.3175 40.9063 17.3721 41.362C17.4815 42.1276 17.4815 44.698 17.3721 45.4818C17.2628 46.2657 17.2081 46.0469 16.7524 46.1016C15.9867 46.211 13.4164 46.211 12.6326 46.1016C11.8487 45.9922 12.0675 45.9375 12.0128 45.4818C11.9581 45.0261 11.9763 41.2709 12.0857 41.0339C12.1951 40.7969 12.268 40.8334 12.3956 40.7969V40.7787Z" fill="#FEFEFE"/>
<path d="M33.6326 40.87V45.8648C33.6326 45.8648 33.4504 46.0653 33.4321 46.0653H28.6561C28.6561 46.0653 28.4556 45.883 28.4556 45.8648V40.87C28.8748 40.7059 33.6509 40.6148 33.6509 40.87H33.6326Z" fill="#FEFEFE"/>
<path d="M12.2318 26.1035H17.1536C17.1536 26.1035 17.3542 26.2858 17.3542 26.304V31.0801C17.3542 31.1348 17.0625 31.3353 16.9531 31.3535C16.4792 31.4993 13.3984 31.4811 12.7786 31.4264C12.1589 31.3717 12.0312 31.2441 12.0312 31.0801V26.304C12.0312 26.2676 12.1953 26.1764 12.2318 26.1035Z" fill="#FEFEFE"/>
<path d="M33.6326 55.2333V60.2281C33.6326 60.2281 33.4504 60.4286 33.4321 60.4286H28.6561C28.6561 60.4286 28.4556 60.2463 28.4556 60.2281V55.2333C28.8748 55.0692 33.6509 54.9781 33.6509 55.2333H33.6326Z" fill="#FEFEFE"/>
<path d="M12.3956 55.1263C12.7784 55.017 16.2237 55.017 16.7524 55.0899C17.281 55.1628 17.3175 55.2539 17.3721 55.7097C17.4815 56.4753 17.4815 59.0456 17.3721 59.8295C17.2628 60.6133 17.2081 60.3946 16.7524 60.4493C15.9867 60.5586 13.4164 60.5586 12.6326 60.4493C11.8487 60.3399 12.0675 60.2852 12.0128 59.8295C11.9581 59.3737 11.9763 55.6185 12.0857 55.3815C12.1951 55.1446 12.268 55.181 12.3956 55.1446V55.1263Z" fill="#FEFEFE"/>
</g>
<defs>
<clipPath id="clip0_625_12999">
<rect width="70" height="70" fill="white"/>
</clipPath>
</defs>
</svg>
