<svg width="50" height="50" viewBox="0 0 50 50" fill="none" xmlns="http://www.w3.org/2000/svg">
<g clip-path="url(#clip0_1373_30074)">
<path d="M2.22266 35.2776L2.77821 42.2221H21.1115L24.7227 32.4998L23.6115 30.5554L16.9449 26.6665L8.05599 28.0554L2.22266 35.2776Z" fill="#FEFEFE"/>
<path fill-rule="evenodd" clip-rule="evenodd" d="M0.57666 37.9147C0.628743 37.3938 0.876139 36.4042 1.01937 35.8574C0.877312 36.3998 0.631468 37.3775 0.57666 37.9016V37.9083C0.576768 37.9104 0.576872 37.9125 0.57666 37.9147ZM0.57666 37.9083V37.9147C0.576872 37.9125 0.576768 37.9104 0.57666 37.9083Z" fill="#4065D3"/>
<path d="M1.01937 35.8574C0.876139 36.4042 0.628743 37.3938 0.57666 37.9147V37.9016C0.541409 38.24 0.555784 38.5975 0.570178 38.9555C0.582368 39.2587 0.594572 39.5622 0.57666 39.8548C0.615641 39.9867 0.65117 40.1193 0.686585 40.2515C0.804956 40.6934 0.922063 41.1306 1.1626 41.5214H5.05583C5.02371 41.5191 4.99564 41.518 4.96763 41.517C4.8366 41.5119 4.70677 41.5069 4.17041 41.3782C4.13101 41.3687 4.09218 41.3598 4.05395 41.3509C3.46034 41.2136 3.00882 41.1092 2.76416 39.7636C2.50374 38.3313 3.54541 37.3287 4.9126 37.2115C7.08708 37.0292 10.2772 37.0683 12.8293 37.2115C15.3813 37.3548 17.7772 38.8001 18.0506 41.5084C18.2918 41.5084 18.5386 41.5127 18.7874 41.517C19.2909 41.5257 19.8022 41.5345 20.2902 41.5084C19.9517 37.9537 16.8006 35.2975 13.311 35.0631C10.8371 34.8938 7.21729 34.9199 4.71729 35.0631C4.50201 35.077 4.28673 35.1205 4.07145 35.164C3.88308 35.2021 3.69472 35.2402 3.50635 35.2584C6.34489 27.1334 17.4777 25.0761 23.1808 31.5475C23.3324 31.7152 23.4659 31.9033 23.5992 32.091C23.7866 32.3548 23.9736 32.6181 24.2095 32.8235C24.3592 32.4329 24.5285 32.0423 24.6978 31.6516C24.867 31.261 25.0363 30.8704 25.186 30.4798L23.4282 28.774C22.0741 27.7193 20.6157 26.7428 18.936 26.287C18.9146 26.2085 18.8422 26.2474 18.8393 26.2428C18.8369 26.2389 18.8815 26.2055 19.0402 26.0527C19.1754 25.9224 19.3223 25.798 19.471 25.6719C19.7089 25.4702 19.9517 25.2644 20.16 25.024C23.5975 20.9485 21.4491 14.1646 16.2668 12.9928C10.8761 11.7688 6.48812 15.9355 7.03499 21.3391C7.23031 23.3183 8.48031 25.0501 9.95166 26.287C5.61572 27.7193 2.17822 31.4433 1.01937 35.8574ZM13.6366 14.998C7.59489 15.7271 7.7251 24.9589 13.8058 25.5188C21.6444 26.235 21.5011 14.0475 13.6366 14.998Z" fill="#4065D3"/>
<path d="M49.9994 27.9297V28.5157L45.7025 41.5105H49.2702C49.4655 41.5105 49.9212 42.0834 49.9994 42.2917V49.1276C49.804 49.5834 49.6478 49.7657 49.2181 50.0131H0.702474L0.0253906 49.336V42.3047L0.611328 41.5235H4.51758C8.43685 41.849 13.4759 41.5625 17.4993 41.5235C21.5228 41.4844 19.0228 41.5625 19.7389 41.5235C20.4551 41.4844 20.416 41.5235 20.5202 41.3542C21.4967 38.6459 22.5254 35.9636 23.554 33.2683C24.5827 30.573 23.6061 32.9297 23.6452 32.8256C23.9447 32.0443 24.3223 31.2631 24.6217 30.4818C24.9212 29.7006 25.4681 27.7214 25.9368 27.3568C26.4056 26.9922 26.1712 27.1875 26.3405 27.1745H49.0879C49.5566 27.1875 49.804 27.5782 50.0124 27.9558L49.9994 27.9297ZM47.3691 29.2969H27.4082L22.7728 41.5105H43.3717L47.3691 29.2969ZM47.8509 43.6459H2.16081V47.8386H47.8509V43.6459Z" fill="#140505"/>
<path d="M47.8509 43.6459H2.16081V47.8386H47.8509V43.6459Z" fill="#FEFEFE"/>
<path d="M47.3691 29.2969H27.4082L22.7728 41.5105H43.3717L47.3691 29.2969Z" fill="#FEFEFE"/>
<path d="M46.7321 0.0810426C48.3076 0.549793 49.3232 1.57844 49.8701 3.10188C49.9612 3.34927 50.0003 3.60969 50.0003 3.8701V17.3988C50.0003 17.6982 49.9352 17.9977 49.831 18.2842C49.6227 18.805 49.4144 19.2998 49.0237 19.7685C47.318 21.8258 44.6748 21.2399 42.2659 21.2659C41.6409 21.2659 41.055 21.5264 40.6253 21.9821C39.8701 22.7633 38.8154 23.9873 38.3987 24.2738C37.9821 24.5602 37.5393 24.5472 37.0706 24.2217C36.6018 23.8961 35.6383 22.7503 34.8961 21.9821C34.4664 21.5264 33.8675 21.279 33.2425 21.2659C30.6904 21.2399 27.9821 21.8519 26.3024 19.456C25.8727 18.8571 25.6513 18.206 25.5472 17.5029C25.443 16.7998 25.5081 17.1774 25.5211 17.0081C25.7425 12.8024 25.1565 8.19302 25.5211 4.0524C25.6904 2.08625 26.9664 0.653959 28.7763 0.0940634C30.5862 -0.465832 29.219 -0.0101033 29.4534 -0.0101033H46.1071C46.3284 -0.0101033 46.5498 0.0159384 46.7581 0.0810426H46.7321ZM30.3779 19.1305C31.1201 19.1566 31.8753 19.1305 32.6175 19.1305C33.3597 19.1305 33.4899 19.1045 33.9977 19.1045C34.5055 19.1045 35.1826 19.3519 35.6123 19.7685L36.094 20.2373C37.0185 21.1488 38.5029 21.1227 39.3883 20.1982C40.2737 19.2737 40.2086 19.3779 40.417 19.2738C40.9638 19.0133 42.1878 19.1435 42.8649 19.1305C43.542 19.1175 44.3623 19.1566 45.1045 19.1305C46.3805 19.0915 47.2138 18.9222 47.6696 17.8154C48.1253 16.7086 47.8258 17.2555 47.8388 16.956V4.31281C47.8388 4.0524 47.8128 3.79198 47.7216 3.54458C47.5003 2.95865 47.0576 2.50292 46.4716 2.28156C45.8857 2.06021 45.8857 2.15136 45.5862 2.15136C40.417 2.11229 29.831 2.13833 29.831 2.13833C29.831 2.13833 27.8216 2.02279 27.7781 3.61133C27.7347 5.19987 27.7781 5.278 27.7781 5.278L27.6305 16.93C27.6305 16.93 27.5392 19.1175 30.3649 19.1175C33.1905 19.1175 30.3779 19.1305 30.3779 19.1305Z" fill="#140505"/>
<path d="M13.9073 15.0529C21.7719 14.1024 21.9151 26.2899 14.0765 25.5737C7.99581 25.0268 7.8656 15.782 13.9073 15.0529Z" fill="#FEFEFE"/>
<path d="M30.377 19.1405C30.7546 16.7577 32.252 14.5572 34.4785 13.5676C34.5827 13.4243 34.0618 12.7993 33.9577 12.578C32.0697 8.72382 36.3145 4.75246 40.0124 7.00507C41.7181 8.03371 42.4473 10.3384 41.7441 12.2004C41.041 14.0624 41.1842 13.0728 41.015 13.5676C43.2155 14.492 44.8171 16.7707 45.1165 19.1405C44.3743 19.1665 43.6191 19.1405 42.877 19.1405C41.9004 13.5415 33.6582 13.5676 32.6296 19.1405C31.8874 19.1405 31.1322 19.1665 30.39 19.1405H30.377ZM37.5775 8.51549C34.9082 8.74986 35.1296 12.7733 37.7467 12.7863C40.3639 12.7993 40.4811 8.25507 37.5775 8.51549Z" fill="#4065D3"/>
<path d="M42.8783 19.1406C42.2142 19.1406 40.9772 19.0104 40.4303 19.2839C39.8704 19.5573 37.9434 21.875 37.748 21.875L35.0918 19.2578C34.61 19.0234 33.2428 19.1406 32.6309 19.1406C33.6595 13.5677 41.9147 13.5417 42.8783 19.1406Z" fill="#FEFEFE"/>
<path d="M34.3485 34.297C34.7912 34.2058 36.3407 34.2188 36.7053 34.4272C37.3954 34.8178 37.3954 36.0027 36.6532 36.3152C35.911 36.6277 34.4136 36.4975 34.036 36.3152C33.1506 35.8595 33.3589 34.4923 34.3355 34.297H34.3485Z" fill="#140505"/>
<path d="M37.5778 8.51563C40.4814 8.25522 40.6246 12.8125 37.747 12.7865C34.8694 12.7604 34.9085 8.75001 37.5778 8.51563Z" fill="#FEFEFE"/>
</g>
<defs>
<clipPath id="clip0_1373_30074">
<rect width="50" height="50" fill="white"/>
</clipPath>
</defs>
</svg>
