<svg width="70" height="70" viewBox="0 0 70 70" fill="none" xmlns="http://www.w3.org/2000/svg">
<g clip-path="url(#clip0_625_12991)">
<circle cx="18.6666" cy="22.5558" r="11.2778" fill="#FEFEFE" stroke="#140505" stroke-width="2.33333"/>
<circle cx="56.7776" cy="46.6662" r="10.8889" fill="#FEFEFE"/>
<path d="M10.1497 28.4286C10.9353 26.7722 12.2957 25.1751 14.0202 24.5835C13.0622 22.8877 12.8322 21.2906 13.3688 19.4173C13.9053 17.5441 16.0322 15.7103 18.1016 15.5723C23.0069 15.2173 25.7853 20.3046 23.3518 24.6032C25.0955 25.1948 26.456 26.7919 27.2224 28.4483C26.3985 29.7497 25.9578 30.1835 24.7698 31.1102C24.444 29.4736 23.4093 27.975 21.8573 27.3835C20.3052 26.7919 16.607 26.9497 15.3807 27.4229C13.8478 28.0145 12.8897 29.4933 12.564 31.1102C11.3951 30.1638 10.9544 29.7694 10.1113 28.4483L10.1497 28.4286ZM16.9519 19.4568C15.6873 20.6793 16.1663 22.9666 17.7567 23.6173C19.3471 24.268 21.9147 22.1582 20.8034 20.0483C19.692 17.9385 18.0633 18.3723 16.9519 19.4568Z" fill="#4065D3"/>
<path d="M63.9661 35.9479C63.0911 35.401 61.9427 34.8906 60.9583 34.5807V10.1901C60.776 7.92969 58.9349 6.10677 56.6562 6.01562H7.01823C5.39583 6.01562 2.98958 8.16667 2.98958 9.78906V39.5208H46.3385C45.8281 40.25 44.9896 41.7266 44.6979 42.5286H2.98958V45.4635C2.98958 47.2682 5.35938 49.3646 7.16406 49.3646H44.151C44.2604 49.9661 44.8438 51.7891 45.099 52.3724C43.4583 52.5365 41.4349 52.1536 39.8307 52.3724C39.6302 52.3906 39.5938 52.2995 39.6302 52.5729L42.237 63.9844C42.401 64.1484 46.138 63.9115 46.8125 63.9844C48.9089 64.2214 48.6172 67.1016 46.5391 66.9922H17.263C15.6771 67.0833 15.0573 64.8411 16.4792 64.1484C17.901 63.4557 21.5104 64.1484 21.7109 63.9661L24.3177 52.3542H6.61719C6.21615 52.3542 4.84896 51.8802 4.41146 51.6979C2.0599 50.6771 0.729167 48.5807 0 46.2109V9.15104C0.929688 5.83333 3.39063 3.33594 6.90885 3.00781H56.9479C60.6302 3.28125 63.5469 6.125 63.9661 9.78906V35.9479ZM39.2109 63.9844L36.4766 52.4271H27.4349L24.7005 63.9844H39.1927H39.2109Z" fill="#140505"/>
<path d="M60.9583 34.5996C61.9427 34.9095 63.0911 35.4199 63.9661 35.9668C66.2812 37.4251 68.4323 40.123 69.3073 42.7298L69.9817 45.5371V48.6725C69.289 51.8079 67.9948 54.6152 65.5338 56.748C59.0989 62.3444 48.5989 60.2298 45.0989 52.373C44.8437 51.7897 44.2422 49.9668 44.151 49.3652C43.8047 47.4147 44.0416 44.3886 44.6979 42.5293C45.3541 40.6699 45.8281 40.2506 46.3385 39.5215C49.638 34.8366 55.4713 32.8678 60.9583 34.5996ZM56.5468 36.9511C48.3437 37.2793 44.0416 47.0501 49.3281 53.3756C54.6146 59.7011 61.9974 57.9329 65.4791 52.1725C69.6172 45.3183 64.513 36.6412 56.5468 36.9511Z" fill="#4065D3"/>
<path d="M60.9585 34.599C55.4715 32.8672 49.6382 34.8359 46.3387 39.5208H2.98975V9.77083C2.98975 8.16667 5.396 6.01562 7.01839 6.01562H56.6564C58.9351 6.10677 60.7762 7.92969 60.9585 10.1901V34.599ZM17.4455 10.026C7.89339 10.9557 2.75277 22.0391 8.20329 29.987C13.4533 37.625 24.9012 37.3151 29.6955 29.3854C35.1825 20.3255 27.8726 9.00521 17.4455 10.026ZM38.5002 10.026C33.159 10.7734 33.3413 18.5573 38.7371 19.013C43.6226 19.4323 49.0913 18.7031 54.0314 18.9948C59.409 18.1016 59.1356 10.4089 53.6486 9.98958C48.7996 9.60677 43.4038 10.263 38.5002 10.026ZM38.5002 22.0573C33.159 22.8047 33.3413 30.5885 38.7371 31.0443C43.6226 31.4635 49.0913 30.7344 54.0314 31.026C59.409 30.1328 59.1356 22.4401 53.6486 22.0208C48.7996 21.638 43.4038 22.2943 38.5002 22.0573Z" fill="#FEFEFE"/>
<path d="M44.6799 42.5098C44.0236 44.3691 43.7866 47.3952 44.133 49.3457H7.16423C5.35954 49.3457 2.98975 47.2494 2.98975 45.4447V42.5098H44.6981H44.6799Z" fill="#FEFEFE"/>
<path d="M39.2108 63.985H24.7368L27.453 52.4277H36.4946L39.2108 63.985Z" fill="#FEFEFE"/>
<path d="M17.4457 10.0273C27.8728 9.00646 35.1827 20.3268 29.6957 29.3867C24.9014 37.3164 13.4535 37.6263 8.20353 29.9882C2.75301 22.0403 7.89363 10.957 17.4457 10.0273ZM10.6462 28.0377C11.4483 29.2591 11.8494 29.6236 12.9796 30.4986C16.5707 33.2695 21.0369 33.233 24.6098 30.4986C28.1827 27.7643 27.6115 27.2236 28.0004 25.6681C28.3892 20.2236 28.5108 16.9179 23.4796 14.2018C14.602 9.4075 5.1228 19.5794 10.6645 28.0377H10.6462Z" fill="#140505"/>
<path d="M38.5002 10.0269C43.4039 10.2456 48.7997 9.6076 53.6487 9.99042C59.1356 10.4279 59.4273 18.1206 54.0315 18.9956C49.0914 18.704 43.6044 19.4331 38.7372 19.0139C33.3414 18.5581 33.1591 10.756 38.5002 10.0269ZM38.7737 13.0165C37.0601 13.5269 37.1695 15.7873 39.0106 15.9878C43.6044 15.605 49.0185 16.4982 53.5028 15.9878C55.4169 15.7691 55.3804 13.1987 53.5028 12.98L38.7737 13.0165Z" fill="#4065D3"/>
<path d="M38.5002 22.0581C43.4039 22.2769 48.7997 21.6389 53.6487 22.0217C59.1356 22.4592 59.4273 30.1519 54.0315 31.0269C49.0914 30.7352 43.6044 31.4644 38.7372 31.0451C33.3414 30.5894 33.1591 22.7873 38.5002 22.0581ZM38.7737 25.0477C37.0601 25.5581 37.1695 27.8185 39.0106 28.0191C43.6044 27.6362 49.0185 28.5295 53.5028 28.0191C55.4169 27.8003 55.3804 25.23 53.5028 25.0112L38.7737 25.0477Z" fill="#4065D3"/>
<path d="M60.6482 42.8207C61.8149 42.7113 62.5623 44.0603 62.0883 45.0811L56.2732 50.8962C55.8357 51.0785 55.1795 51.0785 54.7602 50.8415C54.1222 49.9665 51.5519 48.0889 51.2237 47.2686C50.6039 45.7556 52.0441 44.4249 53.4295 45.3363C54.8149 46.2478 55.2159 47.4145 55.6717 47.3051C56.1274 47.1957 59.0441 43.7139 59.7914 43.2217C60.0102 43.0577 60.393 42.8572 60.6482 42.8389V42.8207Z" fill="#140505"/>
<path d="M38.7733 13.015L53.5025 12.9785C55.3801 13.1973 55.4166 15.7676 53.5025 15.9863C49.0181 16.4967 43.6041 15.6035 39.0103 15.9863C37.1692 15.7858 37.0598 13.5254 38.7733 13.015Z" fill="#FEFEFE"/>
<path d="M38.7733 25.0462L53.5025 25.0098C55.3801 25.2285 55.4166 27.7988 53.5025 28.0176C49.0181 28.528 43.6041 27.6348 39.0103 28.0176C37.1692 27.8171 37.0598 25.5566 38.7733 25.0462Z" fill="#FEFEFE"/>
</g>
<defs>
<clipPath id="clip0_625_12991">
<rect width="70" height="70" fill="white"/>
</clipPath>
</defs>
</svg>
