<svg width="50" height="50" viewBox="0 0 50 50" fill="none" xmlns="http://www.w3.org/2000/svg">
<g clip-path="url(#clip0_1373_30084)">
<path d="M50.0005 8.77558V9.55683C49.8442 9.77819 49.7531 10.0386 49.5578 10.2469C49.3624 10.4553 48.9328 10.5855 48.9067 10.7808L48.8676 45.7027C48.7244 46.6011 47.8911 47.4735 46.9796 47.6297C46.0682 47.786 41.3807 47.773 40.6255 47.5907C39.8703 47.4084 38.9458 46.4318 38.8546 45.4553V10.7808C38.8546 10.5725 38.5812 10.5985 38.4119 10.4422C37.6437 9.75215 37.5395 8.87975 38.1775 8.04642C38.7244 7.33027 41.8364 4.02298 42.4744 3.6584C43.1124 3.29381 44.3364 3.17663 45.1697 3.58027C46.0031 3.98392 48.9718 7.25215 49.5447 7.99433C50.1177 8.73652 49.8572 8.46308 49.9874 8.77558H50.0005ZM46.6802 45.4943L46.7843 44.9605C46.8494 33.1506 46.6411 21.3016 46.8885 9.51777L47.3572 8.84069L44.2192 5.5334C44.0109 5.42923 43.7895 5.42923 43.5812 5.5334L40.4432 8.84069C40.6515 9.23131 41.0682 9.49173 41.0291 9.99954V44.9735L41.1203 45.5074H46.6932L46.6802 45.4943Z" fill="#140505"/>
<path d="M7.22721 19.3226C6.91471 19.6481 5.41732 20.9242 5.36523 21.2367C5.30013 21.6794 6.06836 22.1481 6.3418 22.4997C6.61524 22.8512 6.92774 23.5283 6.92774 24.0622C6.92774 24.596 6.04232 26.7835 5.76888 27.2913C5.33919 28.0986 4.57096 28.5934 3.64648 28.6846C2.72201 28.7757 2.3444 28.5413 2.18815 28.8799L2.24023 32.7861H3.75065C5.43034 32.7861 6.21159 35.1038 6.68034 36.4059C7.14909 37.708 6.97982 38.1507 6.3418 38.9841C5.70378 39.8174 5.30013 39.8044 5.36523 40.2471C5.66471 40.6377 7.80013 42.9163 8.06055 42.9424C8.32096 42.9684 8.85482 42.2783 9.12826 42.057C9.92253 41.4189 10.6126 41.2106 11.6413 41.4971C12.6699 41.7835 13.5684 42.2393 14.0632 42.4867C14.5579 42.7341 15.2871 43.4502 15.4043 44.1794C15.5215 44.9085 15.3001 45.8851 15.5866 46.0674C15.873 46.2497 18.4251 46.1976 18.8939 46.1585C19.3626 46.1195 19.5579 46.1585 19.623 45.6247C19.7402 44.57 19.4277 43.8799 20.3001 42.9814C21.1725 42.083 22.8132 41.6794 23.4121 41.4971C24.3496 41.2106 25.1309 41.4059 25.873 42.0049C26.6152 42.6038 26.6803 43.0335 27.071 42.9163C27.4486 42.4736 29.6361 40.5986 29.6882 40.2341C29.7402 39.8695 28.9329 39.2966 28.6595 38.9189C28.2298 38.307 28.1126 37.4867 28.2428 36.7575C28.373 36.0283 29.4408 33.8799 29.6882 33.6064C29.9355 33.333 30.8991 32.7731 31.3027 32.7731H32.7611C32.8652 32.7731 32.9043 32.5387 32.9173 32.4346C32.9954 31.7184 32.9954 29.7262 32.9173 29.0101C32.8392 28.2939 32.8783 28.6716 32.7611 28.6716H31.1986C30.7298 28.6716 29.8314 28.0856 29.5449 27.695C29.2585 27.3044 28.373 25.195 28.2819 24.8564C28.0605 23.9189 28.2168 23.1247 28.8027 22.3825C29.3887 21.6403 29.9355 21.6012 29.584 21.0023C29.2324 20.4033 28.2949 19.8304 27.9173 19.4007C27.9954 19.2835 28.7116 17.5127 28.8027 17.2523C30.1309 18.7106 32.6829 20.0648 31.6543 22.3955C30.6257 24.7262 30.4173 23.6195 30.3652 23.945C30.2741 24.4919 31.1855 25.7158 31.2376 26.3669C31.4199 26.6533 32.4876 26.4971 32.8522 26.5361C33.985 26.6533 34.9486 27.5908 35.0527 28.7236C35.1569 29.8564 35.1699 32.3955 34.9876 33.1507C34.7923 33.958 33.946 34.7653 33.1257 34.9085C32.3053 35.0518 31.4329 34.8044 31.2376 35.0908C31.0423 35.3773 30.4043 37.1221 30.3913 37.2523C30.2871 37.8252 31.0293 38.1768 31.3418 38.5934C32.123 39.596 32.084 40.7679 31.3027 41.7705C30.8861 42.3044 28.8027 44.4007 28.2949 44.7132C27.4486 45.2341 26.3158 45.208 25.4954 44.6351C25.1048 44.3617 24.571 43.4502 24.1022 43.5283C23.7376 43.8538 22.071 44.2575 21.8757 44.5309C21.6803 44.8044 21.8236 45.5986 21.7715 45.9893C21.6152 47.3174 20.5996 48.1898 19.2975 48.2939C17.9954 48.3981 15.7559 48.3981 14.9746 48.1117C14.1934 47.8252 13.3991 46.8747 13.2949 45.8851C13.1908 44.8955 13.373 44.583 13.1908 44.4268C12.6309 44.4007 11.3158 43.5153 10.8991 43.5023C10.4824 43.4893 9.92253 44.3747 9.57096 44.6091C8.89388 45.0908 8.09961 45.182 7.30534 44.9346C6.51107 44.6872 4.31055 42.4216 3.80273 41.7966C3.02148 40.807 2.98242 39.6091 3.72461 38.5934C4.4668 37.5778 4.74023 37.6689 4.76628 37.3955C4.37565 36.8096 4.18034 35.6507 3.8418 35.1429C3.50326 34.6351 2.48763 34.9736 2.01888 34.9085C1.0293 34.7783 0.378255 33.9189 0.0136719 33.0596V28.3721C0.430339 27.4867 1.08138 26.6663 2.12305 26.5231C2.57878 26.458 3.60742 26.6794 3.86784 26.3148C3.86784 25.846 4.80534 24.3226 4.7793 24.0361C4.75326 23.7497 3.9069 23.1117 3.68555 22.7992C2.04492 20.4684 4.85742 18.6976 6.26367 17.2393C6.44596 17.7731 6.95378 18.7887 7.24023 19.2966L7.22721 19.3226Z" fill="#4065D3"/>
<path d="M28.8015 17.2782C28.7103 17.5386 27.9942 19.3095 27.9161 19.4267C27.838 19.5438 27.7468 19.4267 27.6817 19.5308C26.0932 21.7834 24.5958 23.372 21.9656 24.4136C19.3353 25.4553 20.8067 24.8173 20.2077 24.9475L17.9551 25.286C17.6426 25.273 17.2781 25.273 16.9786 25.286L14.9083 24.9605C14.3874 24.9214 13.6713 24.4527 13.1635 24.5048C10.7156 23.3459 8.58014 21.7053 7.19993 19.3225C5.81972 16.9397 6.40566 17.799 6.22337 17.2652C3.85358 10.1819 8.58014 2.52561 15.976 1.56207C24.6999 0.429254 31.6661 8.91884 28.8015 17.2782ZM17.0697 3.63238C9.1791 3.99696 4.9343 13.398 10.0124 19.5178C14.4786 24.9084 23.0593 24.01 26.2234 17.76C29.5958 11.1194 24.4656 3.28082 17.0697 3.61936V3.63238Z" fill="#140505"/>
<path d="M46.6797 45.4941H41.1068L41.0026 44.9603V9.99935C41.0417 9.49154 40.638 9.23112 40.4297 8.84049L43.5677 5.5332C43.776 5.42904 43.9974 5.42904 44.2057 5.5332L47.3438 8.84049L46.875 9.51758C46.6276 21.3014 46.8359 33.1504 46.7708 44.9603L46.6667 45.4941H46.6797Z" fill="#FEFEFE"/>
<path d="M13.1771 24.5045C12.7474 24.5566 11.7188 25.7415 11.4323 26.1322C6.26302 33.3587 15.651 41.9655 22.3568 36.3665C26.1849 33.1764 25.8464 27.3822 21.9661 24.4004C24.5964 23.3587 26.0938 21.7702 27.6823 19.5176C29.2708 17.265 27.9167 19.4264 27.9167 19.4134C28.2943 19.8561 29.3229 20.5723 29.5833 21.015C29.8438 21.4577 29.1406 21.9655 28.8021 22.3952C28.2161 23.1374 28.0599 23.9316 28.2813 24.8691C28.5026 25.8066 29.3359 27.4342 29.5443 27.7077C29.7526 27.9811 30.7292 28.6842 31.1979 28.6842H32.7604C32.8646 28.6842 32.9036 28.9186 32.9167 29.0228C32.9948 29.7389 32.9948 31.7311 32.9167 32.4473C32.8385 33.1634 32.8776 32.7858 32.7604 32.7858H31.3021C30.8984 32.7858 29.974 33.3066 29.6875 33.6191C29.401 33.9316 28.3073 36.4056 28.2422 36.7702C28.112 37.5124 28.2292 38.3197 28.6589 38.9316C29.0885 39.5436 29.7526 39.791 29.6875 40.2467C29.6224 40.7025 27.4479 42.4863 27.0703 42.929C26.6797 43.0462 26.1849 42.265 25.8724 42.0176C25.1302 41.4186 24.3359 41.2233 23.4115 41.5098C22.487 41.7962 20.6901 42.6035 20.2995 42.9941C19.4271 43.8926 19.7266 44.5827 19.6224 45.6374C19.5182 46.6921 19.388 46.1452 18.8932 46.1712C18.3984 46.1973 15.8203 46.2233 15.5859 46.0801C15.3516 45.9368 15.4688 44.5957 15.4036 44.1921C15.2865 43.4759 14.7005 42.8249 14.0625 42.4993C13.4245 42.1738 12.1484 41.653 11.6406 41.5098C10.625 41.2233 9.92188 41.4316 9.1276 42.0697C8.33333 42.7077 8.3724 42.9811 8.0599 42.9551C7.7474 42.929 5.66406 40.6504 5.36458 40.2598C5.29948 39.8171 6.06771 39.3483 6.34115 38.9967C6.99219 38.1504 7.03125 37.3822 6.67969 36.4186C6.32813 35.4551 5.42969 32.7988 3.75 32.7988H2.23958L2.1875 28.8926C2.35677 28.554 3.28125 28.7363 3.64583 28.6973C4.55729 28.6061 5.33854 28.1113 5.76823 27.304C6.19792 26.4967 6.9401 24.5566 6.92708 24.0749C6.91406 23.5931 6.66667 22.929 6.34115 22.5124C6.01563 22.0957 5.29948 21.6921 5.36458 21.2493C5.42969 20.8066 6.91406 19.6608 7.22656 19.3353C8.60677 21.7051 10.7422 23.3457 13.1901 24.5176L13.1771 24.5045Z" fill="#FEFEFE"/>
<path d="M17.0703 3.6322C24.4662 3.29365 29.5964 11.1192 26.224 17.7728C23.0469 24.0228 14.4662 24.9213 10.013 19.5306C4.93492 13.4108 9.17972 4.0098 17.0703 3.64522V3.6322ZM16.7318 11.3926C16.4714 11.0801 16.6667 10.4812 17.0183 10.3249C18.0599 9.8822 18.6328 10.9369 19.5573 10.7155C20.4818 10.4942 20.4427 9.71293 20.1563 9.17907C19.8698 8.64522 18.8282 8.37178 18.6979 8.18949C18.5677 8.0072 18.6198 7.48636 18.2552 7.17386C17.8907 6.86136 16.9141 6.87438 16.6146 7.47334C16.3151 8.0723 16.5625 8.0723 16.4063 8.24157C16.25 8.41084 15.8203 8.50199 15.625 8.6322C14.349 9.54365 13.9974 11.666 15.1302 12.8249C16.263 13.9838 17.3959 13.8405 18.2943 14.4525C19.1927 15.0645 18.6719 16.1322 17.8776 16.3405C16.7318 16.64 16.5104 16.1843 15.6771 15.8978C14.8438 15.6114 13.9193 16.4707 14.3099 17.3692C14.7005 18.2676 16.4323 18.4499 16.4974 18.5541C16.5625 18.6582 16.4974 18.9056 16.5235 19.0619C16.7839 19.9343 17.9948 20.0645 18.4636 19.2832C18.9323 18.502 18.5938 18.489 18.6719 18.3718C18.75 18.2546 19.336 18.0463 19.5183 17.903C21.3933 16.4707 21.3412 13.6062 19.2058 12.4733C17.0703 11.3405 17.0443 11.7702 16.7318 11.3926Z" fill="#FEFEFE"/>
<path d="M16.9928 25.2861C17.2923 25.2731 17.6569 25.2731 17.9694 25.2861C24.5579 25.6117 24.4407 35.5465 17.9303 35.9372C10.7168 36.3669 10.3001 25.6768 16.9928 25.2861Z" fill="#FEFEFE"/>
<path d="M21.9797 24.4004C25.8599 27.3822 26.1984 33.1764 22.3703 36.3665C15.6646 41.9525 6.27655 33.3587 11.4458 26.1322C11.7193 25.7415 12.7609 24.5566 13.1906 24.5046C13.6203 24.4525 14.4015 24.9342 14.9354 24.9603L17.0057 25.2858C10.313 25.6764 10.7297 36.3665 17.9432 35.9368C24.4536 35.5462 24.5838 25.6243 17.9823 25.2858L20.2349 24.9473C20.8338 24.8171 21.4198 24.6348 21.9927 24.4134L21.9797 24.4004Z" fill="#4065D3"/>
<path d="M16.733 11.3924C17.0455 11.77 18.6862 12.1997 19.207 12.4731C21.3554 13.6059 21.3945 16.4705 19.5195 17.9028C17.6445 19.3351 18.6992 18.3325 18.6731 18.3715C18.595 18.4887 18.6471 18.9835 18.4648 19.283C17.9961 20.0643 16.7851 19.934 16.5247 19.0616C16.2643 18.1893 16.5507 18.645 16.4987 18.5538C16.4466 18.4627 14.6757 18.2023 14.3112 17.3689C13.9466 16.5356 14.7408 15.5721 15.6783 15.8976C16.6158 16.2231 16.733 16.6398 17.8789 16.3403C18.6731 16.132 19.0768 14.9861 18.2955 14.4523C17.5143 13.9184 16.0559 13.7752 15.1315 12.8247C14.207 11.8741 14.3502 9.5304 15.6263 8.63196C16.9023 7.73352 16.3164 8.3455 16.4075 8.24133C16.5638 8.07206 16.4726 7.74654 16.6158 7.4731C16.9153 6.87415 17.7487 6.74394 18.2565 7.17363C18.7643 7.60331 18.5429 7.98092 18.6992 8.18925C18.8554 8.39758 19.832 8.55383 20.1575 9.17883C20.483 9.80383 20.1575 10.5721 19.5586 10.7153C18.6341 10.9236 18.0612 9.86894 17.0195 10.3247C15.9778 10.7804 16.4726 11.0929 16.733 11.3924Z" fill="#140505"/>
</g>
<defs>
<clipPath id="clip0_1373_30084">
<rect width="50" height="50" fill="white"/>
</clipPath>
</defs>
</svg>
