<svg width="21" height="21" viewBox="0 0 21 21" fill="none" xmlns="http://www.w3.org/2000/svg">
<path d="M13.1674 18.1735L13.1766 18.1799C13.9685 18.6841 14.9086 18.903 15.8418 18.8005C16.7749 18.698 17.6451 18.2803 18.3087 17.6163L18.8851 17.0398C19.0129 16.9121 19.1142 16.7606 19.1834 16.5937C19.2525 16.4269 19.2881 16.2481 19.2881 16.0675C19.2881 15.8869 19.2525 15.708 19.1834 15.5412C19.1142 15.3743 19.0129 15.2228 18.8851 15.0951L16.4538 12.6656C16.3262 12.5379 16.1746 12.4365 16.0077 12.3674C15.8409 12.2982 15.6621 12.2627 15.4815 12.2627C15.3009 12.2627 15.122 12.2982 14.9552 12.3674C14.7884 12.4365 14.6368 12.5379 14.5091 12.6656C14.2513 12.9233 13.9017 13.0681 13.5372 13.0681C13.1727 13.0681 12.8231 12.9233 12.5653 12.6656L8.67776 8.77712C8.42004 8.51933 8.27527 8.16974 8.27527 7.80522C8.27527 7.44071 8.42004 7.09112 8.67776 6.83333C8.8055 6.70567 8.90683 6.55409 8.97597 6.38725C9.04511 6.22041 9.0807 6.04158 9.0807 5.86098C9.0807 5.68038 9.04511 5.50155 8.97597 5.33471C8.90683 5.16787 8.8055 5.01629 8.67776 4.88863L6.24734 2.45913C5.98955 2.20141 5.63996 2.05664 5.27544 2.05664C4.91093 2.05664 4.56134 2.20141 4.30355 2.45913L3.72619 3.03557C3.06231 3.69924 2.64471 4.56955 2.5424 5.50268C2.44008 6.43581 2.65918 7.37592 3.16349 8.16768L3.16899 8.17684C5.83235 12.1174 9.22641 15.5108 13.1674 18.1735V18.1735Z" stroke="#FEFEFE" stroke-width="1.40856" stroke-linecap="round" stroke-linejoin="round"/>
</svg>
