<svg width="38" height="38" viewBox="0 0 38 38" fill="none" xmlns="http://www.w3.org/2000/svg">
<path d="M11.052 26.8668C6.97488 22.7817 3.83938 17.8553 1.86484 12.4319C0.778523 9.46687 1.77383 6.20982 4.00713 3.97653L5.38919 2.59636C5.76075 2.22406 6.20209 1.92868 6.68794 1.72715C7.17379 1.52561 7.69462 1.42188 8.22062 1.42188C8.74661 1.42187 9.26744 1.52561 9.75329 1.72715C10.2391 1.92868 10.6805 2.22406 11.052 2.59636L14.2882 5.83255C14.6605 6.20411 14.9559 6.64545 15.1574 7.1313C15.359 7.61715 15.4627 8.13799 15.4627 8.66398C15.4627 9.18997 15.359 9.7108 15.1574 10.1967C14.9559 10.6825 14.6605 11.1238 14.2882 11.4954L13.492 12.2917C13.1733 12.6103 12.9204 12.9886 12.7479 13.405C12.5755 13.8214 12.4867 14.2676 12.4867 14.7183C12.4867 15.169 12.5755 15.6153 12.7479 16.0317C12.9204 16.448 13.1733 16.8263 13.492 17.145L20.772 24.4269C21.0906 24.7456 21.4689 24.9984 21.8853 25.1709C22.3017 25.3434 22.748 25.4322 23.1986 25.4322C23.6493 25.4322 24.0956 25.3434 24.512 25.1709C24.9284 24.9984 25.3067 24.7456 25.6253 24.4269L26.4235 23.6306C26.795 23.2583 27.2364 22.963 27.7222 22.7614C28.2081 22.5599 28.7289 22.4561 29.2549 22.4561C29.7809 22.4561 30.3017 22.5599 30.7876 22.7614C31.2734 22.963 31.7148 23.2583 32.0863 23.6306L35.3225 26.8668C35.6948 27.2384 35.9902 27.6797 36.1917 28.1656C36.3933 28.6514 36.497 29.1723 36.497 29.6982C36.497 30.2242 36.3933 30.7451 36.1917 31.2309C35.9902 31.7168 35.6948 32.1581 35.3225 32.5297L33.9423 33.9098C31.709 36.145 28.452 37.1403 25.4869 36.054C20.0636 34.0795 15.1371 30.944 11.052 26.8668Z" stroke="#4065D3" stroke-width="2.84375" stroke-linejoin="round"/>
</svg>
