<svg width="45" height="45" viewBox="0 0 45 45" fill="none" xmlns="http://www.w3.org/2000/svg">
<g clip-path="url(#clip0_494_6388)">
<path d="M45 20.6487V28.8284L44.6016 29.2737C43.4648 29.7191 42.0938 29.6019 40.875 29.8128C39.9844 31.7816 38.4844 33.4339 36.8203 34.7698C37.0547 35.9534 38.3789 37.0901 37.1016 38.0394C35.6484 39.1292 33.5508 39.9144 32.0273 40.9573C31.7109 41.0862 31.3242 41.1097 31.0547 40.8636L29.1094 38.4847C28.0664 38.7308 27.0117 38.9769 25.9453 39.0941C23.3672 39.3753 20.8828 39.2464 18.3398 38.8128C15.7969 38.3792 17.332 38.5081 17.0625 38.5081C16.793 38.5081 15.4336 40.5472 14.9766 40.8636C14.5195 41.18 14.3203 41.0745 13.8867 40.8987C12.832 40.4651 11.0859 39.3167 10.043 38.6839C9.51562 38.3675 8.54297 37.9573 8.40234 37.3245C8.26172 36.6917 9.10547 35.4378 9.21094 34.7581C6.375 32.4847 4.34766 29.3323 3.9375 25.6644C2.08594 25.8753 0.585938 25.2073 0 23.3675V20.4612C0.386719 19.5003 1.76953 19.5472 1.93359 20.6019C2.17969 22.2308 1.16016 24.223 4.00781 23.637C4.125 22.1839 4.58203 20.7894 5.21484 19.4769C5.84766 18.1644 5.96484 18.2464 5.97656 18.1292C6 17.8597 5.64844 17.5198 5.51953 17.2737C3.96094 14.3323 3.85547 11.1566 5.58984 8.26202C9.15234 2.28546 17.9883 2.59015 21.1406 8.77765C21.2812 9.0589 21.5742 9.99639 21.668 10.1019C21.8203 10.2776 23.9648 10.1605 24.3984 10.1839C26.0859 10.2659 27.7383 10.6409 29.3906 10.9691C30.1406 9.96124 30.8789 9.09405 32.0039 8.47296C32.8711 7.99249 36.0352 6.84405 36.2227 8.47296L36.2695 14.2269C38.2148 15.6448 39.8555 17.4847 40.9688 19.6292C41.7422 19.8284 44.1914 19.723 44.707 20.1917C45.2227 20.6605 44.8594 20.5198 45.0117 20.637L45 20.6487ZM12.5508 5.91827C7.16016 6.42218 4.42969 12.7151 7.69922 17.0511C10.7109 21.0355 16.9219 20.555 19.3008 16.1839C21.9609 11.2737 18.082 5.41436 12.5625 5.92999L12.5508 5.91827ZM20.0391 18.5394C16.9336 22.3128 11.1328 22.7581 7.42969 19.5941C4.42969 24.3519 6.05859 29.262 9.92578 32.8245C10.4414 33.305 11.4727 33.7269 11.3906 34.5355C11.3086 35.3441 10.5 36.5862 10.6406 36.8089L14.0625 38.719C14.2383 38.7894 14.3438 38.6019 14.4609 38.4964C14.9766 37.9691 15.8086 36.4808 16.5 36.3987C20.7539 37.5355 25.2305 37.6058 29.4844 36.3987C30.2812 36.3987 31.1602 38.1097 31.7227 38.637L32.0156 38.7542L35.4023 36.8206C35.4492 35.8714 34.1602 34.5823 34.9805 33.7269C35.8008 32.8714 36.3633 32.6956 36.9023 32.1331C37.4414 31.5706 38.2148 30.6214 38.6367 29.9183C39.1406 29.098 39.2578 28.0667 40.3008 27.8909C41.3438 27.7151 42.1641 27.7855 43.043 27.6097V21.8089C42.1289 21.6917 40.9805 21.7386 40.1016 21.5394C39.2227 21.3401 39.6914 21.3987 39.5625 21.2816C39.2812 21.012 38.7656 19.7581 38.4727 19.3011C37.8984 18.4222 37.0547 17.4495 36.2695 16.7581C35.4844 16.0667 34.2422 15.3401 34.2422 14.9183V9.77374C33.0586 9.87921 31.8867 10.7698 31.2539 11.7542C30.6211 12.7386 30.7617 13.1019 30.0469 13.1956C29.332 13.2894 28.5117 12.8089 28.0195 12.7151C26.0508 12.3167 24.0469 12.1058 22.0312 12.1644V14.0511C22.0312 14.5667 21.4805 16.1253 21.2344 16.6409C20.9883 17.1566 20.4258 18.0589 20.0039 18.5745L20.0391 18.5394Z" fill="#140505"/>
<path d="M21.27 16.6172C21.5044 16.1016 22.0669 14.5312 22.0669 14.0273V12.1406C24.0825 12.082 26.0864 12.293 28.0552 12.6914C30.0239 13.0898 29.6841 13.2305 30.0825 13.1719C30.7973 13.0781 30.9614 12.2461 31.2895 11.7305C31.9341 10.7461 33.0942 9.85547 34.2778 9.75V14.8945C34.2778 15.3164 35.9184 16.3945 36.3052 16.7344C37.0903 17.4375 37.9341 18.3984 38.5083 19.2773C39.0825 20.1562 39.3169 20.9883 39.5981 21.2578C39.8794 21.5273 39.9614 21.4805 40.1372 21.5156C41.0161 21.7148 42.1645 21.668 43.0786 21.7852V27.5859C42.1997 27.7617 41.2153 27.7266 40.3364 27.8672C39.4575 28.0078 39.1763 29.0742 38.6723 29.8945C38.2388 30.5977 37.5122 31.5234 36.938 32.1094C36.3638 32.6953 35.5083 33.1875 35.0161 33.7031C34.1841 34.5586 35.4731 35.8477 35.438 36.7969L32.0513 38.7305L31.7583 38.6133C31.2075 38.0859 30.3169 36.3867 29.52 36.375C25.2661 37.582 20.7895 37.5117 16.5356 36.375C15.8325 36.457 15.0005 37.9336 14.4966 38.4727C13.9927 39.0117 14.2739 38.7773 14.0981 38.6953L10.6763 36.7852C10.5356 36.5625 11.3794 34.9453 11.4263 34.5117C11.52 33.7031 10.4888 33.2695 9.96141 32.8008C6.09422 29.2383 4.4536 24.3281 7.46532 19.5703C11.1684 22.7344 16.9692 22.2891 20.0747 18.5156H27.6802C28.8052 18.4219 29.0395 17.0625 28.0083 16.6055L21.3052 16.582L21.27 16.6172ZM33.4692 19.4414C32.1216 19.5117 32.1567 22.3359 33.5161 22.2891C34.5708 22.2539 34.5239 21.1289 34.4536 20.3438C34.3833 19.5586 34.0083 19.418 33.4575 19.4414H33.4692Z" fill="#FEFEFE"/>
<path d="M12.5506 5.9185C18.0701 5.40287 21.949 11.2622 19.2889 16.1724C16.9217 20.5552 10.699 21.024 7.6873 17.0396C4.41777 12.7037 7.14824 6.41069 12.5389 5.90678L12.5506 5.9185ZM14.1678 8.77787C14.0389 8.56694 14.3436 8.03959 13.7928 7.69975C13.242 7.35991 12.5506 7.55912 12.3162 8.15678C12.0818 8.75444 12.2459 8.83647 12.1639 8.97709C12.0818 9.11772 11.7303 9.25834 11.6014 9.38725C10.4646 10.5474 10.6404 12.4576 11.9998 13.3599C13.3592 14.2622 13.8514 13.8287 13.5936 14.7193C13.3357 15.6099 12.5037 14.8482 12.1404 14.8013C11.1092 14.6607 10.6053 16.0083 11.5662 16.6177C12.5271 17.2271 12.117 16.8169 12.1639 16.899C12.2576 17.0513 12.2225 17.4849 12.4334 17.7779C12.7615 18.2583 13.6053 18.2935 13.9686 17.8247C14.3318 17.356 14.0389 17.1099 14.1912 16.8169C14.3436 16.524 14.8826 16.2544 15.0584 16.0201C15.9959 14.7662 15.6092 13.0435 14.2615 12.2701C12.9139 11.4966 12.5857 11.8833 12.8436 10.9927C13.1014 10.1021 14.0975 10.981 14.5311 10.9224C15.2107 10.8404 15.5975 10.0083 15.2342 9.43412C14.8709 8.85991 14.2029 8.88334 14.1561 8.80131L14.1678 8.77787Z" fill="#FEFEFE"/>
<path d="M21.2695 16.6172L27.9727 16.6406C29.0039 17.0977 28.7695 18.4688 27.6445 18.5508H20.0391C20.4609 18.0352 20.9883 17.2266 21.2695 16.6172Z" fill="#4065D3"/>
<path d="M33.4691 19.4416C34.0198 19.4064 34.4183 19.8166 34.4651 20.3439C34.5355 21.1291 34.5823 22.2658 33.5276 22.2892C32.1683 22.3361 32.1214 19.5119 33.4808 19.4416H33.4691Z" fill="#140505"/>
<path d="M14.1681 8.77867C14.215 8.8607 14.9884 8.98961 15.2462 9.41148C15.504 9.83336 15.2228 10.8177 14.5431 10.8998C13.8634 10.9818 13.0782 10.2318 12.8556 10.9701C12.6329 11.7084 13.711 11.9193 14.2735 12.2474C15.6212 13.0326 16.0079 14.7435 15.0704 15.9974C14.1329 17.2513 14.2384 16.7123 14.2032 16.7943C14.0626 17.099 14.2853 17.4154 13.9806 17.8021C13.6759 18.1888 12.7735 18.2357 12.4454 17.7552C12.1173 17.2748 12.2814 17.0287 12.1759 16.8763C12.0704 16.724 11.7306 16.7005 11.5782 16.5951C10.6173 15.9857 11.1212 14.638 12.1525 14.7787C13.1837 14.9193 13.4064 15.3763 13.6056 14.6966C13.8048 14.017 12.5626 13.7005 12.0118 13.3373C10.6525 12.4349 10.465 10.5248 11.6134 9.36461C11.7423 9.2357 12.1173 9.05992 12.1759 8.95445C12.2579 8.81383 12.2228 8.41539 12.3282 8.13414C12.5509 7.53648 13.2657 7.33726 13.8048 7.67711C14.3439 8.01695 14.0509 8.54429 14.1798 8.75523L14.1681 8.77867Z" fill="#4065D3"/>
</g>
<defs>
<clipPath id="clip0_494_6388">
<rect width="45" height="45" fill="white"/>
</clipPath>
</defs>
</svg>
