<svg width="41" height="29" viewBox="0 0 41 29" fill="none" xmlns="http://www.w3.org/2000/svg">
<path d="M9.00538 10.245C10.7784 10.245 12.5116 10.7708 13.9857 11.7558C15.4599 12.7408 16.6089 14.1409 17.2874 15.7789C17.9659 17.4169 18.1434 19.2194 17.7975 20.9583C17.4516 22.6972 16.5979 24.2945 15.3442 25.5482C14.0905 26.8019 12.4932 27.6557 10.7543 28.0016C9.01533 28.3475 7.21289 28.17 5.57486 27.4915C3.93682 26.813 2.53678 25.664 1.55175 24.1898C0.566733 22.7156 0.0409801 20.9824 0.0409801 19.2094L0 17.9288C0 13.1738 1.88892 8.61353 5.25123 5.25123C8.61353 1.88892 13.1738 0 17.9288 0V5.12252C16.2463 5.11799 14.5796 5.44705 13.0251 6.09067C11.4706 6.73428 10.0591 7.67968 8.8722 8.8722C8.41083 9.33256 7.98528 9.82746 7.59925 10.3526C8.05857 10.2792 8.52643 10.2425 9.00282 10.2425L9.00538 10.245ZM32.0567 10.245C33.8297 10.245 35.5629 10.7708 37.0371 11.7558C38.5113 12.7408 39.6602 14.1409 40.3387 15.7789C41.0172 17.4169 41.1948 19.2194 40.8489 20.9583C40.503 22.6972 39.6492 24.2945 38.3955 25.5482C37.1418 26.8019 35.5445 27.6557 33.8056 28.0016C32.0667 28.3475 30.2642 28.17 28.6262 27.4915C26.9881 26.813 25.5881 25.664 24.6031 24.1898C23.6181 22.7156 23.0923 20.9824 23.0923 19.2094L23.0513 17.9288C23.0513 13.1738 24.9402 8.61353 28.3026 5.25123C31.6649 1.88892 36.2251 0 40.9801 0V5.12252C39.2976 5.11799 37.631 5.44705 36.0764 6.09067C34.5219 6.73428 33.1104 7.67968 31.9235 8.8722C31.4622 9.33256 31.0366 9.82746 30.6506 10.3526C31.1099 10.2792 31.5786 10.245 32.0567 10.245Z" fill="#4065D3"/>
</svg>
