<svg width="50" height="50" viewBox="0 0 50 50" fill="none" xmlns="http://www.w3.org/2000/svg">
<g clip-path="url(#clip0_875_15113)">
<path d="M50.0002 28.2142C49.271 29.3861 47.6174 28.8262 46.4716 29.2428C46.1591 30.4017 45.6252 31.4564 45.1304 32.5371C45.6382 33.6829 47.6044 34.6855 46.6278 36.0267C46.146 36.6908 43.1382 39.6986 42.4742 40.1803C41.146 41.1569 40.1044 39.2038 39.0106 38.6699C37.9299 39.1777 36.8622 39.7246 35.6903 40.0241C35.3127 40.9225 35.7684 43.3444 34.5054 43.5397L28.008 43.5007C26.9533 43.1751 27.344 40.8704 26.9794 40.0111C25.8205 39.6986 24.7398 39.1647 23.6721 38.6569C22.6174 39.2038 21.4716 41.1569 20.2085 40.1673L16.4065 36.3522C15.0002 36.0788 13.0341 36.5475 11.6929 36.2741C10.5992 36.0527 10.6382 34.4512 11.6929 34.1647H16.3414C16.3414 34.1517 17.5783 32.5371 17.5783 32.5371C17.0445 31.4434 16.5497 30.3496 16.1981 29.1777C15.1304 28.8262 12.8387 29.373 12.6955 27.8496C12.5523 26.3262 12.5653 23.3574 12.6955 21.8861C12.8257 20.4147 15.1174 20.9095 16.1981 20.5579C16.5236 19.36 17.1356 18.2663 17.5653 17.1335L16.3414 15.597C14.9351 15.4928 13.3466 15.7402 11.9664 15.597C10.5471 15.4668 10.5341 13.6048 11.8752 13.4355C13.2945 13.2663 14.9742 13.6048 16.4195 13.3835L20.2736 9.5293C21.5367 8.66992 22.6695 10.5449 23.6851 11.0918C24.7658 10.584 25.8335 10.0501 26.9924 9.73763C27.357 8.87826 26.9664 6.57357 28.021 6.24805H34.6747C35.7033 6.56055 35.3908 8.83919 35.6643 9.69857C36.8101 10.0501 37.8908 10.5059 38.9455 11.0658C40.0263 10.7012 41.094 8.66992 42.383 9.47721C43.5289 10.8965 45.5992 12.3027 46.6408 13.722C47.6825 15.1413 45.6513 16.0658 45.1434 17.2116C45.6382 18.2923 46.1721 19.347 46.4846 20.5059C47.6174 20.9486 49.4403 20.3236 50.0132 21.6387V28.1751L50.0002 28.2142ZM33.2945 8.39649H29.4012C29.1799 9.17774 29.3752 10.9746 28.7111 11.4694C27.6955 11.873 26.6148 12.1074 25.6122 12.5762C24.6096 13.0449 24.0236 13.6048 23.4898 13.5658C22.9559 13.5267 21.9012 12.3548 21.3153 12.0163C20.7294 11.6777 21.12 11.873 20.9898 11.9512L18.3596 14.6074C18.633 15.3496 20.0132 16.3783 20.0132 17.1335C20.0132 17.8887 19.219 18.722 18.9846 19.2298C18.5549 20.1673 18.2815 21.1569 17.995 22.1465C17.5002 23.0059 15.6512 22.6283 14.8179 22.9928V26.834C15.6252 27.0684 17.383 26.834 17.9039 27.5241C18.4247 28.2142 18.5419 29.4642 18.7762 30.0632C19.0106 30.6621 20.0262 32.3027 19.9872 32.7454C19.9351 33.4746 18.594 34.4382 18.3726 35.0632C18.1512 35.6882 18.3075 35.1803 18.3726 35.2454C18.8153 35.5449 20.7554 37.8106 21.0289 37.8757C21.3023 37.9408 22.7997 36.222 23.5549 36.235C24.3101 36.248 25.5731 37.2246 26.146 37.459C26.719 37.6934 28.0731 37.9668 28.5809 38.2533C29.4403 38.7481 29.0627 40.597 29.4273 41.4303H33.2684C33.5028 40.6231 33.2684 38.8652 33.9585 38.3444C34.6486 37.8236 35.8856 37.7194 36.4976 37.472C37.1096 37.2246 38.7372 36.222 39.1799 36.2611C39.9351 36.3132 40.8726 37.6673 41.4976 37.8757C42.1226 38.084 41.6148 37.9408 41.6799 37.8757L44.3101 35.2194C44.0367 34.4772 42.6565 33.4486 42.6565 32.6934C42.6565 31.9382 43.646 30.6621 43.8804 30.1022C44.1148 29.5423 44.3882 28.1751 44.6747 27.6673C45.1695 26.7949 47.0054 27.1986 47.8518 26.821V22.9798C47.0445 22.7324 45.2867 22.9798 44.7658 22.2897C44.4794 21.8991 44.1408 20.3626 43.8934 19.7507C43.646 19.1387 42.6434 17.5111 42.6825 17.0684C42.7346 16.3522 44.0888 15.3496 44.2971 14.7507C44.5054 14.1517 44.3622 14.6335 44.2971 14.5684L41.6408 11.9382C41.4325 11.8991 40.0783 13.1751 39.7658 13.3574C38.8153 13.9173 38.4117 13.2272 37.6044 12.8496C36.4585 12.3158 35.3127 11.8861 34.0887 11.5736C33.2684 11.1048 33.5289 9.24284 33.2945 8.40951V8.39649Z" fill="#140505"/>
<path d="M0 25.2855V24.5043C0.286458 24.1527 0.455729 23.8923 0.9375 23.8272C2.03125 23.671 5.46875 23.684 6.58854 23.8272C7.98177 23.9835 7.98177 25.8194 6.58854 25.9756C5.19531 26.1319 2.03125 26.1189 0.9375 25.9756C-0.15625 25.8324 0.286458 25.6501 0 25.2986L0 25.2855Z" fill="#140505"/>
<path d="M3.29409 18.6719H9.80451C10.9243 18.9844 10.9503 20.4557 9.80451 20.7943C7.83836 20.599 5.26024 21.0807 3.37221 20.7943C1.48419 20.5078 2.12221 18.9323 3.29409 18.6719Z" fill="#140505"/>
<path d="M3.29444 29.0234H9.80486C10.9246 29.3359 10.9507 30.8073 9.80486 31.1458H3.29444C2.16163 30.8594 2.14861 29.3229 3.29444 29.0234Z" fill="#140505"/>
<path d="M8.33315 10.1167C7.76023 9.50467 8.07273 8.43696 8.94512 8.30676C9.81752 8.17655 11.8357 8.22863 12.3305 8.31978C13.4634 8.55415 13.3331 10.2729 12.2524 10.4422C11.6665 10.5333 9.63523 10.5203 9.03627 10.4422C8.43731 10.364 8.48939 10.2729 8.34617 10.1167H8.33315Z" fill="#140505"/>
<path d="M8.33327 39.6732C8.4765 39.5169 8.81504 39.3737 9.02337 39.3477C9.63535 39.2695 11.6666 39.2695 12.2395 39.3477C13.3333 39.5169 13.4505 41.2357 12.3176 41.4701C11.8229 41.5742 9.45306 41.5612 8.93223 41.4831C8.09889 41.3529 7.74733 40.2721 8.32025 39.6732H8.33327Z" fill="#140505"/>
<path d="M33.2941 8.39779C33.5285 9.23112 33.2681 11.0931 34.0884 11.5618C35.3123 11.8743 36.4582 12.304 37.604 12.8379C38.7498 13.3717 38.8149 13.8926 39.7655 13.3457C40.716 12.7988 41.4321 11.8874 41.6405 11.9264L44.2967 14.5566C44.3618 14.6348 44.3228 14.6738 44.2967 14.7389C44.1014 15.3249 42.7342 16.3275 42.6821 17.0566C42.63 17.7858 43.6457 19.127 43.8931 19.7389C44.1405 20.3509 44.479 21.9004 44.7655 22.278C45.2863 22.9681 47.0441 22.7077 47.8384 22.9681V26.8092C47.0181 27.1868 45.1691 26.7832 44.6743 27.6556C44.1795 28.528 44.1535 29.4004 43.88 30.0905C43.6066 30.7806 42.6561 32.304 42.6561 32.6816C42.6561 33.4368 44.0363 34.4655 44.3097 35.2077L41.6795 37.8639C41.6014 37.929 41.5623 37.89 41.4972 37.8639C40.8853 37.6556 39.9478 36.3145 39.1795 36.2493C38.4113 36.1842 37.1092 37.2129 36.4972 37.4603C35.8853 37.7077 34.3358 38.0462 33.9582 38.3327C33.2681 38.8535 33.5024 40.6113 33.2681 41.4056H29.4269C29.0754 40.5853 29.4399 38.7363 28.5806 38.2415C28.0728 37.9551 26.8358 37.7337 26.1457 37.4473C25.4556 37.1608 23.9582 36.2233 23.5545 36.2233C22.7993 36.2233 21.3931 37.9421 21.0285 37.8639C20.6639 37.7858 18.8149 35.5332 18.3722 35.2337C18.3071 35.1556 18.3462 35.1165 18.3722 35.0514C18.5806 34.4264 19.9347 33.4629 19.9868 32.7337C20.0389 32.0046 19.0233 30.6504 18.7759 30.0514C18.5285 29.4525 18.1639 27.8639 17.9035 27.5124C17.3826 26.8223 15.6248 27.0566 14.8306 26.8223V22.9811C15.6509 22.6165 17.4998 22.9941 17.9946 22.1348C18.2811 21.1452 18.5545 20.1556 18.9842 19.2181C19.4139 18.2806 20.0129 17.5514 20.0129 17.1217C20.0129 16.3665 18.6326 15.3379 18.3592 14.5957L20.9894 11.9395C21.1196 11.8613 21.2108 11.9395 21.3149 12.0046C21.9009 12.3431 22.8514 13.502 23.4894 13.554C24.1274 13.6061 25.0649 12.8118 25.6118 12.5645C26.6144 12.1087 27.6821 11.8613 28.7108 11.4577C29.3748 10.9629 29.1795 9.16602 29.4009 8.38477H33.2941V8.39779ZM30.742 14.2832C22.6561 14.804 18.0207 23.7754 22.4217 30.6504C26.7186 37.3822 36.7967 37.0306 40.6379 30.0384C44.6353 22.7598 39.0363 13.7493 30.742 14.2832Z" fill="#FEFEFE"/>
<path d="M30.7425 14.2843C39.0368 13.7505 44.6357 22.7739 40.6383 30.0395C36.7972 37.0317 26.719 37.3833 22.4222 30.6515C18.0211 23.7765 22.6565 14.8052 30.7425 14.2843ZM30.9378 16.4328C24.8831 16.7323 21.055 23.1776 23.7503 28.6463C26.7972 34.8442 35.7425 34.9354 38.8935 28.7765C41.8493 22.9953 37.4222 16.1073 30.9508 16.4328H30.9378Z" fill="#4065D3"/>
<path d="M30.9376 16.431C37.422 16.1055 41.8361 22.9935 38.8803 28.7748C35.7423 34.9336 26.784 34.8425 23.7371 28.6446C21.0548 23.1888 24.8699 16.7305 30.9246 16.431H30.9376ZM32.422 23.8269V19.4779C32.422 19.4128 32.1225 18.9701 32.0314 18.892C31.4194 18.4232 30.4558 18.7227 30.2996 19.504C30.1433 20.2852 30.1694 24.0873 30.2736 24.9467C30.3777 25.806 30.7293 25.8972 31.3022 25.9753C31.8751 26.0534 34.8308 26.0665 35.3647 25.9232C35.8986 25.78 36.3413 24.7904 35.8986 24.2175C35.4558 23.6446 35.3777 23.8269 35.3126 23.8269H32.435H32.422Z" fill="#FEFEFE"/>
<path d="M32.4219 23.8274H35.2995C35.3646 23.8274 35.8073 24.1269 35.8854 24.2181C36.3281 24.804 36.0807 25.7415 35.3516 25.9238C34.6224 26.1061 31.9141 26.041 31.2891 25.9759C30.6641 25.9108 30.3385 25.5202 30.2604 24.9472C30.1562 24.0879 30.1302 20.2728 30.2865 19.5045C30.4427 18.7363 31.4062 18.4238 32.0182 18.8925C32.6302 19.3613 32.4089 19.4134 32.4089 19.4785V23.8274H32.4219Z" fill="#4065D3"/>
</g>
<defs>
<clipPath id="clip0_875_15113">
<rect width="50" height="50" fill="white"/>
</clipPath>
</defs>
</svg>
