<svg width="75" height="75" viewBox="0 0 75 75" fill="none" xmlns="http://www.w3.org/2000/svg">
<g clip-path="url(#clip0_477_7577)">
<path d="M47.7541 0C48.1447 0.351562 48.6916 0.664062 48.7697 1.25L48.8088 9.12109C48.9064 9.47266 51.133 11.1719 51.4845 11.1328C51.8361 11.0938 53.8283 9.41406 53.8869 9.27734L53.9259 1.40625C54.0236 0.644531 54.4533 0.332031 55.0783 0H55.9572C58.3791 1.09375 60.4103 2.79297 61.7384 5.11719C65.1955 11.1328 62.9298 18.2617 57.1486 21.7773V27.1094C56.0548 27.0508 54.9611 27.1094 53.9064 27.1094L53.9845 20.2148C54.2189 19.3359 55.6838 18.8281 56.4455 18.2812C61.0744 15 61.4259 8.24219 57.1291 4.53125V10.4688C57.1291 10.5469 56.7189 11.1523 56.6213 11.2695C56.0939 11.8359 53.1252 14.1406 52.4416 14.5508C51.4455 15.1367 51.1525 15.0781 50.215 14.4727C49.2775 13.8672 47.4416 12.4023 46.6017 11.6406C45.7619 10.8789 45.5861 10.6836 45.5861 10.0195V4.66797C41.1525 8.41797 41.8556 15.3516 46.6213 18.4961C47.3634 18.9844 48.34 19.1406 48.7502 20.0391L48.8088 27.0703C47.7345 27.0703 46.6603 27.0703 45.5861 27.0703V21.6016C36.797 16.7969 37.6369 3.90625 46.758 -0.0390625H47.7736L47.7541 0Z" fill="#4065D3"/>
<path d="M48.7891 65.4688V71.7578H53.9062V65.4688C54.9805 65.4688 56.0547 65.5078 57.1289 65.4688V73.7305C57.0117 74.3555 56.4648 74.707 55.957 74.9805H46.7383C46.1523 74.6094 45.7031 74.3164 45.5664 73.5742V65.4492C46.6211 65.4492 47.7148 65.4492 48.7891 65.4492V65.4688Z" fill="#4065D3"/>
<path d="M45.5469 27.1085C46.6211 27.1085 47.6953 27.1085 48.7695 27.1085C50.4687 27.1085 52.1875 27.089 53.8867 27.1085C55.5859 27.128 56.0351 27.0499 57.1094 27.1085C58.9258 27.1866 60.2344 27.4405 61.6602 28.6515C63.9844 30.6437 64.2383 33.8663 62.832 36.4835C67.832 38.4366 67.6367 45.4288 62.832 47.5577C64.082 49.7062 64.0039 52.1671 62.5977 54.1984C62.3828 54.5109 61.8945 54.7257 61.9336 55.1554C61.9727 55.5851 62.8711 56.3468 63.0859 56.796C65.3125 61.464 61.7969 65.3116 57.0898 65.4874C56.0156 65.5265 54.9414 65.4874 53.8672 65.4874C52.168 65.4874 50.4492 65.4874 48.75 65.4874C47.0508 65.4874 46.6016 65.4874 45.5273 65.4874C40.3906 65.4484 35.6836 66.1905 31.1914 63.2023C30.293 62.5968 26.6602 59.1202 26.2695 59.0421C25.8789 58.964 24.4531 59.003 24.2969 59.1007C24.1406 59.1984 23.75 60.4093 23.3594 60.7999C22.9687 61.1905 21.9336 61.5812 21.2891 61.6593C19.043 61.9132 13.9258 61.8741 11.6406 61.6593C10.0195 61.503 8.75 60.6241 8.49609 58.9444C8.96484 50.7804 7.89062 41.9718 8.49609 33.8859C9.10156 25.7999 9.64843 31.171 11.2109 31.0343C14.5703 30.7413 18.3594 31.2491 21.7578 31.0343C22.5586 31.1515 23.4375 31.7765 23.8672 32.4405C24.2969 33.1046 24.1992 33.3585 24.3164 33.4562C24.4336 33.5538 26.0156 33.5734 26.2891 33.5148C26.9336 33.3976 29.043 31.0929 29.7461 30.5265C34.8828 26.3468 39.3359 27.128 45.5664 27.089L45.5469 27.1085ZM52.8906 35.8976H58.5352C58.7305 35.8976 59.707 35.1554 59.9023 34.921C60.9961 33.5734 60.5859 31.4835 59.0234 30.7023C57.4609 29.921 58.0078 30.3312 57.9297 30.3312H51.9922C52.1484 30.8976 52.8711 32.0694 52.8711 32.5968V35.8976H52.8906ZM41.1719 47.1671C39.8242 47.7726 36.8555 49.1788 35.6836 47.753C34.9219 46.8155 35.4297 45.4288 36.582 45.1554C37.7344 44.8819 38.8477 45.0577 39.9805 43.8663C41.1328 42.6749 40.8984 41.8937 41.1914 40.5265C41.4844 39.1593 44.1602 38.8077 44.375 40.6437C44.7461 43.8273 44.1016 47.7726 44.375 51.0538C44.6484 54.3351 45.4101 54.2765 47.0508 54.6866C48.6914 55.0968 49.5312 54.8624 49.668 53.3976C50.2539 47.0304 49.2187 39.7843 49.668 33.3194C49.3945 31.8155 48.3984 30.6046 46.8164 30.4484C44.4922 30.2335 37.9492 30.214 35.8594 30.7804C34.7266 31.0929 33.4766 31.7374 32.5391 32.4405C31.8164 32.9679 27.9687 36.7569 27.6172 36.7569H24.3164V55.7999H27.4609C27.8711 55.7999 32.1484 59.9405 33.1055 60.546C34.0625 61.1515 36.543 62.2452 37.8516 62.2452H43.6328C43.2031 60.9952 42.9102 59.882 43.0664 58.5343C43.125 57.9874 43.7109 56.8351 43.6133 56.503C43.5156 56.171 42.6172 55.3898 42.4023 55.0577C41.8945 54.3155 41.1523 52.6554 41.1523 51.7765V47.1671H41.1719ZM21.0937 34.2765H11.7187V58.2999H21.0937V34.2765ZM52.8906 44.6866H61.1719C61.25 44.6866 61.8359 44.3937 61.9726 44.3155C63.75 43.2999 63.7891 40.6632 62.0312 39.589C60.2734 38.5148 61.0352 39.1202 60.8789 39.1202H53.1055C53.1055 39.1202 52.8906 39.3155 52.8906 39.3351V44.6866ZM52.8906 53.4757H58.2422C58.3008 53.4757 59.1211 53.1046 59.2383 53.0069C60.918 51.9132 60.918 49.4523 59.2383 48.3585C57.5586 47.2648 58.3008 47.8898 58.2422 47.8898H52.8906V53.4562V53.4757ZM46.6016 58.0265C46.5234 58.0655 46.3086 58.9249 46.2891 59.1007C46.1523 60.6046 47.207 62.0304 48.7109 62.2452C50.3125 62.4601 56.6406 62.4796 58.1836 62.2257C61.25 61.7179 61.2109 57.128 58.0664 56.6984C57.0898 56.5616 52.5195 56.5226 51.6406 56.6984C50.7617 56.8741 50.0391 58.1046 48.2617 58.1437C46.4844 58.1827 46.9141 57.8312 46.6211 58.0265H46.6016Z" fill="#140505"/>
<path d="M53.9062 27.1094C52.207 27.0898 50.4882 27.1094 48.789 27.1094L48.7304 20.0781C48.3202 19.1797 47.3437 19.0234 46.6015 18.5352C41.8359 15.3906 41.1327 8.45703 45.5663 4.70703V10.0586C45.5663 10.7227 46.1327 11.25 46.582 11.6797C47.4218 12.4414 49.2577 13.9062 50.1952 14.5117C51.1327 15.1172 51.4257 15.1758 52.4218 14.5898C53.4179 14.0039 56.0741 11.875 56.6015 11.3086C57.1288 10.7422 57.1093 10.5664 57.1093 10.5078V4.57031C61.4062 8.26172 61.0546 15.0195 56.4257 18.3203C55.664 18.8672 54.1796 19.375 53.9648 20.2539L53.8866 27.1484L53.9062 27.1094Z" fill="#FEFEFE"/>
<path d="M53.9062 65.4688V71.7578H48.7891V65.4688C50.4883 65.4688 52.207 65.4688 53.9062 65.4688Z" fill="#FEFEFE"/>
<path d="M41.1719 47.1681V51.7775C41.1719 52.6564 41.9336 54.3166 42.4219 55.0588C42.9102 55.8009 43.5938 56.3674 43.6328 56.5041C43.7305 56.8361 43.1445 57.9885 43.0859 58.5353C42.9297 59.883 43.2227 61.0158 43.6523 62.2463H37.8711C36.5625 62.2463 34.2383 61.2697 33.125 60.547C32.0117 59.8244 27.8906 55.801 27.4805 55.801H24.3359V36.758H27.6367C27.9688 36.758 31.8164 32.9885 32.5586 32.4416C33.5156 31.7385 34.7461 31.0939 35.8789 30.7814C37.9688 30.1955 44.4922 30.2345 46.8359 30.4494C49.1797 30.6642 49.4141 31.8166 49.6875 33.3205C49.2383 39.7853 50.2734 47.0314 49.6875 53.3986C49.1016 59.7658 48.3203 54.9806 47.0703 54.6877C45.8203 54.3947 44.5312 52.6369 44.3945 51.0549C44.1406 47.7736 44.7852 43.8283 44.3945 40.6447C44.1797 38.8283 41.5625 38.8283 41.2109 40.5275C40.8594 42.2267 41.1523 42.676 40 43.8674C38.8477 45.0392 37.9492 44.8244 36.6016 45.1564C35.2539 45.4884 34.9219 46.8166 35.7031 47.7541C36.875 49.1994 39.8437 47.7736 41.1914 47.1681H41.1719Z" fill="#FEFEFE"/>
<path d="M21.0938 34.2773H11.7188V58.3008H21.0938V34.2773Z" fill="#FEFEFE"/>
<path d="M46.6015 58.025C46.914 57.8297 47.871 58.1422 48.2421 58.1422C50.0194 58.1032 50.8983 56.8336 51.621 56.6969C52.3436 56.5602 57.0702 56.5797 58.0468 56.6969C61.1913 57.1266 61.2304 61.6969 58.164 62.2243C56.621 62.4782 50.2929 62.4586 48.6913 62.2438C47.1679 62.029 46.1327 60.6032 46.2694 59.0993C46.4061 57.5954 46.5038 58.0641 46.5819 58.025H46.6015Z" fill="#FEFEFE"/>
<path d="M52.8906 44.6875V39.3359C52.8906 39.3359 53.0859 39.1211 53.1055 39.1211H60.8789C61.0352 39.1211 61.8359 39.4727 62.0313 39.5898C63.7891 40.6641 63.75 43.3008 61.9727 44.3164C60.1953 45.332 61.25 44.6875 61.1719 44.6875H52.8906Z" fill="#FEFEFE"/>
<path d="M52.8906 35.8984V32.5977C52.8906 32.0508 52.168 30.8984 52.0117 30.332H57.9492C58.0273 30.332 58.8867 30.6445 59.043 30.7031C60.5859 31.4844 61.0156 33.5742 59.9219 34.9219C59.7266 35.1562 58.75 35.8984 58.5547 35.8984H52.9102H52.8906Z" fill="#FEFEFE"/>
<path d="M52.8906 53.4766V47.9102H58.2422C58.3008 47.9102 59.1211 48.2812 59.2383 48.3789C60.918 49.4727 60.918 51.9336 59.2383 53.0273C57.5586 54.1211 58.3008 53.4961 58.2422 53.4961H52.8906V53.4766Z" fill="#FEFEFE"/>
</g>
<defs>
<clipPath id="clip0_477_7577">
<rect width="75" height="75" fill="white"/>
</clipPath>
</defs>
</svg>
