<svg width="48" height="48" viewBox="0 0 48 48" fill="none" xmlns="http://www.w3.org/2000/svg">
<rect width="48" height="48" rx="10" fill="#EDF2FF"/>
<path d="M28.8132 12.9961C27.9002 12.9961 26.9986 13.1981 26.1729 13.5876C25.3472 13.9771 24.6179 14.5445 24.0373 15.249C23.4567 15.9536 23.0392 16.7779 22.8147 17.6628C22.5902 18.5477 22.5642 19.4713 22.7387 20.3674L13.9013 29.5238C13.3008 30.1392 12.9693 30.9678 12.9797 31.8276C12.9902 32.6873 13.3417 33.5077 13.957 34.1082C14.5724 34.7088 15.401 35.0403 16.2608 35.0298C17.1205 35.0194 17.9409 34.6679 18.5414 34.0525L27.2949 25.1849C27.7836 25.3105 28.2897 25.3733 28.8132 25.3733C29.744 25.3735 30.6629 25.1637 31.5014 24.7595C32.3399 24.3553 33.0765 23.7672 33.6562 23.0389C34.2359 22.3106 34.6439 21.461 34.8497 20.5532C35.0555 19.6454 35.0539 18.7028 34.845 17.7957C34.8175 17.6762 34.7585 17.5663 34.6741 17.4772C34.5898 17.3882 34.4832 17.3234 34.3653 17.2894C34.2475 17.2555 34.1227 17.2537 34.0039 17.2842C33.8852 17.3147 33.7767 17.3764 33.6898 17.4629L30.1884 20.9629L27.0364 17.8095L30.5364 14.3095C30.6229 14.2226 30.6846 14.1141 30.7151 13.9953C30.7456 13.8765 30.7438 13.7518 30.7098 13.6339C30.6759 13.5161 30.611 13.4095 30.522 13.3251C30.433 13.2408 30.323 13.1818 30.2036 13.1542C29.748 13.0492 29.282 12.9962 28.8145 12.9961" fill="#4065D3"/>
</svg>
