<svg width="50" height="50" viewBox="0 0 50 50" fill="none" xmlns="http://www.w3.org/2000/svg">
<rect width="50" height="50" rx="4.44444" fill="#7DA0F9" fill-opacity="0.3"/>
<path d="M31.0565 11.1572C29.9078 11.1572 28.7733 11.4114 27.7344 11.9015C26.6954 12.3916 25.7778 13.1055 25.0473 13.992C24.3168 14.8785 23.7914 15.9156 23.5089 17.0291C23.2264 18.1425 23.1938 19.3047 23.4133 20.4322L12.2937 31.9532C11.5381 32.7275 11.1209 33.7701 11.1341 34.8519C11.1472 35.9337 11.5896 36.9659 12.3638 37.7215C13.138 38.4772 14.1807 38.8943 15.2625 38.8812C16.3442 38.868 17.3765 38.4257 18.1321 37.6515L29.1461 26.4938C29.761 26.6519 30.3978 26.7309 31.0565 26.7309C32.2277 26.7311 33.3839 26.4671 34.439 25.9585C35.494 25.45 36.4208 24.71 37.1502 23.7936C37.8797 22.8772 38.393 21.8081 38.652 20.6659C38.9109 19.5236 38.9089 18.3377 38.646 17.1963C38.6114 17.046 38.5371 16.9076 38.431 16.7956C38.3249 16.6836 38.1907 16.602 38.0425 16.5593C37.8942 16.5166 37.7372 16.5143 37.5878 16.5527C37.4383 16.5911 37.3019 16.6687 37.1925 16.7776L32.7869 21.1815L28.8208 17.2136L33.2247 12.8098C33.3336 12.7004 33.4112 12.564 33.4496 12.4145C33.488 12.2651 33.4857 12.1081 33.443 11.9598C33.4002 11.8115 33.3186 11.6774 33.2066 11.5713C33.0946 11.4651 32.9563 11.3909 32.8059 11.3562C32.2327 11.2241 31.6464 11.1573 31.0582 11.1572" fill="#4065D3"/>
</svg>
