<svg width="50" height="50" viewBox="0 0 50 50" fill="none" xmlns="http://www.w3.org/2000/svg">
<g clip-path="url(#clip0_1536_22034)">
<path d="M50 22.9433V32.0318L49.5573 32.5266C48.2943 33.0214 46.7708 32.8912 45.4167 33.1256C44.4271 35.3131 42.7604 37.149 40.9115 38.6334C41.1719 39.9485 42.6432 41.2115 41.224 42.2662C39.6094 43.4771 37.2786 44.3495 35.5859 45.5084C35.2344 45.6516 34.8047 45.6776 34.5052 45.4042L32.3438 42.761C31.1849 43.0344 30.013 43.3078 28.8281 43.4381C25.9635 43.7506 23.2031 43.6073 20.3776 43.1256C17.5521 42.6438 19.2578 42.787 18.9583 42.787C18.6589 42.787 17.1484 45.0526 16.6406 45.4042C16.1328 45.7558 15.9115 45.6386 15.4297 45.4433C14.2578 44.9615 12.3177 43.6855 11.1589 42.9823C10.5729 42.6308 9.49219 42.175 9.33594 41.4719C9.17969 40.7688 10.1172 39.3756 10.2344 38.6203C7.08333 36.0943 4.83073 32.5917 4.375 28.5162C2.31771 28.7506 0.651042 28.0084 0 25.9641V22.7349C0.429688 21.6672 1.96615 21.7193 2.14844 22.8912C2.42188 24.7011 1.28906 26.9146 4.45313 26.2636C4.58333 24.649 5.09115 23.0995 5.79427 21.6412C6.4974 20.1828 6.6276 20.274 6.64063 20.1438C6.66667 19.8443 6.27604 19.4667 6.13281 19.1933C4.40104 15.925 4.28385 12.3964 6.21094 9.18024C10.1693 2.53961 19.987 2.87816 23.4896 9.75316C23.6458 10.0657 23.9714 11.1073 24.0755 11.2245C24.2448 11.4198 26.6276 11.2896 27.1094 11.3157C28.9844 11.4068 30.8203 11.8235 32.6563 12.1881C33.4896 11.0683 34.3099 10.1047 35.5599 9.41462C36.5234 8.88076 40.0391 7.60472 40.2474 9.41462L40.2995 15.8078C42.4609 17.3834 44.2839 19.4276 45.5208 21.8104C46.3802 22.0318 49.1016 21.9146 49.6745 22.4354C50.2474 22.9563 49.8438 22.8 50.013 22.9302L50 22.9433ZM13.9453 6.57607C7.95573 7.13597 4.92188 14.1282 8.55469 18.9459C11.901 23.3729 18.8021 22.8391 21.4453 17.9823C24.401 12.5266 20.0911 6.01618 13.9583 6.58909L13.9453 6.57607ZM22.2656 20.5995C18.8151 24.7922 12.3698 25.287 8.25521 21.7714C4.92188 27.0578 6.73177 32.5136 11.0286 36.4719C11.6016 37.0058 12.7474 37.4745 12.6563 38.373C12.5651 39.2714 11.6667 40.6516 11.8229 40.899L15.625 43.0214C15.8203 43.0995 15.9375 42.8912 16.0677 42.774C16.6406 42.1881 17.5651 40.5344 18.3333 40.4433C23.0599 41.7063 28.0339 41.7844 32.7604 40.4433C33.6458 40.4433 34.6224 42.3443 35.2474 42.9302L35.5729 43.0605L39.3359 40.912C39.388 39.8573 37.9557 38.425 38.8672 37.4745C39.7786 36.524 40.4036 36.3287 41.0026 35.7037C41.6016 35.0787 42.4609 34.024 42.9297 33.2427C43.4896 32.3313 43.6198 31.1854 44.7786 30.9901C45.9375 30.7948 46.849 30.873 47.8255 30.6776V24.2323C46.8099 24.1021 45.5339 24.1542 44.5573 23.9328C43.5807 23.7115 44.1016 23.7766 43.9583 23.6464C43.6458 23.3469 43.0729 21.9537 42.7474 21.4459C42.1094 20.4693 41.1719 19.3886 40.2995 18.6203C39.4271 17.8521 38.0469 17.0448 38.0469 16.5761V10.8599C36.7318 10.9771 35.4297 11.9667 34.7266 13.0604C34.0234 14.1542 34.1797 14.5578 33.3854 14.662C32.5911 14.7662 31.6797 14.2323 31.1328 14.1282C28.9453 13.6854 26.7188 13.4511 24.4792 13.5162V15.6125C24.4792 16.1854 23.8672 17.9172 23.5938 18.4901C23.3203 19.0631 22.6953 20.0657 22.2266 20.6386L22.2656 20.5995Z" fill="#140505"/>
<path d="M23.6326 18.4642C23.893 17.8913 24.518 16.1465 24.518 15.5866V13.4902C26.7576 13.4251 28.9842 13.6595 31.1717 14.1022C33.3592 14.5449 32.9816 14.7012 33.4243 14.6361C34.2186 14.5319 34.4009 13.6074 34.7654 13.0345C35.4816 11.9408 36.7707 10.9512 38.0858 10.834V16.5501C38.0858 17.0189 39.9087 18.2168 40.3384 18.5944C41.2108 19.3757 42.1483 20.4434 42.7863 21.4199C43.4243 22.3965 43.6847 23.321 43.9972 23.6204C44.3097 23.9199 44.4009 23.8678 44.5962 23.9069C45.5727 24.1283 46.8488 24.0762 47.8644 24.2064V30.6517C46.8878 30.847 45.7941 30.8079 44.8175 30.9642C43.841 31.1204 43.5285 32.3053 42.9686 33.2168C42.4868 33.9981 41.6795 35.0267 41.0415 35.6777C40.4035 36.3288 39.4529 36.8757 38.9061 37.4486C37.9816 38.3991 39.4139 39.8314 39.3748 40.8861L35.6118 43.0345L35.2863 42.9043C34.6743 42.3184 33.6847 40.4303 32.7993 40.4173C28.0727 41.7585 23.0988 41.6803 18.3722 40.4173C17.591 40.5085 16.6665 42.1491 16.1066 42.748C15.5467 43.347 15.8592 43.0866 15.6639 42.9954L11.8618 40.873C11.7055 40.6257 12.643 38.8288 12.6951 38.347C12.7993 37.4486 11.6535 36.9668 11.0675 36.446C6.77065 32.4876 4.94774 27.0319 8.29409 21.7454C12.4087 25.2611 18.854 24.7663 22.3045 20.5736H30.755C32.005 20.4694 32.2654 18.959 31.1196 18.4512L23.6717 18.4251L23.6326 18.4642ZM37.1873 21.6022C35.6899 21.6803 35.729 24.8184 37.2394 24.7663C38.4113 24.7272 38.3592 23.4772 38.2811 22.6048C38.2029 21.7324 37.7863 21.5762 37.1743 21.6022H37.1873Z" fill="#FEFEFE"/>
<path d="M13.9452 6.57437C20.078 6.00146 24.3879 12.5119 21.4322 17.9676C18.802 22.8374 11.8879 23.3582 8.54155 18.9311C4.90874 14.1134 7.9426 7.12125 13.9322 6.56135L13.9452 6.57437ZM15.7421 9.75146C15.5988 9.51708 15.9374 8.93115 15.3254 8.55354C14.7134 8.17594 13.9452 8.39729 13.6848 9.06135C13.4244 9.72542 13.6067 9.81656 13.5155 9.97281C13.4244 10.1291 13.0337 10.2853 12.8905 10.4285C11.6275 11.7176 11.8228 13.84 13.3332 14.8426C14.8436 15.8452 15.3905 15.3634 15.1041 16.353C14.8176 17.3426 13.8931 16.4963 13.4895 16.4442C12.3436 16.2879 11.7837 17.7853 12.8514 18.4624C13.9192 19.1395 13.4634 18.6838 13.5155 18.7749C13.6197 18.9442 13.5806 19.4259 13.815 19.7515C14.1796 20.2853 15.1171 20.3244 15.5207 19.8035C15.9244 19.2827 15.5988 19.0093 15.7681 18.6838C15.9374 18.3582 16.5363 18.0588 16.7317 17.7983C17.7733 16.4051 17.3436 14.491 15.8462 13.6317C14.3488 12.7723 13.9843 13.202 14.2707 12.2124C14.5572 11.2228 15.664 12.1994 16.1457 12.1343C16.9009 12.0431 17.3306 11.1186 16.927 10.4806C16.5233 9.8426 15.7811 9.86865 15.7291 9.7775L15.7421 9.75146Z" fill="#FEFEFE"/>
<path d="M23.6328 18.4629L31.0807 18.4889C32.2266 18.9967 31.9661 20.5202 30.7161 20.6113H22.2656C22.7344 20.0384 23.3203 19.14 23.6328 18.4629Z" fill="#4065D3"/>
<path d="M37.1873 21.6019C37.7993 21.5629 38.242 22.0186 38.2941 22.6046C38.3722 23.4769 38.4243 24.74 37.2525 24.766C35.742 24.8181 35.69 21.6801 37.2004 21.6019H37.1873Z" fill="#140505"/>
<path d="M15.7423 9.75343C15.7943 9.84457 16.6537 9.9878 16.9402 10.4566C17.2266 10.9253 16.9141 12.0191 16.1589 12.1102C15.4037 12.2013 14.5313 11.368 14.2839 12.1883C14.0365 13.0086 15.2344 13.243 15.8594 13.6076C17.3568 14.48 17.7865 16.381 16.7449 17.7743C15.7032 19.1675 15.8204 18.5685 15.7813 18.6597C15.6251 18.9982 15.8725 19.3498 15.5339 19.7795C15.1954 20.2092 14.1928 20.2612 13.8282 19.7274C13.4636 19.1935 13.6459 18.9201 13.5287 18.7508C13.4115 18.5816 13.0339 18.5555 12.8646 18.4383C11.7969 17.7612 12.3568 16.2638 13.5027 16.4201C14.6485 16.5763 14.8959 17.0842 15.1173 16.3289C15.3386 15.5737 13.9584 15.2222 13.3464 14.8185C11.836 13.8159 11.6277 11.6935 12.9037 10.4045C13.0469 10.2612 13.4636 10.0659 13.5287 9.94874C13.6199 9.79249 13.5808 9.34978 13.698 9.03728C13.9454 8.37322 14.7396 8.15186 15.3386 8.52947C15.9376 8.90707 15.612 9.49301 15.7553 9.72738L15.7423 9.75343Z" fill="#4065D3"/>
</g>
<defs>
<clipPath id="clip0_1536_22034">
<rect width="50" height="50" fill="white"/>
</clipPath>
</defs>
</svg>
