<svg width="20" height="20" viewBox="0 0 20 20" fill="none" xmlns="http://www.w3.org/2000/svg">
<g clip-path="url(#clip0_1969_11932)">
<path d="M10.5106 0.00130208C10.771 0.0690104 11.0366 0.10026 11.3023 0.167969C13.2554 0.678385 14.8283 2.51693 14.9689 4.54818C15.1148 6.73047 14.8544 9.06901 14.9689 11.2669C15.7085 12.2721 16.1512 13.319 16.2189 14.5898C16.2866 15.8607 16.2866 17.043 16.2189 18.069C16.1512 19.0898 15.5731 19.7669 14.5783 20.0013H13.9533C13.7866 19.9128 13.6044 19.8815 13.4325 19.7982C12.4846 19.3451 11.2866 18.4857 10.3648 17.9076C9.4429 17.3294 10.1408 17.7357 10.021 17.6628L6.58352 19.7982L5.98456 20.0013H5.35956C4.40644 19.6992 3.85956 19.0846 3.79706 18.069C3.72936 17.043 3.74498 15.6211 3.79706 14.5898C3.84915 13.5586 4.30748 12.2773 5.04706 11.2669C5.16165 9.06901 4.90123 6.73047 5.04706 4.54818C5.18248 2.52734 6.73977 0.69401 8.68248 0.173177L9.42206 -0.00390625H10.5158L10.5106 0.00130208ZM14.0991 10.5065V4.6263C13.5262 -0.384114 6.42206 -0.347656 5.89602 4.66276V10.5065C6.58352 9.99609 7.37519 9.68359 8.20331 9.50651C8.21373 9.47005 8.21373 8.77734 8.20331 8.73568C8.1929 8.69401 7.77623 8.35547 7.6929 8.26172C7.26061 7.75651 6.99498 7.08984 6.94811 6.42839C6.91165 5.87109 6.89602 4.90234 6.94811 4.35547C7.01061 3.71484 7.6304 3.94401 8.09915 3.90234C8.5679 3.86068 8.99498 3.69401 9.29706 3.38151C9.59915 3.06901 9.64081 2.70964 9.98456 2.69922C10.3283 2.6888 10.4689 3.14193 10.6825 3.36068C10.995 3.68359 11.495 3.87109 11.9325 3.90755C12.3856 3.94401 12.9846 3.72005 13.0471 4.35547C13.0991 4.90234 13.0835 5.87109 13.0471 6.42839C13.0054 7.12109 12.7137 7.85026 12.245 8.36068C11.7762 8.87109 11.8231 8.70443 11.8023 8.77734C11.745 8.96484 11.8283 9.29818 11.7919 9.50651C12.62 9.6888 13.4169 9.99609 14.0991 10.5065ZM12.1877 4.76693C11.3648 4.79818 10.5887 4.5013 10.0158 3.91276C9.40123 4.48047 8.66686 4.80859 7.81269 4.76693C7.83352 5.93359 7.60436 7.07422 8.57311 7.93359C9.54186 8.79297 10.9898 8.61589 11.7502 7.59505C12.5106 6.57422 12.146 5.75651 12.1877 4.76693ZM10.9377 9.22005C10.2919 9.36589 9.70852 9.36589 9.06269 9.22005C9.07311 9.33464 9.04186 9.48047 9.06269 9.58984C9.08352 9.69922 9.82311 10.5534 9.92206 10.6471C10.021 10.7409 9.96894 10.7148 10.0158 10.7044L10.9169 9.65234L10.9377 9.22526V9.22005ZM8.58873 10.3607L7.85436 10.4701C7.8804 10.6263 8.32831 11.6211 8.38561 11.6367C8.51061 11.6732 9.13561 11.293 9.29706 11.2305L8.58873 10.3607ZM12.1512 10.4701L11.4169 10.3607L10.7085 11.2513L11.62 11.6419C11.7085 11.5273 12.1981 10.5169 12.1512 10.4753V10.4701ZM15.3544 15.1576C15.3387 14.6732 15.3231 14.1888 15.2189 13.7096C14.995 12.6732 14.3075 11.6732 13.4325 11.0846C12.5575 10.4961 13.0835 10.8503 13.0158 10.8346C12.9481 10.819 12.8908 10.9857 12.8648 11.0378C12.6669 11.4544 12.4585 12.0586 12.2294 12.4336C12.0939 12.6523 11.8908 12.6992 11.646 12.6367L9.98977 11.8763L8.36477 12.6367C8.11998 12.6992 7.92206 12.6523 7.78144 12.4336L7.01581 10.8242C6.0679 11.3242 5.28144 12.2044 4.92206 13.2201C4.56269 14.2357 4.66686 14.4857 4.65123 15.1523H6.13561V14.1159C6.13561 14.0846 6.27102 13.8919 6.31269 13.8607C6.45331 13.7617 6.65644 13.7513 6.80227 13.8451C6.94811 13.9388 7.00019 14.043 7.00019 14.0794V16.168C7.27623 16.1367 7.54706 15.9753 7.81269 15.8867C7.86998 15.4909 7.85436 15.0221 7.99498 14.6419C8.24498 13.9648 8.96373 13.569 9.67206 13.668C9.79186 13.6836 9.92206 13.7878 10.0262 13.7826C10.1304 13.7773 10.2294 13.6836 10.3439 13.668C10.9533 13.5794 11.5939 13.8711 11.9012 14.4076C12.2085 14.944 12.146 15.3867 12.2033 15.8815C12.4794 15.9544 12.7346 16.1367 13.021 16.1576V14.069C13.021 14.0326 13.1721 13.8659 13.2189 13.8346C13.3648 13.7409 13.5679 13.7513 13.7085 13.8503C13.8491 13.9492 13.8856 14.0742 13.8856 14.1055V15.1419H15.37L15.3544 15.1576ZM4.64602 16.0169V18.1055C4.64602 18.5638 5.05227 19.043 5.5054 19.1211C5.95852 19.1992 6.02623 19.1003 6.31269 18.9492C7.29706 18.4388 8.25019 17.6784 9.23456 17.1471C9.42206 16.9909 9.54186 16.8346 9.5679 16.5794C9.59394 16.3242 9.60956 14.6471 9.55227 14.5638C9.40644 14.3555 8.91686 14.7044 8.8179 14.8919C8.62519 15.2617 8.77102 16.2721 8.48977 16.5169L6.61477 17.2617C6.45331 17.3242 6.1304 17.0742 6.1304 16.9336V16.0169H4.64602ZM13.8648 16.0169V16.9336C13.8648 17.0742 13.5419 17.3242 13.3804 17.2617L11.5054 16.5169C11.1252 16.194 11.5314 15.0013 10.9064 14.6159C10.7814 14.5378 10.4585 14.444 10.4221 14.6263C10.4637 15.2461 10.3648 15.9336 10.4221 16.543C10.4794 17.1523 10.5106 16.9284 10.6512 17.069C11.6564 17.6367 12.6408 18.3971 13.6564 18.9388C13.9481 19.0951 14.1408 19.1836 14.4898 19.1263C14.9429 19.0482 15.3491 18.569 15.3491 18.1107V16.0221H13.8648V16.0169Z" fill="#140505"/>
<path d="M19.9999 6.32918V6.56356C19.8697 6.89689 19.4947 6.89168 19.2186 7.04793C18.9999 7.17293 18.7967 7.37085 18.6665 7.5896C18.479 7.9021 18.4842 8.41772 18.0311 8.4021C17.578 8.38647 17.6249 7.96981 17.4842 7.69376C17.3436 7.41772 17.0676 7.14689 16.8019 7.01147C16.5363 6.87606 16.104 6.87085 16.0936 6.4646C16.078 6.01147 16.5884 6.01668 16.9061 5.82918C17.2238 5.64168 17.354 5.45418 17.4842 5.19897C17.6144 4.94376 17.6613 4.38126 18.1665 4.51147C18.6717 4.64168 18.479 4.9646 18.604 5.20939C18.729 5.45418 19.0415 5.77189 19.3124 5.90731C19.5832 6.04272 19.8644 6.01668 20.0051 6.32918H19.9999ZM18.0832 5.93856C18.0155 5.89168 17.8957 6.10522 17.8488 6.1521C17.7499 6.25106 17.6509 6.34481 17.5363 6.42814C17.5832 6.49585 18.0155 6.9646 18.0624 6.95418L18.5519 6.42814C18.3749 6.29793 18.1717 6.13647 18.0832 5.93856Z" fill="#4065D3"/>
<path d="M0 9.60796V9.37359C0.130208 9.06109 0.385417 9.09755 0.640625 8.97776C0.895833 8.85796 1.25521 8.54026 1.40104 8.2538C1.54688 7.96734 1.52604 7.63921 1.83854 7.55588C2.375 7.41526 2.38021 8.02463 2.57292 8.34755C2.69271 8.55067 2.89583 8.7538 3.09896 8.87359C3.39063 9.04546 3.89583 9.07151 3.91146 9.47255C3.92708 9.93088 3.45313 9.91526 3.15625 10.0871C2.85938 10.259 2.61979 10.5403 2.51042 10.7694C2.40104 10.9986 2.38021 11.4413 1.97917 11.4517C1.57813 11.4621 1.53125 10.9569 1.34375 10.6392C1.15625 10.3215 1.01042 10.2225 0.791667 10.0975C0.572917 9.97255 0.140625 9.94651 0.0104167 9.61317L0 9.60796ZM2.20313 9.73817C2.25521 9.68609 2.48438 9.55067 2.46354 9.47255C2.44271 9.39442 2.20833 9.2538 2.15104 9.19651C2.03125 9.07671 1.97396 8.83713 1.85938 9.09755L1.44792 9.5038C1.57813 9.53505 1.90104 9.98296 1.9375 9.99338C2.02083 10.0142 2.15104 9.78505 2.20313 9.73296V9.73817Z" fill="#4065D3"/>
<path d="M14.0991 10.5066C13.4168 9.99614 12.6252 9.68364 11.7918 9.50656C11.8283 9.29823 11.745 8.96489 11.8022 8.77739C11.8595 8.58989 12.1564 8.45448 12.245 8.36073C12.7137 7.85031 13.0054 7.12114 13.047 6.42844C13.0835 5.87114 13.0991 4.89718 13.047 4.35552C12.9845 3.7201 12.3856 3.94406 11.9325 3.9076C11.4897 3.87635 10.9897 3.68364 10.6825 3.36073C10.4689 3.14198 10.3491 2.68364 9.98454 2.69927C9.61995 2.71489 9.51058 3.16802 9.29704 3.38156C8.99495 3.68885 8.5262 3.86593 8.09912 3.90239C7.67204 3.93885 7.01058 3.71489 6.94808 4.35552C6.896 4.90239 6.91162 5.87114 6.94808 6.42844C6.99495 7.0951 7.26058 7.76177 7.69287 8.26177C8.12516 8.76177 8.19287 8.70448 8.20329 8.73573C8.2137 8.76698 8.2137 9.46489 8.20329 9.50656C7.37516 9.68364 6.57829 9.99614 5.896 10.5066V4.66281C6.42204 -0.347606 13.5262 -0.384065 14.0991 4.62635V10.5066Z" fill="#FEFEFE"/>
<path d="M15.354 15.155H13.8696V14.1185C13.8696 14.0873 13.7342 13.8946 13.6925 13.8633C13.5519 13.7643 13.3488 13.7539 13.203 13.8477C13.0571 13.9414 13.005 14.0456 13.005 14.0821V16.1706C12.7238 16.1446 12.4686 15.9623 12.1873 15.8946C12.13 15.3946 12.1405 14.8685 11.8853 14.4206C11.63 13.9727 10.9425 13.5925 10.328 13.681C9.71338 13.7696 10.0936 13.7904 10.0103 13.7956C9.92692 13.8008 9.78109 13.7018 9.65609 13.681C8.94775 13.5821 8.229 13.9779 7.979 14.655C7.729 15.3321 7.854 15.4987 7.79671 15.8998C7.52588 15.9883 7.26025 16.1498 6.98421 16.181V14.0925C6.98421 14.056 6.83317 13.8893 6.7863 13.8581C6.64046 13.7643 6.43734 13.7748 6.29671 13.8737C6.15609 13.9727 6.11963 14.0977 6.11963 14.1289V15.1654H4.63525C4.65609 14.4987 4.68734 13.8685 4.90609 13.2331C5.26546 12.2175 6.04671 11.3373 6.99984 10.8373L7.76546 12.4466C7.90609 12.6602 8.0988 12.7123 8.3488 12.6498L9.9738 11.8893L11.63 12.6498C11.8696 12.7123 12.078 12.6654 12.2134 12.4466C12.4425 12.0768 12.6509 11.4675 12.8488 11.0508C13.0467 10.6341 12.9321 10.8268 12.9998 10.8477C13.0675 10.8685 13.3384 11.0456 13.4165 11.0977C14.2915 11.6862 14.979 12.6862 15.203 13.7227C15.3071 14.1966 15.3228 14.681 15.3384 15.1706L15.354 15.155Z" fill="#FEFEFE"/>
<path d="M12.1874 4.76432C12.1458 5.7487 12.3801 6.74349 11.7499 7.59245C11.1197 8.44141 9.53638 8.78516 8.57283 7.93099C7.60929 7.07682 7.83325 5.93099 7.81242 4.76432C8.66658 4.80599 9.40096 4.47266 10.0155 3.91016C10.5885 4.4987 11.3645 4.79557 12.1874 4.76432ZM9.13013 6.33724C8.94783 6.3737 8.802 6.55599 8.78637 6.73828C8.75512 7.15495 9.47388 7.52474 9.83325 7.56641C10.3749 7.63411 11.6249 7.10807 11.151 6.48307C10.7812 5.9987 10.3957 6.71224 10.0207 6.71745C9.64575 6.72266 9.51554 6.25911 9.13013 6.33724Z" fill="#FEFEFE"/>
<path d="M4.646 16.0174H6.13037V16.934C6.13037 17.0747 6.45329 17.3247 6.61475 17.2622L8.48975 16.5174C8.771 16.2778 8.63037 15.2622 8.81787 14.8924C8.91162 14.7049 9.40641 14.3559 9.55225 14.5642C9.69808 14.7726 9.59391 16.3663 9.56787 16.5799C9.54183 16.7934 9.42204 16.9861 9.23454 17.1476C8.25016 17.6788 7.29704 18.4392 6.31266 18.9497C6.0262 19.1007 5.8387 19.1788 5.50537 19.1215C5.17204 19.0642 4.646 18.5642 4.646 18.1059V16.0174Z" fill="#FEFEFE"/>
<path d="M13.8644 16.0166H15.3488V18.1051C15.3488 18.5635 14.9425 19.0426 14.4894 19.1208C14.1404 19.1833 13.9477 19.0947 13.6561 18.9333C12.6404 18.3916 11.6613 17.6312 10.6508 17.0635C10.5102 16.9229 10.4425 16.7354 10.4217 16.5374C10.3644 15.9281 10.4633 15.2406 10.4217 14.6208C10.4581 14.4333 10.7758 14.527 10.9061 14.6104C11.5311 14.9958 11.1248 16.1885 11.505 16.5114L13.38 17.2562C13.5415 17.3187 13.8644 17.0687 13.8644 16.9281V16.0114V16.0166Z" fill="#FEFEFE"/>
<path d="M10.9375 9.22005L10.9167 9.64714L10.0156 10.6992C9.96876 10.7096 9.94793 10.668 9.92189 10.6419C9.82293 10.5482 9.07814 9.65234 9.06251 9.58464C9.04168 9.47526 9.07293 9.32943 9.06251 9.21484C9.70834 9.36068 10.2917 9.36068 10.9375 9.21484V9.22005Z" fill="#FEFEFE"/>
<path d="M8.58838 10.3594L9.29671 11.2292C9.13525 11.2917 8.51025 11.6719 8.38525 11.6354C8.26025 11.599 7.87484 10.625 7.854 10.4688L8.58838 10.3594Z" fill="#FEFEFE"/>
<path d="M12.1512 10.4701C12.1981 10.5169 11.7033 11.5221 11.62 11.6367L10.7085 11.2461L11.4168 10.3555L12.1512 10.4648V10.4701Z" fill="#FEFEFE"/>
<path d="M3.03665 0.402604C3.58873 0.288021 3.54706 0.819271 3.74498 1.16302C3.9429 1.50677 4.09394 1.60052 4.31269 1.73073C4.6356 1.91823 5.26581 1.95469 5.08352 2.48594C4.90123 3.01719 4.59394 2.78281 4.32831 2.93906C4.06269 3.09531 3.84394 3.3401 3.71894 3.57969C3.59394 3.81927 3.5679 4.29844 3.14602 4.29844C2.7606 4.29844 2.72935 3.86094 2.59394 3.59531C2.45852 3.32969 2.20852 3.05885 1.91685 2.90781C1.62519 2.75677 1.1981 2.73594 1.18769 2.35573C1.17727 1.97552 1.60435 1.93385 1.89081 1.78802C2.17727 1.64219 2.48977 1.29323 2.65644 0.949479C2.8231 0.605729 2.73456 0.459896 3.04185 0.397396L3.03665 0.402604ZM3.20331 1.8401C3.15644 1.80885 2.66685 2.29844 2.66165 2.3349C2.65123 2.3974 3.09394 2.75156 3.14602 2.85573C3.23456 2.73594 3.61998 2.44948 3.6356 2.32969C3.65123 2.25677 3.56269 2.26198 3.51581 2.2151C3.40644 2.11094 3.25019 1.98073 3.20331 1.8401Z" fill="#4065D3"/>
<path d="M18.0835 5.93587C18.172 6.13378 18.3752 6.29524 18.5522 6.42545L18.0627 6.95149C18.0158 6.96191 17.5835 6.49316 17.5366 6.42545C17.6512 6.34733 17.7502 6.25358 17.8491 6.14941C17.9481 6.04524 18.0106 5.88378 18.0835 5.93587Z" fill="#FEFEFE"/>
<path d="M2.20296 9.74044C2.15088 9.79253 2.01546 10.0217 1.93734 10.0009C1.85921 9.98003 1.57796 9.54253 1.44775 9.51128L1.85921 9.10503C1.9738 8.84461 2.03109 9.08419 2.15088 9.20399C2.27067 9.32378 2.45817 9.45919 2.46338 9.48003C2.48421 9.56336 2.25505 9.69357 2.20296 9.74565V9.74044Z" fill="#FEFEFE"/>
<path d="M9.13022 6.33905C9.51564 6.26613 9.60939 6.72447 10.0208 6.71926C10.4323 6.71405 10.7865 6.00051 11.1511 6.48488C11.625 7.10988 10.3802 7.63593 9.83335 7.56822C9.28647 7.50051 8.75522 7.15676 8.78647 6.74009C8.81772 6.32343 8.94793 6.37551 9.13022 6.33905Z" fill="#140505"/>
<path d="M3.20298 1.83745C3.24986 1.97807 3.40611 2.10307 3.51548 2.21245C3.62486 2.32182 3.6509 2.25411 3.63527 2.32703C3.61965 2.44682 3.23423 2.73328 3.14569 2.85307C3.09361 2.74891 2.6509 2.39474 2.66131 2.33224C2.67173 2.26974 3.15611 1.8062 3.20298 1.83745Z" fill="#FEFEFE"/>
</g>
<defs>
<clipPath id="clip0_1969_11932">
<rect width="20" height="20" fill="white"/>
</clipPath>
</defs>
</svg>
