<svg width="50" height="50" viewBox="0 0 50 50" fill="none" xmlns="http://www.w3.org/2000/svg">
<g clip-path="url(#clip0_875_15121)">
<path d="M49.9999 31.926V34.8557C49.6614 36.8088 49.1536 38.5927 48.19 40.3244C41.3671 52.6812 22.4088 48.5796 21.1979 34.7515C21.1328 34.0744 21.1588 33.0067 21.1979 32.3036C21.4453 28.3973 23.6067 24.3609 26.6666 21.952C29.7265 19.5432 28.19 20.9104 28.815 20.5848C37.2005 16.1317 47.4999 20.9104 49.6354 30.077L49.9999 31.913V31.926ZM34.6614 21.1187C25.1953 21.8609 20.1171 32.6682 25.6249 40.4546C30.677 47.6031 41.4973 47.1864 46.0416 39.7385C51.2499 31.2098 44.5703 20.3505 34.6614 21.1187Z" fill="#140505"/>
<path d="M28.815 20.5983C28.19 20.9238 27.2134 21.5358 26.6666 21.9655C26.5494 14.192 19.414 8.43683 11.7577 10.1165C4.77854 11.653 0.624897 18.9056 2.73427 25.7545C5.13011 33.515 14.414 36.7571 21.2108 32.317C21.1718 33.0071 21.1457 34.0749 21.2108 34.765C20.2213 35.3639 19.0103 35.8066 17.8905 36.0801C11.1457 37.7077 4.16656 34.3613 1.315 28.0592C0.66396 26.6269 0.377502 25.1556 0.0259391 23.6321C0.0910432 22.6556 -0.0652068 21.5618 0.0259391 20.6113C1.26292 7.5384 18.5416 2.92902 26.2108 13.7884C27.6561 15.8457 28.4114 18.1243 28.828 20.5983H28.815Z" fill="#4065D3"/>
<path d="M39.0366 2.07031C40.0262 1.84896 40.6512 2.77343 40.2475 3.68489C39.1017 6.25 36.9923 8.84114 35.7814 11.4193C35.0001 12.487 33.4246 11.7578 33.8282 10.4427L38.2944 2.69531C38.4506 2.47396 38.7631 2.12239 39.0366 2.07031Z" fill="#4065D3"/>
<path d="M27.6304 3.33223C28.2033 3.26712 28.5679 3.60567 28.7762 4.10046C29.5054 5.80619 29.7007 8.17598 30.3517 9.95983C30.4819 11.1708 28.8283 11.6786 28.2944 10.5458C27.9689 8.68379 26.9663 6.53535 26.7059 4.71244C26.6147 4.04838 26.9272 3.42337 27.6304 3.33223Z" fill="#4065D3"/>
<path d="M43.8284 12.7071C45.0393 12.616 45.495 14.1134 44.5054 14.7644L38.4247 16.392C37.2268 16.4701 36.7711 14.9988 37.7737 14.3738L43.8284 12.7071Z" fill="#4065D3"/>
<path d="M34.6616 21.1199C44.5704 20.3387 51.2501 31.1981 46.0418 39.7397C41.4845 47.2007 30.6642 47.6043 25.6251 40.4559C20.1303 32.6694 25.2084 21.8621 34.6616 21.1199ZM41.6668 29.7397C42.4741 28.9324 41.7449 28.0991 40.9116 27.7736C39.297 27.1356 37.3829 27.6824 36.4064 29.1147C35.9376 29.8048 35.8595 30.7423 36.81 30.9897C37.8647 31.2632 37.8907 30.4559 38.4767 30.0132C39.7918 29.0236 40.7683 30.6121 41.6537 29.7267L41.6668 29.7397ZM30.56 29.8048C29.3491 29.9741 26.6798 31.8621 28.1511 33.047C29.6225 34.2319 29.8438 32.1226 30.8595 31.9533C31.8751 31.784 32.7735 32.8257 33.4636 31.8231C34.5965 30.1955 31.7058 29.6486 30.56 29.8048ZM40.1173 33.6069C37.5001 33.9585 34.4142 35.4429 31.7319 35.8595C30.3126 36.3153 31.0287 37.7866 31.5756 38.6981C33.8803 42.5132 39.7136 42.0184 41.3673 37.8908C41.8881 36.6017 42.3569 33.3205 40.1303 33.6199L40.1173 33.6069Z" fill="#FEFEFE"/>
<path d="M26.6799 21.9646C23.62 24.3735 21.4716 28.41 21.2111 32.3162C14.4273 36.7433 5.13041 33.5141 2.73458 25.7537C0.625204 18.9047 4.77885 11.6521 11.758 10.1157C19.4143 8.436 26.5627 14.1782 26.6669 21.9646H26.6799ZM10.9377 16.5219C9.98718 16.7172 9.29708 19.048 10.4429 19.6079C12.2398 20.4672 13.0992 16.0792 10.9377 16.5219ZM19.232 18.7615C18.2684 18.9568 17.7085 21.2615 18.6981 21.7824C20.2216 22.6027 21.094 19.6339 20.1695 18.9438C19.245 18.2537 19.5575 18.6834 19.232 18.7615ZM10.0132 28.4751C12.4221 30.7146 16.2893 30.3631 18.2163 27.7199C20.1434 25.0766 19.857 25.1287 18.3986 24.5297L9.60958 22.186C8.17729 22.0558 8.22937 24.2824 8.33354 25.2329C8.45072 26.3396 9.20593 27.7329 10.0132 28.4881V28.4751Z" fill="#FEFEFE"/>
<path d="M40.1172 33.6072C42.3438 33.3077 41.875 36.5759 41.3542 37.878C39.7006 42.0186 33.8672 42.5004 31.5625 38.6853C29.2579 34.8702 30.2995 36.3155 31.7188 35.8468C34.4011 35.4301 37.5 33.9587 40.1042 33.5942L40.1172 33.6072ZM39.5573 36.0291L33.5026 37.7348C35.3646 40.2608 39.4011 39.1801 39.5573 36.0291Z" fill="#140505"/>
<path d="M41.6668 29.7384C40.7814 30.6239 39.7918 29.0353 38.4897 30.0249C37.1877 31.0145 37.8778 31.2749 36.8231 31.0015C35.8595 30.7541 35.9507 29.8035 36.4194 29.1265C37.396 27.6942 39.3231 27.1473 40.9246 27.7853C41.758 28.1108 42.4741 28.9442 41.6798 29.7515L41.6668 29.7384Z" fill="#140505"/>
<path d="M30.56 29.8048C31.6928 29.6486 34.5964 30.1955 33.4636 31.8231C32.7735 32.8127 31.849 31.784 30.8594 31.9533C29.8699 32.1226 29.362 34.0366 28.1511 33.047C26.9402 32.0574 29.349 29.9741 30.56 29.8048Z" fill="#140505"/>
<path d="M10.013 28.4755C9.20573 27.7203 8.45052 26.3271 8.33333 25.2203C8.22916 24.2698 8.17708 22.0432 9.60937 22.1734L18.3984 24.5172C19.8568 25.1162 18.8542 26.8219 18.2161 27.7073C16.2891 30.3505 12.4219 30.7021 10.013 28.4625V28.4755ZM16.5234 26.262L10.4687 24.6995C10.638 26.9912 12.9557 28.3844 15.1042 27.538C15.625 27.3297 16.3411 26.8219 16.5104 26.262H16.5234Z" fill="#140505"/>
<path d="M10.9375 16.5218C13.099 16.0791 12.2396 20.4541 10.4427 19.6077C9.28387 19.0609 9.97398 16.7171 10.9375 16.5218Z" fill="#140505"/>
<path d="M19.2316 18.7629C19.5571 18.6978 19.8957 18.7499 20.1691 18.9452C21.0936 19.6353 20.2342 22.6041 18.6977 21.7838C17.1613 20.9634 18.2681 18.9582 19.2316 18.7629Z" fill="#140505"/>
<path d="M39.5571 36.0293C39.4009 39.1934 35.3644 40.2611 33.5024 37.735L39.5571 36.0293Z" fill="#FEFEFE"/>
<path d="M16.5236 26.2637C16.3413 26.8236 15.6382 27.3314 15.1174 27.5397C12.9689 28.3991 10.6512 26.9928 10.4819 24.7012L16.5366 26.2637H16.5236Z" fill="#FEFEFE"/>
</g>
<defs>
<clipPath id="clip0_875_15121">
<rect width="50" height="50" fill="white"/>
</clipPath>
</defs>
</svg>
