<svg width="50" height="50" viewBox="0 0 50 50" fill="none" xmlns="http://www.w3.org/2000/svg">
<g clip-path="url(#clip0_1373_30079)">
<path d="M49.9999 31.9265V34.8562C49.6614 36.8093 49.1536 38.5931 48.19 40.3249C41.3671 52.6817 22.4088 48.5801 21.1979 34.752C21.1328 34.0749 21.1588 33.0072 21.1979 32.3041C21.4453 28.3978 23.6067 24.3614 26.6666 21.9525C29.7265 19.5437 28.19 20.9109 28.815 20.5853C37.2005 16.1322 47.4999 20.9109 49.6354 30.0775L49.9999 31.9135V31.9265ZM34.6614 21.1192C25.1953 21.8614 20.1171 32.6687 25.6249 40.4551C30.677 47.6036 41.4973 47.1869 46.0416 39.739C51.2499 31.2103 44.5703 20.351 34.6614 21.1192Z" fill="#140505"/>
<path d="M28.8145 20.5983C28.1895 20.9238 27.213 21.5358 26.6661 21.9655C26.5489 14.192 19.4135 8.43683 11.7572 10.1165C4.77806 11.653 0.624409 18.9056 2.73378 25.7545C5.12962 33.515 14.4135 36.7571 21.2103 32.317C21.1713 33.0071 21.1452 34.0749 21.2103 34.765C20.2208 35.3639 19.0098 35.8066 17.89 36.0801C11.1452 37.7077 4.16608 34.3613 1.31451 28.0592C0.663472 26.6269 0.377013 25.1556 0.0254508 23.6321C0.0905549 22.6556 -0.0656951 21.5618 0.0254508 20.6113C1.26243 7.5384 18.5411 2.92902 26.2103 13.7884C27.6557 15.8457 28.4109 18.1243 28.8275 20.5983H28.8145Z" fill="#4065D3"/>
<path d="M39.0371 2.06982C40.0266 1.84847 40.6516 2.77295 40.248 3.68441C39.1022 6.24951 36.9928 8.84066 35.7818 11.4188C35.0006 12.4865 33.4251 11.7573 33.8287 10.4422L38.2949 2.69482C38.4511 2.47347 38.7636 2.1219 39.0371 2.06982Z" fill="#4065D3"/>
<path d="M27.6313 3.33272C28.2043 3.26761 28.5688 3.60615 28.7772 4.10095C29.5063 5.80668 29.7017 8.17647 30.3527 9.96032C30.4829 11.1713 28.8293 11.6791 28.2954 10.5463C27.9699 8.68428 26.9673 6.53584 26.7069 4.71293C26.6157 4.04886 26.9282 3.42386 27.6313 3.33272Z" fill="#4065D3"/>
<path d="M43.8279 12.7076C45.0388 12.6164 45.4945 14.1138 44.5049 14.7649L38.4242 16.3925C37.2263 16.4706 36.7706 14.9993 37.7732 14.3743L43.8279 12.7076Z" fill="#4065D3"/>
<path d="M34.6611 21.1195C44.5699 20.3382 51.2496 31.1976 46.0413 39.7393C41.484 47.2002 30.6637 47.6038 25.6246 40.4554C20.1298 32.6689 25.2079 21.8616 34.6611 21.1195ZM41.6663 29.7393C42.4736 28.932 41.7444 28.0986 40.9111 27.7731C39.2965 27.1351 37.3824 27.682 36.4059 29.1143C35.9371 29.8044 35.859 30.7419 36.8095 30.9893C37.8642 31.2627 37.8902 30.4554 38.4762 30.0127C39.7913 29.0231 40.7678 30.6116 41.6533 29.7262L41.6663 29.7393ZM30.5595 29.8044C29.3486 29.9736 26.6793 31.8616 28.1507 33.0465C29.622 34.2314 29.8434 32.1221 30.859 31.9528C31.8746 31.7835 32.773 32.8252 33.4632 31.8226C34.596 30.195 31.7053 29.6481 30.5595 29.8044ZM40.1168 33.6064C37.4996 33.958 34.4137 35.4424 31.7314 35.859C30.3121 36.3148 31.0283 37.7861 31.5751 38.6976C33.8798 42.5127 39.7132 42.0179 41.3668 37.8903C41.8876 36.6012 42.3564 33.32 40.1298 33.6195L40.1168 33.6064Z" fill="#FEFEFE"/>
<path d="M26.6794 21.9656C23.6195 24.3745 21.4711 28.4109 21.2107 32.3172C14.4268 36.7443 5.12992 33.5151 2.73409 25.7547C0.624716 18.9057 4.77836 11.6531 11.7575 10.1167C19.4138 8.43697 26.5622 14.1792 26.6664 21.9656H26.6794ZM10.9372 16.5229C9.9867 16.7182 9.29659 19.049 10.4424 19.6088C12.2393 20.4682 13.0987 16.0802 10.9372 16.5229ZM19.2315 18.7625C18.2679 18.9578 17.708 21.2625 18.6976 21.7833C20.2211 22.6036 21.0935 19.6349 20.169 18.9448C19.2445 18.2547 19.557 18.6844 19.2315 18.7625ZM10.0127 28.476C12.4216 30.7156 16.2888 30.3641 18.2159 27.7208C20.1429 25.0776 19.8565 25.1297 18.3982 24.5307L9.60909 22.187C8.1768 22.0568 8.22888 24.2833 8.33305 25.2339C8.45024 26.3406 9.20544 27.7339 10.0127 28.4891V28.476Z" fill="#FEFEFE"/>
<path d="M40.1167 33.6062C42.3433 33.3067 41.8746 36.575 41.3537 37.877C39.7001 42.0177 33.8667 42.4994 31.5621 38.6843C29.2574 34.8692 30.299 36.3145 31.7183 35.8458C34.4006 35.4291 37.4996 33.9578 40.1037 33.5932L40.1167 33.6062ZM39.5568 36.0281L33.5022 37.7338C35.3641 40.2598 39.4006 39.1791 39.5568 36.0281Z" fill="#140505"/>
<path d="M41.6673 29.7389C40.7819 30.6243 39.7923 29.0358 38.4902 30.0254C37.1881 31.015 37.8782 31.2754 36.8236 31.0019C35.86 30.7545 35.9512 29.804 36.4199 29.1269C37.3965 27.6947 39.3236 27.1478 40.9251 27.7858C41.7585 28.1113 42.4746 28.9447 41.6803 29.7519L41.6673 29.7389Z" fill="#140505"/>
<path d="M30.5604 29.8044C31.6933 29.6481 34.5969 30.195 33.4641 31.8226C32.774 32.8122 31.8495 31.7835 30.8599 31.9528C29.8703 32.1221 29.3625 34.0361 28.1516 33.0465C26.9407 32.057 29.3495 29.9736 30.5604 29.8044Z" fill="#140505"/>
<path d="M10.013 28.476C9.20573 27.7208 8.45052 26.3276 8.33333 25.2208C8.22916 24.2703 8.17708 22.0437 9.60937 22.1739L18.3984 24.5177C19.8568 25.1166 18.8542 26.8224 18.2161 27.7078C16.2891 30.351 12.4219 30.7026 10.013 28.463V28.476ZM16.5234 26.2625L10.4687 24.7C10.638 26.9916 12.9557 28.3849 15.1042 27.5385C15.625 27.3302 16.3411 26.8224 16.5104 26.2625H16.5234Z" fill="#140505"/>
<path d="M10.9375 16.5228C13.099 16.0801 12.2396 20.4551 10.4427 19.6087C9.28387 19.0618 9.97398 16.7181 10.9375 16.5228Z" fill="#140505"/>
<path d="M19.2311 18.7624C19.5566 18.6973 19.8952 18.7494 20.1686 18.9447C21.0931 19.6348 20.2337 22.6036 18.6973 21.7833C17.1608 20.963 18.2676 18.9577 19.2311 18.7624Z" fill="#140505"/>
<path d="M39.5566 36.0283C39.4004 39.1924 35.3639 40.2601 33.502 37.7341L39.5566 36.0283Z" fill="#FEFEFE"/>
<path d="M16.5241 26.2627C16.3418 26.8226 15.6387 27.3304 15.1178 27.5387C12.9694 28.3981 10.6517 26.9919 10.4824 24.7002L16.5371 26.2627H16.5241Z" fill="#FEFEFE"/>
</g>
<defs>
<clipPath id="clip0_1373_30079">
<rect width="50" height="50" fill="white"/>
</clipPath>
</defs>
</svg>
