<svg width="75" height="75" viewBox="0 0 75 75" fill="none" xmlns="http://www.w3.org/2000/svg">
<g clip-path="url(#clip0_477_7569)">
<path d="M30.3517 0L34.4533 0.664062C47.5197 3.30078 59.004 15.2344 54.8829 29.2969C50.7619 43.3594 50.7423 37.5 47.2267 40.5273C47.1681 40.7812 47.3439 41.0742 47.422 41.3086C48.379 44.1016 51.8361 48.5352 48.8869 50.9766C47.5392 52.0898 46.1134 51.6602 44.5704 51.3477C41.3087 50.7031 38.3009 49.4922 35.3517 47.9687C34.1994 47.3633 33.7697 46.6602 32.3634 46.7187C30.1954 46.8164 28.1642 47.1289 25.9181 47.0117C15.7423 46.4648 4.74623 40.3125 1.28919 30.3516C0.703256 28.6719 0.429819 26.9336 0.0782563 25.1953C0.156381 24.0625 -0.0194 22.793 0.0782563 21.6797C0.976694 11.7578 9.82435 3.75 19.0431 1.21094L25.215 0H30.3322H30.3517ZM46.8947 48.4766C46.9337 48.2617 46.8556 48.125 46.7775 47.9297C45.9962 45.7812 44.0431 42.5781 43.5939 40.5664C43.2033 38.7891 44.922 38.2617 46.0158 37.2656C61.504 23.0469 47.3244 4.14062 29.3947 3.20312C15.6447 2.5 -0.663931 13.2812 4.10169 28.6719C8.02748 41.3281 24.0236 45.9766 35.8009 42.7344C37.3829 42.3047 41.797 39.9023 41.4845 43.2812C41.3478 44.8633 38.9454 44.7852 38.047 45.4102C37.1486 46.0352 37.9298 45.5859 38.047 45.7031C38.34 46.0352 41.8947 47.3047 42.5587 47.5C43.9845 47.9297 45.4493 48.2031 46.9142 48.4766H46.8947Z" fill="#4065D3"/>
<path d="M75.0002 33.8307V35.8815C73.1252 42.2487 69.5705 48.2643 65.7423 53.655C61.5627 59.5534 56.0744 65.6081 50.4689 70.1589C48.0275 72.1315 45.2736 74.2409 42.2072 75.0026H39.7267C38.7502 74.6706 37.8713 74.4167 36.9533 73.8893C35.7814 73.2057 32.1877 70.4128 31.2892 69.4362C30.3908 68.4596 30.0588 66.9557 30.6447 65.7057C32.9103 62.9714 35.0588 59.7096 37.4416 57.112C39.8244 54.5143 39.8634 55.1589 41.6213 55.862C43.3791 56.5651 45.9963 59.6901 46.8361 59.7487C47.6759 59.8073 47.2267 59.6901 47.383 59.5925C52.0314 54.0651 56.465 48.362 61.0158 42.7565C61.2306 42.2487 61.0939 41.8386 60.7228 41.4479C58.7111 39.28 53.8478 37.7761 56.1916 33.8307C58.5548 31.3112 60.547 27.9128 62.9103 25.4714C65.2736 23.03 65.7814 23.8307 67.3634 24.8268C69.2189 25.9792 73.4377 29.5729 74.2775 31.5261L74.9806 33.8307H75.0002ZM65.3322 27.5417L58.9064 35.7057C60.2541 37.4245 63.965 39.0261 64.297 41.4089C64.6291 43.7917 64.3752 43.5964 63.8478 44.4557L49.8048 61.9167C45.9572 65.0221 43.1838 60.8815 40.2345 58.9284L33.7306 67.0729C33.7111 67.3073 34.0627 67.5417 34.2189 67.6979C35.1955 68.6159 38.5353 71.2917 39.6681 71.6237C42.2267 72.3268 44.0041 70.9011 45.9767 69.5339C55.215 63.069 65.1759 50.6471 69.883 40.4323C70.8595 38.3034 72.2463 35.569 71.4259 33.2643C70.84 31.5651 67.6173 29.1237 66.1134 28.03C64.6095 26.9362 65.4689 27.4831 65.3127 27.5807L65.3322 27.5417Z" fill="#140505"/>
<path d="M65.3322 27.5391C65.4689 27.4414 65.9767 27.8711 66.133 27.9883C67.6564 29.082 70.8595 31.5234 71.4455 33.2227C72.2462 35.5273 70.8791 38.2812 69.9025 40.3906C65.1759 50.6055 55.215 63.0273 45.9962 69.4922C44.0236 70.8789 42.2462 72.2852 39.6876 71.582C37.1291 70.8789 35.1955 68.5742 34.2384 67.6562C33.2814 66.7383 33.7306 67.2656 33.7501 67.0312L40.2541 58.8867C43.2033 60.8398 45.9767 65 49.8244 61.875L63.8673 44.4141C64.3947 43.5742 64.4533 42.3438 64.3165 41.3672C63.9845 38.9844 60.2736 37.4023 58.9259 35.6641L65.3517 27.5L65.3322 27.5391Z" fill="#FEFEFE"/>
<path d="M21.2306 24.198C23.2618 23.7293 23.2032 25.9168 24.2775 26.952C26.0353 28.6707 29.1212 28.5145 30.5665 26.5027C32.0118 24.491 31.2501 23.8074 33.2032 24.1785C35.1564 24.5496 33.5353 28.2215 32.5587 29.2176C29.0626 32.7918 22.5587 31.7957 20.5275 27.1863C20.0782 26.1707 19.7657 24.5301 21.2501 24.1785L21.2306 24.198Z" fill="#140505"/>
<path d="M39.2191 20.8627C40.7621 22.4642 38.2621 24.6908 36.8363 23.1673C35.4105 21.6439 37.7933 19.3783 39.2191 20.8627Z" fill="#140505"/>
<path d="M15.957 20.3886C18.3203 19.9394 18.8476 23.7284 16.2109 23.5917C14.2773 23.4941 14.2968 20.7011 15.957 20.3886Z" fill="#140505"/>
</g>
<defs>
<clipPath id="clip0_477_7569">
<rect width="75" height="75" fill="white"/>
</clipPath>
</defs>
</svg>
