<svg width="50" height="50" viewBox="0 0 50 50" fill="none" xmlns="http://www.w3.org/2000/svg">
<path d="M36.7187 13.3852C36.8619 14.1274 36.7968 14.7914 36.8229 15.5336C36.8619 17.5388 36.888 19.6873 36.8229 21.6794C36.7968 22.4086 36.7708 23.1117 36.6276 23.8279C36.3932 25.0128 35.8724 26.1586 35.3515 27.2393C34.5052 27.2654 33.6588 27.2393 32.8125 27.2393C33.776 25.7289 34.5442 24.0362 34.6744 22.2133C34.8698 19.5701 34.5312 16.6925 34.6614 14.0232C34.4922 12.8774 33.6979 12.2263 32.6041 11.9789C29.7396 11.3149 27.5651 13.1248 25.026 14.0362C21.9401 15.143 18.5937 15.5076 15.3385 15.5206V22.4998C15.3385 22.8383 15.6901 24.1664 15.8203 24.5571C17.7994 30.5336 25.3255 33.1248 30.4687 29.3878C31.5364 29.4008 32.6172 29.3878 33.6979 29.3878C33.0989 30.1039 32.3958 30.7419 31.6146 31.2628C30.8333 31.7836 29.3229 32.3956 29.2448 32.4998C29.1666 32.6039 29.1666 33.906 29.2057 33.9581C34.0234 35.2081 38.151 38.6716 40.1432 43.2289C40.6119 43.5284 42.3047 41.7836 42.6172 41.38C43.1901 40.6117 43.6718 39.6612 43.8541 38.7107C41.6797 37.9685 40.0651 35.9373 39.401 33.7758C38.8802 32.0701 39.1015 30.3513 39.0625 28.5935C39.2448 28.4763 39.7786 27.9425 39.9479 27.7602C40.5989 27.031 40.8593 26.2498 41.2109 25.3643C41.1849 28.7367 40.3776 34.7784 44.1015 36.4841C47.8255 38.1899 46.1849 36.5492 46.0937 38.3071C45.9635 41.0545 43.5807 44.3227 41.0156 45.2992C40.9505 45.3904 41.4323 47.2654 41.4843 47.6039C41.6146 48.5414 41.875 49.544 40.8203 49.9867H9.08851C8.12497 49.4268 8.39841 48.4633 8.52861 47.5258C8.65882 46.5883 9.01038 45.6248 8.97132 45.4685C8.91924 45.2341 8.15101 44.9477 7.90361 44.7784C5.8333 43.3591 3.99736 40.8201 3.90622 38.2289C3.85413 36.5623 4.86976 36.992 5.96351 36.4711C7.56507 35.7029 8.67184 33.5024 8.80205 31.7836V22.4477C9.28382 22.9946 10.2343 23.5544 10.9505 23.7237C10.8073 26.419 11.1328 29.3097 10.9505 31.9789C10.7552 34.7654 8.88018 37.8123 6.15882 38.7237C6.4583 40.2081 7.44788 41.7576 8.65882 42.669C9.86976 43.5805 9.68747 43.5024 9.90882 43.1378C10.3255 42.4347 10.638 41.6404 11.1067 40.9242C13.3593 37.4998 16.888 35.0388 20.8203 33.919C20.7552 33.6065 20.9244 32.7341 20.7682 32.5128C20.6119 32.2914 19.4271 31.8878 19.1797 31.7576C16.3021 30.1039 14.0234 27.1091 13.3854 23.8279C12.7474 20.5466 13.2161 22.4086 13.1901 21.6794C13.125 19.6873 13.151 17.5258 13.1901 15.5336C13.2291 13.5414 12.9297 13.7628 14.0755 13.3852C17.6953 13.3071 20.8984 13.2419 24.3489 11.9919C26.5234 11.1977 28.5286 9.76538 30.9114 9.67424C33.4635 9.57007 36.1718 10.6638 36.7317 13.3852H36.7187ZM27.0573 33.0987C25.7031 33.3591 24.3099 33.3591 22.9557 33.0987V35.1039C22.9557 35.13 22.7474 35.4815 22.7083 35.5336C22.3567 35.9242 21.0937 36.0675 20.5208 36.2758C19.9479 36.4841 20.0651 36.393 20.1302 36.5623C20.1953 36.7315 20.8593 37.1873 20.9765 37.2784C23.4375 39.0753 26.5885 39.0492 29.0494 37.2784C29.1927 37.1742 29.8567 36.6534 29.8958 36.5623C29.9609 36.393 29.6093 36.3149 29.5052 36.2758C28.9323 36.0675 27.6692 35.9242 27.3177 35.5336C26.9661 35.143 27.0703 35.13 27.0703 35.1039V33.0987H27.0573ZM33.0989 47.8513V38.1378C33.0989 38.0727 32.1354 37.3956 31.9922 37.4216C31.8489 37.4477 31.3802 38.1117 31.1979 38.294C27.6823 41.5232 22.4349 41.6534 18.8932 38.3982C15.3515 35.143 18.1119 37.4477 18.0078 37.4347C17.9036 37.4216 16.901 38.0857 16.901 38.1508V47.8643H33.1119L33.0989 47.8513ZM14.7396 47.8513V39.9347C12.5781 41.9399 11.0547 44.9086 10.7291 47.8513H14.7396ZM39.2578 47.8513C38.9323 44.9086 37.4088 41.9399 35.2474 39.9347V47.8513H39.2578Z" fill="#140505"/>
<path d="M26.459 0C27.3184 0.195313 28.1908 0.286458 29.0371 0.494792C35.4824 2.10938 40.5996 7.99479 41.1074 14.6484C40.4954 14.0104 39.6361 13.6198 38.7637 13.4766C37.8262 8.69792 34.3757 4.71354 29.8314 3.02083C21.7324 0.0260418 12.9043 5.10417 11.2246 13.4766C10.3522 13.6198 9.49284 14.0104 8.88086 14.6484C9.42773 7.85156 14.623 2.01823 21.1855 0.442708L23.4382 0H26.459Z" fill="#140505"/>
<path d="M32.8118 27.2396C31.5488 27.2396 29.8561 27.0963 28.6582 27.2396C27.7598 27.3437 27.4082 28.5156 28.0723 29.1016C28.7363 29.6875 29.8171 29.375 30.4681 29.388C25.3249 33.125 17.7858 30.5338 15.8197 24.5573C15.6895 24.1667 15.3379 22.8516 15.3379 22.5V15.5208C18.6061 15.5078 21.9525 15.1432 25.0254 14.0364C27.5645 13.125 29.7389 11.3151 32.6035 11.9792C33.6973 12.2266 34.4915 12.8776 34.6608 14.0234C34.5306 16.6927 34.8691 19.5703 34.6738 22.2135C34.5436 24.0365 33.7754 25.7292 32.8118 27.2396ZM21.054 19.7656C20.0384 18.6979 18.3717 20.3125 19.5176 21.3542C20.6634 22.3958 21.9134 20.6771 21.054 19.7656ZM30.5332 19.7656C29.5436 18.737 28.0332 20.2734 28.9447 21.3021C29.8561 22.3307 31.5358 20.8203 30.5332 19.7656ZM22.8249 23.8542C22.6035 23.9062 22.291 24.1927 22.1868 24.388C21.4447 25.9505 24.179 26.5234 25.2467 26.4713C26.3145 26.4193 28.5801 25.7682 27.7728 24.3229C26.9655 22.8776 25.8978 24.2969 25.0384 24.3229C24.179 24.349 23.554 23.6849 22.8118 23.8542H22.8249Z" fill="#FEFEFE"/>
<path d="M38.7767 13.4766C38.0736 13.3594 37.4355 13.3594 36.7194 13.3724C36.1725 10.6511 33.4642 9.54429 30.8991 9.66147C28.5163 9.76564 26.5111 11.1979 24.3366 11.9792C20.8861 13.2292 17.6699 13.2943 14.0632 13.3724C10.4564 13.4505 12.1882 13.3203 11.2246 13.4766C12.9043 5.10418 21.7324 0.0260561 29.8314 3.02085C34.3757 4.70054 37.8262 8.69793 38.7637 13.4766H38.7767Z" fill="#FEFEFE"/>
<path d="M33.0996 47.8516H16.8887V38.1381C16.8887 38.073 17.8522 37.3959 17.9954 37.422C18.1387 37.448 18.6986 38.2162 18.8809 38.3855C22.4225 41.6407 27.6829 41.5235 31.1855 38.2813C31.3678 38.1121 31.8496 37.435 31.9798 37.4089C32.11 37.3829 33.0866 38.06 33.0866 38.1251V47.8386L33.0996 47.8516Z" fill="#FEFEFE"/>
<path d="M13.3848 23.8283C14.0228 27.1095 16.3014 30.1043 19.179 31.758C19.4264 31.9012 20.7155 32.4481 20.7676 32.5132C20.9108 32.7345 20.7546 33.6069 20.8197 33.9194C16.8874 35.0392 13.3587 37.5002 11.1061 40.9246C10.6374 41.6408 10.3249 42.4351 9.9082 43.1382C9.49154 43.8413 8.9056 42.8517 8.6582 42.6694C7.44727 41.758 6.4707 40.2085 6.1582 38.7241C8.87956 37.8127 10.7676 34.7658 10.9499 31.9793C11.1322 29.3101 10.8066 26.4194 10.9499 23.7241C11.7441 23.8934 12.5775 23.7892 13.3978 23.8283H13.3848Z" fill="#FEFEFE"/>
<path d="M39.0622 28.6196C39.1013 30.3774 38.8799 32.0962 39.4008 33.8019C40.0648 35.9634 41.6794 37.9946 43.8539 38.7368C43.6716 39.6873 43.2028 40.6379 42.6169 41.4061C42.031 42.1743 40.6117 43.5545 40.1429 43.255C38.1508 38.6978 34.0231 35.2212 29.2054 33.9842C29.1534 33.9321 29.1794 32.617 29.2445 32.5259C29.3096 32.4347 31.2106 31.5493 31.6143 31.2889C32.3955 30.7681 33.0987 30.13 33.6976 29.4139C35.4554 29.3879 37.5258 29.6222 39.0622 28.6326V28.6196Z" fill="#FEFEFE"/>
<path d="M38.7758 13.4766C39.6482 13.6198 40.5076 14.0105 41.1196 14.6485C42.3696 15.9506 42.3435 18.4636 42.1873 20.1693C42.0831 21.2761 41.3279 21.9141 41.2107 22.5131C41.0935 23.112 41.2107 24.5964 41.2107 25.3907C40.8592 26.2761 40.5987 27.0573 39.9477 27.7865C39.2967 28.5157 39.2446 28.5026 39.0623 28.6198C37.5128 29.6094 35.4425 29.375 33.6977 29.4011C31.9529 29.4271 31.5493 29.4141 30.4685 29.4011C29.3878 29.3881 28.5675 29.5443 28.0727 29.1146C27.5779 28.6849 27.7732 27.3568 28.6586 27.2526C29.8566 27.1094 31.5493 27.2657 32.8123 27.2526C33.6586 27.2526 34.505 27.2787 35.3514 27.2526C36.1977 27.2266 37.2003 27.3308 38.0857 26.6146C38.9711 25.8985 39.1404 24.8177 39.0623 23.737C38.255 23.8933 37.4347 23.8282 36.6274 23.8412C36.7706 23.125 36.7967 22.4219 36.8227 21.6927C38.3982 21.8099 39.9086 21.6667 40.0519 19.7917C40.117 18.9454 40.1821 16.9922 39.7003 16.3282C39.2185 15.6641 37.8514 15.5339 36.8227 15.5469C36.8097 14.8047 36.8748 14.1407 36.7185 13.3985C37.4347 13.3724 38.0727 13.3855 38.7758 13.5026V13.4766Z" fill="#4065D3"/>
<path d="M14.0628 13.3854C12.93 13.763 13.2035 14.5573 13.1774 15.5339C11.6149 15.4297 10.0915 15.5469 9.94826 17.4349C9.80503 19.3229 9.81805 20.2083 10.2998 20.8984C10.9769 21.875 12.1358 21.6797 13.1774 21.6797C13.2035 22.4089 13.2295 23.099 13.3727 23.8281C12.5524 23.8021 11.7321 23.9063 10.9248 23.724C10.1175 23.5417 9.25816 23.0078 8.77638 22.4479C7.34409 20.8203 7.34409 16.224 8.88055 14.6354C9.49253 13.9974 10.3519 13.6068 11.2243 13.4635C12.0967 13.3203 13.0863 13.3854 14.0628 13.3594V13.3854Z" fill="#4065D3"/>
<path d="M27.0575 33.0991V35.1043C27.0575 35.1304 27.2658 35.4819 27.3049 35.534C27.6564 35.9246 28.9194 36.0679 29.4924 36.2762C30.0653 36.4845 29.9481 36.3934 29.883 36.5627C29.8179 36.7319 29.1799 37.1746 29.0366 37.2788C26.5757 39.0496 23.4246 39.0757 20.9637 37.2788C20.8465 37.1877 20.1434 36.6147 20.1174 36.5627C20.0523 36.3934 20.4038 36.3153 20.508 36.2762C21.0809 36.0679 22.3439 35.9246 22.6955 35.534C23.047 35.1434 22.9429 35.1304 22.9429 35.1043V33.0991C24.297 33.3595 25.6903 33.3595 27.0444 33.0991H27.0575Z" fill="#FEFEFE"/>
<path d="M14.7389 47.8517H10.7285C11.054 44.909 12.5645 41.9403 14.7389 39.9351V47.8517Z" fill="#FEFEFE"/>
<path d="M39.2585 47.8517H35.248V39.9351C37.4095 41.9403 38.9199 44.909 39.2585 47.8517Z" fill="#FEFEFE"/>
<path d="M13.1784 15.5206C13.1393 17.5258 13.1133 19.6742 13.1784 21.6664C12.1367 21.6664 10.9779 21.8617 10.3008 20.8852C9.81901 20.1951 9.88412 18.294 9.94922 17.4216C10.0925 15.5466 11.6029 15.4164 13.1784 15.5206Z" fill="#FEFEFE"/>
<path d="M36.8223 21.6795C36.8874 19.6873 36.8613 17.5259 36.8223 15.5337C37.8509 15.5337 39.0228 15.3774 39.6999 16.3149C40.377 17.2524 40.1165 18.9321 40.0514 19.7785C39.9082 21.6535 38.3978 21.7967 36.8223 21.6795Z" fill="#FEFEFE"/>
<path d="M36.6139 23.8283C37.4342 23.8283 38.2546 23.8804 39.0488 23.7241C39.127 24.8049 38.9707 25.8986 38.0723 26.6017C37.1738 27.3049 36.3926 27.2007 35.3379 27.2397C35.8457 26.159 36.3665 25.0132 36.6139 23.8283Z" fill="#FEFEFE"/>
<path d="M22.8257 23.854C23.5679 23.6847 24.258 24.3358 25.0523 24.3227C25.8466 24.3097 27.1487 23.203 27.7867 24.3227C28.4247 25.4425 26.2893 26.4061 25.2606 26.4712C24.232 26.5363 21.4586 25.9503 22.2007 24.3878C22.9429 22.8253 22.6174 23.9061 22.8388 23.854H22.8257Z" fill="#140505"/>
<path d="M21.0551 19.7655C21.9145 20.6769 20.6385 22.3697 19.5187 21.354C18.3989 20.3384 20.0395 18.7108 21.0551 19.7655Z" fill="#140505"/>
<path d="M30.5334 19.7656C31.536 20.8203 29.9475 22.4089 28.9449 21.3021C27.9422 20.1953 29.5438 18.737 30.5334 19.7656Z" fill="#140505"/>
</svg>
