<svg width="244" height="272" viewBox="0 0 244 272" fill="none" xmlns="http://www.w3.org/2000/svg">
<path d="M200.58 180.678C208.955 168.361 198.246 152.38 178.239 159.221C169.248 162.304 176.635 129.274 176.635 129.274C210.112 129.274 230.362 137.714 239.289 161.187C251.174 192.464 233.768 217.54 221.704 217.317C225.179 208.931 223.536 203.768 223.536 203.768C222.543 212.352 215.488 217.758 207.684 216.87C210.519 210.326 209.481 201.921 209.481 201.921C208.488 210.505 198.931 213.131 192.408 212.302C197.085 204.563 197.005 197.741 197.005 197.741C191.619 197.835 186.579 192.469 186.922 184.481C186.922 184.481 195.56 188.045 200.57 180.678" fill="black"/>
<path d="M45.1178 133.35C57.1023 145.21 102.166 135.966 110.814 116.153C113.793 109.306 116.96 113.209 117.268 114.827C122.566 141.174 110.174 173.672 70.8592 187.211C29.3899 201.489 3.54423 183.736 0.9676 169.299C12.7536 172.014 21.5558 169.214 21.5558 169.214C10.0727 169.795 0.630008 161.812 0.0888672 151.386C9.31309 153.685 20.9402 150.339 20.9402 150.339C9.42231 150.89 2.32293 139.169 1.96052 130.406C8.59802 133.077 15.8057 134.017 22.9062 133.137C22.4792 119.817 28.4566 114.008 39.9695 113.422C39.9695 113.422 36.9907 125.288 45.1178 133.35Z" fill="black"/>
<path d="M181.282 135.266C181.282 261.223 137.063 264.519 137.063 264.519C137.063 264.519 93.002 260.979 93.002 135.266C93.002 129.755 93.1857 124.484 93.553 119.454C96.8396 74.112 114.404 48.579 137.063 48.579C159.82 48.579 177.554 74.3006 180.751 119.975C181.082 124.847 181.256 129.944 181.273 135.266" fill="black"/>
<path d="M137.177 48.122C114.523 48.122 96.8395 72.945 93.5529 116.941C93.3593 119.558 93.2203 122.248 93.126 124.999C93.126 126.488 93.1657 127.531 93.1657 127.978C93.1657 153.64 108.387 181.516 137.063 181.64H137.088C165.882 181.64 181.238 153.635 181.238 128.067C181.238 124.403 181.009 120.858 180.741 117.433C177.574 73.1188 159.92 48.122 137.177 48.122Z" fill="#547CF9"/>
<path d="M99.5049 105.29C91.4126 105.29 84.8345 98.464 84.8345 90.0689C84.8345 81.9667 91.1048 72.9013 99.5049 72.9013C107.905 72.9013 114.175 81.9667 114.175 90.0689C114.175 98.464 107.592 105.29 99.5049 105.29Z" fill="white"/>
<path d="M99.5054 75.2927C106.287 75.2927 111.783 82.9878 111.783 90.0673C111.783 97.1468 106.287 102.896 99.5054 102.896C92.7238 102.896 87.218 97.1518 87.218 90.0673C87.218 82.9828 92.7138 75.2927 99.4955 75.2927M99.4955 70.5068C89.7301 70.5068 82.4321 80.8331 82.4321 90.0673C82.4321 99.778 90.0826 107.682 99.4955 107.682C108.908 107.682 116.559 99.778 116.559 90.0673C116.559 80.8331 109.261 70.5068 99.4955 70.5068Z" fill="#547CF9"/>
<path d="M107.16 92.0581C106.619 95.8858 103.457 98.6014 100.096 98.1298C96.7348 97.6582 94.4262 94.1581 94.9674 90.3453C95.5085 86.5325 98.6709 83.797 102.042 84.2736C105.413 84.7502 107.702 88.2453 107.16 92.0581Z" fill="black"/>
<path d="M137.087 150.576C120.078 150.576 103.194 136.958 103.194 136.958C103.194 145.735 124.601 170.628 137.087 170.628C150.611 170.628 170.98 145.735 170.98 136.958C170.98 136.958 154.101 150.576 137.087 150.576Z" fill="#FF9313"/>
<path d="M170.077 138.03C170.077 138.03 153.768 145.974 136.76 145.974C119.751 145.974 104.281 138.03 104.281 138.03C104.281 142.821 129.809 158.762 137.142 158.762C144.475 158.762 170.077 142.821 170.077 138.03Z" fill="#D24C00"/>
<path d="M139.147 5.70013H134.878C122.114 5.70013 111.763 14.8549 111.763 27.6188V35.4778H162.258V27.6188C162.258 14.8549 151.911 5.70013 139.147 5.70013Z" fill="#547CF9"/>
<path d="M111.783 35.4777C111.783 32.1117 116.693 27.9315 117.884 27.0379C134.074 14.676 139.123 17.0293 170.37 19.1541C180.671 19.8541 179.743 22.5747 174.803 27.0131C170.334 31.1456 165.476 34.8365 160.297 38.0345" fill="#547CF9"/>
<path d="M162.258 35.4774C162.258 39.1115 150.958 42.0555 137.023 42.0555C123.087 42.0555 111.783 39.1115 111.783 35.4774C111.783 31.8434 123.082 28.8994 137.023 28.8994C150.963 28.8994 162.258 31.8483 162.258 35.4774Z" fill="#436FF8"/>
<path d="M86.999 92.6494C93.2842 96.2586 102.806 100.3 113.917 93.3295C113.917 93.3295 111.931 108.015 97.5339 105.969C87.5253 104.554 87.0238 92.6494 87.0238 92.6494" fill="#547CF9"/>
<path d="M174.099 105.29C166.006 105.29 159.423 98.464 159.423 90.0689C159.423 81.9667 165.699 72.9013 174.099 72.9013C182.499 72.9013 188.769 81.9667 188.769 90.0689C188.769 98.464 182.186 105.29 174.099 105.29Z" fill="white"/>
<path d="M174.099 75.2946C180.875 75.2946 186.376 82.9897 186.376 90.0692C186.376 97.1488 180.88 102.898 174.099 102.898C167.317 102.898 161.816 97.1537 161.816 90.0692C161.816 82.9848 167.312 75.2946 174.099 75.2946ZM174.099 70.5087C164.328 70.5087 157.03 80.8351 157.03 90.0692C157.03 99.78 164.686 107.684 174.099 107.684C183.511 107.684 191.162 99.78 191.162 90.0692C191.162 80.8351 183.864 70.5087 174.099 70.5087Z" fill="#547CF9"/>
<path d="M167.148 92.0581C167.689 95.8858 170.851 98.6014 174.217 98.1298C177.583 97.6582 179.882 94.1581 179.346 90.3453C178.809 86.5325 175.647 83.797 172.276 84.2736C168.905 84.7502 166.651 88.2304 167.148 92.0581Z" fill="black"/>
<path d="M186.604 92.6513C180.319 96.2804 170.802 100.302 159.701 93.3315C159.701 93.3315 161.687 108.017 176.084 105.971C186.098 104.556 186.594 92.6513 186.594 92.6513" fill="#547CF9"/>
<path d="M174.625 135.301C174.625 106.918 167.098 54.3036 137.177 54.3036C107.255 54.3036 99.7236 106.928 99.7236 135.227C99.7236 136.815 126.731 149.53 137.177 149.54C147.622 149.549 174.625 136.875 174.625 135.306" fill="#FF9313"/>
<g opacity="0.35">
<path d="M137.177 54.3036C107.241 54.3036 99.7241 106.928 99.7241 135.227C99.7241 136.815 126.732 149.53 137.177 149.54" fill="#FF3000"/>
</g>
<path d="M195.51 271.926H154.865C154.865 262.563 161.046 256.273 170.474 256.253C179.902 256.233 195.496 262.558 195.51 271.926Z" fill="#547CF9"/>
<path d="M78.6387 271.926H119.284C119.284 262.563 113.103 256.273 103.675 256.253C94.2474 256.233 78.6536 262.558 78.6387 271.926Z" fill="#547CF9"/>
<path fill-rule="evenodd" clip-rule="evenodd" d="M27.2555 87.2275L28.2881 99.078L21.9285 103.546L14.8936 100.25L13.861 88.3991C11.6053 89.8102 9.77203 91.8037 8.55445 94.1695C7.33687 96.5353 6.78005 99.1858 6.9427 101.841C7.10535 104.497 7.98143 107.06 9.47862 109.259C10.9758 111.459 13.0386 113.214 15.4497 114.339L17.5497 138.427C17.6154 139.409 17.8763 140.369 18.3174 141.248C18.7584 142.128 19.3706 142.911 20.1181 143.552C20.8656 144.192 21.7333 144.677 22.6705 144.978C23.6077 145.278 24.5955 145.389 25.576 145.303C26.5565 145.217 27.51 144.936 28.3807 144.477C29.2513 144.018 30.0216 143.39 30.6464 142.629C31.2711 141.869 31.7378 140.991 32.0192 140.048C32.3005 139.105 32.3907 138.115 32.2846 137.137L30.1846 113.053C32.3624 111.527 34.0883 109.442 35.1807 107.017C36.273 104.592 36.6912 101.917 36.3914 99.275C36.0916 96.6325 35.0848 94.1197 33.477 92.0012C31.8692 89.8828 29.7199 88.2371 27.2555 87.2374M25.1306 140.21C24.6521 140.252 24.1717 140.152 23.7503 139.921C23.3289 139.69 22.9854 139.34 22.7634 138.914C22.5413 138.488 22.4507 138.005 22.5029 137.528C22.5551 137.05 22.7478 136.599 23.0567 136.231C23.3655 135.863 23.7766 135.595 24.2379 135.46C24.6992 135.326 25.1899 135.332 25.648 135.477C26.1061 135.622 26.5109 135.899 26.8112 136.274C27.1115 136.649 27.2938 137.105 27.3349 137.583C27.39 138.224 27.1889 138.86 26.7757 139.352C26.3625 139.845 25.7709 140.153 25.1306 140.21Z" fill="#547CF9"/>
</svg>
