<svg width="116" height="40" viewBox="0 0 116 40" fill="none" xmlns="http://www.w3.org/2000/svg">
<mask id="mask0_1316_23798" style="mask-type:luminance" maskUnits="userSpaceOnUse" x="0" y="0" width="116" height="40">
<path d="M115.823 0H0V40H115.823V0Z" fill="white"/>
</mask>
<g mask="url(#mask0_1316_23798)">
<path d="M8.25179 0V7.74139H16.1633C18.1965 7.74139 19.983 9.28116 19.983 11.4334C19.983 13.4666 18.1965 15.0064 16.1633 15.0064H8.25179V27.6903C8.25179 30.6423 9.54487 32.2501 12.2501 32.2501C13.6027 32.2501 14.9553 31.8843 16.0697 31.5696C19.2088 30.8295 21.1825 32.8031 21.1825 35.0829C21.1825 36.4356 20.5019 37.8563 18.5963 38.7155C16.4441 39.7023 13.4241 40.0085 11.0846 40.0085C3.44534 40.0085 0 34.7767 0 27.8775V0.00850235H8.25179V0Z" fill="#4065D3"/>
<path d="M37.0303 39.9992C28.9657 39.9992 22.8662 34.827 22.2536 27.5024C22.0665 25.0354 22.0665 21.1562 22.2536 18.6977C22.8662 11.3051 28.9657 6.13281 37.0303 6.13281C45.095 6.13281 51.135 11.3051 51.7475 18.6977C51.9346 21.1562 51.9346 24.9759 51.7475 27.4429C51.135 34.827 45.1631 39.9992 37.0303 39.9992ZM43.5552 19.9907C43.3681 16.4773 40.9095 14.0188 37.0303 14.0188C33.1511 14.0188 30.7521 16.4859 30.4459 19.9907C30.3268 21.6581 30.3268 24.5505 30.4459 26.1498C30.7521 29.6632 33.1511 32.1218 37.0303 32.1218C40.9095 32.1218 43.3085 29.6547 43.5552 26.1498C43.6743 24.5505 43.6743 21.6581 43.5552 19.9907Z" fill="#4065D3"/>
<path d="M76.1718 28.361C76.8524 27.1274 77.8988 26.4554 79.4385 26.4554C81.8375 26.4554 83.4368 28.361 83.4368 30.7004C83.4368 34.1457 78.758 39.9986 69.766 39.9986C61.7014 39.9986 55.789 34.3329 55.1765 27.0679C54.9893 24.5413 54.9893 21.1555 55.1765 18.697C55.6699 11.3044 61.7609 6.14062 69.766 6.14062C78.8175 6.14062 83.3773 11.8658 83.3773 15.3197C83.3773 17.5996 81.778 19.5052 79.379 19.5052C77.8392 19.5052 76.7929 18.8926 76.1123 17.6591C74.7597 15.1325 72.6669 14.0266 70.0127 14.0266C66.0059 14.0266 63.7346 16.3661 63.3602 19.939C63.2412 21.4192 63.2412 24.184 63.3602 25.8514C63.7261 29.4243 65.9464 32.1296 70.0127 32.1296C72.6584 32.1296 74.8192 30.8961 76.1718 28.3695" fill="#4065D3"/>
<path d="M100.97 39.9992C92.9051 39.9992 86.8056 34.827 86.1931 27.5024C86.0059 25.0354 86.0059 21.1562 86.1931 18.6977C86.8056 11.3051 92.9051 6.13281 100.97 6.13281C109.034 6.13281 115.074 11.3051 115.687 18.6977C115.874 21.1562 115.874 24.9759 115.687 27.4429C115.074 34.827 109.103 39.9992 100.97 39.9992ZM107.495 19.9907C107.308 16.4773 104.849 14.0188 100.97 14.0188C97.0906 14.0188 94.6916 16.4859 94.3853 19.9907C94.2662 21.6581 94.2662 24.5505 94.3853 26.1498C94.6916 29.6632 97.0906 32.1218 100.97 32.1218C104.849 32.1218 107.248 29.6547 107.495 26.1498C107.614 24.5505 107.614 21.6581 107.495 19.9907Z" fill="#4065D3"/>
</g>
</svg>
