<svg width="43" height="43" viewBox="0 0 43 43" fill="none" xmlns="http://www.w3.org/2000/svg">
<path fill-rule="evenodd" clip-rule="evenodd" d="M0.500244 21.15C0.500244 9.46919 9.96943 0 21.6503 0C33.3311 0 42.8003 9.46919 42.8003 21.15C42.8003 32.8309 33.3311 42.3 21.6503 42.3C9.96943 42.3 0.500244 32.8309 0.500244 21.15Z" fill="#FEFEFE"/>
<path fill-rule="evenodd" clip-rule="evenodd" d="M21.0168 17.1914L21.0611 17.9233L20.3214 17.8336C17.6289 17.4901 15.2767 16.3252 13.2795 14.3686L12.3031 13.3978L12.0516 14.1147C11.519 15.7128 11.8593 17.4005 12.9688 18.5356C13.5606 19.1629 13.4274 19.2525 12.4067 18.8791C12.0516 18.7596 11.7409 18.67 11.7113 18.7148C11.6078 18.8194 11.9628 20.1785 12.2439 20.7162C12.6286 21.463 13.4126 22.1948 14.2707 22.6279L14.9956 22.9715L14.1376 22.9864C13.3091 22.9864 13.2795 23.0013 13.3683 23.315C13.6641 24.2858 14.8329 25.3163 16.1347 25.7644L17.052 26.078L16.2531 26.556C15.0696 27.243 13.6789 27.6313 12.2883 27.6612C11.6226 27.6761 11.0752 27.7359 11.0752 27.7807C11.0752 27.93 12.8801 28.7664 13.9304 29.095C17.0816 30.0658 20.8244 29.6476 23.6353 27.9898C25.6325 26.8099 27.6297 24.465 28.5617 22.1948C29.0647 20.985 29.5677 18.7746 29.5677 17.7142C29.5677 17.0271 29.6121 16.9375 30.4405 16.1161C30.9288 15.6381 31.3874 15.1154 31.4761 14.966C31.6241 14.6823 31.6093 14.6823 30.8548 14.9362C29.5973 15.3842 29.4198 15.3245 30.0411 14.6524C30.4997 14.1745 31.0471 13.3082 31.0471 13.0543C31.0471 13.0095 30.8252 13.0842 30.5737 13.2186C30.3074 13.3679 29.7156 13.592 29.2718 13.7264L28.4729 13.9803L27.748 13.4874C27.3486 13.2186 26.7864 12.9199 26.4906 12.8303C25.7361 12.6212 24.5821 12.651 23.9016 12.89C22.0523 13.5621 20.8836 15.2946 21.0168 17.1914Z" fill="#666666"/>
</svg>
