<svg width="50" height="50" viewBox="0 0 50 50" fill="none" xmlns="http://www.w3.org/2000/svg">
<g clip-path="url(#clip0_1373_31053)">
<path d="M42.7734 -0.000162761C43.0078 0.130046 43.5547 0.559733 43.5547 0.833171V4.29671H47.0182C47.2266 4.29671 47.7734 4.81755 47.7995 5.07796L47.8516 25.6379C47.8385 26.2759 47.3698 26.7446 46.7318 26.7577L7.22656 26.7056C6.96615 26.6795 6.44531 26.1327 6.44531 25.9243V22.4608H2.98177C2.77344 22.4608 2.22656 21.9399 2.20052 21.6795L2.14844 1.01546C2.21354 0.468587 2.5 0.260254 2.92969 -0.0131836H42.7734V-0.000162761ZM4.29688 6.24984C4.29688 6.99202 4.29688 7.74723 4.29688 8.48942C4.29688 10.3123 4.29688 12.1353 4.29688 13.9582C4.29688 15.7811 4.29688 15.4556 4.29688 16.1978C4.29688 17.5649 4.29688 18.9321 4.29688 20.2993C5.66406 20.2993 7.03125 20.2993 8.39844 20.2993C9.76563 20.2993 9.89583 20.2993 10.638 20.2993C18.776 20.2993 26.9141 20.2993 35.0521 20.2993C35.7943 20.2993 36.5495 20.2993 37.2917 20.2993C38.6589 20.2993 40.026 20.2993 41.3932 20.2993C41.3932 18.9321 41.3932 17.5649 41.3932 16.1978C41.3932 14.8306 41.3932 14.7004 41.3932 13.9582C41.3932 12.1353 41.3932 10.3123 41.3932 8.48942C41.3932 6.6665 41.3932 6.99202 41.3932 6.24984C41.3932 4.88265 41.3932 3.51546 41.3932 2.14827C40.026 2.14827 38.6589 2.14827 37.2917 2.14827C35.9245 2.14827 35.7943 2.14827 35.0521 2.14827C26.9141 2.14827 18.776 2.14827 10.638 2.14827C9.89583 2.14827 9.14063 2.14827 8.39844 2.14827C7.03125 2.14827 5.66406 2.14827 4.29688 2.14827C4.29688 3.51546 4.29688 4.88265 4.29688 6.24984ZM45.7031 6.44515H43.5547V21.6274C43.5547 21.8488 42.9427 22.4608 42.7214 22.4608H8.59375V24.6092H45.7031V6.44515Z" fill="#140505"/>
<path d="M1.66667 49.9999C1.38021 49.7395 0.989583 49.5181 0.976562 49.0754L1.0026 29.7525C1.22396 29.453 1.51042 29.1144 1.91406 29.1014C4.45313 29.2837 7.33073 28.854 9.83073 29.1014C11.0807 29.2186 10.9635 30.2603 10.9505 31.2499C13.8802 29.8827 17.3828 29.9087 20.2344 31.4973C23.0859 33.0858 22.2135 33.0728 23.4245 33.5806C25 34.2447 26.875 34.2447 28.5417 34.6092C30.2083 34.9738 31.9141 36.2889 32.1354 38.4895C36.3021 37.0962 40.2995 35.2082 44.4922 33.9061C49.0234 33.5025 50.8724 39.4009 46.849 41.6405C41.7448 43.6978 36.7708 46.1978 31.6406 48.216C24.8568 50.8723 22.5391 49.0624 16.0547 48.19C14.349 47.9556 12.6563 47.9556 10.9375 47.9816C10.9766 48.828 11.0026 49.6092 10.1563 50.0389H1.66667V49.9999ZM8.78906 31.2499H3.125V47.8514H8.78906V31.2499ZM10.9375 45.8072C12.7604 45.7941 14.5313 45.7681 16.3411 46.0155C22.487 46.8488 24.5703 48.6848 31.0156 46.1197C35.612 44.2967 40.9115 42.0832 45.3385 39.9348C45.7292 39.7395 46.1328 39.5962 46.4193 39.2577C47.6432 37.8254 46.3411 35.677 44.5182 36.0806L31.4714 41.0936C28.8411 44.5311 24.0625 41.8618 20.5208 41.7316C19.1667 41.315 19.388 39.5962 20.9505 39.6483C23.099 39.7004 25.638 40.6249 27.7865 40.729C30.3385 40.8462 30.8333 37.3697 28.3464 36.7577C26.4844 36.2889 24.5964 36.3801 22.7344 35.6379C20.7682 34.8566 19.6094 33.2681 17.4609 32.7082C15.1693 32.1092 12.9557 32.5519 10.9375 33.7108V45.8202V45.8072Z" fill="#140505"/>
<path d="M35.0514 2.14844C35.5723 5.42969 38.1244 7.98177 41.4056 8.5026C41.4056 10.3255 41.4056 12.1484 41.4056 13.9714C38.1244 14.4792 35.5723 17.0443 35.0514 20.3255C26.9134 20.3255 18.7754 20.3255 10.6374 20.3255C10.1296 17.0443 7.56445 14.4922 4.2832 13.9714C4.2832 12.1484 4.2832 10.3255 4.2832 8.5026C7.56445 7.98177 10.1165 5.42969 10.6374 2.14844C18.7754 2.14844 26.9134 2.14844 35.0514 2.14844ZM24.0358 5.74219C23.9837 5.66406 24.0358 5.32552 23.9447 5.09115C23.6061 4.28385 22.3691 4.28385 22.0176 5.0651C21.666 5.84635 21.9134 5.6901 21.8223 5.84635C21.679 6.08073 20.6764 6.36719 20.2077 7.26562C19.2181 9.16667 20.0775 10.625 21.8353 11.5104C22.4212 11.8099 24.0879 12.1875 24.2702 12.7865C24.6478 13.9844 23.502 14.6484 22.4212 14.5443C21.3405 14.4401 20.7676 13.4245 19.9212 14.2057C19.0749 14.987 20.0514 16.0026 20.9108 16.3542C21.7702 16.7057 21.8483 16.5755 21.8744 16.6016C21.9785 16.7187 21.7572 17.5521 22.5254 17.8516C23.2936 18.151 23.2546 18.0339 23.6452 17.7214C24.2441 17.2266 23.9056 16.7578 24.0488 16.5104C24.1921 16.263 24.8301 16.1719 24.9994 16.0547C26.9395 14.6745 27.0566 11.7318 24.9342 10.4688C24.3874 10.1432 22.1478 9.45312 22.0176 8.9974C21.7832 8.17708 22.5645 7.77344 23.2806 7.82552C23.9967 7.8776 24.4264 8.34635 24.9473 8.30729C25.8197 8.24219 26.2754 7.14844 25.6895 6.4974C25.377 6.14583 24.0879 5.83333 24.0358 5.75521V5.74219ZM10.4811 10.4818C9.93425 11.0547 10.2988 12.1745 11.0931 12.2917C11.8874 12.4089 14.0879 12.3698 14.5827 12.2786C15.7155 12.0443 15.7155 10.3776 14.5827 10.1693C13.9837 10.0651 11.8223 10.0651 11.1842 10.1432C10.5462 10.2214 10.6374 10.3125 10.4941 10.4688L10.4811 10.4818ZM31.1322 10.1823C30.0514 10.3776 29.9733 11.9792 31.054 12.2656C31.4967 12.3828 34.1139 12.3828 34.6217 12.3047C35.6634 12.1354 35.8066 10.4818 34.778 10.2083C34.3223 10.0911 31.64 10.0911 31.1322 10.1823Z" fill="#FEFEFE"/>
<path d="M45.7031 6.44531V24.6094H8.59375V22.4609H42.7214C42.9427 22.4609 43.5547 21.849 43.5547 21.6276V6.44531H45.7031Z" fill="#FEFEFE"/>
<path d="M10.651 2.14844C10.1432 5.42969 7.57813 7.98177 4.29688 8.5026C4.29688 7.76042 4.29688 7.00521 4.29688 6.26302C6.28906 5.95052 8.08594 4.15365 8.39844 2.16146C9.14063 2.16146 9.89583 2.16146 10.638 2.16146L10.651 2.14844Z" fill="#4065D3"/>
<path d="M10.6517 20.3123C9.90951 20.3123 9.1543 20.3123 8.41211 20.3123C8.12565 18.3332 6.28971 16.4972 4.31055 16.2108C4.31055 15.4686 4.31055 14.7134 4.31055 13.9712C7.5918 14.479 10.1439 17.0441 10.6647 20.3254L10.6517 20.3123Z" fill="#4065D3"/>
<path d="M41.4056 13.9583C41.4056 14.7005 41.4056 15.4557 41.4056 16.1979C39.4134 16.4844 37.6035 18.3203 37.304 20.2995C36.5619 20.2995 35.8066 20.2995 35.0645 20.2995C35.5853 17.0182 38.1374 14.4661 41.4186 13.9453L41.4056 13.9583Z" fill="#4065D3"/>
<path d="M37.3053 2.14827C37.6178 4.14046 39.4147 5.93734 41.4069 6.24984C41.4069 6.99202 41.4069 7.74723 41.4069 8.48942C38.1256 7.96859 35.5736 5.4165 35.0527 2.13525C35.7949 2.13525 36.5501 2.13525 37.2923 2.13525L37.3053 2.14827Z" fill="#4065D3"/>
<path d="M8.39844 20.3125C7.03125 20.3125 5.66406 20.3125 4.29688 20.3125C4.29688 18.9453 4.29688 17.5781 4.29688 16.2109C6.27604 16.4974 8.11198 18.3333 8.39844 20.3125Z" fill="#FEFEFE"/>
<path d="M41.4062 16.2109C41.4062 17.5781 41.4062 18.9453 41.4062 20.3125C40.0391 20.3125 38.6719 20.3125 37.3047 20.3125C37.6042 18.3333 39.4141 16.4974 41.4062 16.2109Z" fill="#FEFEFE"/>
<path d="M8.39844 2.14844C8.08594 4.14062 6.28906 5.9375 4.29688 6.25C4.29688 4.88281 4.29688 3.51562 4.29688 2.14844C5.66406 2.14844 7.03125 2.14844 8.39844 2.14844Z" fill="#FEFEFE"/>
<path d="M37.3047 2.14844C38.6719 2.14844 40.0391 2.14844 41.4062 2.14844C41.4062 3.51562 41.4062 4.88281 41.4062 6.25C39.4141 5.9375 37.6172 4.14062 37.3047 2.14844Z" fill="#FEFEFE"/>
<path d="M10.9375 45.8073V33.6979C12.9557 32.5391 15.1693 32.0964 17.4609 32.6953C19.5964 33.2552 20.7682 34.8438 22.7344 35.625C24.5964 36.3672 26.4844 36.2891 28.3464 36.7448C30.8333 37.3698 30.3385 40.8333 27.7865 40.7162C25.638 40.612 23.112 39.7005 20.9505 39.6354C19.401 39.5964 19.1667 41.3021 20.5208 41.7188C24.0625 41.849 28.8411 44.5182 31.4714 41.0807L44.5182 36.0677C46.3411 35.6641 47.6432 37.8125 46.4193 39.2448C45.1953 40.6771 45.7292 39.7266 45.3385 39.9219C40.9115 42.0703 35.612 44.2708 31.0156 46.1068C24.5703 48.6719 22.474 46.8359 16.3411 46.0026C14.5313 45.7552 12.7604 45.7682 10.9375 45.7943V45.8073Z" fill="#FEFEFE"/>
<path d="M8.78906 31.25H3.125V47.8516H8.78906V31.25Z" fill="#FEFEFE"/>
<path d="M24.0367 5.74206C24.0888 5.82019 25.3778 6.13269 25.6903 6.48425C26.2763 7.14831 25.8205 8.24207 24.9481 8.29415C24.0758 8.34623 23.8544 7.85144 23.2815 7.81238C22.7086 7.77332 21.7841 8.16394 22.0185 8.98425C22.2528 9.80457 24.3882 10.1301 24.9351 10.4556C27.0575 11.7316 26.9273 14.6744 25.0002 16.0415C24.8179 16.1718 24.0757 16.4582 24.0497 16.4973C23.9065 16.7447 24.245 17.2134 23.6461 17.7082C23.0471 18.203 22.982 18.0207 22.5263 17.8384C21.758 17.5259 21.9794 16.7056 21.8752 16.5884C21.7711 16.4712 21.133 16.4322 20.9117 16.341C20.0653 15.9764 18.9325 15.104 19.9221 14.1926C20.9117 13.2811 21.4976 14.427 22.4221 14.5311C23.3466 14.6353 24.6487 13.9843 24.2711 12.7733C23.8935 11.5624 22.4221 11.7968 21.8362 11.4973C20.0784 10.6119 19.219 9.16654 20.2086 7.25248C21.1981 5.33842 21.6799 6.06759 21.8231 5.83321C21.9664 5.59884 21.9013 5.29936 22.0185 5.05196C22.383 4.27071 23.607 4.27071 23.9455 5.078C24.2841 5.88529 23.9846 5.6379 24.0367 5.72904V5.74206Z" fill="#4065D3"/>
<path d="M31.1327 10.1821C31.6405 10.091 34.3228 10.091 34.7786 10.2082C35.8072 10.4816 35.664 12.1352 34.6223 12.3045C33.5806 12.4738 31.5103 12.3826 31.0546 12.2654C29.9739 11.979 30.039 10.3774 31.1327 10.1821Z" fill="#4065D3"/>
<path d="M10.483 10.4818C10.6392 10.3255 10.9517 10.1823 11.1731 10.1563C11.8111 10.0781 13.9725 10.0781 14.5715 10.1823C15.7043 10.3906 15.7173 12.0573 14.5715 12.2917C14.0767 12.3959 11.6027 12.3959 11.0819 12.3047C10.2876 12.1745 9.92306 11.0677 10.4699 10.4948L10.483 10.4818Z" fill="#4065D3"/>
</g>
<defs>
<clipPath id="clip0_1373_31053">
<rect width="50" height="50" fill="white"/>
</clipPath>
</defs>
</svg>
