<svg width="50" height="50" viewBox="0 0 50 50" fill="none" xmlns="http://www.w3.org/2000/svg">
<g clip-path="url(#clip0_1373_31048)">
<g clip-path="url(#clip1_1373_31048)">
<path d="M40.2338 -0.104492C40.6245 0.129883 41.0151 0.520508 41.0151 1.0153V11.8096H46.1453C46.6401 11.8096 47.0307 12.7861 46.9786 13.2158V45.6377C46.8224 47.8773 45.6896 49.3877 43.463 49.8825H6.35362C4.69998 49.3877 3.38487 48.1898 3.13748 46.4189V0.911133C3.09841 0.416341 3.48904 0.168945 3.81456 -0.104492H40.2469H40.2338ZM38.7755 2.04395H5.27289V46.3278C5.27289 46.8486 6.37966 47.7471 6.88748 47.7471H39.2573C39.101 47.3304 38.7625 46.5622 38.7625 46.1325V2.04395H38.7755ZM44.726 13.958H40.9239V45.846C40.9239 45.8981 41.0672 46.471 41.0932 46.5492C41.562 47.7731 43.1114 48.0986 44.114 47.2913C45.1166 46.4841 44.726 46.5231 44.726 46.432V13.958Z" fill="#140505"/>
<path d="M38.776 2.04395V46.1325C38.776 46.5622 39.1146 47.3304 39.2708 47.7471H6.88802C6.38021 47.7471 5.27344 46.8486 5.27344 46.3278V2.04395H38.763H38.776ZM9.3099 19.7783C9.41406 19.8825 9.63542 19.9736 9.76563 20.0648L33.9453 20.1169C34.8177 20.0778 35 19.4528 35.0651 18.6976C34.8438 14.9867 35.3516 10.9372 35.0651 7.2653C35.013 6.51009 34.8177 5.88509 33.9453 5.84603C25.8724 5.91113 17.7604 5.74186 9.70052 5.92415C9.11458 6.17155 9.03646 6.69238 8.98438 7.2653C8.69792 10.9372 9.21875 14.9867 8.98438 18.6976C9.03646 19.0622 9.0625 19.5049 9.3099 19.7783ZM34.7266 25.7419C35.3125 25.1299 34.8828 23.9971 34.0365 23.9189H10.013C8.93229 24.0492 8.6849 25.5726 9.70052 25.9893C17.8776 26.1455 26.1068 26.0804 34.2839 26.0283C34.4141 25.9372 34.6354 25.8591 34.7396 25.7419H34.7266ZM9.83073 29.8955C8.86719 30.2861 8.78906 31.432 9.6875 31.9528C17.8776 32.07 26.1458 32.07 34.349 31.9528C35.3255 31.4059 35.1172 30.0778 34.0365 29.8825L9.83073 29.9085V29.8955ZM9.83073 35.8591C9.50521 36.0023 9.11458 36.3018 9.07552 36.6663C8.8151 38.6064 9.28385 41.1195 9.07552 43.1247C9.1276 43.5283 9.66146 43.9841 10.1042 43.958C12.9557 43.7367 16.1979 44.2314 18.9974 43.958C21.7969 43.6846 20.0391 43.5804 20.1172 42.9294C20.2734 41.6273 20.2474 38.2939 20.1172 36.9658C19.987 35.6377 19.8568 36.0804 19.3359 35.8981L9.83073 35.8721V35.8591ZM34.7266 36.1585C34.5833 36.0023 34.2448 35.846 34.0365 35.833C31.1849 36.0934 27.7344 35.4945 24.9479 35.833C23.5938 36.0023 23.5938 37.7992 24.8568 37.9684H34.0365C34.9089 37.9424 35.2995 36.7575 34.7266 36.1585ZM24.7786 41.8096C23.6068 42.1611 23.6589 43.6585 24.8568 43.932H34.0365C35.2474 43.7106 35.2995 42.1351 34.1276 41.7966H24.7786V41.8096Z" fill="#FEFEFE"/>
<path d="M44.7259 13.958V46.432C44.7259 46.5361 44.2441 47.1872 44.1139 47.2913C43.1113 48.0986 41.5488 47.7731 41.0931 46.5492C41.0671 46.471 40.9238 45.8851 40.9238 45.846V13.958H44.7259Z" fill="#FEFEFE"/>
<path d="M9.30861 19.7781C9.04819 19.5046 9.03517 19.0489 8.98309 18.6973C9.21746 14.9864 8.69663 10.9369 8.98309 7.26505C9.26955 3.59317 9.1133 6.1713 9.69924 5.9239C17.7591 5.74161 25.8711 5.89786 33.944 5.84578C34.8164 5.88484 35.0117 6.50984 35.0638 7.26505C35.3503 10.9369 34.8425 14.9864 35.0638 18.6973C34.9987 19.4525 34.8164 20.0775 33.944 20.1166L9.76434 20.0645C9.63413 19.9734 9.41278 19.8953 9.30861 19.7781ZM32.8112 7.99421H11.2227V17.9552H32.8112V7.99421Z" fill="#4065D3"/>
<path d="M9.83043 35.8587L19.3356 35.8848C19.8565 36.0671 20.0648 36.4186 20.1169 36.9525C20.2471 38.2806 20.2731 41.6139 20.1169 42.916C19.9606 44.2181 19.6221 43.8796 18.9971 43.9447C16.1846 44.2181 12.9554 43.7233 10.1039 43.9447C9.67418 43.9707 9.1273 43.515 9.07522 43.1113C9.28355 41.1061 8.8148 38.5931 9.07522 36.653C9.1273 36.2884 9.50491 35.9889 9.83043 35.8457V35.8587ZM17.9685 37.9811H11.2237V41.7832H17.9685V37.9811Z" fill="#4065D3"/>
<path d="M34.7278 25.7419C34.6236 25.846 34.4153 25.9372 34.272 26.0283C26.095 26.0804 17.8528 26.1455 9.6887 25.9893C8.67307 25.5726 8.92047 24.0492 10.0012 23.9189H34.0246C34.871 23.9971 35.3007 25.1299 34.7147 25.7419H34.7278Z" fill="#140505"/>
<path d="M9.83092 29.8952L34.0366 29.8691C35.1304 30.0775 35.3257 31.4056 34.3491 31.9395C26.159 32.0566 17.8908 32.0566 9.68769 31.9395C8.78925 31.4186 8.86737 30.2728 9.83092 29.8822V29.8952Z" fill="#4065D3"/>
<path d="M34.7259 36.1583C35.2988 36.7572 34.9082 37.9421 34.0358 37.9812H24.8561C23.5931 37.7859 23.5931 35.989 24.9472 35.8328C27.7337 35.4942 31.1842 36.0932 34.0358 35.8328C34.2571 35.8458 34.5827 36.015 34.7259 36.1583Z" fill="#140505"/>
<path d="M24.778 41.8096H34.127C35.2988 42.1351 35.2598 43.7106 34.0358 43.932H24.8561C23.6582 43.6455 23.6061 42.1611 24.778 41.8096Z" fill="#4065D3"/>
<path d="M32.8132 7.99414H11.2246V17.9551H32.8132V7.99414Z" fill="#FEFEFE"/>
<path d="M17.9694 37.9814H11.2246V41.7835H17.9694V37.9814Z" fill="#FEFEFE"/>
</g>
</g>
<defs>
<clipPath id="clip0_1373_31048">
<rect width="50" height="50" fill="white"/>
</clipPath>
<clipPath id="clip1_1373_31048">
<rect width="50" height="50" fill="white" transform="translate(0 -0.104492)"/>
</clipPath>
</defs>
</svg>
