<svg width="50" height="50" viewBox="0 0 50 50" fill="none" xmlns="http://www.w3.org/2000/svg">
<g clip-path="url(#clip0_1373_31043)">
<g clip-path="url(#clip1_1373_31043)">
<path d="M46.5888 -0.104492C48.3726 0.312175 49.5054 1.47103 50.0002 3.21582V7.79915C49.7528 8.90592 49.5836 10.0127 49.245 11.0934C47.8388 15.5335 44.2841 19.2575 39.9742 20.9632C39.3362 21.2106 37.8518 21.5361 37.4091 21.8226C36.9664 22.1091 36.4195 23.2288 36.133 23.5674C34.3362 25.7679 31.8362 27.3825 29.1148 28.2288C29.219 29.3096 28.7893 31.0544 29.4143 31.9528C30.0263 32.8382 30.8596 32.6429 31.758 32.8252C34.6096 33.3981 35.2867 36.0934 35.0523 38.6585H36.9534C37.2528 38.6585 37.982 39.1794 37.982 39.4919V47.7471H40.1825C40.2476 47.7471 40.6252 48.0075 40.7034 48.0986C41.2372 48.7236 40.9117 49.557 40.2216 49.8955H9.76586C9.1018 49.557 8.75023 48.7627 9.27107 48.1117C9.7919 47.4606 9.77888 47.7471 9.80492 47.7471H12.0054V39.596C12.0315 39.1663 12.6435 38.6585 13.0341 38.6585H14.9351C14.8179 36.5231 15.0133 34.3617 17.0836 33.2288C18.1122 32.6689 19.4403 32.9163 20.2086 32.3434C21.3674 31.4841 20.7554 29.4658 20.8856 28.2158C18.1643 27.3695 15.6773 25.7679 13.8674 23.5544C12.0575 21.3408 12.8778 22.0179 12.5914 21.7966C12.1617 21.471 10.0914 20.9372 9.37523 20.6247C5.37784 18.8538 2.12263 15.3252 0.781483 11.1585C-0.559663 6.99186 0.27367 8.97103 0.000232561 7.8903V3.12467C0.312733 2.47363 0.495024 1.8877 0.976795 1.31478C1.45857 0.741862 2.34398 0.312175 3.2294 -0.104492H46.5888ZM9.17992 2.04395H3.65909C3.62002 2.04395 3.07315 2.29134 2.99502 2.35645C2.5393 2.65592 2.21377 3.21582 2.14867 3.7627C1.95336 5.44238 2.17471 8.03353 2.59138 9.67415C3.69815 14.0361 6.9794 17.5257 11.1851 19.0492L9.17992 2.05697V2.04395ZM38.6721 2.04395H11.3284L12.9039 16.3408C13.6461 20.8591 16.6929 24.4007 20.9508 25.9762C21.9664 26.3538 22.982 26.1585 23.1383 27.4997C23.4768 30.3643 23.2685 34.1533 19.857 34.8304C18.9846 35.0127 18.1773 34.8304 17.5523 35.6507C16.9273 36.471 17.2008 36.2497 17.2008 36.2757V38.6716H32.8258V36.2757C32.8258 36.2367 32.5263 35.7158 32.4742 35.6507C31.8492 34.8304 31.0419 35.0127 30.1695 34.8304C28.8804 34.57 27.5914 33.5413 27.1617 32.2783C26.8101 31.2367 26.732 28.5023 26.8752 27.3955C27.0185 26.2887 28.1513 26.3148 29.0627 25.9762C33.3205 24.3877 36.3544 20.8721 37.1096 16.3408L38.6851 2.04395H38.6721ZM38.6721 19.1273C43.8414 17.3825 47.5263 12.4216 47.8518 6.97884C47.9039 6.14551 47.956 4.34863 47.8258 3.5804C47.6955 2.81217 46.9403 2.13509 46.1461 2.04395C44.4924 1.86165 42.5133 2.18717 40.8205 2.04395L39.3492 15.846L38.6851 19.1273H38.6721ZM35.8336 40.807H14.1669V47.7341H35.8466V40.807H35.8336Z" fill="#140505"/>
<path d="M46.5879 -0.104492H49.9994V3.21582C49.4915 1.47103 48.3717 0.312175 46.5879 -0.104492Z" fill="#FEFEFE"/>
<path d="M3.22917 -0.104492C2.35677 0.312175 1.6276 0.533529 0.976563 1.31478C0.325521 2.09603 0.3125 2.46061 0 3.12467V-0.104492H3.22917Z" fill="#FEFEFE"/>
<path d="M38.6712 2.04395L37.0957 16.3408C36.3535 20.8721 33.3066 24.3877 29.0488 25.9762C24.791 27.5648 27.0176 26.1976 26.8613 27.3955C26.7051 28.5934 26.7962 31.2367 27.1478 32.2783C27.5775 33.5413 28.8665 34.57 30.1556 34.8304C31.4447 35.0908 31.8353 34.8304 32.4603 35.6507C32.5124 35.7158 32.8118 36.2497 32.8118 36.2757V38.6716H17.1868V36.2757C17.1868 36.2367 17.4863 35.7158 17.5384 35.6507C18.1634 34.8304 18.9707 35.0127 19.8431 34.8304C23.2676 34.1403 23.4759 30.3643 23.1243 27.4997C22.9681 26.1585 21.9525 26.3538 20.9368 25.9762C16.6921 24.4007 13.6322 20.8591 12.89 16.3408L11.3145 2.04395H38.6582H38.6712ZM24.778 5.87207C24.6348 5.89811 24.4915 5.96322 24.3613 6.04134C23.7103 6.48405 23.0332 8.80176 22.4603 9.50488C22.1348 9.77832 19.5697 9.92155 18.9186 10.0648C18.2676 10.208 17.7728 10.7809 18.0072 11.5101C18.2415 12.2393 20.3249 13.6195 20.7806 14.3096C20.9889 15.0127 20.1816 17.1351 20.2207 17.9945C20.2598 18.8538 20.9499 19.1663 21.679 18.9841C22.5514 18.7497 23.8145 17.7471 24.7259 17.4476C25.6374 17.1481 24.9212 17.3564 25.0384 17.3695C26.3926 17.6689 29.2051 20.4554 29.778 17.9945C29.778 17.1481 29.0098 14.9997 29.2181 14.3096C29.4264 13.6195 31.4447 12.3564 31.8353 11.7575C32.2259 11.1585 32.0957 10.7028 31.6921 10.3382C31.0801 9.79134 28.4629 9.88249 27.5905 9.55697C26.9525 8.86686 26.2363 6.2627 25.4421 5.9502C24.6478 5.6377 25.0254 5.84603 24.778 5.88509V5.87207Z" fill="#FEFEFE"/>
<path d="M35.8457 40.8066H14.166V47.7337H35.8457V40.8066Z" fill="#FEFEFE"/>
<path d="M24.7794 5.87174C25.0268 5.83268 25.2091 5.8457 25.4435 5.93685C26.2378 6.24935 26.9539 8.85351 27.5919 9.54362C28.4643 9.88216 31.0685 9.77799 31.6935 10.3249C32.3185 10.8717 32.1232 11.3014 31.8367 11.7441C31.5503 12.1868 29.3367 13.9316 29.2195 14.2962C29.0112 14.9863 29.7794 17.1348 29.7794 17.9811C29.2065 20.4421 26.407 17.6556 25.0399 17.3561C24.9227 17.3301 24.8315 17.3952 24.7274 17.4342C23.8029 17.7337 22.5529 18.7493 21.6805 18.9707C20.9513 19.166 20.2482 18.7754 20.2222 17.9811C20.1961 17.1868 20.9904 14.9993 20.782 14.2962C20.3263 13.6061 18.23 12.1738 18.0086 11.4967C17.7873 10.8197 18.23 10.2207 18.9201 10.0514C19.6102 9.88216 22.1362 9.75195 22.4617 9.49153C23.0347 8.78841 23.7117 6.4707 24.3628 6.02799C25.0138 5.58528 24.6232 5.88476 24.7794 5.85872V5.87174ZM25.0919 9.37435C24.8706 9.32226 24.9357 9.40039 24.8706 9.50456C24.532 10.0384 24.2195 11.2233 23.6597 11.5098C23.0998 11.7962 22.0971 11.7181 21.4721 11.9134C21.407 12.0046 22.8914 13.2546 22.9956 13.5671C23.2169 14.2962 22.7873 15.2728 22.7482 16.015C23.4643 15.8848 24.2456 15.0514 24.9487 15.0384C25.6518 15.0254 26.5242 15.8327 27.2404 16.015C27.2013 15.2728 26.7716 14.2962 26.993 13.5671C27.2143 12.8379 28.5815 12.0046 28.5164 11.9134C27.8654 11.6921 26.8367 11.8092 26.2768 11.4707C25.7169 11.1322 25.3654 9.92122 25.105 9.37435H25.0919Z" fill="#4065D3"/>
<path d="M25.0921 9.37434C25.3525 9.92122 25.7692 11.1712 26.264 11.4707C26.7588 11.7702 27.8655 11.6921 28.5036 11.9134C28.5687 12.0046 27.0843 13.2545 26.9801 13.567C26.7588 14.2962 27.1884 15.2728 27.2275 16.015C26.5114 15.8327 25.6911 15.0124 24.9358 15.0384C24.1806 15.0644 23.4515 15.8848 22.7353 16.015C22.7744 15.2728 23.2041 14.2962 22.9827 13.567C22.7614 12.8379 21.3942 12.0046 21.4593 11.9134C22.0843 11.7181 23.0739 11.8092 23.6468 11.5098C24.2197 11.2103 24.5062 10.0254 24.8577 9.50455C25.2093 8.98372 24.8577 9.33528 25.0791 9.37434H25.0921Z" fill="#FEFEFE"/>
</g>
</g>
<defs>
<clipPath id="clip0_1373_31043">
<rect width="50" height="50" fill="white"/>
</clipPath>
<clipPath id="clip1_1373_31043">
<rect width="50" height="50" fill="white" transform="translate(0 -0.104492)"/>
</clipPath>
</defs>
</svg>
