<svg width="52" height="52" viewBox="0 0 52 52" fill="none" xmlns="http://www.w3.org/2000/svg">
<rect width="52" height="52" rx="10" fill="#7DA0F9" fill-opacity="0.3"/>
<path d="M15.6457 38.2946C14.9338 38.2946 14.3247 38.0413 13.8182 37.5348C13.3117 37.0283 13.058 36.4187 13.0571 35.706V21.4688C13.0571 20.757 13.3108 20.1478 13.8182 19.6413C14.3255 19.1348 14.9347 18.8811 15.6457 18.8803H20.8229V16.2917C20.8229 15.5798 21.0765 14.9707 21.5839 14.4642C22.0913 13.9577 22.7004 13.704 23.4114 13.7031H28.5886C29.3004 13.7031 29.91 13.9568 30.4174 14.4642C30.9248 14.9715 31.178 15.5807 31.1771 16.2917V18.8803H36.3543C37.0662 18.8803 37.6758 19.134 38.1831 19.6413C38.6905 20.1487 38.9437 20.7579 38.9429 21.4688V35.706C38.9429 36.4179 38.6896 37.0275 38.1831 37.5348C37.6766 38.0422 37.067 38.2954 36.3543 38.2946H15.6457ZM15.6457 35.706H36.3543V21.4688H15.6457V35.706ZM23.4114 18.8803H28.5886V16.2917H23.4114V18.8803Z" fill="#4065D3"/>
</svg>
